<svg width="16" height="16" viewBox="0 0 16 16" fill="none" xmlns="http://www.w3.org/2000/svg">
<g clip-path="url(#clip0_3778_63086)">
<path d="M10.6064 8.08134L16.0004 11.4913V4.52734L10.6064 8.08134Z" fill="#65CDF0"/>
<path d="M0 4.52734V11.4913L5.394 8.08134L0 4.52734Z" fill="#65CDF0"/>
<path d="M15.0003 2.5H1.00027C0.501273 2.5 0.105273 2.872 0.0302734 3.351L8.00027 8.602L15.9703 3.351C15.8953 2.872 15.4993 2.5 15.0003 2.5Z" fill="#65CDF0"/>
<path d="M9.69023 8.68459L8.27523 9.61659C8.19123 9.67159 8.09623 9.69859 8.00023 9.69859C7.90423 9.69859 7.80923 9.67159 7.72523 9.61659L6.31023 8.68359L0.0322266 12.6546C0.109227 13.1296 0.503227 13.4986 1.00023 13.4986H15.0002C15.4972 13.4986 15.8912 13.1296 15.9682 12.6546L9.69023 8.68459Z" fill="#65CDF0"/>
</g>
<defs>
<clipPath id="clip0_3778_63086">
<rect width="16" height="16" fill="white"/>
</clipPath>
</defs>
</svg>
