<svg width="43" height="43" viewBox="0 0 43 43" fill="none" xmlns="http://www.w3.org/2000/svg">
<path d="M41.8449 18.7029C41.8439 18.7019 41.843 18.701 41.842 18.7L24.2996 1.16003C23.5519 0.412048 22.5577 0 21.5003 0C20.4428 0 19.4487 0.41172 18.7006 1.15971L1.16741 18.6908C1.16151 18.6967 1.1556 18.7029 1.1497 18.7088C-0.385798 20.253 -0.383174 22.7585 1.15724 24.2987C1.86101 25.0027 2.79051 25.4105 3.78432 25.4532C3.82468 25.4571 3.86536 25.4591 3.90637 25.4591H4.60555V38.3674C4.60555 40.9217 6.68405 43 9.23927 43H16.1024C16.798 43 17.3623 42.4361 17.3623 41.7402V31.6201C17.3623 30.4545 18.3105 29.5064 19.4762 29.5064H23.5243C24.69 29.5064 25.6382 30.4545 25.6382 31.6201V41.7402C25.6382 42.4361 26.2022 43 26.8981 43H33.7613C36.3165 43 38.395 40.9217 38.395 38.3674V25.4591H39.0433C40.1004 25.4591 41.0946 25.0474 41.843 24.2994C43.385 22.7565 43.3857 20.2468 41.8449 18.7029Z" fill="#EE2E7E"/>
</svg>
