<svg width="24" height="24" viewBox="0 0 24 24" fill="none" xmlns="http://www.w3.org/2000/svg">
<path d="M13.8398 20.5912C12.8724 20.8504 11.8765 20.9877 10.8751 21C-2.626 20.7613 -2.62386 0.986737 10.8755 0.75C18.9769 0.89325 22.2137 8.07045 20.5919 13.84C20.0035 13.6164 19.3795 13.5012 18.7501 13.5C18.7425 13.5 18.7355 13.5011 18.728 13.5011C20.1989 8.78786 17.5819 2.79926 10.8753 2.625C-0.123698 2.90925 -0.126098 18.8391 10.8751 19.125C11.7654 19.107 12.6492 18.9679 13.502 18.7115C13.502 18.7244 13.5001 18.737 13.5001 18.75C13.5013 19.3792 13.6163 20.003 13.8398 20.5912ZM10.8753 5.55832C7.12505 5.50721 7.12505 11.2333 10.8751 11.1825C14.6251 11.2338 14.6251 5.50766 10.8753 5.55832ZM15.9433 14.3209C16.2672 12.6774 15.4756 10.853 13.7833 10.4209C12.5239 12.4006 9.2258 12.4002 7.96655 10.4209C7.33329 10.5964 6.77518 10.975 6.37801 11.4986C5.98083 12.0221 5.76656 12.6616 5.76811 13.3187C5.6687 14.2623 5.90011 15.4054 6.98653 15.6097C9.4433 16.3128 12.0454 16.3315 14.5121 15.664C14.9011 15.1308 15.3865 14.6752 15.9433 14.3209ZM18.7501 23.25C12.7498 23.219 12.7503 14.28 18.7503 14.25C24.7503 14.281 24.7498 23.22 18.7501 23.25ZM20.2958 16.6956L18.2601 20.4276L16.7344 19.2071C16.6564 19.1482 16.5586 19.1222 16.4617 19.1343C16.3647 19.1465 16.2764 19.196 16.2154 19.2723C16.1543 19.3485 16.1255 19.4456 16.1349 19.5428C16.1443 19.6401 16.1912 19.7298 16.2657 19.793L18.1407 21.293C18.1836 21.3268 18.2334 21.3509 18.2866 21.3635C18.3398 21.3762 18.3951 21.3772 18.4487 21.3664C18.5023 21.3556 18.5529 21.3333 18.597 21.301C18.6411 21.2687 18.6777 21.2272 18.7043 21.1794L20.9543 17.0544C20.9997 16.9673 21.0092 16.8658 20.9805 16.7718C20.9519 16.6778 20.8876 16.5987 20.8013 16.5517C20.715 16.5047 20.6137 16.4934 20.5191 16.5203C20.4246 16.5472 20.3444 16.6101 20.2958 16.6956Z" fill="#65CDF0"/>
</svg>
