<svg width="24" height="24" viewBox="0 0 24 24" fill="none" xmlns="http://www.w3.org/2000/svg">
<path d="M13.8397 20.5912C12.8723 20.8504 11.8764 20.9877 10.875 21C-2.62613 20.7613 -2.62399 0.986737 10.8754 0.75C18.9768 0.89325 22.2136 8.07045 20.5917 13.84C20.0033 13.6164 19.3793 13.5012 18.75 13.5C18.7441 13.5 18.7383 13.5009 18.7324 13.5009C20.1934 8.766 17.5749 2.74339 10.8753 2.625C-0.124168 2.81783 -0.125892 18.9306 10.875 19.125C11.7643 19.1145 12.648 18.9815 13.501 18.7297C13.501 18.7366 13.5 18.7432 13.5 18.75C13.5012 19.3792 13.6163 20.003 13.8397 20.5912ZM10.875 5.55799C7.12496 5.62357 7.12455 11.1169 10.875 11.183C14.6247 11.1174 14.6252 5.6241 10.875 5.55799ZM15.9431 14.3209C16.2669 12.6775 15.4754 10.8526 13.7834 10.4209C12.524 12.4009 9.22575 12.4004 7.9665 10.4209C7.33323 10.5965 6.77515 10.9751 6.37801 11.4987C5.98088 12.0222 5.76667 12.6617 5.76832 13.3189C5.66891 14.2624 5.90025 15.4062 6.98655 15.6099C9.44331 16.313 12.0454 16.3317 14.5121 15.6641C14.901 15.131 15.3864 14.6754 15.9431 14.3209ZM18.75 23.25C12.7495 23.1439 12.7504 14.3552 18.75 14.25C24.7504 14.356 24.7495 23.1448 18.75 23.25ZM21 18.375H16.5C16.4005 18.375 16.3051 18.4145 16.2348 18.4848C16.1645 18.5552 16.125 18.6505 16.125 18.75C16.125 18.8495 16.1645 18.9448 16.2348 19.0152C16.3051 19.0855 16.4005 19.125 16.5 19.125H21C21.0994 19.125 21.1948 19.0855 21.2651 19.0152C21.3354 18.9448 21.375 18.8495 21.375 18.75C21.375 18.6505 21.3354 18.5552 21.2651 18.4848C21.1948 18.4145 21.0994 18.375 21 18.375Z" fill="#65CDF0"/>
</svg>
