<svg width="13" height="12" viewBox="0 0 13 12" fill="none" xmlns="http://www.w3.org/2000/svg">
<path d="M9.2542 12H0.771183C0.566653 12 0.370499 11.9188 0.225874 11.7741C0.0812496 11.6295 0 11.4333 0 11.2288V5.16732C2.01437e-06 4.96732 0.0777018 4.77514 0.216703 4.63135L4.45821 0.235602C4.53014 0.161085 4.61634 0.101819 4.71167 0.0613401C4.807 0.0208616 4.90951 0 5.01308 0C5.11664 0 5.21915 0.0208616 5.31448 0.0613401C5.40981 0.101819 5.49601 0.161085 5.56794 0.235602L7.72725 2.47203L6.62446 3.55323L5.01269 1.88208L1.54237 5.47579V10.4538H10.0254V11.225C10.0259 11.3266 10.0063 11.4273 9.96779 11.5213C9.92926 11.6153 9.87254 11.7007 9.80087 11.7728C9.72921 11.8448 9.64403 11.9019 9.55021 11.9409C9.45639 11.9799 9.35579 12 9.2542 12ZM7.93393 8.91527L5.84711 6.83307L6.94065 5.73954L7.93702 6.73513L11.2531 3.42522L12.3389 4.51798L7.93393 8.91373V8.91527Z" fill="#1890FF"/>
</svg>
