<svg width="22" height="21" viewBox="0 0 22 21" fill="none" xmlns="http://www.w3.org/2000/svg">
<path d="M3.47522 13.7154L7.7537 9.42969" stroke="#21B8C7" stroke-width="1.71627" stroke-linecap="round" stroke-linejoin="round"/>
<path d="M8.60936 9.43304C9.08195 9.43304 9.46505 9.04928 9.46505 8.57589C9.46505 8.10251 9.08195 7.71875 8.60936 7.71875C8.13677 7.71875 7.75366 8.10251 7.75366 8.57589C7.75366 9.04928 8.13677 9.43304 8.60936 9.43304Z" stroke="#21B8C7" stroke-width="1.71627" stroke-linecap="round" stroke-linejoin="round"/>
<path d="M12.8879 13.7143C13.3605 13.7143 13.7436 13.3305 13.7436 12.8571C13.7436 12.3838 13.3605 12 12.8879 12C12.4153 12 12.0322 12.3838 12.0322 12.8571C12.0322 13.3305 12.4153 13.7143 12.8879 13.7143Z" stroke="#21B8C7" stroke-width="1.71627" stroke-linecap="round" stroke-linejoin="round"/>
<path d="M13.7436 12.0022L18.8777 6.85938M9.46509 9.4308L12.0322 12.0022L9.46509 9.4308Z" stroke="#21B8C7" stroke-width="1.71627" stroke-linecap="round" stroke-linejoin="round"/>
</svg>
