<svg width="22" height="15" viewBox="0 0 22 15" fill="none" xmlns="http://www.w3.org/2000/svg">
<path d="M11 11.75C12.1834 11.75 13.1875 11.3375 14.0126 10.5125C14.8376 9.6875 15.2501 8.68333 15.2501 7.5C15.2501 6.31667 14.8376 5.3125 14.0126 4.4875C13.1875 3.6625 12.1834 3.25 11 3.25C9.81672 3.25 8.81255 3.6625 7.98755 4.4875C7.16255 5.3125 6.75005 6.31667 6.75005 7.5C6.75005 8.68333 7.16255 9.6875 7.98755 10.5125C8.81255 11.3375 9.81672 11.75 11 11.75ZM11 10.3C10.2167 10.3 9.55422 10.0292 9.01255 9.4875C8.47088 8.94583 8.20005 8.28333 8.20005 7.5C8.20005 6.71667 8.47088 6.05417 9.01255 5.5125C9.55422 4.97083 10.2167 4.7 11 4.7C11.7834 4.7 12.4459 4.97083 12.9876 5.5125C13.5292 6.05417 13.8001 6.71667 13.8001 7.5C13.8001 8.28333 13.5292 8.94583 12.9876 9.4875C12.4459 10.0292 11.7834 10.3 11 10.3ZM11 15C8.70005 15 6.60422 14.375 4.71255 13.125C2.82088 11.875 1.35838 10.225 0.325049 8.175C0.275049 8.09167 0.237549 7.99167 0.212549 7.875C0.187549 7.75833 0.175049 7.63333 0.175049 7.5C0.175049 7.36667 0.187549 7.24167 0.212549 7.125C0.237549 7.00833 0.275049 6.90833 0.325049 6.825C1.35838 4.775 2.82088 3.125 4.71255 1.875C6.60422 0.625 8.70005 0 11 0C13.3 0 15.3959 0.625 17.2876 1.875C19.1792 3.125 20.6417 4.775 21.6751 6.825C21.7251 6.90833 21.7626 7.00833 21.7876 7.125C21.8126 7.24167 21.8251 7.36667 21.8251 7.5C21.8251 7.63333 21.8126 7.75833 21.7876 7.875C21.7626 7.99167 21.7251 8.09167 21.6751 8.175C20.6417 10.225 19.1792 11.875 17.2876 13.125C15.3959 14.375 13.3 15 11 15Z" fill="#65CDF0"/>
</svg>
