<svg width="23" height="29" viewBox="0 0 23 29" fill="none" xmlns="http://www.w3.org/2000/svg">
<path d="M6.81461 22.1548C7.06817 22.0117 7.34528 21.872 7.64593 21.7393C7.39195 22.1043 7.11997 22.4574 6.83091 22.7973C6.32379 23.3857 5.92896 23.6982 5.68084 23.796C5.66024 23.8044 5.63906 23.8114 5.61745 23.8169C5.59937 23.7928 5.58361 23.767 5.57036 23.7401C5.46893 23.5481 5.47256 23.363 5.6428 23.1116C5.83479 22.8235 6.22056 22.4935 6.81461 22.1548ZM11.261 19.2793C11.0454 19.3229 10.8317 19.3666 10.6162 19.4155C10.9354 18.8125 11.2374 18.2012 11.5218 17.5823C11.8081 18.0937 12.1162 18.5935 12.4455 19.0803C12.0524 19.1361 11.6558 19.2025 11.261 19.2793ZM15.8341 20.9187C15.5528 20.7 15.2894 20.4607 15.0463 20.2029C15.4592 20.2116 15.8323 20.2413 16.1547 20.2972C16.7288 20.3967 16.9987 20.5538 17.0929 20.6621C17.1225 20.6923 17.1394 20.7322 17.1399 20.7738C17.1336 20.897 17.0963 21.0168 17.0313 21.123C16.9948 21.208 16.9361 21.2826 16.861 21.3395C16.8237 21.3616 16.7796 21.3708 16.7361 21.3657C16.5731 21.3604 16.2688 21.2504 15.8341 20.9187ZM11.8043 12.6326C11.7319 13.0586 11.6087 13.5475 11.4421 14.08C11.3807 13.8806 11.3269 13.6791 11.2809 13.4759C11.1432 12.8596 11.1233 12.376 11.1976 12.0407C11.2664 11.7317 11.3968 11.6078 11.5526 11.5466C11.6361 11.5111 11.7246 11.4876 11.8152 11.4768C11.8387 11.5292 11.8659 11.6374 11.8731 11.8225C11.8822 12.0355 11.8605 12.3061 11.8043 12.6343V12.6326Z" fill="#65CDF0"/>
<path fill-rule="evenodd" clip-rule="evenodd" d="M4.05491 0.464844H13.6413C14.1216 0.464943 14.5822 0.648952 14.9218 0.976397L21.6357 7.4485C21.9754 7.77585 22.1663 8.21986 22.1664 8.68286V24.9076C22.1664 25.8337 21.7847 26.7219 21.1054 27.3767C20.4261 28.0316 19.5048 28.3995 18.5441 28.3995H4.05491C3.09422 28.3995 2.17287 28.0316 1.49356 27.3767C0.81425 26.7219 0.432617 25.8337 0.432617 24.9076V3.95667C0.432617 3.03058 0.81425 2.14242 1.49356 1.48758C2.17287 0.832732 3.09422 0.464844 4.05491 0.464844V0.464844ZM14.0162 3.08372V6.57554C14.0162 7.03859 14.207 7.48267 14.5467 7.81009C14.8863 8.13751 15.347 8.32146 15.8273 8.32146H19.4496L14.0162 3.08372ZM4.35375 24.328C4.51675 24.6423 4.77031 24.9269 5.14703 25.0595C5.52193 25.1905 5.89322 25.1294 6.19749 25.0072C6.77344 24.7802 7.34757 24.2459 7.87461 23.6349C8.47772 22.9348 9.11162 22.0164 9.72379 20.9985C10.9056 20.6609 12.1159 20.4237 13.3406 20.2897C13.884 20.9584 14.4454 21.5345 14.9888 21.9483C15.4959 22.3324 16.0809 22.6519 16.6804 22.6764C17.0069 22.692 17.3302 22.6076 17.6041 22.4354C17.8848 22.2591 18.0931 22.0042 18.2452 21.7091C18.4082 21.3931 18.5078 21.0631 18.4952 20.7262C18.4837 20.394 18.356 20.0752 18.1329 19.8218C17.7236 19.3504 17.0535 19.1234 16.3942 19.0099C15.5945 18.8905 14.7831 18.8612 13.9764 18.9227C13.2951 17.9943 12.7011 17.0092 12.2014 15.979C12.6542 14.8267 12.9929 13.7373 13.1432 12.8469C13.2084 12.4663 13.2428 12.1031 13.2302 11.7749C13.2279 11.4491 13.1493 11.128 13.0002 10.8356C12.9142 10.6742 12.7921 10.5333 12.6427 10.4231C12.4933 10.3129 12.3203 10.2361 12.1362 10.1983C11.7704 10.1232 11.3937 10.1983 11.0477 10.3328C10.3649 10.5946 10.0045 11.1533 9.86868 11.7696C9.73647 12.3633 9.79624 13.0546 9.95199 13.753C10.1114 14.4618 10.383 15.2335 10.7308 16.014C10.1746 17.3475 9.53215 18.6461 8.80735 19.9021C7.87396 20.1852 6.97425 20.5627 6.12323 21.0282C5.45311 21.4123 4.85724 21.8663 4.49864 22.4023C4.1183 22.9714 4.00057 23.6488 4.35375 24.328Z" fill="#65CDF0"/>
</svg>
