<svg width="25" height="16" viewBox="0 0 25 16" fill="none" xmlns="http://www.w3.org/2000/svg">
<path d="M17.0989 7.31982C18.9625 7.31982 20.4555 5.88746 20.4555 4.11304C20.4555 2.33861 18.9625 0.90625 17.0989 0.90625C15.2354 0.90625 13.7311 2.33861 13.7311 4.11304C13.7311 5.88746 15.2354 7.31982 17.0989 7.31982ZM8.11804 7.31982C9.98157 7.31982 11.4746 5.88746 11.4746 4.11304C11.4746 2.33861 9.98157 0.90625 8.11804 0.90625C6.2545 0.90625 4.75021 2.33861 4.75021 4.11304C4.75021 5.88746 6.2545 7.31982 8.11804 7.31982ZM8.11804 9.45768C5.50236 9.45768 0.259766 10.7083 0.259766 13.1989V15.8712H15.9763V13.1989C15.9763 10.7083 10.7337 9.45768 8.11804 9.45768ZM17.0989 9.45768C16.7734 9.45768 16.4029 9.47906 16.01 9.51112C17.3122 10.409 18.2215 11.6169 18.2215 13.1989V15.8712H24.9572V13.1989C24.9572 10.7083 19.7146 9.45768 17.0989 9.45768Z" fill="#F7B923"/>
</svg>
