<svg xmlns="http://www.w3.org/2000/svg" width="208" height="79" viewBox="0 0 208 79" fill="none"><rect x="0.5" y="0.5" width="207" height="78" rx="4.5" stroke="black"></rect><path d="M81.215 31V24.7H84.257C84.797 24.7 85.277 24.781 85.697 24.943C86.123 25.105 86.486 25.33 86.786 25.618C87.086 25.906 87.314 26.242 87.47 26.626C87.632 27.004 87.713 27.412 87.713 27.85C87.713 28.294 87.632 28.708 87.47 29.092C87.314 29.47 87.086 29.803 86.786 30.091C86.492 30.373 86.129 30.595 85.697 30.757C85.271 30.919 84.791 31 84.257 31H81.215ZM82.745 29.956L82.538 29.65H84.212C84.53 29.65 84.809 29.605 85.049 29.515C85.295 29.419 85.496 29.29 85.652 29.128C85.814 28.96 85.934 28.768 86.012 28.552C86.096 28.33 86.138 28.096 86.138 27.85C86.138 27.604 86.096 27.373 86.012 27.157C85.934 26.941 85.814 26.752 85.652 26.59C85.49 26.422 85.289 26.29 85.049 26.194C84.809 26.098 84.53 26.05 84.212 26.05H82.511L82.745 25.762V29.956ZM92.1078 31V24.7H97.2018V26.005H93.5928V29.695H97.2918V31H92.1078ZM92.8818 28.417V27.175H96.7968V28.417H92.8818ZM104.369 31.09C103.901 31.09 103.472 31.042 103.082 30.946C102.698 30.85 102.353 30.718 102.047 30.55C101.741 30.382 101.465 30.181 101.219 29.947L102.02 28.795C102.422 29.173 102.827 29.437 103.235 29.587C103.649 29.731 104.057 29.803 104.459 29.803C104.645 29.803 104.825 29.782 104.999 29.74C105.179 29.698 105.326 29.632 105.44 29.542C105.56 29.452 105.62 29.332 105.62 29.182C105.62 29.086 105.59 29.005 105.53 28.939C105.47 28.867 105.389 28.807 105.287 28.759C105.185 28.705 105.065 28.663 104.927 28.633C104.795 28.603 104.651 28.576 104.495 28.552C104.339 28.528 104.177 28.504 104.009 28.48C103.625 28.426 103.28 28.348 102.974 28.246C102.674 28.138 102.416 28.006 102.2 27.85C101.99 27.688 101.831 27.499 101.723 27.283C101.615 27.067 101.561 26.818 101.561 26.536C101.561 26.23 101.633 25.954 101.777 25.708C101.921 25.462 102.122 25.255 102.38 25.087C102.638 24.913 102.932 24.781 103.262 24.691C103.598 24.601 103.958 24.556 104.342 24.556C104.774 24.556 105.155 24.598 105.485 24.682C105.821 24.766 106.115 24.883 106.367 25.033C106.619 25.183 106.829 25.351 106.997 25.537L106.169 26.536C106.013 26.392 105.833 26.269 105.629 26.167C105.431 26.065 105.221 25.987 104.999 25.933C104.777 25.879 104.555 25.852 104.333 25.852C104.099 25.852 103.895 25.876 103.721 25.924C103.547 25.966 103.409 26.029 103.307 26.113C103.205 26.197 103.154 26.305 103.154 26.437C103.154 26.545 103.196 26.638 103.28 26.716C103.37 26.794 103.484 26.86 103.622 26.914C103.76 26.962 103.913 27.001 104.081 27.031C104.255 27.061 104.426 27.088 104.594 27.112C104.942 27.16 105.272 27.226 105.584 27.31C105.902 27.388 106.181 27.496 106.421 27.634C106.667 27.772 106.856 27.952 106.988 28.174C107.126 28.39 107.195 28.669 107.195 29.011C107.195 29.449 107.072 29.824 106.826 30.136C106.586 30.442 106.253 30.679 105.827 30.847C105.407 31.009 104.921 31.09 104.369 31.09ZM111.565 31V29.677H112.978V26.023H111.565V24.7H115.93V26.023H114.508V29.677H115.93V31H111.565ZM123.832 31.09C123.31 31.09 122.827 31.018 122.383 30.874C121.945 30.724 121.567 30.511 121.249 30.235C120.931 29.953 120.682 29.608 120.502 29.2C120.328 28.792 120.241 28.333 120.241 27.823C120.241 27.355 120.334 26.926 120.52 26.536C120.706 26.14 120.967 25.795 121.303 25.501C121.639 25.207 122.035 24.979 122.491 24.817C122.953 24.655 123.454 24.574 123.994 24.574C124.42 24.574 124.81 24.622 125.164 24.718C125.524 24.814 125.842 24.94 126.118 25.096C126.4 25.252 126.631 25.426 126.811 25.618L125.884 26.626C125.716 26.488 125.536 26.368 125.344 26.266C125.152 26.164 124.942 26.083 124.714 26.023C124.492 25.957 124.249 25.924 123.985 25.924C123.679 25.924 123.394 25.972 123.13 26.068C122.872 26.164 122.644 26.299 122.446 26.473C122.254 26.641 122.104 26.842 121.996 27.076C121.894 27.304 121.843 27.553 121.843 27.823C121.843 28.141 121.9 28.42 122.014 28.66C122.128 28.9 122.284 29.101 122.482 29.263C122.68 29.419 122.908 29.539 123.166 29.623C123.424 29.701 123.7 29.74 123.994 29.74C124.252 29.74 124.492 29.71 124.714 29.65C124.942 29.59 125.137 29.509 125.299 29.407C125.461 29.299 125.587 29.173 125.677 29.029C125.773 28.885 125.821 28.726 125.821 28.552V28.354L126.028 28.696H123.859V27.517H127.27C127.282 27.595 127.291 27.688 127.297 27.796C127.303 27.904 127.306 28.006 127.306 28.102C127.312 28.192 127.315 28.255 127.315 28.291C127.315 28.729 127.231 29.122 127.063 29.47C126.895 29.818 126.655 30.112 126.343 30.352C126.037 30.586 125.671 30.769 125.245 30.901C124.819 31.027 124.348 31.09 123.832 31.09ZM131.68 31V24.7H133.102L137.107 29.2L136.864 29.155C136.828 28.939 136.801 28.735 136.783 28.543C136.765 28.345 136.747 28.153 136.729 27.967C136.717 27.781 136.705 27.598 136.693 27.418C136.687 27.238 136.684 27.052 136.684 26.86C136.684 26.668 136.684 26.467 136.684 26.257V24.7H138.169V31H136.729L132.58 26.356L132.985 26.419C133.009 26.593 133.03 26.758 133.048 26.914C133.066 27.064 133.081 27.214 133.093 27.364C133.111 27.514 133.126 27.667 133.138 27.823C133.15 27.973 133.156 28.138 133.156 28.318C133.162 28.492 133.165 28.684 133.165 28.894V31H131.68ZM142.986 31V24.7H148.08V26.005H144.471V29.695H148.17V31H142.986ZM143.76 28.417V27.175H147.675V28.417H143.76ZM152.736 31V24.7H155.778C156.318 24.7 156.798 24.781 157.218 24.943C157.644 25.105 158.007 25.33 158.307 25.618C158.607 25.906 158.835 26.242 158.991 26.626C159.153 27.004 159.234 27.412 159.234 27.85C159.234 28.294 159.153 28.708 158.991 29.092C158.835 29.47 158.607 29.803 158.307 30.091C158.013 30.373 157.65 30.595 157.218 30.757C156.792 30.919 156.312 31 155.778 31H152.736ZM154.266 29.956L154.059 29.65H155.733C156.051 29.65 156.33 29.605 156.57 29.515C156.816 29.419 157.017 29.29 157.173 29.128C157.335 28.96 157.455 28.768 157.533 28.552C157.617 28.33 157.659 28.096 157.659 27.85C157.659 27.604 157.617 27.373 157.533 27.157C157.455 26.941 157.335 26.752 157.173 26.59C157.011 26.422 156.81 26.29 156.57 26.194C156.33 26.098 156.051 26.05 155.733 26.05H154.032L154.266 25.762V29.956ZM81.485 43V35.3H85.434C86.0427 35.3 86.5597 35.377 86.985 35.531C87.4103 35.685 87.7293 35.9013 87.942 36.18C88.1547 36.4587 88.261 36.796 88.261 37.192C88.261 37.6247 88.14 37.9913 87.898 38.292C87.6633 38.5927 87.3077 38.8017 86.831 38.919L86.853 38.71C87.1903 38.7833 87.4947 38.9043 87.766 39.073C88.0447 39.2417 88.2647 39.4617 88.426 39.733C88.5873 39.997 88.668 40.3087 88.668 40.668C88.668 41.1007 88.5837 41.4673 88.415 41.768C88.2463 42.0613 88.0153 42.2997 87.722 42.483C87.436 42.659 87.1133 42.791 86.754 42.879C86.3947 42.9597 86.0243 43 85.643 43H81.485ZM83.245 41.438H85.643C85.8777 41.438 86.083 41.4087 86.259 41.35C86.435 41.284 86.5743 41.1887 86.677 41.064C86.7797 40.932 86.831 40.7707 86.831 40.58C86.831 40.382 86.7687 40.2243 86.644 40.107C86.5193 39.9823 86.3617 39.8943 86.171 39.843C85.9803 39.7843 85.786 39.755 85.588 39.755H83.245V41.438ZM83.245 38.358H85.335C85.555 38.358 85.7457 38.3287 85.907 38.27C86.0757 38.204 86.204 38.116 86.292 38.006C86.38 37.896 86.424 37.7567 86.424 37.588C86.424 37.346 86.3177 37.1663 86.105 37.049C85.8923 36.9243 85.6137 36.862 85.269 36.862H83.245V38.358ZM93.2717 43V39.381L93.4257 40.096L89.7407 35.3H91.9847L94.7127 38.974L93.7557 38.963L96.3407 35.3H98.4637L95.0537 39.986L95.1527 39.293V43H93.2717ZM104.216 43V35.3H105.888L109.089 39.744L107.967 39.733L111.179 35.3H112.829V43H111.014V40.536C111.014 39.9053 111.029 39.326 111.058 38.798C111.088 38.2627 111.146 37.7237 111.234 37.181L111.421 37.786L108.869 41.13H108.143L105.602 37.775L105.811 37.181C105.899 37.709 105.958 38.237 105.987 38.765C106.017 39.293 106.031 39.8833 106.031 40.536V43H104.216ZM114.719 43L118.195 35.3H119.878L123.343 43H121.429L119.515 38.721C119.441 38.567 119.372 38.413 119.306 38.259C119.247 38.0977 119.188 37.94 119.13 37.786C119.071 37.6247 119.016 37.467 118.965 37.313C118.913 37.1517 118.866 36.9977 118.822 36.851L119.207 36.84C119.155 37.0087 119.104 37.17 119.053 37.324C119.001 37.478 118.943 37.6357 118.877 37.797C118.818 37.951 118.756 38.105 118.69 38.259C118.624 38.413 118.558 38.5707 118.492 38.732L116.589 43H114.719ZM116.347 41.592L116.941 40.184H121.088L121.484 41.592H116.347ZM128.308 43.11C127.736 43.11 127.212 43.0513 126.735 42.934C126.266 42.8167 125.844 42.6553 125.47 42.45C125.096 42.2447 124.759 41.999 124.458 41.713L125.437 40.305C125.928 40.767 126.423 41.0897 126.922 41.273C127.428 41.449 127.927 41.537 128.418 41.537C128.645 41.537 128.865 41.5113 129.078 41.46C129.298 41.4087 129.478 41.328 129.617 41.218C129.764 41.108 129.837 40.9613 129.837 40.778C129.837 40.6607 129.8 40.5617 129.727 40.481C129.654 40.393 129.555 40.3197 129.43 40.261C129.305 40.195 129.159 40.1437 128.99 40.107C128.829 40.0703 128.653 40.0373 128.462 40.008C128.271 39.9787 128.073 39.9493 127.868 39.92C127.399 39.854 126.977 39.7587 126.603 39.634C126.236 39.502 125.921 39.3407 125.657 39.15C125.4 38.952 125.206 38.721 125.074 38.457C124.942 38.193 124.876 37.8887 124.876 37.544C124.876 37.17 124.964 36.8327 125.14 36.532C125.316 36.2313 125.562 35.9783 125.877 35.773C126.192 35.5603 126.552 35.399 126.955 35.289C127.366 35.179 127.806 35.124 128.275 35.124C128.803 35.124 129.269 35.1753 129.672 35.278C130.083 35.3807 130.442 35.5237 130.75 35.707C131.058 35.8903 131.315 36.0957 131.52 36.323L130.508 37.544C130.317 37.368 130.097 37.2177 129.848 37.093C129.606 36.9683 129.349 36.873 129.078 36.807C128.807 36.741 128.535 36.708 128.264 36.708C127.978 36.708 127.729 36.7373 127.516 36.796C127.303 36.8473 127.135 36.9243 127.01 37.027C126.885 37.1297 126.823 37.2617 126.823 37.423C126.823 37.555 126.874 37.6687 126.977 37.764C127.087 37.8593 127.226 37.94 127.395 38.006C127.564 38.0647 127.751 38.1123 127.956 38.149C128.169 38.1857 128.378 38.2187 128.583 38.248C129.008 38.3067 129.412 38.3873 129.793 38.49C130.182 38.5853 130.523 38.7173 130.816 38.886C131.117 39.0547 131.348 39.2747 131.509 39.546C131.678 39.81 131.762 40.151 131.762 40.569C131.762 41.1043 131.612 41.5627 131.311 41.944C131.018 42.318 130.611 42.6077 130.09 42.813C129.577 43.011 128.983 43.11 128.308 43.11ZM136.124 43V36.95H133.396V35.3H140.766V36.95H137.994V43H136.124ZM142.996 43V35.3H149.222V36.895H144.811V41.405H149.332V43H142.996ZM143.942 39.843V38.325H148.727V39.843H143.942ZM151.998 43V35.3H156.013C156.577 35.3 157.069 35.4027 157.487 35.608C157.905 35.8133 158.227 36.103 158.455 36.477C158.689 36.8437 158.807 37.2727 158.807 37.764C158.807 38.248 158.682 38.688 158.433 39.084C158.191 39.4727 157.857 39.777 157.432 39.997C157.014 40.217 156.544 40.327 156.024 40.327H153.78V43H151.998ZM157.047 43L154.715 39.524L156.651 39.249L159.203 43H157.047ZM153.78 38.897H155.826C156.038 38.897 156.225 38.853 156.387 38.765C156.555 38.677 156.687 38.556 156.783 38.402C156.885 38.2407 156.937 38.0573 156.937 37.852C156.937 37.6467 156.882 37.4707 156.772 37.324C156.669 37.1773 156.53 37.0637 156.354 36.983C156.178 36.9023 155.972 36.862 155.738 36.862H153.78V38.897ZM80.333 53L83.177 46.7H84.554L87.389 53H85.823L84.257 49.499C84.197 49.373 84.14 49.247 84.086 49.121C84.038 48.989 83.99 48.86 83.942 48.734C83.894 48.602 83.849 48.473 83.807 48.347C83.765 48.215 83.726 48.089 83.69 47.969L84.005 47.96C83.963 48.098 83.921 48.23 83.879 48.356C83.837 48.482 83.789 48.611 83.735 48.743C83.687 48.869 83.636 48.995 83.582 49.121C83.528 49.247 83.474 49.376 83.42 49.508L81.863 53H80.333ZM81.665 51.848L82.151 50.696H85.544L85.868 51.848H81.665ZM91.5956 53V46.7H94.8806C95.3426 46.7 95.7446 46.784 96.0866 46.952C96.4286 47.12 96.6926 47.357 96.8786 47.663C97.0706 47.963 97.1666 48.314 97.1666 48.716C97.1666 49.112 97.0646 49.472 96.8606 49.796C96.6626 50.114 96.3896 50.363 96.0416 50.543C95.6996 50.723 95.3156 50.813 94.8896 50.813H93.0536V53H91.5956ZM95.7266 53L93.8186 50.156L95.4026 49.931L97.4906 53H95.7266ZM93.0536 49.643H94.7276C94.9016 49.643 95.0546 49.607 95.1866 49.535C95.3246 49.463 95.4326 49.364 95.5106 49.238C95.5946 49.106 95.6366 48.956 95.6366 48.788C95.6366 48.62 95.5916 48.476 95.5016 48.356C95.4176 48.236 95.3036 48.143 95.1596 48.077C95.0156 48.011 94.8476 47.978 94.6556 47.978H93.0536V49.643ZM103.614 53V48.05H101.382V46.7H107.412V48.05H105.144V53H103.614ZM111.936 53V51.677H113.349V48.023H111.936V46.7H116.301V48.023H114.879V51.677H116.301V53H111.936ZM123.948 53.09C123.48 53.09 123.051 53.042 122.661 52.946C122.277 52.85 121.932 52.718 121.626 52.55C121.32 52.382 121.044 52.181 120.798 51.947L121.599 50.795C122.001 51.173 122.406 51.437 122.814 51.587C123.228 51.731 123.636 51.803 124.038 51.803C124.224 51.803 124.404 51.782 124.578 51.74C124.758 51.698 124.905 51.632 125.019 51.542C125.139 51.452 125.199 51.332 125.199 51.182C125.199 51.086 125.169 51.005 125.109 50.939C125.049 50.867 124.968 50.807 124.866 50.759C124.764 50.705 124.644 50.663 124.506 50.633C124.374 50.603 124.23 50.576 124.074 50.552C123.918 50.528 123.756 50.504 123.588 50.48C123.204 50.426 122.859 50.348 122.553 50.246C122.253 50.138 121.995 50.006 121.779 49.85C121.569 49.688 121.41 49.499 121.302 49.283C121.194 49.067 121.14 48.818 121.14 48.536C121.14 48.23 121.212 47.954 121.356 47.708C121.5 47.462 121.701 47.255 121.959 47.087C122.217 46.913 122.511 46.781 122.841 46.691C123.177 46.601 123.537 46.556 123.921 46.556C124.353 46.556 124.734 46.598 125.064 46.682C125.4 46.766 125.694 46.883 125.946 47.033C126.198 47.183 126.408 47.351 126.576 47.537L125.748 48.536C125.592 48.392 125.412 48.269 125.208 48.167C125.01 48.065 124.8 47.987 124.578 47.933C124.356 47.879 124.134 47.852 123.912 47.852C123.678 47.852 123.474 47.876 123.3 47.924C123.126 47.966 122.988 48.029 122.886 48.113C122.784 48.197 122.733 48.305 122.733 48.437C122.733 48.545 122.775 48.638 122.859 48.716C122.949 48.794 123.063 48.86 123.201 48.914C123.339 48.962 123.492 49.001 123.66 49.031C123.834 49.061 124.005 49.088 124.173 49.112C124.521 49.16 124.851 49.226 125.163 49.31C125.481 49.388 125.76 49.496 126 49.634C126.246 49.772 126.435 49.952 126.567 50.174C126.705 50.39 126.774 50.669 126.774 51.011C126.774 51.449 126.651 51.824 126.405 52.136C126.165 52.442 125.832 52.679 125.406 52.847C124.986 53.009 124.5 53.09 123.948 53.09ZM130.487 53L133.331 46.7H134.708L137.543 53H135.977L134.411 49.499C134.351 49.373 134.294 49.247 134.24 49.121C134.192 48.989 134.144 48.86 134.096 48.734C134.048 48.602 134.003 48.473 133.961 48.347C133.919 48.215 133.88 48.089 133.844 47.969L134.159 47.96C134.117 48.098 134.075 48.23 134.033 48.356C133.991 48.482 133.943 48.611 133.889 48.743C133.841 48.869 133.79 48.995 133.736 49.121C133.682 49.247 133.628 49.376 133.574 49.508L132.017 53H130.487ZM131.819 51.848L132.305 50.696H135.698L136.022 51.848H131.819ZM141.749 53V46.7H143.171L147.176 51.2L146.933 51.155C146.897 50.939 146.87 50.735 146.852 50.543C146.834 50.345 146.816 50.153 146.798 49.967C146.786 49.781 146.774 49.598 146.762 49.418C146.756 49.238 146.753 49.052 146.753 48.86C146.753 48.668 146.753 48.467 146.753 48.257V46.7H148.238V53H146.798L142.649 48.356L143.054 48.419C143.078 48.593 143.099 48.758 143.117 48.914C143.135 49.064 143.15 49.214 143.162 49.364C143.18 49.514 143.195 49.667 143.207 49.823C143.219 49.973 143.225 50.138 143.225 50.318C143.231 50.492 143.234 50.684 143.234 50.894V53H141.749ZM155.836 53.09C155.368 53.09 154.939 53.042 154.549 52.946C154.165 52.85 153.82 52.718 153.514 52.55C153.208 52.382 152.932 52.181 152.686 51.947L153.487 50.795C153.889 51.173 154.294 51.437 154.702 51.587C155.116 51.731 155.524 51.803 155.926 51.803C156.112 51.803 156.292 51.782 156.466 51.74C156.646 51.698 156.793 51.632 156.907 51.542C157.027 51.452 157.087 51.332 157.087 51.182C157.087 51.086 157.057 51.005 156.997 50.939C156.937 50.867 156.856 50.807 156.754 50.759C156.652 50.705 156.532 50.663 156.394 50.633C156.262 50.603 156.118 50.576 155.962 50.552C155.806 50.528 155.644 50.504 155.476 50.48C155.092 50.426 154.747 50.348 154.441 50.246C154.141 50.138 153.883 50.006 153.667 49.85C153.457 49.688 153.298 49.499 153.19 49.283C153.082 49.067 153.028 48.818 153.028 48.536C153.028 48.23 153.1 47.954 153.244 47.708C153.388 47.462 153.589 47.255 153.847 47.087C154.105 46.913 154.399 46.781 154.729 46.691C155.065 46.601 155.425 46.556 155.809 46.556C156.241 46.556 156.622 46.598 156.952 46.682C157.288 46.766 157.582 46.883 157.834 47.033C158.086 47.183 158.296 47.351 158.464 47.537L157.636 48.536C157.48 48.392 157.3 48.269 157.096 48.167C156.898 48.065 156.688 47.987 156.466 47.933C156.244 47.879 156.022 47.852 155.8 47.852C155.566 47.852 155.362 47.876 155.188 47.924C155.014 47.966 154.876 48.029 154.774 48.113C154.672 48.197 154.621 48.305 154.621 48.437C154.621 48.545 154.663 48.638 154.747 48.716C154.837 48.794 154.951 48.86 155.089 48.914C155.227 48.962 155.38 49.001 155.548 49.031C155.722 49.061 155.893 49.088 156.061 49.112C156.409 49.16 156.739 49.226 157.051 49.31C157.369 49.388 157.648 49.496 157.888 49.634C158.134 49.772 158.323 49.952 158.455 50.174C158.593 50.39 158.662 50.669 158.662 51.011C158.662 51.449 158.539 51.824 158.293 52.136C158.053 52.442 157.72 52.679 157.294 52.847C156.874 53.009 156.388 53.09 155.836 53.09Z" fill="black"></path><path d="M55.1083 27.1777C56.5272 27.1777 57.6814 26.0234 57.6814 24.6046C57.6814 23.1859 56.5271 22.0316 55.1083 22.0316C53.6895 22.0316 52.5352 23.1859 52.5352 24.6046C52.5352 26.0234 53.6895 27.1777 55.1083 27.1777ZM55.1083 23.1155C55.9294 23.1155 56.5974 23.7836 56.5974 24.6046C56.5974 25.4257 55.9295 26.0937 55.1083 26.0937C54.2872 26.0937 53.6192 25.4258 53.6192 24.6046C53.6192 23.7835 54.2872 23.1155 55.1083 23.1155Z" fill="black"></path><path d="M65.9137 31.0628C65.6968 29.4341 63.9489 28.4427 62.3714 29.0505C61.5538 29.3654 60.978 30.0518 60.7997 30.8532C60.4967 29.0115 60.2589 27.5654 59.8113 24.8445C59.4876 22.6524 57.5083 21 55.2051 21C52.9018 21 50.9225 22.6526 50.599 24.8447L49.9857 28.573C49.9384 28.8607 50.1423 29.1308 50.441 29.1764C50.7398 29.2221 51.0204 29.0256 51.0676 28.738L51.6816 25.0054C51.6821 25.0025 51.6826 24.9995 51.683 24.9966C51.9286 23.3194 53.4429 22.0547 55.2052 22.0547C56.9674 22.0547 58.4816 23.3193 58.7273 24.9963C58.7277 24.9992 58.7282 25.0021 58.7287 25.0051L59.5581 30.0471L52.9892 31.6284C52.7433 31.6874 52.5587 31.8812 52.5189 32.1224L51.7753 36.6431C51.3745 36.3442 51.0113 35.9891 50.6991 35.5814C50.5136 35.339 50.2901 35.136 50.0416 34.9759L50.6631 31.1976C50.7104 30.9099 50.5065 30.6398 50.2078 30.5942C49.9091 30.5486 49.6284 30.745 49.5811 31.0326L48.9974 34.5811C48.5472 34.5119 48.0761 34.5561 47.6321 34.7272C46.0545 35.3347 45.4987 37.213 46.5084 38.5366C46.9753 39.1488 47.5017 39.6996 48.0755 40.1859L46.4634 49.986C46.436 50.1532 46.4366 50.3226 46.4654 50.4895C47.0939 54.1308 46.8722 52.8464 47.43 56.0789C47.5109 56.5473 47.8926 56.912 48.3797 56.9863C49.0036 57.0813 49.5897 56.6725 49.6887 56.0706C49.7988 55.4012 51.8692 42.8147 51.9554 42.291C54.0635 42.9306 56.3294 42.9359 58.4547 42.2885L59.1352 46.4256C59.1779 46.6854 59.4108 46.8706 59.6755 46.8706C60.014 46.8706 60.2697 46.5798 60.2172 46.2606L59.5018 41.9116C60.1533 41.6397 60.7708 41.3094 61.3476 40.9259L62.8651 50.151C62.8741 50.2059 62.8739 50.2617 62.8644 50.3166L61.8998 55.9058C61.8964 55.9258 61.8801 55.9413 61.8594 55.9445C61.8329 55.9483 61.8079 55.931 61.8037 55.9055L60.6244 48.7365C60.5771 48.4489 60.2964 48.2524 59.9978 48.2981C59.699 48.3437 59.4952 48.6138 59.5425 48.9015L60.7218 56.0705C60.8109 56.6123 61.2985 56.9998 61.851 56.9998C62.4086 56.9998 62.8879 56.6138 62.9804 56.0787L63.945 50.4894C63.9738 50.3223 63.9745 50.1529 63.947 49.9858L62.3345 40.1841C62.9888 39.6302 63.5736 38.9988 64.0758 38.3C64.248 38.0605 64.1858 37.732 63.9371 37.5663C63.6883 37.4005 63.3472 37.4603 63.1751 37.6998C62.9938 37.9521 62.8005 38.1945 62.596 38.4266C62.5445 38.059 62.4097 37.7165 62.2105 37.4173C63.3344 35.9688 63.9491 34.195 63.9491 32.3785C63.9491 32.0872 63.7038 31.8511 63.4014 31.8511C63.0989 31.8511 62.8537 32.0872 62.8537 32.3785C62.8537 33.9157 62.3505 35.4179 61.4277 36.6611C61.1539 36.4909 60.8449 36.3688 60.5137 36.3075C61.5631 34.9933 62.0765 33.3038 61.8491 31.5733C61.7618 30.9088 62.1439 30.2741 62.7782 30.0297C63.692 29.678 64.7015 30.2535 64.8273 31.197C65.0257 32.6866 64.8409 34.2222 64.2929 35.6377C64.1872 35.9106 64.3313 36.2143 64.6147 36.316C64.8983 36.4179 65.2136 36.279 65.3192 36.0062C65.9292 34.4309 66.1347 32.7216 65.9137 31.0628ZM59.73 31.093L60.3074 34.6031C59.9333 35.3968 59.3615 36.0995 58.6346 36.6412L57.7984 31.558L59.73 31.093ZM60.0227 37.3175C60.8505 37.3175 61.524 37.966 61.524 38.763C61.524 39.5601 60.8505 40.2086 60.0227 40.2086C59.1949 40.2086 58.5214 39.5601 58.5214 38.763C58.5214 37.9672 59.1936 37.3175 60.0227 37.3175ZM53.5526 32.58L56.7316 31.8148L57.6242 37.241C56.0653 37.9591 54.29 37.9349 52.7856 37.2427L53.5526 32.58ZM48.6066 55.9056C48.6045 55.9183 48.598 55.9286 48.5872 55.9362C48.5764 55.9437 48.5642 55.9465 48.551 55.9445C48.5302 55.9414 48.514 55.9258 48.5106 55.9059L48.1736 53.9536L48.9093 54.0658L48.6066 55.9056ZM49.0806 53.024L47.9843 52.8568L47.5458 50.3166C47.5363 50.2617 47.5361 50.2059 47.5452 50.1509L49.0622 40.9285C49.6452 41.3166 50.2638 41.6463 50.9079 41.9149L49.0806 53.024ZM47.3911 37.9123C46.8064 37.1457 47.1251 36.0584 48.0387 35.7065C48.6731 35.4622 49.4044 35.6681 49.8172 36.2073C51.5714 38.4988 54.6761 39.4013 57.4458 38.4529C57.4059 38.7617 57.4248 39.0853 57.5119 39.4022C55.4319 40.0356 53.0592 39.7993 51.0916 38.5883C50.8366 38.4314 50.498 38.5032 50.3351 38.7486C50.1722 38.994 50.2468 39.3201 50.5016 39.477C52.8232 40.9058 55.6151 41.1391 58.019 40.3519C58.2564 40.6289 58.5542 40.8559 58.8931 41.0141C54.7768 42.6434 50.0302 41.3723 47.3911 37.9123Z" fill="black"></path><path d="M48.9717 37.5571C49.271 37.5571 49.5137 37.3144 49.5137 37.0151C49.5137 36.7157 49.271 36.4731 48.9717 36.4731C48.6723 36.4731 48.4297 36.7157 48.4297 37.0151C48.4297 37.3144 48.6723 37.5571 48.9717 37.5571Z" fill="black"></path></svg>