<svg xmlns="http://www.w3.org/2000/svg" width="208" height="79" viewBox="0 0 208 79" fill="none"><rect x="0.5" y="0.5" width="207" height="78" rx="4.5" stroke="black"></rect><path d="M74.63 30.51V24.83L75.02 25.53L73.33 26.36L72.99 24.87L74.94 23.9H76.3V30.51H74.63ZM73.13 31V29.5H77.67V31H73.13ZM82.5334 31.1C81.8201 31.1 81.2168 30.9533 80.7234 30.66C80.2301 30.36 79.8568 29.94 79.6034 29.4C79.3501 28.86 79.2234 28.2267 79.2234 27.5C79.2234 26.7667 79.3501 26.1333 79.6034 25.6C79.8568 25.06 80.2301 24.6433 80.7234 24.35C81.2168 24.05 81.8201 23.9 82.5334 23.9C83.2401 23.9 83.8368 24.05 84.3234 24.35C84.8101 24.6433 85.1768 25.06 85.4234 25.6C85.6701 26.1333 85.7934 26.7667 85.7934 27.5C85.7934 28.2267 85.6701 28.86 85.4234 29.4C85.1768 29.94 84.8101 30.36 84.3234 30.66C83.8368 30.9533 83.2401 31.1 82.5334 31.1ZM82.5334 29.66C83.0534 29.66 83.4568 29.4733 83.7434 29.1C84.0301 28.7267 84.1734 28.1933 84.1734 27.5C84.1734 26.7867 84.0301 26.24 83.7434 25.86C83.4568 25.4733 83.0534 25.28 82.5334 25.28C82.0001 25.28 81.5834 25.4733 81.2834 25.86C80.9834 26.24 80.8334 26.7867 80.8334 27.5C80.8334 28.1933 80.9834 28.7267 81.2834 29.1C81.5834 29.4733 82.0001 29.66 82.5334 29.66ZM90.5022 31.1C89.7889 31.1 89.1855 30.9533 88.6922 30.66C88.1989 30.36 87.8255 29.94 87.5722 29.4C87.3189 28.86 87.1922 28.2267 87.1922 27.5C87.1922 26.7667 87.3189 26.1333 87.5722 25.6C87.8255 25.06 88.1989 24.6433 88.6922 24.35C89.1855 24.05 89.7889 23.9 90.5022 23.9C91.2089 23.9 91.8055 24.05 92.2922 24.35C92.7789 24.6433 93.1455 25.06 93.3922 25.6C93.6389 26.1333 93.7622 26.7667 93.7622 27.5C93.7622 28.2267 93.6389 28.86 93.3922 29.4C93.1455 29.94 92.7789 30.36 92.2922 30.66C91.8055 30.9533 91.2089 31.1 90.5022 31.1ZM90.5022 29.66C91.0222 29.66 91.4255 29.4733 91.7122 29.1C91.9989 28.7267 92.1422 28.1933 92.1422 27.5C92.1422 26.7867 91.9989 26.24 91.7122 25.86C91.4255 25.4733 91.0222 25.28 90.5022 25.28C89.9689 25.28 89.5522 25.4733 89.2522 25.86C88.9522 26.24 88.8022 26.7867 88.8022 27.5C88.8022 28.1933 88.9522 28.7267 89.2522 29.1C89.5522 29.4733 89.9689 29.66 90.5022 29.66ZM96.9509 31L101.691 24H103.211L98.4109 31H96.9509ZM97.0709 28.05C96.6909 28.05 96.3543 27.9567 96.0609 27.77C95.7676 27.5767 95.5409 27.32 95.3809 27C95.2209 26.68 95.1409 26.3233 95.1409 25.93C95.1409 25.53 95.2176 25.17 95.3709 24.85C95.5309 24.5233 95.7576 24.2667 96.0509 24.08C96.3443 23.8933 96.6843 23.8 97.0709 23.8C97.4576 23.8 97.7943 23.8933 98.0809 24.08C98.3676 24.2667 98.5909 24.5233 98.7509 24.85C98.9109 25.17 98.9909 25.53 98.9909 25.93C98.9909 26.3233 98.9076 26.68 98.7409 27C98.5743 27.32 98.3443 27.5767 98.0509 27.77C97.7643 27.9567 97.4376 28.05 97.0709 28.05ZM97.0709 26.93C97.1976 26.93 97.3043 26.8867 97.3909 26.8C97.4776 26.7133 97.5409 26.5933 97.5809 26.44C97.6209 26.2867 97.6409 26.1167 97.6409 25.93C97.6409 25.73 97.6209 25.5567 97.5809 25.41C97.5409 25.2567 97.4776 25.1367 97.3909 25.05C97.3109 24.9567 97.2043 24.91 97.0709 24.91C96.9443 24.91 96.8376 24.9567 96.7509 25.05C96.6643 25.1433 96.5976 25.2667 96.5509 25.42C96.5043 25.5667 96.4809 25.7367 96.4809 25.93C96.4809 26.1233 96.5009 26.2967 96.5409 26.45C96.5876 26.6033 96.6576 26.7233 96.7509 26.81C96.8443 26.89 96.9509 26.93 97.0709 26.93ZM103.291 31.14C102.911 31.14 102.574 31.0467 102.281 30.86C101.994 30.6667 101.771 30.41 101.611 30.09C101.451 29.77 101.371 29.4133 101.371 29.02C101.371 28.6133 101.448 28.25 101.601 27.93C101.761 27.61 101.984 27.3567 102.271 27.17C102.564 26.9833 102.904 26.89 103.291 26.89C103.684 26.89 104.024 26.9833 104.311 27.17C104.598 27.3567 104.818 27.61 104.971 27.93C105.131 28.25 105.211 28.6133 105.211 29.02C105.211 29.4133 105.128 29.77 104.961 30.09C104.794 30.4033 104.564 30.6567 104.271 30.85C103.984 31.0433 103.658 31.14 103.291 31.14ZM103.291 30.02C103.424 30.02 103.531 29.9767 103.611 29.89C103.698 29.8033 103.761 29.6867 103.801 29.54C103.841 29.3867 103.861 29.2133 103.861 29.02C103.861 28.82 103.841 28.6467 103.801 28.5C103.761 28.3467 103.698 28.2267 103.611 28.14C103.524 28.0533 103.418 28.01 103.291 28.01C103.164 28.01 103.054 28.0533 102.961 28.14C102.874 28.2267 102.808 28.35 102.761 28.51C102.721 28.6633 102.701 28.8333 102.701 29.02C102.701 29.2133 102.724 29.3867 102.771 29.54C102.818 29.6933 102.884 29.8133 102.971 29.9C103.058 29.98 103.164 30.02 103.291 30.02ZM115.151 31.1C114.571 31.1 114.035 31.02 113.541 30.86C113.055 30.6933 112.635 30.4567 112.281 30.15C111.928 29.8367 111.651 29.4533 111.451 29C111.258 28.5467 111.161 28.0367 111.161 27.47C111.161 26.95 111.265 26.4733 111.471 26.04C111.678 25.6 111.968 25.2167 112.341 24.89C112.715 24.5633 113.155 24.31 113.661 24.13C114.175 23.95 114.731 23.86 115.331 23.86C115.805 23.86 116.238 23.9133 116.631 24.02C117.031 24.1267 117.385 24.2667 117.691 24.44C118.005 24.6133 118.261 24.8067 118.461 25.02L117.431 26.14C117.245 25.9867 117.045 25.8533 116.831 25.74C116.618 25.6267 116.385 25.5367 116.131 25.47C115.885 25.3967 115.615 25.36 115.321 25.36C114.981 25.36 114.665 25.4133 114.371 25.52C114.085 25.6267 113.831 25.7767 113.611 25.97C113.398 26.1567 113.231 26.38 113.111 26.64C112.998 26.8933 112.941 27.17 112.941 27.47C112.941 27.8233 113.005 28.1333 113.131 28.4C113.258 28.6667 113.431 28.89 113.651 29.07C113.871 29.2433 114.125 29.3767 114.411 29.47C114.698 29.5567 115.005 29.6 115.331 29.6C115.618 29.6 115.885 29.5667 116.131 29.5C116.385 29.4333 116.601 29.3433 116.781 29.23C116.961 29.11 117.101 28.97 117.201 28.81C117.308 28.65 117.361 28.4733 117.361 28.28V28.06L117.591 28.44H115.181V27.13H118.971C118.985 27.2167 118.995 27.32 119.001 27.44C119.008 27.56 119.011 27.6733 119.011 27.78C119.018 27.88 119.021 27.95 119.021 27.99C119.021 28.4767 118.928 28.9133 118.741 29.3C118.555 29.6867 118.288 30.0133 117.941 30.28C117.601 30.54 117.195 30.7433 116.721 30.89C116.248 31.03 115.725 31.1 115.151 31.1ZM121.221 31V24H126.881V25.45H122.871V29.55H126.981V31H121.221ZM122.081 28.13V26.75H126.431V28.13H122.081ZM129.405 31V24H130.985L135.435 29L135.165 28.95C135.125 28.71 135.095 28.4833 135.075 28.27C135.055 28.05 135.035 27.8367 135.015 27.63C135.001 27.4233 134.988 27.22 134.975 27.02C134.968 26.82 134.965 26.6133 134.965 26.4C134.965 26.1867 134.965 25.9633 134.965 25.73V24H136.615V31H135.015L130.405 25.84L130.855 25.91C130.881 26.1033 130.905 26.2867 130.925 26.46C130.945 26.6267 130.961 26.7933 130.975 26.96C130.995 27.1267 131.011 27.2967 131.025 27.47C131.038 27.6367 131.045 27.82 131.045 28.02C131.051 28.2133 131.055 28.4267 131.055 28.66V31H129.405ZM142.647 31.06C141.973 31.06 141.38 30.9267 140.867 30.66C140.36 30.3933 139.963 30.0233 139.677 29.55C139.397 29.0767 139.257 28.54 139.257 27.94V24H140.977V27.88C140.977 28.2067 141.047 28.4967 141.187 28.75C141.333 29.0033 141.533 29.2 141.787 29.34C142.04 29.48 142.327 29.55 142.647 29.55C142.973 29.55 143.267 29.48 143.527 29.34C143.787 29.2 143.99 29.0033 144.137 28.75C144.29 28.4967 144.367 28.2067 144.367 27.88V24H146.027V27.94C146.027 28.54 145.883 29.0767 145.597 29.55C145.317 30.0233 144.92 30.3933 144.407 30.66C143.9 30.9267 143.313 31.06 142.647 31.06ZM148.713 31V29.53H150.283V25.47H148.713V24H153.562V25.47H151.983V29.53H153.562V31H148.713ZM156.319 31V24H157.899L162.349 29L162.079 28.95C162.039 28.71 162.009 28.4833 161.989 28.27C161.969 28.05 161.949 27.8367 161.929 27.63C161.915 27.4233 161.902 27.22 161.889 27.02C161.882 26.82 161.879 26.6133 161.879 26.4C161.879 26.1867 161.879 25.9633 161.879 25.73V24H163.529V31H161.929L157.319 25.84L157.769 25.91C157.795 26.1033 157.819 26.2867 157.839 26.46C157.859 26.6267 157.875 26.7933 157.889 26.96C157.909 27.1267 157.925 27.2967 157.939 27.47C157.952 27.6367 157.959 27.82 157.959 28.02C157.965 28.2133 157.969 28.4267 157.969 28.66V31H156.319ZM166.231 31V24H171.891V25.45H167.881V29.55H171.991V31H166.231ZM167.091 28.13V26.75H171.441V28.13H167.091ZM78.47 43V36H80.17V43H78.47ZM73.35 43V36H75.05V43H73.35ZM74.01 40.29L74.03 38.77H79.37V40.29H74.01ZM81.8817 43L85.0417 36H86.5717L89.7217 43H87.9817L86.2417 39.11C86.1751 38.97 86.1117 38.83 86.0517 38.69C85.9984 38.5433 85.9451 38.4 85.8917 38.26C85.8384 38.1133 85.7884 37.97 85.7417 37.83C85.6951 37.6833 85.6517 37.5433 85.6117 37.41L85.9617 37.4C85.9151 37.5533 85.8684 37.7 85.8217 37.84C85.7751 37.98 85.7217 38.1233 85.6617 38.27C85.6084 38.41 85.5517 38.55 85.4917 38.69C85.4317 38.83 85.3717 38.9733 85.3117 39.12L83.5817 43H81.8817ZM83.3617 41.72L83.9017 40.44H87.6717L88.0317 41.72H83.3617ZM91.4457 43V36H93.0257L97.4757 41L97.2057 40.95C97.1657 40.71 97.1357 40.4833 97.1157 40.27C97.0957 40.05 97.0757 39.8367 97.0557 39.63C97.0424 39.4233 97.029 39.22 97.0157 39.02C97.009 38.82 97.0057 38.6133 97.0057 38.4C97.0057 38.1867 97.0057 37.9633 97.0057 37.73V36H98.6557V43H97.0557L92.4457 37.84L92.8957 37.91C92.9224 38.1033 92.9457 38.2867 92.9657 38.46C92.9857 38.6267 93.0024 38.7933 93.0157 38.96C93.0357 39.1267 93.0524 39.2967 93.0657 39.47C93.079 39.6367 93.0857 39.82 93.0857 40.02C93.0924 40.2133 93.0957 40.4267 93.0957 40.66V43H91.4457ZM101.358 43V36H104.738C105.338 36 105.871 36.09 106.338 36.27C106.811 36.45 107.214 36.7 107.548 37.02C107.881 37.34 108.134 37.7133 108.308 38.14C108.488 38.56 108.578 39.0133 108.578 39.5C108.578 39.9933 108.488 40.4533 108.308 40.88C108.134 41.3 107.881 41.67 107.548 41.99C107.221 42.3033 106.818 42.55 106.338 42.73C105.864 42.91 105.331 43 104.738 43H101.358ZM103.058 41.84L102.828 41.5H104.688C105.041 41.5 105.351 41.45 105.618 41.35C105.891 41.2433 106.114 41.1 106.288 40.92C106.468 40.7333 106.601 40.52 106.688 40.28C106.781 40.0333 106.828 39.7733 106.828 39.5C106.828 39.2267 106.781 38.97 106.688 38.73C106.601 38.49 106.468 38.28 106.288 38.1C106.108 37.9133 105.884 37.7667 105.618 37.66C105.351 37.5533 105.041 37.5 104.688 37.5H102.798L103.058 37.18V41.84ZM110.371 40.83V39.39H114.231V40.83H110.371ZM120.045 43.1C119.471 43.1 118.941 43.0133 118.455 42.84C117.968 42.6667 117.541 42.42 117.175 42.1C116.808 41.7733 116.525 41.39 116.325 40.95C116.125 40.5033 116.025 40.01 116.025 39.47C116.025 38.9433 116.128 38.46 116.335 38.02C116.548 37.58 116.835 37.1967 117.195 36.87C117.561 36.5433 117.988 36.2933 118.475 36.12C118.968 35.9467 119.498 35.86 120.065 35.86C120.458 35.86 120.841 35.9067 121.215 36C121.588 36.0933 121.931 36.2233 122.245 36.39C122.565 36.5567 122.835 36.7467 123.055 36.96L122.055 38.24C121.888 38.0867 121.701 37.95 121.495 37.83C121.295 37.7033 121.071 37.6067 120.825 37.54C120.578 37.4667 120.301 37.43 119.995 37.43C119.708 37.43 119.431 37.4767 119.165 37.57C118.905 37.6633 118.668 37.7967 118.455 37.97C118.248 38.1433 118.081 38.36 117.955 38.62C117.835 38.8733 117.775 39.1633 117.775 39.49C117.775 39.81 117.838 40.1 117.965 40.36C118.091 40.6133 118.265 40.83 118.485 41.01C118.711 41.1833 118.968 41.3167 119.255 41.41C119.548 41.4967 119.858 41.54 120.185 41.54C120.498 41.54 120.778 41.5 121.025 41.42C121.271 41.3333 121.495 41.2267 121.695 41.1C121.895 40.9667 122.071 40.84 122.225 40.72L123.035 42.03C122.848 42.2033 122.598 42.3733 122.285 42.54C121.978 42.7 121.631 42.8333 121.245 42.94C120.865 43.0467 120.465 43.1 120.045 43.1ZM125.127 43V36H128.777C129.291 36 129.737 36.0933 130.117 36.28C130.497 36.4667 130.791 36.73 130.997 37.07C131.211 37.4033 131.317 37.7933 131.317 38.24C131.317 38.68 131.204 39.08 130.977 39.44C130.757 39.7933 130.454 40.07 130.067 40.27C129.687 40.47 129.261 40.57 128.787 40.57H126.747V43H125.127ZM129.717 43L127.597 39.84L129.357 39.59L131.677 43H129.717ZM126.747 39.27H128.607C128.801 39.27 128.971 39.23 129.117 39.15C129.271 39.07 129.391 38.96 129.477 38.82C129.571 38.6733 129.617 38.5067 129.617 38.32C129.617 38.1333 129.567 37.9733 129.467 37.84C129.374 37.7067 129.247 37.6033 129.087 37.53C128.927 37.4567 128.741 37.42 128.527 37.42H126.747V39.27ZM132.936 43L136.096 36H137.626L140.776 43H139.036L137.296 39.11C137.23 38.97 137.166 38.83 137.106 38.69C137.053 38.5433 137 38.4 136.946 38.26C136.893 38.1133 136.843 37.97 136.796 37.83C136.75 37.6833 136.706 37.5433 136.666 37.41L137.016 37.4C136.97 37.5533 136.923 37.7 136.876 37.84C136.83 37.98 136.776 38.1233 136.716 38.27C136.663 38.41 136.606 38.55 136.546 38.69C136.486 38.83 136.426 38.9733 136.366 39.12L134.636 43H132.936ZM134.416 41.72L134.956 40.44H138.726L139.086 41.72H134.416ZM142.5 43V36H144.2V43H142.5ZM143.22 40.38V38.96H147.58V40.38H143.22ZM143.3 37.5V36H147.99V37.5H143.3ZM152.289 43V37.5H149.809V36H156.509V37.5H153.989V43H152.289ZM158.536 43V36H164.196V37.45H160.186V41.55H164.296V43H158.536ZM159.396 40.13V38.75H163.746V40.13H159.396ZM166.719 43V36H170.099C170.699 36 171.232 36.09 171.699 36.27C172.172 36.45 172.576 36.7 172.909 37.02C173.242 37.34 173.496 37.7133 173.669 38.14C173.849 38.56 173.939 39.0133 173.939 39.5C173.939 39.9933 173.849 40.4533 173.669 40.88C173.496 41.3 173.242 41.67 172.909 41.99C172.582 42.3033 172.179 42.55 171.699 42.73C171.226 42.91 170.692 43 170.099 43H166.719ZM168.419 41.84L168.189 41.5H170.049C170.402 41.5 170.712 41.45 170.979 41.35C171.252 41.2433 171.476 41.1 171.649 40.92C171.829 40.7333 171.962 40.52 172.049 40.28C172.142 40.0333 172.189 39.7733 172.189 39.5C172.189 39.2267 172.142 38.97 172.049 38.73C171.962 38.49 171.829 38.28 171.649 38.1C171.469 37.9133 171.246 37.7667 170.979 37.66C170.712 37.5533 170.402 37.5 170.049 37.5H168.159L168.419 37.18V41.84ZM73.35 53V46H75.05V51.5H78.95V53H73.35ZM88.3648 53V46H94.0248V47.45H90.0148V51.55H94.1248V53H88.3648ZM89.2248 50.13V48.75H93.5748V50.13H89.2248ZM102.868 53L106.028 46H107.558L110.708 53H108.968L107.228 49.11C107.162 48.97 107.098 48.83 107.038 48.69C106.985 48.5433 106.932 48.4 106.878 48.26C106.825 48.1133 106.775 47.97 106.728 47.83C106.682 47.6833 106.638 47.5433 106.598 47.41L106.948 47.4C106.902 47.5533 106.855 47.7 106.808 47.84C106.762 47.98 106.708 48.1233 106.648 48.27C106.595 48.41 106.538 48.55 106.478 48.69C106.418 48.83 106.358 48.9733 106.298 49.12L104.568 53H102.868ZM104.348 51.72L104.888 50.44H108.658L109.018 51.72H104.348ZM121.044 53V47.5H118.564V46H125.264V47.5H122.744V53H121.044ZM139.711 53V46H141.411V53H139.711ZM134.591 53V46H136.291V53H134.591ZM135.251 50.29L135.271 48.77H140.611V50.29H135.251ZM151.403 53V46H157.063V47.45H153.053V51.55H157.163V53H151.403ZM152.263 50.13V48.75H156.613V50.13H152.263ZM166.886 53V46H170.536C171.05 46 171.496 46.0933 171.876 46.28C172.256 46.4667 172.55 46.73 172.756 47.07C172.97 47.4033 173.076 47.7933 173.076 48.24C173.076 48.68 172.963 49.08 172.736 49.44C172.516 49.7933 172.213 50.07 171.826 50.27C171.446 50.47 171.02 50.57 170.546 50.57H168.506V53H166.886ZM171.476 53L169.356 49.84L171.116 49.59L173.436 53H171.476ZM168.506 49.27H170.366C170.56 49.27 170.73 49.23 170.876 49.15C171.03 49.07 171.15 48.96 171.236 48.82C171.33 48.6733 171.376 48.5067 171.376 48.32C171.376 48.1333 171.326 47.9733 171.226 47.84C171.133 47.7067 171.006 47.6033 170.846 47.53C170.686 47.4567 170.5 47.42 170.286 47.42H168.506V49.27Z" fill="black"></path><g clip-path="url(#clip0_1452_1738)"><path d="M54.8285 33.8412C54.5938 33.8412 54.4036 34.0314 54.4036 34.266V47.2541C54.4036 47.9979 53.7986 48.603 53.0548 48.603C52.3109 48.603 51.7059 47.9978 51.7059 47.2541V41.9965C51.7059 41.005 51.0329 40.1493 50.0693 39.9156L49.7606 39.8407V28.3154C49.7606 27.4504 49.0565 26.7465 48.1911 26.7465H46.3277V24.8825C46.3277 24.3959 45.9318 24 45.4452 24H44.4908C44.2562 24 44.066 24.1902 44.066 24.4248C44.066 24.6594 44.2562 24.8496 44.4908 24.8496H45.4452C45.4633 24.8496 45.478 24.8643 45.478 24.8825V26.7465H36.0287V24.8825C36.0287 24.8643 36.0434 24.8496 36.0615 24.8496H42.5084C42.743 24.8496 42.9332 24.6594 42.9332 24.4248C42.9332 24.1902 42.743 24 42.5084 24H36.0615C35.5749 24 35.1791 24.3959 35.1791 24.8825V26.7465H33.315C32.45 26.7465 31.7461 27.4503 31.7461 28.3154V29.9694C31.7461 30.204 31.9363 30.3942 32.1709 30.3942C32.4055 30.3942 32.5957 30.204 32.5957 29.9694V29.674L48.911 32.8577V35.8255L32.5957 32.6419V31.9518C32.5957 31.7172 32.4055 31.527 32.1709 31.527C31.9363 31.527 31.7461 31.7172 31.7461 31.9518V48.6846C31.7461 49.5496 32.4499 50.2535 33.315 50.2535H35.1791V52.1175C35.1791 52.6041 35.5749 53 36.0615 53H37.3513C37.5859 53 37.7761 52.8098 37.7761 52.5752C37.7761 52.3406 37.5859 52.1504 37.3513 52.1504H36.0615C36.0434 52.1504 36.0287 52.1357 36.0287 52.1175V50.2535H45.478V52.1175C45.478 52.1357 45.4633 52.1504 45.4452 52.1504H39.3337C39.0991 52.1504 38.9089 52.3406 38.9089 52.5752C38.9089 52.8098 39.0991 53 39.3337 53H45.4452C45.9318 53 46.3277 52.6041 46.3277 52.1175V50.2535H48.1911C49.0565 50.2535 49.7606 49.5497 49.7606 48.6846V40.7149L49.8691 40.7412C50.4503 40.8822 50.8562 41.3984 50.8562 41.9965V47.254C50.8562 48.4663 51.8425 49.4525 53.0548 49.4525C54.267 49.4525 55.2533 48.4663 55.2533 47.254V34.266C55.2533 34.0314 55.0631 33.8412 54.8285 33.8412ZM32.5958 44.1424V41.1745L48.9111 44.3582V47.326L32.5958 44.1424ZM38.5352 46.167L32.5958 47.326V45.008L38.5352 46.167ZM32.5958 40.3089V37.3411L48.9111 40.5247V43.4926L32.5958 40.3089ZM48.1912 27.5961C48.5881 27.5961 48.9111 27.9188 48.9111 28.3154V28.8083L40.7533 30.4002L35.8753 29.4484L45.3675 27.5961H48.1912ZM32.5958 28.3154C32.5958 27.9189 32.9184 27.5961 33.3151 27.5961H40.9312L33.6571 29.0155L32.5958 28.8084V28.3154ZM42.9714 30.833L48.9111 29.674V31.992L42.9714 30.833ZM48.9111 36.6912V39.659L32.5958 36.4753V33.5075L48.9111 36.6912ZM33.3151 49.4039C32.9185 49.4039 32.5958 49.0812 32.5958 48.6846V48.1916L40.7533 46.5998L45.6313 47.5517L36.139 49.4039H33.3151ZM48.1912 49.4039H40.5753L47.8494 47.9845L48.9111 48.1917V48.6846C48.9111 49.0811 48.5881 49.4039 48.1912 49.4039Z" fill="black"></path></g><defs><clipPath id="clip0_1452_1738"><rect width="29" height="29" fill="white" transform="translate(29 24)"></rect></clipPath></defs></svg>