<svg xmlns="http://www.w3.org/2000/svg" width="38" height="46" viewBox="0 0 38 46" fill="none"><path d="M18.8202 45.2346C18.5872 45.0155 18.3426 44.8129 18.1341 44.5738C16.9693 43.2391 15.7974 41.908 14.6571 40.551C13.4398 39.1021 11.9605 38.102 10.1142 37.685C8.44261 37.293 6.68964 37.4728 5.1299 38.1962C4.58592 38.4424 4.05243 38.7133 3.51311 38.9701C2.93069 39.2458 2.57192 39.1091 2.33546 38.5131C1.59307 36.6432 0.855347 34.7722 0.122278 32.9C-0.1037 32.324 -0.032645 32.1084 0.471728 31.7338C1.14966 31.2249 1.8474 30.7408 2.4997 30.2024C4.21201 28.7889 5.279 26.9571 5.62728 24.7519C6.05361 22.0426 5.45955 19.5771 3.74841 17.4214C3.19243 16.7184 2.52953 16.1093 1.7845 15.6167C1.34535 15.3269 0.902717 15.0442 0.463574 14.7556C0.0244319 14.467 -0.0862272 14.1973 0.100146 13.6731C0.84331 11.5668 1.59385 9.46453 2.35177 7.36615C2.53115 6.86787 2.76645 6.72651 3.29529 6.81604C3.73909 6.89143 4.17474 7.01276 4.61504 7.10582C6.04446 7.42219 7.53273 7.33001 8.91328 6.8396C9.08965 6.77302 9.27428 6.73139 9.46192 6.71591C9.59461 6.7029 9.72751 6.73858 9.83636 6.81643C9.9452 6.89429 10.0227 7.00912 10.0548 7.13998C10.0907 7.26885 10.084 7.40605 10.0356 7.53068C9.98724 7.6553 9.8999 7.76052 9.78691 7.83028C9.64783 7.90996 9.50108 7.97508 9.34893 8.02464C8.18276 8.45282 6.94049 8.62781 5.703 8.53824C5.09845 8.4923 4.49972 8.34623 3.89983 8.2355C3.31742 8.12831 3.42225 8.10121 3.24869 8.57947C2.68336 10.1391 2.12191 11.7003 1.56434 13.2631C1.31623 13.9581 1.28478 13.7838 1.887 14.1713C2.6834 14.6617 3.41898 15.2466 4.07805 15.9136C5.52881 17.4038 6.49031 19.3098 6.83172 21.3723C7.34891 24.4739 6.61739 27.2622 4.69658 29.736C4.11271 30.4724 3.4306 31.1234 2.66977 31.6702C2.32847 31.9211 1.98485 32.1697 1.64355 32.4206C1.36166 32.6279 1.35817 32.6303 1.4863 32.9542C1.96466 34.1699 2.44418 35.3871 2.92487 36.6059C3.0332 36.8792 3.13687 37.1537 3.25219 37.4235C3.34071 37.6296 3.36867 37.6402 3.583 37.5413C3.901 37.394 4.21318 37.2385 4.53001 37.0877C5.94439 36.4074 7.51242 36.1204 9.07286 36.2561C11.5586 36.4646 13.6542 37.5106 15.314 39.4072C16.4428 40.6971 17.5563 41.9987 18.6804 43.2945C18.9949 43.6561 19.0066 43.6561 19.3281 43.2863C20.4424 42.003 21.5541 40.7179 22.663 39.4307C23.5139 38.4369 24.5646 37.6381 25.7451 37.0877C25.9016 37.0124 26.07 36.9654 26.2425 36.9487C26.3672 36.9368 26.4922 36.9685 26.5966 37.0383C26.7011 37.1082 26.7788 37.2121 26.8168 37.3328C26.8627 37.4581 26.8677 37.5949 26.8313 37.7233C26.7948 37.8517 26.7187 37.965 26.6141 38.0466C26.5187 38.1141 26.4164 38.171 26.3089 38.2162C25.2317 38.714 24.2769 39.447 23.5133 40.3625C22.232 41.8499 20.948 43.3349 19.6612 44.8176C19.5085 44.9705 19.345 45.1118 19.172 45.2405L18.8202 45.2346Z" fill="black"></path><path d="M22.7515 0C23.03 0.208715 23.2572 0.479606 23.4154 0.791602C23.8219 1.53962 24.2529 2.2735 24.6653 3.01798C25.8895 5.22669 27.7253 6.60846 30.1703 7.13031C31.3438 7.37667 32.5577 7.34522 33.7172 7.03842C33.9572 6.97717 34.1959 6.92063 34.4371 6.8629C34.5642 6.83149 34.6935 6.80984 34.8238 6.79812C35.2396 6.76867 35.4481 6.89118 35.6019 7.28698C35.7976 7.80411 35.9863 8.33302 36.175 8.86429C36.7458 10.4538 37.3146 12.0437 37.8815 13.6339C37.9476 13.7957 37.9817 13.969 37.9817 14.144C37.9654 14.4079 37.8011 14.5952 37.5763 14.733C37.143 15.0039 36.7132 15.2807 36.295 15.567C34.1552 17.0183 32.7888 19.0173 32.3905 21.59C31.8348 25.1852 32.9729 28.1714 35.8104 30.4508C36.3113 30.8524 36.8448 31.2153 37.3608 31.5981C37.5043 31.6986 37.6413 31.8084 37.7708 31.9268C37.8719 32.0129 37.9443 32.1284 37.9783 32.2575C38.0123 32.3867 38.0061 32.5233 37.9607 32.6489C37.9234 32.7596 37.8908 32.8739 37.8442 32.9822C37.1236 34.7971 36.4025 36.6135 35.6811 38.4316C35.6427 38.527 35.6089 38.6247 35.5646 38.7166C35.405 39.037 34.9577 39.2173 34.6328 39.0476C34.2192 38.8333 33.7906 38.6459 33.3747 38.4374C32.5757 38.0358 31.7498 37.7142 30.861 37.594C30.43 37.5351 29.9944 37.508 29.5599 37.4762C29.4583 37.4692 29.3563 37.4692 29.2547 37.4762C28.8167 37.4998 28.5966 37.197 28.6024 36.8766C28.6082 36.4879 28.8179 36.2641 29.2326 36.2464C30.1933 36.2012 31.1549 36.3126 32.0806 36.5762C32.7502 36.7763 33.4005 37.0373 34.0236 37.3561C34.154 37.4209 34.2833 37.4904 34.4161 37.5493C34.6246 37.6423 34.6572 37.6364 34.7434 37.4232C34.9927 36.8107 35.2315 36.1958 35.4749 35.5808L36.4802 33.0411C36.6386 32.6394 36.6363 32.6418 36.2752 32.3756C35.4598 31.7772 34.6386 31.1976 33.935 30.4637C32.4445 28.945 31.4658 26.9894 31.1383 24.8754C30.6618 21.8656 31.3712 19.1563 33.1954 16.7473C33.9548 15.7413 34.903 14.9462 35.956 14.2736C36.7842 13.7399 36.6759 14.0038 36.3637 13.1015C35.8395 11.589 35.2816 10.0882 34.7329 8.58275C34.7178 8.54152 34.7073 8.49794 34.691 8.45789C34.5745 8.15161 34.5745 8.15161 34.2472 8.21287C33.7335 8.30828 33.221 8.4143 32.705 8.49441C31.6068 8.65314 30.488 8.57811 29.4201 8.27412C26.8924 7.59443 24.9623 6.11135 23.6589 3.80841C23.2465 3.08041 22.8248 2.35831 22.4288 1.6209C22.2983 1.37706 22.1353 1.30638 21.8743 1.30756C19.9376 1.3162 18.0013 1.3162 16.0653 1.30756C15.9588 1.2959 15.8513 1.31855 15.7582 1.37227C15.6651 1.426 15.5912 1.50806 15.547 1.60676C15.1276 2.3807 14.685 3.13814 14.2505 3.90736C13.8206 4.66074 13.2894 5.35015 12.6721 5.95586C12.5602 6.07136 12.4342 6.17191 12.2971 6.25507C12.1779 6.32916 12.0359 6.3563 11.8982 6.33131C11.7605 6.30633 11.6367 6.23097 11.5504 6.1196C11.4586 6.01349 11.4052 5.87892 11.399 5.73804C11.3929 5.59716 11.4344 5.45836 11.5166 5.34449C11.5584 5.28412 11.6069 5.22879 11.6611 5.17957C12.4974 4.41978 13.0787 3.4715 13.6168 2.48789C13.9337 1.90833 14.2773 1.34407 14.5871 0.760974C14.7382 0.456482 14.962 0.194923 15.2383 0H22.7515Z" fill="black"></path><path d="M18.9907 2.48227C19.6744 2.48227 20.3593 2.4964 21.0419 2.48227C21.2096 2.46371 21.3788 2.4993 21.5253 2.58394C21.6718 2.66859 21.788 2.79793 21.8573 2.95346C22.053 3.32806 22.279 3.68145 22.4723 4.06311C22.5568 4.21542 22.6021 4.38677 22.604 4.5614C22.5987 4.68099 22.5555 4.7957 22.4808 4.8886C22.4062 4.9815 22.304 5.04767 22.1893 5.07735C22.0786 5.11744 21.9584 5.12269 21.8447 5.09241C21.731 5.06214 21.629 4.99775 21.5521 4.90773C21.4762 4.81802 21.4099 4.7205 21.3541 4.61676C21.2283 4.40237 21.1002 4.1868 20.986 3.96534C20.9509 3.88474 20.8919 3.81712 20.8173 3.77177C20.7426 3.72642 20.6559 3.70557 20.569 3.71208C19.5214 3.71836 18.4731 3.71836 17.424 3.71208C17.3371 3.70398 17.25 3.72346 17.1746 3.7678C17.0992 3.81213 17.0394 3.87913 17.0034 3.95945C16.887 4.19505 16.7495 4.4224 16.6121 4.64739C16.5493 4.76238 16.4709 4.86787 16.3791 4.96073C16.2797 5.04862 16.1543 5.1006 16.0225 5.10849C15.8907 5.11638 15.76 5.07973 15.6511 5.00432C15.5401 4.93308 15.4563 4.82599 15.4131 4.70045C15.37 4.57491 15.3701 4.43831 15.4134 4.31285C15.4501 4.20149 15.4977 4.09414 15.5556 3.99244C15.7547 3.63315 15.9644 3.28565 16.1589 2.91812C16.2236 2.77761 16.3289 2.66032 16.4611 2.58184C16.5932 2.50335 16.7458 2.46739 16.8986 2.47873C17.594 2.49169 18.2918 2.48227 18.9907 2.48227Z" fill="black"></path><path d="M18.9897 4.93482C20.1545 4.90183 20.829 5.91136 20.8208 6.76893C20.8127 7.60765 20.2128 8.5948 18.9769 8.60893C18.4976 8.60737 18.0384 8.4139 17.6998 8.07083C17.3613 7.72777 17.1708 7.26305 17.1702 6.77835C17.1527 5.82772 17.9169 4.90183 18.9897 4.93482ZM19.0013 7.34496C19.1165 7.34496 19.2291 7.31042 19.3249 7.2457C19.4207 7.18098 19.4953 7.08899 19.5394 6.98137C19.5835 6.87374 19.595 6.75532 19.5726 6.64106C19.5501 6.52681 19.4946 6.42186 19.4132 6.33949C19.3317 6.25712 19.2279 6.20103 19.115 6.1783C19.002 6.15557 18.8849 6.16724 18.7785 6.21182C18.672 6.25639 18.5811 6.33189 18.5171 6.42875C18.4531 6.5256 18.4189 6.63948 18.4189 6.75597C18.4189 6.91218 18.4803 7.06199 18.5895 7.17245C18.6987 7.28291 18.8469 7.34496 19.0013 7.34496V7.34496Z" fill="black"></path><path d="M4.78249 9.64097L6.08361 9.73521C6.4913 9.76466 6.76736 10.0438 6.74057 10.4019C6.71378 10.7601 6.41442 11.0133 6.00789 10.9909C5.74697 10.9792 5.48643 10.9607 5.22629 10.9356C5.14814 10.9192 5.06676 10.9348 4.99995 10.9789C4.93315 11.0231 4.88637 11.0922 4.86985 11.1712C4.70561 11.6565 4.53554 12.1406 4.35383 12.6189C4.32048 12.684 4.31276 12.7594 4.33221 12.83C4.35167 12.9006 4.39685 12.9611 4.45866 12.9994C4.6858 13.182 4.91411 13.3646 5.12378 13.5672C5.22876 13.6658 5.30561 13.7911 5.34627 13.93C5.38159 14.0436 5.38057 14.1655 5.34334 14.2785C5.30611 14.3914 5.23457 14.4896 5.13892 14.559C5.02967 14.6326 4.90171 14.6726 4.77047 14.6743C4.63922 14.676 4.5103 14.6392 4.39926 14.5685C3.95778 14.2339 3.52097 13.8923 3.0993 13.533C2.85352 13.3233 2.88963 13.0324 2.98282 12.7579C3.17851 12.1901 3.38235 11.6259 3.58504 11.0593C3.68405 10.7836 3.78539 10.5091 3.88556 10.2347C4.08941 9.68102 4.20473 9.60328 4.78249 9.64097Z" fill="black"></path><path d="M32.5119 10.9433C32.329 10.9714 32.1446 10.9887 31.9597 10.9951C31.7058 10.9951 31.4705 10.9233 31.3342 10.6712C31.2729 10.5703 31.2431 10.453 31.2487 10.3347C31.2543 10.2164 31.2951 10.1025 31.3657 10.008C31.4194 9.92889 31.4904 9.86338 31.5732 9.81659C31.6561 9.7698 31.7485 9.74299 31.8432 9.73825C32.3208 9.70291 32.7972 9.6605 33.2748 9.63105C33.7524 9.6016 33.9143 9.70644 34.0716 10.1388C34.3822 10.9924 34.6866 11.848 34.9848 12.7056C35.1618 13.2156 35.1013 13.3959 34.6715 13.7233C34.3593 13.9589 34.0553 14.2134 33.7396 14.4549C33.6528 14.5315 33.555 14.5942 33.4495 14.641C33.3171 14.698 33.1689 14.7053 33.0315 14.6617C32.8942 14.618 32.7768 14.5262 32.7004 14.4028C32.624 14.2794 32.5937 14.1325 32.6149 13.9885C32.636 13.8445 32.7073 13.7129 32.8159 13.6173C33.036 13.4053 33.2737 13.2097 33.5148 13.0201C33.5836 12.9791 33.6341 12.9129 33.6558 12.8352C33.6775 12.7575 33.6687 12.6744 33.6313 12.6031C33.4577 12.1519 33.3086 11.6925 33.1432 11.2378C33.0337 10.9362 33.0267 10.9386 32.6994 10.9433H32.5119Z" fill="black"></path><path d="M32.3487 34.1147C32.5339 34.1653 32.8146 34.2325 33.0907 34.3232C33.2689 34.3845 33.3504 34.335 33.4285 34.1724C33.7337 33.5304 33.7372 33.534 33.2072 33.0981C33.0703 32.9878 32.9396 32.8698 32.8158 32.7447C32.7056 32.6373 32.637 32.4936 32.6224 32.3396C32.6079 32.1855 32.6484 32.0313 32.7366 31.9048C32.782 31.8376 32.8407 31.7806 32.9091 31.7375C32.9774 31.6944 33.0538 31.666 33.1335 31.6543C33.2132 31.6426 33.2944 31.6477 33.372 31.6693C33.4497 31.6909 33.522 31.7286 33.5846 31.7799C34.0167 32.1015 34.4326 32.4467 34.8519 32.7871C34.9567 32.8703 35.0308 32.9868 35.0623 33.1178C35.0938 33.2487 35.0808 33.3866 35.0255 33.5092C34.7886 34.1555 34.5347 34.7952 34.2637 35.4281C34.1064 35.7933 33.8059 35.8993 33.4401 35.7815C32.9847 35.6319 32.5316 35.4776 32.0738 35.3374C31.8326 35.2632 31.6568 35.1313 31.5997 34.8757C31.4995 34.4269 31.7884 34.0958 32.3487 34.1147Z" fill="black"></path><path d="M2.92545 33.2757C2.91824 33.18 2.9352 33.0841 2.97473 32.997C3.01426 32.9098 3.07506 32.8342 3.15142 32.7774C3.56028 32.4487 3.96681 32.113 4.38382 31.7985C4.69017 31.5629 5.00933 31.6147 5.23764 31.888C5.33696 32.0162 5.38418 32.1779 5.36968 32.3401C5.35518 32.5023 5.28004 32.6528 5.1596 32.7609C4.93944 32.9729 4.69366 33.1637 4.4607 33.3593C4.43255 33.3757 4.40793 33.3976 4.3883 33.4238C4.36867 33.45 4.35441 33.4799 4.34638 33.5117C4.33835 33.5436 4.3367 33.5767 4.34152 33.6092C4.34635 33.6417 4.35757 33.6729 4.3745 33.7009C4.47817 33.9082 4.56903 34.1238 4.66571 34.3347C4.87421 34.2923 5.08155 34.2475 5.29006 34.2086C5.47202 34.1631 5.65753 34.1335 5.84452 34.1203C5.96953 34.1171 6.09181 34.1576 6.19085 34.2348C6.2899 34.312 6.35968 34.4213 6.3885 34.5443C6.42894 34.6793 6.42245 34.8243 6.3701 34.955C6.31775 35.0857 6.22271 35.1944 6.10078 35.2629C6.03586 35.2954 5.96799 35.3214 5.8981 35.3407C5.44265 35.4891 4.9872 35.6375 4.53175 35.7824C4.19628 35.8884 3.89459 35.8036 3.75947 35.4914C3.46709 34.8212 3.21316 34.1332 2.94408 33.4524C2.93037 33.3945 2.9241 33.3351 2.92545 33.2757V33.2757Z" fill="black"></path><path d="M29.9731 26.7877C30.0752 26.7887 30.1753 26.8166 30.2636 26.8687C30.3518 26.9207 30.4251 26.9951 30.4763 27.0845C30.5321 27.1871 30.5792 27.2943 30.6172 27.4049C30.92 28.1831 31.3055 28.9256 31.7669 29.6195C31.8561 29.752 31.934 29.8919 31.9999 30.0377C32.0536 30.1584 32.0665 30.2936 32.0366 30.4224C32.0067 30.5512 31.9357 30.6665 31.8345 30.7504C31.7365 30.84 31.6113 30.8932 31.4794 30.9014C31.3475 30.9095 31.2168 30.872 31.1088 30.7952C31.0176 30.7255 30.9388 30.6407 30.8758 30.5443C30.2749 29.68 29.7838 28.7429 29.414 27.7548C29.3856 27.6871 29.3622 27.6175 29.3441 27.5463C29.3241 27.4529 29.3255 27.3562 29.3482 27.2634C29.3709 27.1707 29.4142 27.0845 29.4749 27.0113C29.5356 26.9381 29.612 26.8799 29.6984 26.8411C29.7847 26.8024 29.8787 26.7841 29.9731 26.7877V26.7877Z" fill="black"></path><path d="M6.55273 15.4719C6.81482 15.4601 6.99071 15.625 7.13514 15.8417C7.59031 16.5071 7.98264 17.2142 8.30697 17.9539C8.4118 18.1965 8.51081 18.4415 8.59818 18.6901C8.73097 19.0718 8.59818 19.3745 8.24873 19.5147C7.93189 19.6466 7.63253 19.5253 7.46246 19.1719C7.30405 18.842 7.1864 18.4898 7.0175 18.1671C6.75191 17.6617 6.45721 17.1717 6.17532 16.6746C6.0952 16.5521 6.02359 16.4242 5.96099 16.2917C5.92555 16.1975 5.91393 16.0958 5.9272 15.9959C5.94048 15.8959 5.97821 15.8009 6.03699 15.7195C6.09577 15.6381 6.17373 15.5728 6.26379 15.5295C6.35385 15.4863 6.45317 15.4664 6.55273 15.4719V15.4719Z" fill="black"></path><path d="M29.3281 18.8927C29.3456 18.8326 29.3701 18.7325 29.405 18.6371C29.7667 17.658 30.2472 16.7282 30.8354 15.8688C30.9775 15.6579 31.1325 15.473 31.4178 15.4683C31.523 15.4609 31.6282 15.4816 31.7229 15.5283C31.8176 15.575 31.8985 15.6461 31.9575 15.7344C32.0165 15.8227 32.0515 15.9251 32.059 16.0314C32.0665 16.1377 32.0463 16.2441 32.0003 16.34C31.9581 16.4337 31.9074 16.5232 31.8488 16.6074C31.3469 17.3478 30.9296 18.1433 30.6048 18.9787C30.5186 19.1989 30.4266 19.4051 30.1843 19.5123C29.8069 19.6843 29.3456 19.4016 29.3281 18.8927Z" fill="black"></path><path d="M8.65686 27.4512C8.64172 27.5054 8.61959 27.6055 8.58464 27.7009C8.21049 28.7187 7.70903 29.6838 7.09249 30.5728C6.92941 30.8084 6.71508 30.9439 6.4262 30.8862C6.3113 30.8641 6.20493 30.8095 6.11938 30.7288C6.03384 30.6482 5.97262 30.5447 5.9428 30.4303C5.87291 30.223 5.95095 30.0557 6.0488 29.8908C6.2142 29.6151 6.4064 29.3548 6.55317 29.0662C6.83972 28.5078 7.10297 27.9377 7.37671 27.3722C7.42428 27.2494 7.48277 27.1311 7.55143 27.0188C7.63084 26.9135 7.74207 26.8373 7.86823 26.8018C7.99438 26.7663 8.12855 26.7734 8.25033 26.8221C8.37316 26.873 8.47781 26.9603 8.55041 27.0727C8.62301 27.185 8.66013 27.317 8.65686 27.4512V27.4512Z" fill="black"></path><path d="M9.42289 23.2006C9.37746 23.766 9.33436 24.3209 9.28544 24.8757C9.25981 25.1608 9.07577 25.3222 8.81951 25.4011C8.71474 25.4343 8.60232 25.4337 8.49792 25.3993C8.39353 25.3649 8.30234 25.2984 8.23709 25.2091C8.15171 25.0941 8.09931 24.9576 8.08566 24.8144C8.06843 24.6094 8.07468 24.4031 8.1043 24.1995C8.1952 23.5151 8.1952 22.8214 8.1043 22.1369C8.0788 21.9326 8.071 21.7265 8.081 21.5208C8.07914 21.4471 8.0918 21.3738 8.11823 21.3051C8.14467 21.2363 8.18435 21.1736 8.23497 21.1206C8.28559 21.0675 8.34614 21.0252 8.4131 20.996C8.48005 20.9668 8.55208 20.9514 8.62498 20.9507C8.97443 20.9271 9.23535 21.1026 9.27612 21.4537C9.34485 22.0356 9.3763 22.621 9.42289 23.2006Z" fill="black"></path><path d="M28.5664 23.1764C28.6118 22.6145 28.6433 22.0574 28.705 21.5049C28.7493 21.1114 28.9846 20.9277 29.3527 20.9477C29.7208 20.9677 29.9025 21.1951 29.9106 21.5968C29.9128 21.6262 29.9128 21.6557 29.9106 21.6851C29.7936 22.677 29.7936 23.6794 29.9106 24.6713C29.9349 24.7948 29.9213 24.9229 29.8718 25.0384C29.8223 25.1539 29.7391 25.2515 29.6334 25.318C29.5486 25.3764 29.4503 25.4114 29.3481 25.4197C29.2459 25.428 29.1433 25.4092 29.0505 25.3652C28.9576 25.3212 28.8777 25.2536 28.8186 25.1689C28.7594 25.0842 28.7231 24.9854 28.7132 24.8822C28.6375 24.3167 28.6118 23.7442 28.5664 23.1764Z" fill="black"></path><path d="M24.1152 35.251C24.4809 35.251 24.6661 35.39 24.7744 35.6503C24.8223 35.7591 24.8338 35.8807 24.8073 35.9967C24.7809 36.1127 24.7178 36.2169 24.6277 36.2935C24.5081 36.401 24.3768 36.4943 24.2363 36.5715C23.5637 36.983 22.9407 37.472 22.3795 38.0287C22.2682 38.1439 22.1416 38.2431 22.0033 38.3232C21.8934 38.382 21.7676 38.4032 21.6448 38.3837C21.5219 38.3642 21.4086 38.3049 21.3219 38.2148C21.2243 38.1252 21.1596 38.0048 21.1384 37.8732C21.1173 37.7416 21.1409 37.6066 21.2054 37.4903C21.2537 37.4001 21.315 37.3175 21.3871 37.2453C22.0915 36.5205 22.8901 35.8959 23.761 35.3888C23.8742 35.3309 23.9928 35.2848 24.1152 35.251Z" fill="black"></path><path d="M13.8707 35.251C13.9946 35.2835 14.1148 35.3289 14.2294 35.3865C15.0903 35.8815 15.8803 36.4931 16.5778 37.2041C16.6772 37.3084 16.7601 37.4276 16.8235 37.5575C16.94 37.8025 16.8538 38.0287 16.6791 38.1983C16.5044 38.3679 16.2865 38.4657 16.0419 38.3361C15.9136 38.2713 15.7958 38.1871 15.6925 38.0864C15.0834 37.4739 14.4018 36.9398 13.6633 36.4961C13.5598 36.4422 13.4642 36.374 13.3791 36.2935C13.216 36.1121 13.1194 35.9048 13.2219 35.6503C13.3244 35.3959 13.5049 35.251 13.8707 35.251Z" fill="black"></path><path d="M8.64067 33.7668C9.61318 33.8099 10.5782 33.9592 11.519 34.2121C11.7764 34.2851 11.9616 34.4264 12.007 34.7115C12.0851 35.198 11.7368 35.5361 11.2487 35.4395C10.6791 35.3288 10.1107 35.2039 9.5376 35.1144C9.23824 35.0661 8.92955 35.0743 8.62553 35.052C8.48088 35.0496 8.33685 35.0323 8.19571 35.0001C8.05939 34.9683 7.93894 34.888 7.85639 34.7738C7.77383 34.6596 7.73467 34.5191 7.74608 34.3782C7.75176 34.2371 7.80445 34.1021 7.8956 33.9952C7.98675 33.8882 8.111 33.8156 8.24813 33.7892C8.3782 33.7714 8.50945 33.7639 8.64067 33.7668V33.7668Z" fill="black"></path><path d="M29.3404 33.7774C29.4568 33.7694 29.5735 33.7694 29.6899 33.7774C29.8369 33.7927 29.9738 33.8603 30.0762 33.9682C30.1786 34.076 30.2398 34.2171 30.249 34.3664C30.2632 34.5148 30.2224 34.6634 30.1347 34.7832C30.0469 34.9031 29.9183 34.9858 29.7737 35.0154C29.6759 35.0426 29.5747 35.0557 29.4732 35.0543C28.6148 35.0539 27.7603 35.1728 26.9339 35.4077C26.864 35.4266 26.7918 35.4407 26.7207 35.4525C26.3806 35.5102 26.0789 35.3347 26.0008 35.039C25.9042 34.6679 26.0591 34.3452 26.4213 34.2356C26.7686 34.1277 27.1228 34.0439 27.4813 33.9847C28.0987 33.8893 28.7196 33.8257 29.3451 33.7491L29.3404 33.7774Z" fill="black"></path><path d="M20.6393 39.8134C20.603 39.9275 20.5508 40.0358 20.4843 40.135C20.1617 40.532 19.8344 40.9254 19.4884 41.2988C19.1902 41.6204 18.7895 41.6157 18.496 41.2918C18.1465 40.916 17.8134 40.5296 17.5 40.1268C17.4265 40.0445 17.3762 39.9439 17.3542 39.8353C17.3323 39.7267 17.3395 39.6142 17.3752 39.5094C17.4109 39.4046 17.4737 39.3114 17.5571 39.2395C17.6406 39.1677 17.7415 39.1197 17.8495 39.1007C17.9496 39.0798 18.0535 39.0865 18.1502 39.1201C18.2469 39.1536 18.333 39.2129 18.3993 39.2916C18.5635 39.4577 18.715 39.6355 18.8652 39.8111C18.9549 39.9135 19.0295 39.9018 19.1157 39.804C19.2787 39.6179 19.4406 39.4282 19.6177 39.255C19.7042 39.1639 19.8187 39.1051 19.9425 39.0884C20.0663 39.0718 20.1921 39.0981 20.2991 39.1632C20.5379 39.2821 20.6451 39.4753 20.6393 39.8134Z" fill="black"></path><path d="M12.9306 8.81215C12.5567 8.83571 12.3703 8.7026 12.255 8.48232C12.2017 8.38527 12.1765 8.27493 12.1825 8.16405C12.1885 8.05317 12.2253 7.94625 12.2888 7.85564C12.3362 7.78197 12.3962 7.71736 12.4659 7.6648C13.112 7.16593 13.7089 6.60495 14.2481 5.98972C14.3563 5.87426 14.4949 5.79251 14.6476 5.75412C14.7684 5.72298 14.8961 5.73394 15.0101 5.78524C15.124 5.83654 15.2175 5.92518 15.2754 6.03684C15.3421 6.1433 15.3737 6.26843 15.3655 6.39419C15.3574 6.51994 15.3099 6.63983 15.23 6.73656C15.055 6.97047 14.8626 7.1906 14.6546 7.39505C14.2096 7.81323 13.7507 8.21963 13.2859 8.61425C13.1762 8.69516 13.0569 8.76166 12.9306 8.81215Z" fill="black"></path><path d="M23.2415 5.74649C23.3312 5.73886 23.4214 5.75356 23.5043 5.78928C23.5871 5.82501 23.6601 5.88068 23.7167 5.95145C24.2737 6.58917 24.8887 7.17248 25.5537 7.69368C25.6222 7.74181 25.6804 7.80342 25.7247 7.87482C25.7691 7.94623 25.7988 8.02595 25.812 8.10923C25.8252 8.19251 25.8216 8.27762 25.8015 8.35947C25.7814 8.44132 25.7451 8.51822 25.6949 8.58557C25.6447 8.65292 25.5816 8.70932 25.5093 8.75141C25.4371 8.7935 25.3571 8.8204 25.2743 8.8305C25.1915 8.84061 25.1076 8.83371 25.0275 8.81022C24.9474 8.78672 24.8728 8.74712 24.8082 8.69379C24.0431 8.13503 23.3542 7.47676 22.7592 6.73599C22.6785 6.63968 22.6305 6.51969 22.6223 6.39371C22.6142 6.26773 22.6462 6.14242 22.7138 6.03627C22.762 5.93923 22.8383 5.85943 22.9327 5.80762C23.027 5.75581 23.1348 5.73448 23.2415 5.74649V5.74649Z" fill="black"></path><path d="M8.42189 10.7765C8.0142 10.7765 7.77657 10.5975 7.73464 10.2723C7.68688 9.90716 7.85112 9.65036 8.22154 9.56555C9.01364 9.39054 9.78748 9.13967 10.5326 8.81635C10.639 8.77192 10.7529 8.74834 10.868 8.74685C10.9991 8.73225 11.1309 8.76607 11.2393 8.84206C11.3476 8.91805 11.4251 9.03109 11.4574 9.16033C11.5332 9.4666 11.4411 9.73871 11.186 9.8836C11.0111 9.98561 10.8265 10.0697 10.6351 10.1345C9.98859 10.3454 9.33862 10.5445 8.68747 10.7424C8.60023 10.7623 8.5113 10.7737 8.42189 10.7765V10.7765Z" fill="black"></path><path d="M29.5369 10.7774C29.4204 10.755 29.2235 10.7185 29.0267 10.6737C28.3063 10.5023 27.6041 10.2605 26.93 9.95159C26.6003 9.80434 26.4827 9.5982 26.5176 9.25658C26.521 9.1222 26.576 8.99445 26.6711 8.90051C26.7662 8.80656 26.8937 8.75385 27.0267 8.75358C27.2144 8.75274 27.4005 8.78958 27.5741 8.86196C28.2029 9.13362 28.8559 9.34425 29.5241 9.491C29.624 9.51107 29.7228 9.53663 29.8199 9.56757C29.9677 9.60788 30.0945 9.7041 30.1741 9.83632C30.2537 9.96854 30.2799 10.1266 30.2474 10.2779C30.2055 10.5901 29.9725 10.7726 29.5369 10.7774Z" fill="black"></path></svg>