<svg xmlns="http://www.w3.org/2000/svg" width="42" height="42" viewBox="0 0 42 42" fill="none"><path d="M42 6.3L39.9 8.6625L37.065 11.4975C36.96 11.6025 36.9075 11.8125 36.9075 12.0225V27.195C36.9075 27.5625 36.8025 27.8775 36.435 27.9825C35.9625 28.0875 35.6475 27.825 35.6475 27.3C35.6475 27.0375 35.5425 26.985 35.28 26.985C35.0175 26.985 34.7025 26.985 34.545 26.8275C34.3875 26.7225 34.2825 26.355 34.335 26.1975C34.335 25.9875 34.65 25.83 34.8075 25.7775C35.6475 25.6725 35.6475 25.6725 35.6475 24.8325L35.595 21.9975C35.595 21.8925 35.4375 21.7875 35.3325 21.735C35.1225 21.6825 34.8075 21.735 34.5975 21.63C34.44 21.525 34.2825 21.21 34.2825 21C34.335 20.79 34.5975 20.6325 34.755 20.5275L34.9125 20.475C35.6475 20.4225 35.6475 20.4225 35.6475 19.6875V16.9575C35.6475 16.5375 35.5425 16.3275 35.1225 16.4325C35.0528 16.4419 34.9822 16.4419 34.9125 16.4325C34.545 16.4325 34.2825 16.2225 34.2825 15.855C34.23 15.435 34.4925 15.225 34.86 15.225C35.6475 15.12 35.6475 15.12 35.6475 14.3325V13.2825C35.6394 13.1934 35.6218 13.1054 35.595 13.02C35.521 13.0669 35.4508 13.1196 35.385 13.1775L30.66 17.9025L17.4825 31.08L13.1775 35.385C13.1184 35.4498 13.0656 35.5201 13.02 35.595C13.106 35.6195 13.1937 35.637 13.2825 35.6475H14.805C15.0675 35.6475 15.12 35.5425 15.12 35.3325C15.12 35.07 15.1725 34.755 15.33 34.545C15.435 34.3875 15.8025 34.335 15.96 34.44C16.1175 34.4925 16.275 34.755 16.3275 34.9125C16.38 35.6475 16.38 35.6475 17.0625 35.6475H20.0025C20.3175 35.6475 20.37 35.5425 20.4225 35.2275C20.4225 34.965 20.5275 34.5975 20.7375 34.44C21.1575 34.125 21.63 34.4925 21.5775 35.07C21.5775 35.5425 21.735 35.6475 22.155 35.6475H25.095C25.5675 35.6475 25.725 35.5425 25.6725 35.07C25.62 34.5975 25.935 34.335 26.355 34.3875C26.775 34.44 26.9325 34.755 26.88 35.1225C26.8275 35.5425 26.985 35.6475 27.405 35.6475H30.66C30.765 35.6475 30.87 35.49 30.9225 35.385V34.965C30.975 34.5975 31.185 34.3875 31.5525 34.3875C31.92 34.3875 32.13 34.5975 32.1825 34.965C32.235 35.6475 32.235 35.6475 32.9175 35.6475H35.175C35.49 35.6475 35.6475 35.5425 35.6475 35.175L35.595 32.4975L35.385 32.235H34.86C34.4925 32.235 34.2825 32.025 34.2825 31.6575C34.23 31.29 34.4925 31.0275 34.8075 31.0275C35.49 31.1325 35.7 30.87 35.6475 30.1875C35.6475 29.8725 35.91 29.61 36.2775 29.61C36.645 29.61 36.855 29.8725 36.855 30.24V35.4375C36.855 36.2775 36.1725 36.855 35.28 36.9075H12.0225C11.8112 36.9069 11.6066 36.9813 11.445 37.1175L7.0875 41.475C6.8775 41.685 6.5625 41.8425 6.3 42H5.6175L4.6725 41.3175L2.9925 39.6375L0 36.3825V35.7C0.1575 35.4375 0.315 35.1225 0.525 34.9125L4.8825 30.555C5.01488 30.3913 5.08879 30.188 5.0925 29.9775V6.93C5.0925 5.7225 5.7225 5.145 6.93 5.145L29.9775 5.0925C30.1888 5.09307 30.3934 5.01865 30.555 4.8825L32.655 2.7825L35.7 0H36.3825L37.17 0.525L39.585 2.94L42 5.6175V6.3ZM13.0725 6.405H11.97C11.13 6.405 11.13 6.405 11.0775 7.245C11.025 7.6125 10.815 7.8225 10.4475 7.8225C10.08 7.8225 9.87 7.6125 9.8175 7.245V6.6675C9.8175 6.5625 9.66 6.405 9.555 6.405L6.7725 6.3525C6.4575 6.3525 6.3525 6.51 6.3525 6.7725V9.03C6.3525 9.87 6.3525 9.8175 7.1925 9.9225C7.35 9.975 7.6125 10.2375 7.7175 10.4475C7.8225 10.71 7.665 11.025 7.35 11.0775L6.615 11.1825C6.51 11.1825 6.405 11.34 6.405 11.3925L6.3525 14.28C6.3525 14.5425 6.3 14.91 6.405 15.12C6.51 15.225 6.93 15.12 7.14 15.225C7.35 15.33 7.665 15.54 7.665 15.75C7.665 15.96 7.455 16.2225 7.2975 16.38C7.14 16.485 6.8775 16.4325 6.6675 16.4325C6.4575 16.38 6.3525 16.485 6.3525 16.7475V19.635C6.3525 20.4225 6.3525 20.4225 7.14 20.475H7.1925C7.35 20.6325 7.665 20.79 7.665 21C7.665 21.21 7.5075 21.525 7.2975 21.63C7.14 21.7875 6.8775 21.6825 6.6675 21.735C6.5625 21.735 6.405 21.8925 6.405 21.9975L6.3525 24.885C6.3525 25.6725 6.3525 25.6725 7.1925 25.7775C7.5075 25.7775 7.7175 25.9875 7.7175 26.355C7.7175 26.7225 7.5075 26.9325 7.1925 26.985H6.615C6.51 26.985 6.405 27.1425 6.405 27.195L6.3525 28.455L6.405 28.98L6.825 28.665L24.0975 11.34C24.4125 11.025 24.78 10.9725 25.0425 11.2875C25.305 11.55 25.2525 11.9175 24.9375 12.2325L18.165 19.005L1.68 35.49C1.155 36.0675 1.155 36.0675 1.68 36.5925C2.415 37.275 2.415 37.275 3.15 36.4875L20.37 19.32L37.1175 2.5725V2.205L36.435 1.5225C36.12 1.2075 35.9625 1.2075 35.6475 1.5225L27.195 10.0275C26.8275 10.3425 26.46 10.395 26.1975 10.08C25.935 9.765 25.9875 9.5025 26.3025 9.135L28.8225 6.615C28.8825 6.55093 28.9353 6.48052 28.98 6.405C28.8927 6.3977 28.8048 6.3977 28.7175 6.405H27.72C26.9325 6.405 26.9325 6.405 26.88 7.14C26.8846 7.1924 26.8846 7.2451 26.88 7.2975C26.775 7.665 26.565 7.875 26.1975 7.8225C25.83 7.77 25.6725 7.56 25.6725 7.1925C25.6614 7.01768 25.6614 6.84232 25.6725 6.6675C25.6725 6.405 25.5675 6.3525 25.3575 6.3525L22.47 6.405C21.6825 6.405 21.6825 6.405 21.5775 7.1925V7.245C21.5775 7.665 21.315 7.8225 21 7.8225C20.6325 7.8225 20.4225 7.6125 20.4225 7.2975L20.37 6.6675C20.37 6.5625 20.2125 6.405 20.1075 6.405H17.2725C16.38 6.405 16.4325 6.405 16.3275 7.245C16.275 7.455 16.0125 7.77 15.8025 7.77C15.5925 7.8225 15.2775 7.6125 15.1725 7.4025C15.0675 7.1925 15.12 6.8775 15.0675 6.6675C15.0675 6.5625 14.91 6.405 14.8575 6.405H13.0725ZM12.1275 31.7625C12.285 31.605 12.39 31.3425 12.6 31.29C12.81 31.2375 13.0725 31.29 13.2825 31.4475L14.175 32.2875H14.49L15.75 31.0275V30.765L14.8575 29.82C14.595 29.5575 14.595 29.2425 14.8575 28.98C15.12 28.665 15.435 28.7175 15.6975 28.98L16.6425 29.8725H16.905L18.165 28.6125V28.2975L17.325 27.4575C17.0625 27.1425 16.9575 26.8275 17.2725 26.5125C17.5875 26.1975 17.955 26.3025 18.2175 26.565L19.11 27.4575H19.32L20.6325 26.145V25.8825L19.7925 24.99C19.4775 24.675 19.425 24.36 19.74 24.045C20.055 23.73 20.37 23.835 20.6325 24.0975L21.525 24.99H21.7875L23.1 23.6775V23.415L22.2075 22.5225C21.945 22.26 21.8925 21.8925 22.155 21.63C22.47 21.315 22.785 21.3675 23.1 21.6825L23.94 22.5225H24.255L25.5675 21.21L25.515 21L24.6225 20.055C24.36 19.7925 24.36 19.425 24.6225 19.1625C24.885 18.9 25.2525 18.9 25.515 19.215L26.4075 20.055H26.7225L27.9825 18.795V18.5325L27.1425 17.64C26.88 17.325 26.775 17.01 27.09 16.7475C27.405 16.485 27.72 16.485 27.9825 16.8L28.875 17.64H29.19L30.45 16.3275V16.065L29.5575 15.1725C29.295 14.91 29.2425 14.595 29.505 14.28C29.715 14.0175 30.135 14.0175 30.45 14.28L31.3425 15.1725H31.605L32.8125 13.965V13.5975C32.6025 13.2825 32.2875 13.02 32.025 12.7575C31.71 12.4425 31.71 12.1275 31.9725 11.8125C32.1825 11.55 32.6025 11.6025 32.9175 11.865L33.81 12.7575H34.02L35.3325 11.445V11.1825L34.44 10.29C34.1775 9.975 34.125 9.66 34.3875 9.3975C34.65 9.135 35.0175 9.0825 35.28 9.3975L36.1725 10.2375C36.2775 10.29 36.4875 10.3425 36.54 10.29L37.7475 9.03V8.715L36.9075 7.8225C36.5925 7.56 36.5925 7.1925 36.855 6.93C37.1175 6.6675 37.485 6.6675 37.7475 6.93L38.64 7.77C38.6925 7.875 38.9025 7.875 39.0075 7.8225L40.5825 6.195C40.7925 6.0375 40.7925 5.88 40.5825 5.7225L38.325 3.465H37.9575L27.72 13.65L11.97 29.4525L3.465 37.9575V38.325L5.7225 40.5825C5.8275 40.6875 6.09 40.6875 6.195 40.5825L8.4 38.43V38.0625L7.56 37.275C7.245 36.9075 7.1925 36.54 7.5075 36.2775C7.77 36.015 8.1375 36.0675 8.4525 36.3825C8.715 36.6975 8.9775 36.96 9.2925 37.17C9.345 37.2225 9.555 37.275 9.6075 37.17L10.8675 35.9625V35.6475L9.9225 34.7025C9.66 34.44 9.66 34.125 9.975 33.8625C10.2375 33.6 10.5525 33.6 10.815 33.8625L11.655 34.7025C11.8125 34.86 11.9175 34.9125 12.1275 34.7025L12.915 33.915C13.44 33.3375 13.44 33.3375 12.915 32.8125L12.4425 32.34L12.1275 31.7625Z" fill="black"></path></svg>