<svg xmlns="http://www.w3.org/2000/svg" width="29" height="52" viewBox="0 0 29 52" fill="none"><path d="M26.1745 27.8241C26.1666 28.2487 25.8145 28.5802 25.3988 28.5716C24.9781 28.5638 24.6436 28.2165 24.6514 27.7958C24.6557 27.5618 24.6586 27.3279 24.6601 27.0941C24.6629 26.6752 25.0034 26.3374 25.4218 26.3374C25.8442 26.3374 26.1863 26.6811 26.1836 27.1041C26.182 27.344 26.179 27.5841 26.1745 27.8241V27.8241Z" fill="black"></path><path d="M26.0485 31.1922C26.0302 31.6132 25.6737 31.9388 25.2544 31.9202C24.834 31.9019 24.5081 31.5463 24.5264 31.1261L24.5572 30.4158C24.5755 29.9955 24.9301 29.6675 25.3514 29.6878C25.7716 29.7061 26.0975 30.0617 26.0794 30.482L26.0485 31.1922Z" fill="black"></path><path d="M25.902 34.5408C25.8837 34.9628 25.5263 35.287 25.1079 35.2687C24.6876 35.2503 24.3617 34.8948 24.38 34.4744L24.4108 33.7642C24.4291 33.344 24.7861 33.0183 25.205 33.0363C25.6253 33.0547 25.9511 33.4102 25.9329 33.8305L25.902 34.5408Z" fill="black"></path><path d="M25.3711 44.7107C25.2792 45.1238 24.8696 45.38 24.462 45.2887C24.0514 45.1974 23.7926 44.7904 23.884 44.3796C23.9274 44.1848 23.9572 43.9844 23.9729 43.7839C24.0054 43.3644 24.3717 43.0504 24.7912 43.0833C25.2107 43.1158 25.5243 43.4822 25.4918 43.9017C25.4706 44.1737 25.4301 44.4459 25.3711 44.7107V44.7107Z" fill="black"></path><path d="M25.7574 37.8893C25.7391 38.3113 25.3817 38.6356 24.9632 38.6172C24.543 38.5988 24.2171 38.2434 24.2353 37.823L24.2662 37.1128C24.2845 36.6925 24.6393 36.3666 25.0604 36.3849C25.4807 36.4032 25.8066 36.7587 25.7883 37.1791L25.7574 37.8893Z" fill="black"></path><path d="M23.3672 47.9304C23.0394 48.1939 22.5597 48.1421 22.2962 47.8141C22.0325 47.4863 22.0845 47.0068 22.4124 46.7432C22.5684 46.6178 22.7166 46.48 22.8531 46.3338C23.14 46.0262 23.622 46.0094 23.9297 46.2964C24.2374 46.5833 24.2541 47.0654 23.9672 47.3729C23.7813 47.5721 23.5794 47.7596 23.3672 47.9304V47.9304Z" fill="black"></path><path d="M25.611 41.2378C25.5926 41.6597 25.2353 41.9842 24.8169 41.9657C24.3965 41.9473 24.0707 41.5919 24.089 41.1715L24.1198 40.4613C24.1381 40.0409 24.4921 39.7145 24.9139 39.7334C25.3342 39.7518 25.6601 40.1072 25.6418 40.5276L25.611 41.2378Z" fill="black"></path><path d="M23.8231 10.3496C23.891 10.5799 23.9573 10.8105 24.0222 11.0416C24.136 11.4466 23.8999 11.8672 23.4949 11.9811C23.089 12.0949 22.6691 11.858 22.5555 11.4537C22.4922 11.2287 22.4276 11.0039 22.3616 10.7796C22.2429 10.376 22.4737 9.95254 22.8774 9.83372C23.2805 9.71529 23.7043 9.94604 23.8231 10.3496V10.3496Z" fill="black"></path><path d="M21.424 5.59942C21.1145 5.88837 20.6326 5.86795 20.3474 5.56245C20.2126 5.41803 20.0655 5.28295 19.9103 5.16077C19.5796 4.90067 19.5224 4.4217 19.7826 4.09112C20.0427 3.76023 20.5217 3.70335 20.8522 3.96335C21.0685 4.13347 21.2733 4.32167 21.461 4.52276C21.7482 4.83029 21.7316 5.31241 21.424 5.59942V5.59942Z" fill="black"></path><path d="M22.839 7.13586L23.0482 7.81542C23.1719 8.2175 22.9462 8.64386 22.5441 8.76746C22.1456 8.89035 21.7168 8.66885 21.5921 8.26351L21.3829 7.58395C21.2592 7.18187 21.4849 6.75551 21.887 6.63191C22.2892 6.5081 22.7153 6.73388 22.839 7.13586Z" fill="black"></path><path d="M25.2212 21.8736C24.7999 21.9148 24.4294 21.6068 24.3884 21.1903C24.3654 20.9576 24.341 20.7251 24.3151 20.4926C24.2686 20.0746 24.5699 19.6979 24.9881 19.6514C25.4064 19.6047 25.7829 19.9062 25.8293 20.3243C25.8558 20.563 25.8809 20.8018 25.9045 21.0407C25.9457 21.4595 25.6399 21.8324 25.2212 21.8736Z" fill="black"></path><path d="M26.14 24.4287C26.1572 24.8596 25.813 25.2207 25.3783 25.2207C24.9715 25.2207 24.634 24.8994 24.6177 24.4893C24.6084 24.2556 24.5977 24.022 24.5855 23.7884C24.5636 23.3682 24.8864 23.0099 25.3065 22.988C25.7271 22.9649 26.085 23.2889 26.1069 23.7091C26.1195 23.9488 26.1305 24.1887 26.14 24.4287V24.4287Z" fill="black"></path><path d="M24.685 13.6331C24.7393 13.8672 24.7921 14.1014 24.8435 14.3358C24.9335 14.7467 24.6734 15.1528 24.2624 15.2428C23.849 15.3332 23.4449 15.0707 23.3553 14.6617C23.3053 14.4334 23.2539 14.2054 23.201 13.9774C23.1058 13.5675 23.3609 13.1582 23.7708 13.0632C24.1801 12.9679 24.5898 13.2231 24.685 13.6331V13.6331Z" fill="black"></path><path d="M10.319 18.6353C10.7016 18.4608 11.1536 18.6291 11.3284 19.0117C11.4213 19.2151 11.5204 19.4183 11.623 19.6158C11.817 19.989 11.6717 20.4489 11.2984 20.643C10.9253 20.8372 10.4653 20.6918 10.2712 20.3185C10.1567 20.0982 10.0461 19.8715 9.94255 19.6448C9.76787 19.262 9.93636 18.8101 10.319 18.6353Z" fill="black"></path><path d="M12.9908 21.7353C13.1359 21.934 13.2789 22.1385 13.4159 22.3429C13.6501 22.6924 13.5567 23.1656 13.2072 23.3998C12.8583 23.6336 12.3849 23.5412 12.1503 23.191C12.0247 23.0034 11.8935 22.8159 11.7603 22.6336C11.5123 22.2937 11.5867 21.8172 11.9266 21.5691C12.2664 21.3212 12.7429 21.3955 12.9908 21.7353Z" fill="black"></path><path d="M13.7589 24.3729C14.1391 24.1934 14.5934 24.3561 14.773 24.7364C14.8779 24.9586 14.9799 25.1863 15.0761 25.4131C15.2403 25.8004 15.0594 26.2475 14.6722 26.4118C14.2824 26.577 13.8366 26.3926 13.6735 26.0077C13.5853 25.7995 13.4916 25.5906 13.3954 25.3869C13.2158 25.0066 13.3785 24.5527 13.7589 24.3729Z" fill="black"></path><path d="M10.2278 3.25365C10.4954 3.09622 10.7833 2.97811 11.0835 2.90265C11.4915 2.80047 11.9055 3.04768 12.0081 3.45565C12.1107 3.86363 11.8631 4.2775 11.4552 4.38018C11.2957 4.42029 11.1426 4.48316 11.0001 4.56695C10.636 4.78094 10.1697 4.65775 9.95722 4.29659C9.74414 3.93391 9.86521 3.46703 10.2278 3.25365V3.25365Z" fill="black"></path><path d="M15.9567 28.0216C16.0177 28.2602 16.0746 28.5031 16.1257 28.7439C16.2133 29.1554 15.9507 29.56 15.5391 29.6475C15.1294 29.7351 14.7234 29.4737 14.6356 29.0609C14.5887 28.8402 14.5366 28.6175 14.4807 28.3987C14.3766 27.9911 14.6226 27.5763 15.0302 27.4722C15.4374 27.3682 15.8525 27.6139 15.9567 28.0216V28.0216Z" fill="black"></path><path d="M13.9023 2.80423H14.6133C15.034 2.80423 15.375 3.14528 15.375 3.56595C15.375 3.98662 15.034 4.32767 14.6133 4.32767H13.9023C13.4817 4.32767 13.1406 3.98662 13.1406 3.56595C13.1406 3.14528 13.4816 2.80423 13.9023 2.80423V2.80423Z" fill="black"></path><path d="M25.3558 16.9617C25.3964 17.1985 25.4354 17.4354 25.4729 17.6725C25.5387 18.088 25.2552 18.4782 24.8397 18.544C24.4235 18.6094 24.034 18.326 23.9682 17.9106C23.9316 17.6797 23.8936 17.4491 23.8541 17.2185C23.7832 16.8038 24.0618 16.4101 24.4765 16.3392C24.8913 16.2687 25.2848 16.5471 25.3558 16.9617Z" fill="black"></path><path d="M9.37305 5.3421C9.7926 5.3421 10.1351 5.68213 10.1348 6.10423L10.1344 6.81516C10.1342 7.23584 9.79321 7.57648 9.37264 7.57648C8.95309 7.57648 8.61062 7.23645 8.61092 6.81435L8.61133 6.10341C8.61153 5.68274 8.95248 5.3421 9.37305 5.3421V5.3421Z" fill="black"></path><path d="M19.7917 49.1957C19.3728 49.1957 19.0321 48.8571 19.0301 48.4377C19.0279 48.017 19.3673 47.6743 19.788 47.6722C19.9893 47.6712 20.1916 47.6561 20.3894 47.627C20.8057 47.5661 21.1925 47.8539 21.2536 48.2702C21.3146 48.6864 21.0267 49.0734 20.6105 49.1344C20.3283 49.1757 20.0368 49.1957 19.7917 49.1957V49.1957Z" fill="black"></path><path d="M17.8884 4.34777C17.7562 4.33446 17.6209 4.32776 17.4862 4.32776H17.2547C16.834 4.32776 16.493 3.98671 16.493 3.56604C16.493 3.14537 16.834 2.80432 17.2547 2.80432H17.4862C17.6717 2.80432 17.8584 2.81367 18.0411 2.83205C18.4597 2.8742 18.7648 3.24764 18.7227 3.66628C18.6804 4.08594 18.3047 4.39083 17.8884 4.34777Z" fill="black"></path><path d="M9.37109 8.69376C9.79065 8.69376 10.1331 9.03379 10.1328 9.45588L10.1324 10.1668C10.1322 10.5875 9.79126 10.9281 9.37069 10.9281C8.95113 10.9281 8.60866 10.5881 8.60897 10.166L8.60937 9.45507C8.60958 9.0345 8.95062 8.69376 9.37109 8.69376Z" fill="black"></path><path d="M9.02952 17.0192C8.97021 16.7778 8.91638 16.5315 8.86936 16.2868C8.78994 15.8736 9.0605 15.4744 9.47366 15.395C9.88671 15.3155 10.2861 15.5861 10.3655 15.9993C10.4076 16.2185 10.456 16.4394 10.5091 16.6557C10.6094 17.0644 10.3596 17.4768 9.951 17.5771C9.54445 17.6776 9.13027 17.4291 9.02952 17.0192V17.0192Z" fill="black"></path><path d="M8.60702 13.5178L8.60742 12.8068C8.60762 12.3861 8.94857 12.0455 9.36914 12.0455C9.7887 12.0455 10.1312 12.3855 10.1309 12.8076L10.1305 13.5186C10.1303 13.9392 9.7893 14.2799 9.36873 14.2799C8.94918 14.2799 8.60681 13.9399 8.60702 13.5178V13.5178Z" fill="black"></path><path d="M0.0424361 42.6003L0.211945 40.9083C0.253991 40.4895 0.626929 40.1844 1.04587 40.2262C1.46451 40.2681 1.76981 40.6415 1.72797 41.06L1.55846 42.7521C1.36102 44.7231 2.01001 46.6961 3.33906 48.1649C4.6682 49.6339 6.56691 50.4765 8.54819 50.4765C12.2815 50.4765 15.4006 47.5651 15.5662 43.757C15.6376 42.1152 15.9373 35.2215 15.9868 34.0799C11.5804 35.5814 6.82194 35.5436 2.4387 33.9709C2.42895 34.0771 2.38924 34.4688 2.08222 37.5266C2.04027 37.9451 1.66805 38.2504 1.24829 38.2085C0.829649 38.1665 0.52435 37.7931 0.566397 37.3745L0.910187 33.9498C0.934663 33.7069 0.952945 33.4595 0.964523 33.2142C0.980164 32.8858 1.15434 32.5837 1.43039 32.4056C1.70766 32.2266 2.05672 32.1928 2.36385 32.3145C5.50721 33.5602 8.88254 33.9382 12.1687 33.447C12.3831 30.1167 11.4026 26.8278 9.38212 24.1338L9.29549 24.0183C7.04121 21.0126 5.80073 17.2881 5.80286 13.5309L5.80702 6.07049C5.80885 2.7232 8.53347 0 11.8807 0H17.4868C21.1292 0 24.2962 2.33898 25.3675 5.82034L25.9008 7.55341C26.0245 7.95549 25.7988 8.38185 25.3967 8.50545C24.9944 8.62966 24.5683 8.40348 24.4447 8.0015L23.9114 6.26844C23.0381 3.43038 20.4563 1.52344 17.4869 1.52344H11.8808C9.37319 1.52344 7.33199 3.56352 7.33056 6.0711L7.3264 13.5315C7.32447 16.9609 8.45669 20.3604 10.5144 23.1043L10.601 23.2197C12.7607 26.0993 13.8481 29.5936 13.7094 33.1509C14.2085 33.0335 14.7042 32.8956 15.1956 32.7372C15.0765 32.6055 15.0028 32.432 14.9993 32.2405C14.9953 32.0145 14.9865 31.786 14.9733 31.5612C14.9487 31.1411 15.2691 30.7806 15.6892 30.756C16.1085 30.732 16.4696 31.0517 16.4943 31.4717C16.5088 31.7172 16.5183 31.9665 16.5228 32.2131C16.5235 32.2532 16.5211 32.2927 16.5158 32.3313C16.7284 32.3301 16.9391 32.3956 17.1175 32.5242C17.3981 32.7264 17.5567 33.0533 17.5417 33.3988L17.3122 38.6752H20.4648L19.5453 37.7557C19.2478 37.4581 19.2478 36.9759 19.5453 36.6783C19.8428 36.3809 20.3251 36.3809 20.6226 36.6783L22.8425 38.8982C23.1382 39.1925 23.143 39.6789 22.8391 39.979L20.6226 42.1956C20.3252 42.493 19.8429 42.4931 19.5453 42.1957C19.2478 41.8982 19.2478 41.4159 19.5453 41.1184L20.4649 40.1986H17.2459L17.0883 43.8232C17.0452 44.8142 16.8361 45.759 16.4886 46.631C16.7124 46.5725 16.9601 46.6164 17.1553 46.7715C17.3122 46.8961 17.4792 47.0101 17.6514 47.1104C18.015 47.322 18.1381 47.7883 17.9266 48.1519C17.7149 48.5155 17.2483 48.6386 16.885 48.4269C16.6497 48.29 16.4219 48.1344 16.2079 47.9644C16.1084 47.8854 16.0341 47.7866 15.9858 47.678C15.7599 48.0761 15.5031 48.4538 15.2187 48.8082C16.4852 49.8886 18.0752 50.4764 19.7655 50.4764C23.537 50.4764 26.6196 47.5249 26.7834 43.7569L27.4104 29.3365C27.6726 23.3075 27.0178 17.2937 25.4645 11.4622C25.3563 11.0557 25.598 10.6384 26.0046 10.5301C26.411 10.4213 26.8284 10.6637 26.9367 11.0701C28.5299 17.0511 29.2014 23.2191 28.9325 29.4029L28.3056 43.8232C28.1059 48.4083 24.3546 52 19.7651 52C17.6764 52 15.7134 51.2624 14.1607 49.9081C12.6584 51.214 10.695 52 8.5481 52C6.1372 52 3.82676 50.9747 2.20937 49.1872C0.591991 47.3997 -0.197759 44.9989 0.0424361 42.6003V42.6003Z" fill="black"></path><path d="M13.5762 37.8573C13.9968 37.8573 14.3379 38.1984 14.3379 38.619C14.3379 39.0398 13.9968 39.3808 13.5762 39.3808H3.76127C3.3406 39.3808 2.99955 39.0397 2.99955 38.619C2.99955 38.1983 3.3406 37.8573 3.76127 37.8573H13.5762Z" fill="black"></path></svg>