<svg width="60" height="60" viewBox="0 0 60 60" fill="none" xmlns="http://www.w3.org/2000/svg">
<circle cx="30" cy="30" r="30" fill="#14142B"/>
<path d="M18.3667 36H23.8747C27.9607 36 30.7507 33.48 30.7507 29.7C30.7507 25.92 27.9607 23.4 23.8747 23.4H18.3667V36ZM20.7067 34.02V25.38H23.7667C26.5747 25.38 28.3927 27.09 28.3927 29.7C28.3927 32.31 26.5747 34.02 23.7667 34.02H20.7067ZM39.1598 36.18C41.2298 36.18 42.9938 35.442 44.1638 34.074L42.6518 32.634C41.7338 33.642 40.5998 34.128 39.2858 34.128C36.6758 34.128 34.7858 32.292 34.7858 29.7C34.7858 27.108 36.6758 25.272 39.2858 25.272C40.5998 25.272 41.7338 25.758 42.6518 26.748L44.1638 25.326C42.9938 23.958 41.2298 23.22 39.1778 23.22C35.3078 23.22 32.4278 25.938 32.4278 29.7C32.4278 33.462 35.3078 36.18 39.1598 36.18Z" fill="#FCFCFC"/>
</svg>
