<svg width="24" height="24" viewBox="0 0 24 24" fill="none" xmlns="http://www.w3.org/2000/svg">
<g clip-path="url(#clip0_10235_109443)">
<path d="M0 13.6212L0.0933836 14.1396C0.398986 15.828 1.20172 17.3957 2.17346 18.7978L2.47412 19.231L3.85491 18.771L5.22893 20.145L4.76897 21.5258L5.2022 21.8736C6.60442 22.8451 8.17198 23.601 9.86039 23.9066L10.3788 24L11.0284 22.7016H12.9715L13.6212 24L14.1396 23.9066C15.828 23.601 17.3957 22.8451 18.7978 21.8736L19.231 21.5258L18.771 20.145L20.145 18.771L21.5258 19.231L21.8267 18.7978C22.7982 17.3957 23.601 15.828 23.9066 14.1396L24 13.6212L22.5937 12.9715V11.0284L24 10.3788L23.9066 9.86039C23.601 8.17198 22.7982 6.60442 21.8267 5.2022L21.5258 4.76897L20.145 5.22893L18.771 3.85491L19.231 2.47412L18.7978 2.17346C17.3955 1.20172 15.828 0.398986 14.1396 0.0933836L13.6212 0L12.9715 1.45312H11.0284L10.3788 0L9.86039 0.0933836C8.17198 0.398986 6.60424 1.20172 5.2022 2.17346L4.76897 2.47412L5.22893 3.85491L3.85491 5.22893L2.47412 4.76897L2.17346 5.2022C1.20172 6.60442 0.398986 8.17198 0.0933836 9.86039L0 10.3788L1.40625 11.0284V12.9715L0 13.6212ZM12 4.26562C16.2647 4.26562 19.7343 7.73528 19.7343 12C19.7343 16.2647 16.2647 19.7343 12 19.7343C7.73528 19.7343 4.26562 16.2647 4.26562 12C4.26562 7.73528 7.73528 4.26562 12 4.26562Z" fill="#969BA0"/>
<path d="M14.1094 9.1875C14.1094 10.3524 13.1649 11.2969 12 11.2969C10.8351 11.2969 9.89062 10.3524 9.89062 9.1875C9.89062 8.02258 10.8351 7.07812 12 7.07812C13.1649 7.07812 14.1094 8.02258 14.1094 9.1875Z" fill="#969BA0"/>
<path d="M16.2187 16.6967V15.5155C16.2187 14.3482 15.7406 13.2935 14.9813 12.5342C14.744 12.2971 14.4699 12.0995 14.1806 11.9232C13.5793 12.4034 12.8276 12.703 12 12.703C11.1707 12.703 10.4178 12.4023 9.81591 11.9204C8.59955 12.6594 7.78125 13.9846 7.78125 15.5155V16.6967C8.90625 17.7234 10.3828 18.328 12 18.328C13.6172 18.328 15.0937 17.7234 16.2187 16.6967Z" fill="#969BA0"/>
</g>
<defs>
<clipPath id="clip0_10235_109443">
<rect width="24" height="24" fill="white"/>
</clipPath>
</defs>
</svg>
