<svg width="18" height="20" viewBox="0 0 18 20" fill="none" xmlns="http://www.w3.org/2000/svg">
<path fill-rule="evenodd" clip-rule="evenodd" d="M1.28571 0C1.62671 0 1.95373 0.131696 2.19485 0.366116C2.43597 0.600537 2.57143 0.918479 2.57143 1.25V3.87625C3.64119 2.81534 4.97113 2.03663 6.43596 1.61348C7.90078 1.19032 9.4523 1.13665 10.9444 1.45751C12.4364 1.77836 13.8199 2.4632 14.9645 3.4475C16.1092 4.4318 16.9772 5.68317 17.487 7.08375C17.5488 7.2397 17.5779 7.40612 17.5724 7.57317C17.567 7.74022 17.5271 7.90451 17.4552 8.05632C17.3833 8.20814 17.2808 8.34438 17.1538 8.45701C17.0267 8.56964 16.8778 8.65635 16.7157 8.71203C16.5536 8.76771 16.3817 8.79122 16.2101 8.78117C16.0385 8.77112 15.8707 8.72772 15.7166 8.65352C15.5626 8.57933 15.4254 8.47585 15.3132 8.34922C15.201 8.22258 15.1161 8.07536 15.0634 7.91625C14.6753 6.84977 13.9969 5.90564 13.1004 5.18447C12.2039 4.4633 11.1229 3.99211 9.97272 3.8211C8.82251 3.6501 7.64612 3.78569 6.56892 4.21343C5.49171 4.64116 4.55406 5.34502 3.85586 6.25H7.71429C8.05528 6.25 8.3823 6.3817 8.62342 6.61612C8.86454 6.85054 9 7.16848 9 7.5C9 7.83152 8.86454 8.14946 8.62342 8.38388C8.3823 8.6183 8.05528 8.75 7.71429 8.75H1.28571C0.944722 8.75 0.617695 8.6183 0.376577 8.38388C0.135459 8.14946 0 7.83152 0 7.5V1.25C0 0.918479 0.135459 0.600537 0.376577 0.366116C0.617695 0.131696 0.944722 0 1.28571 0ZM1.296 11.3212C1.45522 11.2666 1.62395 11.2429 1.79257 11.2517C1.96119 11.2604 2.12639 11.3013 2.27873 11.3721C2.43108 11.4429 2.56758 11.5422 2.68046 11.6643C2.79333 11.7864 2.88036 11.9289 2.93657 12.0837C3.32468 13.1502 4.00313 14.0944 4.89962 14.8155C5.79612 15.5367 6.87706 16.0079 8.02728 16.1789C9.17749 16.3499 10.3539 16.2143 11.4311 15.7866C12.5083 15.3588 13.4459 14.655 14.1441 13.75H10.2857C9.94472 13.75 9.61769 13.6183 9.37658 13.3839C9.13546 13.1495 9 12.8315 9 12.5C9 12.1685 9.13546 11.8505 9.37658 11.6161C9.61769 11.3817 9.94472 11.25 10.2857 11.25H16.7143C17.0553 11.25 17.3823 11.3817 17.6234 11.6161C17.8645 11.8505 18 12.1685 18 12.5V18.75C18 19.0815 17.8645 19.3995 17.6234 19.6339C17.3823 19.8683 17.0553 20 16.7143 20C16.3733 20 16.0463 19.8683 15.8051 19.6339C15.564 19.3995 15.4286 19.0815 15.4286 18.75V16.1238C14.3588 17.1847 13.0289 17.9634 11.564 18.3865C10.0992 18.8097 8.5477 18.8634 7.05564 18.5425C5.56358 18.2216 4.18008 17.5368 3.03546 16.5525C1.89083 15.5682 1.02276 14.3168 0.513 12.9163C0.456763 12.7615 0.432441 12.5974 0.44142 12.4335C0.4504 12.2695 0.492507 12.1089 0.565336 11.9608C0.638165 11.8127 0.74029 11.68 0.865879 11.5703C0.991468 11.4605 1.13806 11.3759 1.29729 11.3212H1.296Z" fill="#969BA0"/>
</svg>
