<svg width="22" height="22" viewBox="0 0 22 22" fill="none" xmlns="http://www.w3.org/2000/svg">
<path d="M16.5408 9.76902C16.7937 9.76902 17.0237 9.79195 17.2766 9.81505L17.2764 4.94093C17.2764 3.40053 16.0118 2.13602 14.4715 2.13602H12.6782V1.44625C12.6782 1.03249 12.3563 0.710449 11.9424 0.710449C11.5286 0.710449 11.2066 1.03232 11.2066 1.44625V2.13602H6.14857V1.44625C6.14857 1.03249 5.8267 0.710449 5.41278 0.710449C4.99902 0.710449 4.67698 1.03232 4.67698 1.44625V2.13602H2.90663C1.34365 2.13602 0.0791016 3.40041 0.0791016 4.94093V14.5512C0.0791016 16.0916 1.34365 17.3561 2.88401 17.3561H9.71235C9.68941 17.1032 9.66632 16.8732 9.66632 16.6203C9.68925 12.8498 12.7702 9.76898 16.5406 9.76898L16.5408 9.76902ZM1.55061 6.38933V4.96392C1.55061 4.22812 2.14833 3.60749 2.90704 3.60749H4.67739V4.29726C4.67739 4.71102 4.99925 5.03306 5.41318 5.03306C5.82694 5.03306 6.14898 4.71119 6.14898 4.29726V3.60749H11.207V4.29726C11.207 4.71102 11.5289 5.03306 11.9428 5.03306C12.3566 5.03306 12.6786 4.71119 12.6786 4.29726V3.60749H14.4719C15.2077 3.60749 15.8054 4.20521 15.8054 4.96392V6.38933H1.55061Z" fill="#969BA0"/>
<path d="M16.5408 11.2402C13.575 11.2402 11.1609 13.6543 11.1609 16.6201C11.1609 19.5859 13.575 22.0001 16.5408 22.0001C19.5066 22.0001 21.9207 19.5859 21.9207 16.6201C21.9207 13.6543 19.5066 11.2402 16.5408 11.2402ZM18.5639 17.3559H16.5406C16.1269 17.3559 15.8048 17.034 15.8048 16.6201L15.805 14.1141C15.805 13.7003 16.1269 13.3783 16.5408 13.3783C16.9545 13.3783 17.2766 13.7001 17.2766 14.1141V15.8844H18.564C18.9778 15.8844 19.2998 16.2063 19.2998 16.6202C19.2997 17.034 18.9778 17.3559 18.5639 17.3559H18.5639Z" fill="#969BA0"/>
</svg>
