<svg width="22" height="24" viewBox="0 0 22 24" fill="none" xmlns="http://www.w3.org/2000/svg">
<path d="M16.8077 8.93776C16.4341 10.3664 15.5621 10.681 15.0969 10.7442C14.8104 11.3171 14.1804 12.488 13.5503 13.0763C13.2984 13.3114 12.9711 13.5098 12.5775 13.666C12.0749 13.8654 11.5442 13.9666 11.0001 13.9666C10.456 13.9666 9.92528 13.8654 9.42273 13.666C9.02921 13.5099 8.70179 13.3115 8.44991 13.0763C7.81966 12.4881 7.18974 11.3171 6.90317 10.7442C6.43806 10.681 5.56614 10.3665 5.1925 8.93776C4.99266 8.17378 5.04383 7.55099 5.34468 7.08665C5.47764 6.88144 5.63883 6.74167 5.78892 6.64702C5.78936 6.49451 5.79573 6.30357 5.81341 6.08638C5.54319 5.71087 5.17581 4.90066 5.63081 3.58922C6.11173 2.20279 7.19907 1.98868 7.72391 1.97013C7.90135 1.64029 8.23657 1.172 8.84529 0.741473C9.521 0.263298 10.4033 0 11.3297 0C12.4697 0 13.6167 0.401206 14.6469 1.16025C16.317 2.39088 16.1739 5.1207 16.133 5.61633C16.1936 6.03181 16.2104 6.39218 16.2112 6.64691C16.3613 6.74156 16.5224 6.88133 16.6554 7.08654C16.9563 7.55099 17.0074 8.17367 16.8077 8.93776ZM21.6922 19.5761V23.451C21.6922 23.7542 21.4464 24 21.1432 24H0.856857C0.553702 24 0.307861 23.7542 0.307861 23.451V19.5761C0.307861 17.9886 1.26026 16.5819 2.7342 15.9922L7.53407 14.0723C7.6722 14.0172 7.8268 14.0201 7.96262 14.0812C8.09833 14.142 8.20363 14.2554 8.25413 14.3953L9.46083 17.7313L9.69975 17.0444L9.31962 16.1152C9.25045 15.9459 9.27 15.7532 9.372 15.6014C9.474 15.4495 9.64485 15.3584 9.82778 15.3584H12.1724C12.3554 15.3584 12.5263 15.4495 12.6282 15.6014C12.7302 15.7532 12.7498 15.9459 12.6806 16.1152L12.3005 17.0444L12.5394 17.7313L13.7461 14.3953C13.7966 14.2554 13.9019 14.142 14.0376 14.0812C14.1734 14.0202 14.3281 14.0173 14.4661 14.0723L19.266 15.9922C20.7399 16.5819 21.6922 17.9886 21.6922 19.5761ZM18.7698 19.9974C18.7698 19.6942 18.524 19.4484 18.2208 19.4484H14.5349C14.2317 19.4484 13.9859 19.6942 13.9859 19.9974V21.7092C13.9859 22.0123 14.2317 22.2581 14.5349 22.2581H18.2208C18.524 22.2581 18.7698 22.0123 18.7698 21.7092V19.9974Z" fill="#969BA0"/>
</svg>
