<svg width="24" height="24" viewBox="0 0 24 24" fill="none" xmlns="http://www.w3.org/2000/svg">
<path d="M20.4833 3.51661C15.7949 -1.17185 8.20579 -1.17256 3.51667 3.51661C-1.17185 8.20504 -1.1726 15.7942 3.51667 20.4833C8.20513 25.1718 15.7942 25.1725 20.4833 20.4833C25.1718 15.7949 25.1726 8.20574 20.4833 3.51661ZM14.0009 16.0199C14.551 16.0199 14.9869 16.4648 14.9876 17.0041C14.9883 17.5483 14.5476 17.9901 14.0034 17.9908L8.99799 17.9972C8.52953 17.9972 8.13109 17.6709 8.03358 17.2202C7.93531 16.7664 8.16731 16.3055 8.59039 16.114C9.25331 15.814 9.70164 14.797 9.81872 13.9865H8.99672C8.45248 13.9865 8.01129 13.5453 8.01129 13.0011C8.01129 12.4568 8.45248 12.0156 8.99672 12.0156H9.52257C9.17391 11.3336 7.46071 9.10366 9.5335 7.03077C10.8966 5.66763 13.1032 5.66744 14.4665 7.03077C14.8513 7.41561 14.8512 8.03958 14.4664 8.42441C14.0817 8.8092 13.4577 8.80925 13.0728 8.42441C12.48 7.83151 11.5201 7.83141 10.9271 8.42441C10.4966 8.855 10.1829 9.35598 11.0619 10.7382C11.3119 11.1336 11.5015 11.5638 11.6296 12.0157H14.0021C14.5464 12.0157 14.9876 12.4569 14.9876 13.0011C14.9876 13.5453 14.5464 13.9865 14.0021 13.9865H11.8028C11.7371 14.685 11.5401 15.3937 11.2236 16.0235L14.0009 16.0199Z" fill="#969BA0"/>
</svg>
