<svg width="24" height="24" viewBox="0 0 24 24" fill="none" xmlns="http://www.w3.org/2000/svg">
<path d="M9.52409 6.8154L6.93214 4.25281L10.6313 0.55362C10.8252 0.359294 11.0435 0.218559 11.2863 0.131415C11.5291 0.0438049 11.767 0 12 0C12.233 0 12.4709 0.0438049 12.7137 0.131415C12.9565 0.218559 13.1748 0.359294 13.3687 0.55362L17.0679 4.25281L14.4759 6.8154L12 4.34019L9.52409 6.8154ZM4.25281 17.0679L0.55362 13.3687C0.359294 13.1748 0.218559 12.9565 0.131415 12.7137C0.0438049 12.4709 0 12.233 0 12C0 11.767 0.0438049 11.5291 0.131415 11.2863C0.218559 11.0435 0.359294 10.8252 0.55362 10.6313L4.25281 6.93214L6.8154 9.52409L4.34019 12L6.8154 14.4759L4.25281 17.0679ZM19.7472 17.0679L17.1846 14.4759L19.6598 12L17.1846 9.52409L19.7472 6.93214L23.4464 10.6313C23.6407 10.8252 23.7814 11.0435 23.8686 11.2863C23.9562 11.5291 24 11.767 24 12C24 12.233 23.9562 12.4709 23.8686 12.7137C23.7814 12.9565 23.6407 13.1748 23.4464 13.3687L19.7472 17.0679ZM12 24C11.767 24 11.5291 23.9562 11.2863 23.8686C11.0435 23.7814 10.8252 23.6407 10.6313 23.4464L6.93214 19.7472L9.52409 17.1846L12 19.6598L14.4759 17.1846L17.0679 19.7472L13.3687 23.4464C13.1748 23.6407 12.9565 23.7814 12.7137 23.8686C12.4709 23.9562 12.233 24 12 24ZM12.5536 13.4274C12.165 13.563 11.7717 13.5483 11.3737 13.3834C10.9757 13.2184 10.7087 12.9418 10.5726 12.5536C10.4174 12.165 10.4272 11.7717 10.602 11.3737C10.7767 10.9757 11.0582 10.7087 11.4464 10.5726C11.835 10.4174 12.2235 10.4272 12.6116 10.602C12.9998 10.7767 13.2717 11.0582 13.4274 11.4464C13.563 11.835 13.5483 12.2235 13.3834 12.6116C13.2184 12.9998 12.9418 13.2717 12.5536 13.4274Z" fill="#969BA0"/>
</svg>
