<svg width="22" height="24" viewBox="0 0 22 24" fill="none" xmlns="http://www.w3.org/2000/svg">
<path fill-rule="evenodd" clip-rule="evenodd" d="M10.8278 20.1776V21.3736C10.8278 22.3328 10.3498 23.1608 9.5191 23.6404C9.11944 23.8711 8.67338 23.9998 8.21091 24C7.74802 24.0003 7.3021 23.8713 6.90216 23.6404L1.58391 20.5699C0.753145 20.0902 0.275208 19.2624 0.275208 18.3031V2.61741C0.275208 1.17408 1.44933 0 2.89261 0H14.6053C16.0487 0 17.2229 1.17398 17.2229 2.61741V5.92392C17.2229 6.39825 16.8378 6.78337 16.3635 6.78337C15.889 6.78337 15.5042 6.3983 15.5042 5.92392V2.61741C15.5042 2.1218 15.1009 1.71853 14.6053 1.71853H4.34194L9.5191 4.70808C10.3495 5.18761 10.8278 6.01542 10.8278 6.97434V18.4589H14.6053C15.1009 18.4589 15.5042 18.0558 15.5042 17.5602V14.6616C15.5042 14.187 15.8888 13.8022 16.3635 13.8022C16.838 13.8022 17.2229 14.187 17.2229 14.6616V17.5602C17.2229 19.0036 16.0487 20.1776 14.6053 20.1776H10.8278ZM18.7911 10.948L17.8446 11.8945C17.509 12.2301 17.5091 12.7741 17.8446 13.1097C18.0061 13.2713 18.2238 13.3612 18.4523 13.3612C18.6809 13.3612 18.8984 13.2716 19.0601 13.1097L21.4732 10.6962C21.8087 10.3607 21.8087 9.81694 21.4732 9.48141L19.0601 7.06828C18.7245 6.73266 18.1804 6.7328 17.8447 7.06823C17.5092 7.40348 17.5093 7.94775 17.8447 8.28309L18.7911 9.22931H12.4508C11.976 9.22931 11.5915 9.61406 11.5915 10.0888C11.5915 10.5636 11.976 10.9481 12.4508 10.9481H18.7911V10.948Z" fill="#969BA0"/>
</svg>
