<svg width="22" height="22" viewBox="0 0 22 22" fill="none" xmlns="http://www.w3.org/2000/svg">
<path d="M16.5398 9.76902C16.7927 9.76902 17.0227 9.79195 17.2756 9.81505L17.2754 4.94093C17.2754 3.40053 16.0109 2.13602 14.4705 2.13602H12.6772V1.44625C12.6772 1.03249 12.3553 0.710449 11.9414 0.710449C11.5277 0.710449 11.2056 1.03232 11.2056 1.44625V2.13602H6.14759V1.44625C6.14759 1.03249 5.82573 0.710449 5.4118 0.710449C4.99804 0.710449 4.676 1.03232 4.676 1.44625V2.13602H2.90565C1.34267 2.13602 0.078125 3.40041 0.078125 4.94093V14.5512C0.078125 16.0916 1.34267 17.3561 2.88303 17.3561H9.71137C9.68844 17.1032 9.66534 16.8732 9.66534 16.6203C9.68827 12.8498 12.7692 9.76898 16.5397 9.76898L16.5398 9.76902ZM1.54963 6.38933V4.96392C1.54963 4.22812 2.14736 3.60749 2.90606 3.60749H4.67641V4.29726C4.67641 4.71102 4.99828 5.03306 5.41221 5.03306C5.82596 5.03306 6.148 4.71119 6.148 4.29726V3.60749H11.206V4.29726C11.206 4.71102 11.5279 5.03306 11.9418 5.03306C12.3556 5.03306 12.6776 4.71119 12.6776 4.29726V3.60749H14.4709C15.2067 3.60749 15.8044 4.20521 15.8044 4.96392V6.38933H1.54963Z" fill="#969BA0"/>
<path d="M16.5401 11.2402C13.5743 11.2402 11.1602 13.6543 11.1602 16.6201C11.1602 19.5859 13.5743 22.0001 16.5401 22.0001C19.5058 22.0001 21.92 19.5859 21.92 16.6201C21.92 13.6543 19.5059 11.2402 16.5401 11.2402ZM18.5632 17.3559H16.5399C16.1261 17.3559 15.8041 17.034 15.8041 16.6201L15.8043 14.1141C15.8043 13.7003 16.1261 13.3783 16.5401 13.3783C16.9538 13.3783 17.2759 13.7001 17.2759 14.1141V15.8844H18.5633C18.9771 15.8844 19.2991 16.2063 19.2991 16.6202C19.2989 17.034 18.9771 17.3559 18.5631 17.3559H18.5632Z" fill="#969BA0"/>
</svg>
