<svg width="22" height="24" viewBox="0 0 22 24" fill="none" xmlns="http://www.w3.org/2000/svg">
<path d="M6.72727 10.1756C6.94592 11.5968 8.04411 13.4056 9.84793 14.0417C10.5883 14.3001 11.3983 14.305 12.1387 14.0367C13.9127 13.3957 15.0457 11.5918 15.2693 10.1756C15.5079 10.1557 15.8209 9.82281 16.1588 8.62523C16.621 6.99037 16.129 6.74687 15.7116 6.78663C15.7911 6.56301 15.8507 6.33443 15.8905 6.11578C16.5961 1.87705 14.509 1.73295 14.509 1.73295C14.509 1.73295 14.1612 1.06707 13.2518 0.565185C12.6406 0.202433 11.7909 -0.0758425 10.6728 0.0185724C10.3101 0.03348 9.9672 0.108018 9.6442 0.212371C9.23175 0.351509 8.85409 0.555246 8.51122 0.793768C8.09381 1.05714 7.69627 1.3851 7.34842 1.75779C6.79684 2.32428 6.30489 3.05476 6.09122 3.96412C5.91232 4.6449 5.95208 5.3555 6.10115 6.12075C6.14091 6.34437 6.20054 6.56798 6.28005 6.7916C5.86263 6.75184 5.37068 6.99533 5.83282 8.6302C6.17569 9.82281 6.48875 10.1557 6.72727 10.1756Z" fill="#969BA0"/>
<path d="M19.195 15.7362C16.6557 15.0902 14.5935 13.6392 14.5935 13.6392L12.9835 18.7326L12.6804 19.6917L12.6754 19.6768L12.412 20.4917L11.5623 18.0816C13.6494 15.1697 11.1399 15.1995 11.0008 15.2045C10.8616 15.1995 8.35219 15.1697 10.4393 18.0816L9.58953 20.4917L9.32616 19.6768L9.32119 19.6917L9.01807 18.7326L7.40307 13.6392C7.40307 13.6392 5.34085 15.0902 2.80159 15.7362C0.908316 16.2182 0.81887 18.4046 0.893408 19.483C0.893408 19.483 1.00273 20.9489 1.11205 21.5949C1.11205 21.5949 4.80915 23.995 11.0008 24C17.1924 24 20.8895 21.5949 20.8895 21.5949C20.9988 20.9489 21.1082 19.483 21.1082 19.483C21.1777 18.4046 21.0883 16.2182 19.195 15.7362Z" fill="#969BA0"/>
</svg>
