<svg width="23" height="25" viewBox="0 0 23 25" fill="none" xmlns="http://www.w3.org/2000/svg">
<g clip-path="url(#clip0_15353_8714)">
<path d="M17.3114 0H2.07748C1.52669 0.000621629 0.998632 0.220107 0.609164 0.610302C0.219696 1.0005 0.00062047 1.52954 0 2.08136V21.9686C0.00062047 22.5205 0.219696 23.0495 0.609164 23.4397C0.998632 23.8299 1.52669 24.0494 2.07748 24.05H16.338C16.2124 23.9584 16.1102 23.8382 16.0398 23.6995C15.9694 23.5607 15.9328 23.4072 15.933 23.2515V22.6624H2.07748C1.89385 22.6623 1.71779 22.5892 1.58795 22.4591C1.45811 22.329 1.38511 22.1526 1.38498 21.9686V21.0437H12.681L12.4142 20.5801C12.2837 20.3536 12.2484 20.0845 12.3159 19.8319C12.3834 19.5792 12.5483 19.3638 12.7743 19.233L13.3257 18.9131C13.2782 18.6408 13.2782 18.3624 13.3257 18.0901L12.7743 17.7712C12.6623 17.7064 12.5642 17.6201 12.4855 17.5173C12.4068 17.4145 12.3491 17.2972 12.3157 17.1721C12.2822 17.0469 12.2737 16.9164 12.2906 16.788C12.3075 16.6595 12.3495 16.5357 12.4142 16.4235L13.3247 14.8429C13.4553 14.6165 13.6702 14.4513 13.9222 14.3836C14.1743 14.3158 14.4428 14.3511 14.6689 14.4817L15.2198 14.8011C15.4437 14.6365 15.6824 14.4932 15.933 14.3732V13.7522C15.933 13.4906 16.0367 13.2397 16.2213 13.0547C16.406 12.8697 16.6564 12.7658 16.9175 12.7658H18.0039V0.693786C18.0039 0.509783 17.9309 0.333315 17.801 0.203205C17.6712 0.0730951 17.495 0 17.3114 0ZM9.02491 8.09386H3.46246C3.2788 8.09386 3.10266 8.02076 2.9728 7.89065C2.84293 7.76054 2.76997 7.58408 2.76997 7.40007C2.76997 7.21607 2.84293 7.0396 2.9728 6.90949C3.10266 6.77938 3.2788 6.70629 3.46246 6.70629H9.02491C9.20857 6.70629 9.3847 6.77938 9.51457 6.90949C9.64444 7.0396 9.7174 7.21607 9.7174 7.40007C9.7174 7.58408 9.64444 7.76054 9.51457 7.89065C9.3847 8.02076 9.20857 8.09386 9.02491 8.09386ZM14.5414 4.39382H3.46246C3.37152 4.39382 3.28147 4.37588 3.19746 4.34101C3.11344 4.30614 3.0371 4.25504 2.9728 4.19062C2.90849 4.12619 2.85748 4.04971 2.82268 3.96554C2.78788 3.88136 2.76997 3.79115 2.76997 3.70004C2.76997 3.60893 2.78788 3.51871 2.82268 3.43454C2.85748 3.35036 2.90849 3.27388 2.9728 3.20946C3.0371 3.14503 3.11344 3.09393 3.19746 3.05906C3.28147 3.0242 3.37152 3.00625 3.46246 3.00625H14.5414C14.6323 3.00625 14.7224 3.0242 14.8064 3.05906C14.8904 3.09393 14.9668 3.14503 15.0311 3.20946C15.0954 3.27388 15.1464 3.35036 15.1812 3.43454C15.216 3.51871 15.2339 3.60893 15.2339 3.70004C15.2339 3.79115 15.216 3.88136 15.1812 3.96554C15.1464 4.04971 15.0954 4.12619 15.0311 4.19062C14.9668 4.25504 14.8904 4.30614 14.8064 4.34101C14.7224 4.37588 14.6323 4.39382 14.5414 4.39382ZM17.828 16.7819C17.6025 16.7819 17.3791 16.8264 17.1706 16.9129C16.9622 16.9994 16.7728 17.1262 16.6133 17.286C16.4538 17.4458 16.3273 17.6356 16.2409 17.8444C16.1546 18.0532 16.1102 18.277 16.1102 18.503C16.1102 18.729 16.1546 18.9528 16.2409 19.1616C16.3273 19.3704 16.4538 19.5602 16.6133 19.72C16.7728 19.8798 16.9622 20.0066 17.1706 20.0931C17.3791 20.1796 17.6025 20.2241 17.828 20.2241C17.8868 20.2242 17.9455 20.2212 18.0039 20.2152V16.7908C17.9455 16.7848 17.8868 16.7818 17.828 16.7819ZM17.828 16.7819C17.6025 16.7819 17.3791 16.8264 17.1706 16.9129C16.9622 16.9994 16.7728 17.1262 16.6133 17.286C16.4538 17.4458 16.3273 17.6356 16.2409 17.8444C16.1546 18.0532 16.1102 18.277 16.1102 18.503C16.1102 18.729 16.1546 18.9528 16.2409 19.1616C16.3273 19.3704 16.4538 19.5602 16.6133 19.72C16.7728 19.8798 16.9622 20.0066 17.1706 20.0931C17.3791 20.1796 17.6025 20.2241 17.828 20.2241C17.8868 20.2242 17.9455 20.2212 18.0039 20.2152V16.7908C17.9455 16.7848 17.8868 16.7818 17.828 16.7819ZM17.828 16.7819C17.6025 16.7819 17.3791 16.8264 17.1706 16.9129C16.9622 16.9994 16.7728 17.1262 16.6133 17.286C16.4538 17.4458 16.3273 17.6356 16.2409 17.8444C16.1546 18.0532 16.1102 18.277 16.1102 18.503C16.1102 18.729 16.1546 18.9528 16.2409 19.1616C16.3273 19.3704 16.4538 19.5602 16.6133 19.72C16.7728 19.8798 16.9622 20.0066 17.1706 20.0931C17.3791 20.1796 17.6025 20.2241 17.828 20.2241C17.8868 20.2242 17.9455 20.2212 18.0039 20.2152V16.7908C17.9455 16.7848 17.8868 16.7818 17.828 16.7819ZM17.828 16.7819C17.6025 16.7819 17.3791 16.8264 17.1706 16.9129C16.9622 16.9994 16.7728 17.1262 16.6133 17.286C16.4538 17.4458 16.3273 17.6356 16.2409 17.8444C16.1546 18.0532 16.1102 18.277 16.1102 18.503C16.1102 18.729 16.1546 18.9528 16.2409 19.1616C16.3273 19.3704 16.4538 19.5602 16.6133 19.72C16.7728 19.8798 16.9622 20.0066 17.1706 20.0931C17.3791 20.1796 17.6025 20.2241 17.828 20.2241C17.8868 20.2242 17.9455 20.2212 18.0039 20.2152V16.7908C17.9455 16.7848 17.8868 16.7818 17.828 16.7819ZM17.828 16.7819C17.6025 16.7819 17.3791 16.8264 17.1706 16.9129C16.9622 16.9994 16.7728 17.1262 16.6133 17.286C16.4538 17.4458 16.3273 17.6356 16.2409 17.8444C16.1546 18.0532 16.1102 18.277 16.1102 18.503C16.1102 18.729 16.1546 18.9528 16.2409 19.1616C16.3273 19.3704 16.4538 19.5602 16.6133 19.72C16.7728 19.8798 16.9622 20.0066 17.1706 20.0931C17.3791 20.1796 17.6025 20.2241 17.828 20.2241C17.8868 20.2242 17.9455 20.2212 18.0039 20.2152V16.7908C17.9455 16.7848 17.8868 16.7818 17.828 16.7819ZM17.828 16.7819C17.6025 16.7819 17.3791 16.8264 17.1706 16.9129C16.9622 16.9994 16.7728 17.1262 16.6133 17.286C16.4538 17.4458 16.3273 17.6356 16.2409 17.8444C16.1546 18.0532 16.1102 18.277 16.1102 18.503C16.1102 18.729 16.1546 18.9528 16.2409 19.1616C16.3273 19.3704 16.4538 19.5602 16.6133 19.72C16.7728 19.8798 16.9622 20.0066 17.1706 20.0931C17.3791 20.1796 17.6025 20.2241 17.828 20.2241C17.8868 20.2242 17.9455 20.2212 18.0039 20.2152V16.7908C17.9455 16.7848 17.8868 16.7818 17.828 16.7819ZM17.828 16.7819C17.6025 16.7819 17.3791 16.8264 17.1706 16.9129C16.9622 16.9994 16.7728 17.1262 16.6133 17.286C16.4538 17.4458 16.3273 17.6356 16.2409 17.8444C16.1546 18.0532 16.1102 18.277 16.1102 18.503C16.1102 18.729 16.1546 18.9528 16.2409 19.1616C16.3273 19.3704 16.4538 19.5602 16.6133 19.72C16.7728 19.8798 16.9622 20.0066 17.1706 20.0931C17.3791 20.1796 17.6025 20.2241 17.828 20.2241C17.8868 20.2242 17.9455 20.2212 18.0039 20.2152V16.7908C17.9455 16.7848 17.8868 16.7818 17.828 16.7819ZM17.828 16.7819C17.6025 16.7819 17.3791 16.8264 17.1706 16.9129C16.9622 16.9994 16.7728 17.1262 16.6133 17.286C16.4538 17.4458 16.3273 17.6356 16.2409 17.8444C16.1546 18.0532 16.1102 18.277 16.1102 18.503C16.1102 18.729 16.1546 18.9528 16.2409 19.1616C16.3273 19.3704 16.4538 19.5602 16.6133 19.72C16.7728 19.8798 16.9622 20.0066 17.1706 20.0931C17.3791 20.1796 17.6025 20.2241 17.828 20.2241C17.8868 20.2242 17.9455 20.2212 18.0039 20.2152V16.7908C17.9455 16.7848 17.8868 16.7818 17.828 16.7819ZM16.9171 13.236C16.7803 13.236 16.6491 13.2904 16.5524 13.3873C16.4557 13.4842 16.4013 13.6156 16.4013 13.7527V14.6832L16.2574 14.7433C15.9433 14.8806 15.6479 15.0574 15.3783 15.2694L15.2541 15.3633L14.4354 14.8889C14.3172 14.8207 14.1769 14.8022 14.0451 14.8374C13.9133 14.8726 13.8008 14.9587 13.7322 15.0768L12.8203 16.6584C12.7521 16.7768 12.7336 16.9174 12.7688 17.0495C12.8039 17.1815 12.8899 17.2943 13.0078 17.363L13.8311 17.8416L13.8105 17.9971C13.8058 18.0356 13.8002 18.0737 13.795 18.1117C13.745 18.3699 13.745 18.6352 13.795 18.8933C13.8002 18.9314 13.8058 18.9694 13.8105 19.0075L13.8311 19.163L13.0073 19.6397C12.8894 19.7085 12.8035 19.8212 12.7683 19.9532C12.7332 20.0853 12.7517 20.2259 12.8198 20.3443L13.2216 21.0437H16.3052C15.7503 20.7104 15.3197 20.204 15.0796 19.602C14.8394 19 14.8029 18.3358 14.9756 17.7111C15.1483 17.0863 15.5207 16.5355 16.0357 16.1431C16.5508 15.7507 17.1801 15.5384 17.8271 15.5386C17.8862 15.5386 17.9448 15.5386 18.0029 15.5437V13.236H16.9171ZM17.828 16.7819C17.6025 16.7819 17.3791 16.8264 17.1706 16.9129C16.9622 16.9994 16.7728 17.1262 16.6133 17.286C16.4538 17.4458 16.3273 17.6356 16.2409 17.8444C16.1546 18.0532 16.1102 18.277 16.1102 18.503C16.1102 18.729 16.1546 18.9528 16.2409 19.1616C16.3273 19.3704 16.4538 19.5602 16.6133 19.72C16.7728 19.8798 16.9622 20.0066 17.1706 20.0931C17.3791 20.1796 17.6025 20.2241 17.828 20.2241C17.8868 20.2242 17.9455 20.2212 18.0039 20.2152V16.7908C17.9455 16.7848 17.8868 16.7818 17.828 16.7819ZM17.828 16.7819C17.6025 16.7819 17.3791 16.8264 17.1706 16.9129C16.9622 16.9994 16.7728 17.1262 16.6133 17.286C16.4538 17.4458 16.3273 17.6356 16.2409 17.8444C16.1546 18.0532 16.1102 18.277 16.1102 18.503C16.1102 18.729 16.1546 18.9528 16.2409 19.1616C16.3273 19.3704 16.4538 19.5602 16.6133 19.72C16.7728 19.8798 16.9622 20.0066 17.1706 20.0931C17.3791 20.1796 17.6025 20.2241 17.828 20.2241C17.8868 20.2242 17.9455 20.2212 18.0039 20.2152V16.7908C17.9455 16.7848 17.8868 16.7818 17.828 16.7819ZM17.828 16.7819C17.6025 16.7819 17.3791 16.8264 17.1706 16.9129C16.9622 16.9994 16.7728 17.1262 16.6133 17.286C16.4538 17.4458 16.3273 17.6356 16.2409 17.8444C16.1546 18.0532 16.1102 18.277 16.1102 18.503C16.1102 18.729 16.1546 18.9528 16.2409 19.1616C16.3273 19.3704 16.4538 19.5602 16.6133 19.72C16.7728 19.8798 16.9622 20.0066 17.1706 20.0931C17.3791 20.1796 17.6025 20.2241 17.828 20.2241C17.8868 20.2242 17.9455 20.2212 18.0039 20.2152V16.7908C17.9455 16.7848 17.8868 16.7818 17.828 16.7819ZM17.828 16.7819C17.6025 16.7819 17.3791 16.8264 17.1706 16.9129C16.9622 16.9994 16.7728 17.1262 16.6133 17.286C16.4538 17.4458 16.3273 17.6356 16.2409 17.8444C16.1546 18.0532 16.1102 18.277 16.1102 18.503C16.1102 18.729 16.1546 18.9528 16.2409 19.1616C16.3273 19.3704 16.4538 19.5602 16.6133 19.72C16.7728 19.8798 16.9622 20.0066 17.1706 20.0931C17.3791 20.1796 17.6025 20.2241 17.828 20.2241C17.8868 20.2242 17.9455 20.2212 18.0039 20.2152V16.7908C17.9455 16.7848 17.8868 16.7818 17.828 16.7819ZM17.828 16.7819C17.6025 16.7819 17.3791 16.8264 17.1706 16.9129C16.9622 16.9994 16.7728 17.1262 16.6133 17.286C16.4538 17.4458 16.3273 17.6356 16.2409 17.8444C16.1546 18.0532 16.1102 18.277 16.1102 18.503C16.1102 18.729 16.1546 18.9528 16.2409 19.1616C16.3273 19.3704 16.4538 19.5602 16.6133 19.72C16.7728 19.8798 16.9622 20.0066 17.1706 20.0931C17.3791 20.1796 17.6025 20.2241 17.828 20.2241C17.8868 20.2242 17.9455 20.2212 18.0039 20.2152V16.7908C17.9455 16.7848 17.8868 16.7818 17.828 16.7819ZM17.828 16.7819C17.6025 16.7819 17.3791 16.8264 17.1706 16.9129C16.9622 16.9994 16.7728 17.1262 16.6133 17.286C16.4538 17.4458 16.3273 17.6356 16.2409 17.8444C16.1546 18.0532 16.1102 18.277 16.1102 18.503C16.1102 18.729 16.1546 18.9528 16.2409 19.1616C16.3273 19.3704 16.4538 19.5602 16.6133 19.72C16.7728 19.8798 16.9622 20.0066 17.1706 20.0931C17.3791 20.1796 17.6025 20.2241 17.828 20.2241C17.8868 20.2242 17.9455 20.2212 18.0039 20.2152V16.7908C17.9455 16.7848 17.8868 16.7818 17.828 16.7819ZM17.828 16.7819C17.6025 16.7819 17.3791 16.8264 17.1706 16.9129C16.9622 16.9994 16.7728 17.1262 16.6133 17.286C16.4538 17.4458 16.3273 17.6356 16.2409 17.8444C16.1546 18.0532 16.1102 18.277 16.1102 18.503C16.1102 18.729 16.1546 18.9528 16.2409 19.1616C16.3273 19.3704 16.4538 19.5602 16.6133 19.72C16.7728 19.8798 16.9622 20.0066 17.1706 20.0931C17.3791 20.1796 17.6025 20.2241 17.828 20.2241C17.8868 20.2242 17.9455 20.2212 18.0039 20.2152V16.7908C17.9455 16.7848 17.8868 16.7818 17.828 16.7819ZM17.828 16.7819C17.6025 16.7819 17.3791 16.8264 17.1706 16.9129C16.9622 16.9994 16.7728 17.1262 16.6133 17.286C16.4538 17.4458 16.3273 17.6356 16.2409 17.8444C16.1546 18.0532 16.1102 18.277 16.1102 18.503C16.1102 18.729 16.1546 18.9528 16.2409 19.1616C16.3273 19.3704 16.4538 19.5602 16.6133 19.72C16.7728 19.8798 16.9622 20.0066 17.1706 20.0931C17.3791 20.1796 17.6025 20.2241 17.828 20.2241C17.8868 20.2242 17.9455 20.2212 18.0039 20.2152V16.7908C17.9455 16.7848 17.8868 16.7818 17.828 16.7819ZM17.828 16.7819C17.6025 16.7819 17.3791 16.8264 17.1706 16.9129C16.9622 16.9994 16.7728 17.1262 16.6133 17.286C16.4538 17.4458 16.3273 17.6356 16.2409 17.8444C16.1546 18.0532 16.1102 18.277 16.1102 18.503C16.1102 18.729 16.1546 18.9528 16.2409 19.1616C16.3273 19.3704 16.4538 19.5602 16.6133 19.72C16.7728 19.8798 16.9622 20.0066 17.1706 20.0931C17.3791 20.1796 17.6025 20.2241 17.828 20.2241C17.8868 20.2242 17.9455 20.2212 18.0039 20.2152V16.7908C17.9455 16.7848 17.8868 16.7818 17.828 16.7819ZM17.828 16.7819C17.6025 16.7819 17.3791 16.8264 17.1706 16.9129C16.9622 16.9994 16.7728 17.1262 16.6133 17.286C16.4538 17.4458 16.3273 17.6356 16.2409 17.8444C16.1546 18.0532 16.1102 18.277 16.1102 18.503C16.1102 18.729 16.1546 18.9528 16.2409 19.1616C16.3273 19.3704 16.4538 19.5602 16.6133 19.72C16.7728 19.8798 16.9622 20.0066 17.1706 20.0931C17.3791 20.1796 17.6025 20.2241 17.828 20.2241C17.8868 20.2242 17.9455 20.2212 18.0039 20.2152V16.7908C17.9455 16.7848 17.8868 16.7818 17.828 16.7819ZM17.828 16.7819C17.6025 16.7819 17.3791 16.8264 17.1706 16.9129C16.9622 16.9994 16.7728 17.1262 16.6133 17.286C16.4538 17.4458 16.3273 17.6356 16.2409 17.8444C16.1546 18.0532 16.1102 18.277 16.1102 18.503C16.1102 18.729 16.1546 18.9528 16.2409 19.1616C16.3273 19.3704 16.4538 19.5602 16.6133 19.72C16.7728 19.8798 16.9622 20.0066 17.1706 20.0931C17.3791 20.1796 17.6025 20.2241 17.828 20.2241C17.8868 20.2242 17.9455 20.2212 18.0039 20.2152V16.7908C17.9455 16.7848 17.8868 16.7818 17.828 16.7819ZM17.828 16.7819C17.6025 16.7819 17.3791 16.8264 17.1706 16.9129C16.9622 16.9994 16.7728 17.1262 16.6133 17.286C16.4538 17.4458 16.3273 17.6356 16.2409 17.8444C16.1546 18.0532 16.1102 18.277 16.1102 18.503C16.1102 18.729 16.1546 18.9528 16.2409 19.1616C16.3273 19.3704 16.4538 19.5602 16.6133 19.72C16.7728 19.8798 16.9622 20.0066 17.1706 20.0931C17.3791 20.1796 17.6025 20.2241 17.828 20.2241C17.8868 20.2242 17.9455 20.2212 18.0039 20.2152V16.7908C17.9455 16.7848 17.8868 16.7818 17.828 16.7819ZM17.828 16.7819C17.6025 16.7819 17.3791 16.8264 17.1706 16.9129C16.9622 16.9994 16.7728 17.1262 16.6133 17.286C16.4538 17.4458 16.3273 17.6356 16.2409 17.8444C16.1546 18.0532 16.1102 18.277 16.1102 18.503C16.1102 18.729 16.1546 18.9528 16.2409 19.1616C16.3273 19.3704 16.4538 19.5602 16.6133 19.72C16.7728 19.8798 16.9622 20.0066 17.1706 20.0931C17.3791 20.1796 17.6025 20.2241 17.828 20.2241C17.8868 20.2242 17.9455 20.2212 18.0039 20.2152V16.7908C17.9455 16.7848 17.8868 16.7818 17.828 16.7819ZM17.828 16.7819C17.6025 16.7819 17.3791 16.8264 17.1706 16.9129C16.9622 16.9994 16.7728 17.1262 16.6133 17.286C16.4538 17.4458 16.3273 17.6356 16.2409 17.8444C16.1546 18.0532 16.1102 18.277 16.1102 18.503C16.1102 18.729 16.1546 18.9528 16.2409 19.1616C16.3273 19.3704 16.4538 19.5602 16.6133 19.72C16.7728 19.8798 16.9622 20.0066 17.1706 20.0931C17.3791 20.1796 17.6025 20.2241 17.828 20.2241C17.8868 20.2242 17.9455 20.2212 18.0039 20.2152V16.7908C17.9455 16.7848 17.8868 16.7818 17.828 16.7819ZM17.828 16.7819C17.6025 16.7819 17.3791 16.8264 17.1706 16.9129C16.9622 16.9994 16.7728 17.1262 16.6133 17.286C16.4538 17.4458 16.3273 17.6356 16.2409 17.8444C16.1546 18.0532 16.1102 18.277 16.1102 18.503C16.1102 18.729 16.1546 18.9528 16.2409 19.1616C16.3273 19.3704 16.4538 19.5602 16.6133 19.72C16.7728 19.8798 16.9622 20.0066 17.1706 20.0931C17.3791 20.1796 17.6025 20.2241 17.828 20.2241C17.8868 20.2242 17.9455 20.2212 18.0039 20.2152V16.7908C17.9455 16.7848 17.8868 16.7818 17.828 16.7819ZM17.828 16.7819C17.6025 16.7819 17.3791 16.8264 17.1706 16.9129C16.9622 16.9994 16.7728 17.1262 16.6133 17.286C16.4538 17.4458 16.3273 17.6356 16.2409 17.8444C16.1546 18.0532 16.1102 18.277 16.1102 18.503C16.1102 18.729 16.1546 18.9528 16.2409 19.1616C16.3273 19.3704 16.4538 19.5602 16.6133 19.72C16.7728 19.8798 16.9622 20.0066 17.1706 20.0931C17.3791 20.1796 17.6025 20.2241 17.828 20.2241C17.8868 20.2242 17.9455 20.2212 18.0039 20.2152V16.7908C17.9455 16.7848 17.8868 16.7818 17.828 16.7819ZM17.828 16.7819C17.6025 16.7819 17.3791 16.8264 17.1706 16.9129C16.9622 16.9994 16.7728 17.1262 16.6133 17.286C16.4538 17.4458 16.3273 17.6356 16.2409 17.8444C16.1546 18.0532 16.1102 18.277 16.1102 18.503C16.1102 18.729 16.1546 18.9528 16.2409 19.1616C16.3273 19.3704 16.4538 19.5602 16.6133 19.72C16.7728 19.8798 16.9622 20.0066 17.1706 20.0931C17.3791 20.1796 17.6025 20.2241 17.828 20.2241C17.8868 20.2242 17.9455 20.2212 18.0039 20.2152V16.7908C17.9455 16.7848 17.8868 16.7818 17.828 16.7819ZM17.828 16.7819C17.6025 16.7819 17.3791 16.8264 17.1706 16.9129C16.9622 16.9994 16.7728 17.1262 16.6133 17.286C16.4538 17.4458 16.3273 17.6356 16.2409 17.8444C16.1546 18.0532 16.1102 18.277 16.1102 18.503C16.1102 18.729 16.1546 18.9528 16.2409 19.1616C16.3273 19.3704 16.4538 19.5602 16.6133 19.72C16.7728 19.8798 16.9622 20.0066 17.1706 20.0931C17.3791 20.1796 17.6025 20.2241 17.828 20.2241C17.8868 20.2242 17.9455 20.2212 18.0039 20.2152V16.7908C17.9455 16.7848 17.8868 16.7818 17.828 16.7819ZM17.828 21.467C17.4112 21.4674 16.9991 21.3792 16.6189 21.2082V22.6643H16.4018V23.2533C16.4018 23.3904 16.4561 23.5218 16.5529 23.6187C16.6496 23.7156 16.7808 23.77 16.9175 23.77H17.8679C17.9567 23.6505 18.0046 23.5053 18.0043 23.3562V21.4618C17.9457 21.4651 17.8871 21.467 17.828 21.467Z" fill="#969BA0"/>
<path d="M22.6446 19.6411L21.8213 19.1647L21.8414 19.0097C21.8466 18.9675 21.8527 18.9252 21.8583 18.8834C21.9064 18.6322 21.9064 18.3741 21.8583 18.1229C21.8527 18.0811 21.8466 18.0393 21.8414 17.9975L21.8213 17.8425L22.6446 17.3662C22.7624 17.2976 22.8484 17.1852 22.8837 17.0533C22.9019 16.9878 22.9067 16.9193 22.898 16.8518C22.8893 16.7844 22.8672 16.7194 22.8331 16.6606L21.9221 15.08C21.8535 14.9619 21.741 14.8758 21.6092 14.8406C21.4774 14.8053 21.337 14.8239 21.2188 14.8921L20.4002 15.3661L20.2759 15.2721C20.0061 15.0602 19.7105 14.8833 19.3964 14.7456L19.2524 14.6854V13.753C19.2524 13.616 19.1981 13.4846 19.1014 13.3877C19.0047 13.2908 18.8735 13.2363 18.7367 13.2363H16.9162C16.7794 13.2363 16.6482 13.2908 16.5515 13.3877C16.4548 13.4846 16.4004 13.616 16.4004 13.753V14.6836L16.2565 14.7437C15.9424 14.8811 15.647 15.0581 15.3774 15.2702L15.2531 15.3642L14.4345 14.8898C14.3163 14.8215 14.176 14.803 14.0442 14.8382C13.9124 14.8734 13.7998 14.9595 13.7313 15.0777L12.8193 16.6592C12.7512 16.7776 12.7327 16.9183 12.7679 17.0503C12.803 17.1824 12.889 17.2951 13.0069 17.3638L13.8302 17.8425L13.8096 17.9979C13.8049 18.0365 13.7992 18.0745 13.7941 18.1126C13.7441 18.3707 13.7441 18.6361 13.7941 18.8942C13.7992 18.9322 13.8049 18.9703 13.8096 19.0083L13.8302 19.1638L13.0064 19.6406C12.8885 19.7093 12.8026 19.822 12.7674 19.9541C12.7323 20.0861 12.7508 20.2268 12.8189 20.3452L13.2207 21.0446L13.7289 21.9272C13.797 22.0458 13.9093 22.1324 14.0412 22.1682C14.1736 22.2027 14.3142 22.1842 14.4331 22.1165L15.2513 21.6421L15.3755 21.736C15.6451 21.9488 15.9409 22.1259 16.2556 22.2631L16.4 22.3232V23.2542C16.4 23.3912 16.4543 23.5226 16.551 23.6195C16.6477 23.7164 16.7789 23.7709 16.9157 23.7709H18.7372C18.874 23.7709 19.0051 23.7164 19.1019 23.6195C19.1986 23.5226 19.2529 23.3912 19.2529 23.2542V22.3241L19.3964 22.2635C19.7108 22.1262 20.0064 21.9491 20.2759 21.7365L20.4002 21.6426L21.2193 22.117C21.3375 22.1852 21.4778 22.2037 21.6096 22.1685C21.7414 22.1333 21.854 22.0472 21.9225 21.9291L22.8335 20.348C22.8676 20.2892 22.8897 20.2242 22.8986 20.1568C22.9075 20.0894 22.9031 20.0209 22.8855 19.9552C22.868 19.8896 22.8376 19.828 22.7963 19.7741C22.755 19.7202 22.7034 19.675 22.6446 19.6411ZM18.003 21.4627C17.9448 21.4659 17.8862 21.4678 17.8271 21.4678C17.4103 21.4683 16.9982 21.3801 16.618 21.209C16.5105 21.1606 16.4061 21.1057 16.3052 21.0446C15.7503 20.7112 15.3197 20.2048 15.0796 19.6028C14.8394 19.0009 14.8029 18.3366 14.9756 17.7119C15.1483 17.0872 15.5207 16.5364 16.0358 16.144C16.5508 15.7516 17.1801 15.5392 17.8271 15.5394C17.8862 15.5394 17.9448 15.5394 18.003 15.5446C18.7562 15.5892 19.4639 15.9204 19.9815 16.4705C20.499 17.0205 20.7872 17.7479 20.7872 18.5038C20.7872 19.2598 20.499 19.9872 19.9815 20.5372C19.4639 21.0873 18.7562 21.4185 18.003 21.4631V21.4627Z" fill="#969BA0"/>
<path d="M19.5451 18.5023C19.5445 18.9281 19.3866 19.3386 19.1019 19.6548C18.8172 19.9709 18.4258 20.1703 18.0031 20.2145C17.9447 20.2206 17.886 20.2235 17.8272 20.2234C17.3716 20.2234 16.9347 20.0421 16.6125 19.7193C16.2904 19.3966 16.1094 18.9588 16.1094 18.5023C16.1094 18.0459 16.2904 17.6081 16.6125 17.2853C16.9347 16.9626 17.3716 16.7813 17.8272 16.7813C17.886 16.7811 17.9447 16.7841 18.0031 16.7902C18.4258 16.8343 18.8173 17.0336 19.102 17.3498C19.3868 17.6659 19.5446 18.0765 19.5451 18.5023Z" fill="#969BA0"/>
</g>
<defs>
<clipPath id="clip0_15353_8714">
<rect width="22.9048" height="24.05" fill="white"/>
</clipPath>
</defs>
</svg>
