<svg width="24" height="22" viewBox="0 0 24 22" fill="none" xmlns="http://www.w3.org/2000/svg">
<path d="M23.9992 10.7424C23.853 11.0986 23.7606 11.4924 23.5497 11.8031C23.1175 12.4444 22.459 12.7087 21.6949 12.7106C20.6483 12.7134 19.6016 12.7106 18.5544 12.7106H18.262C18.292 12.8081 18.3121 12.8864 18.3398 12.9618C19.186 15.268 20.0311 17.5743 20.8751 19.8808C20.9444 20.0682 20.9691 20.2691 20.9473 20.4676C20.9079 20.7582 20.6567 20.9579 20.3591 20.9832C20.0708 21.01 19.8388 20.897 19.6892 20.6453C19.6323 20.5433 19.5852 20.4361 19.5486 20.3251C18.6424 17.8668 17.7399 15.4072 16.8412 12.9464C16.7742 12.7622 16.6912 12.7012 16.4962 12.6993C16.3013 12.6975 16.2309 12.7673 16.1681 12.9398C15.2704 15.4266 14.366 17.9109 13.4551 20.3926C13.3837 20.5796 13.2667 20.7457 13.1148 20.8759C12.9025 21.054 12.572 21.0231 12.3484 20.8628C12.1113 20.6931 11.987 20.4011 12.0822 20.1212C12.3334 19.3835 12.6025 18.6513 12.8683 17.9182C13.4667 16.2689 14.066 14.6199 14.6663 12.9712C14.6954 12.8925 14.7179 12.8109 14.7507 12.7078H13.8038C13.8259 12.3037 13.8432 11.9166 13.8713 11.5303C13.885 11.4539 13.9127 11.3806 13.9529 11.3142C14.4151 10.3852 14.8779 9.45666 15.3413 8.52857C15.7453 7.71579 15.7097 6.93489 15.1646 6.19382C14.341 5.0759 12.5055 5.12558 11.7775 6.30632C11.4428 6.84911 11.1813 7.4369 10.8869 8.00453C10.8476 8.08047 10.8101 8.15687 10.7632 8.24921C10.7116 8.22952 10.6619 8.21546 10.6165 8.19343C10.1477 7.96188 9.68135 7.7247 9.21028 7.49877C9.09263 7.44158 9.03591 7.37877 9.03638 7.23534C9.04247 5.57134 9.02982 3.90735 9.04435 2.24335C9.0556 0.953401 9.99775 0.0112496 11.2896 0.00749971C14.7732 -0.0024999 18.2574 -0.0024999 21.7423 0.00749971C22.9108 0.0103121 23.7578 0.753253 23.9683 1.91289C23.9758 1.93447 23.9863 1.95484 23.9997 1.97336L23.9992 10.7424ZM16.4995 4.42061H17.2729C18.2798 4.42061 19.2885 4.42436 20.2944 4.41592C20.4722 4.41755 20.6437 4.35001 20.7727 4.22758C20.9017 4.10514 20.9781 3.93738 20.9858 3.7597C21.0087 3.40018 20.7434 3.08379 20.3666 3.02894C20.2732 3.01843 20.1792 3.01451 20.0853 3.01723H13.4565C13.2301 3.01723 13.0037 3.01301 12.7773 3.01723C12.46 3.02613 12.2209 3.16957 12.1009 3.46955C11.9135 3.94297 12.2556 4.41639 12.7984 4.4192C14.0321 4.42436 15.2658 4.42061 16.4995 4.42061ZM18.7026 8.29514C18.2038 8.29514 17.7046 8.29514 17.2059 8.29514C16.7419 8.29749 16.4339 8.57638 16.4297 8.98559C16.4255 9.39479 16.7353 9.69571 17.1909 9.69853C18.2043 9.70415 19.2177 9.70415 20.2311 9.69853C20.6792 9.69524 20.9979 9.38026 20.9867 8.97762C20.9754 8.57498 20.6694 8.29889 20.2227 8.29561C19.716 8.29233 19.2093 8.29514 18.7026 8.29514ZM18.7026 5.66369V5.65525C18.1949 5.65525 17.6873 5.64775 17.1797 5.65525C16.7292 5.66321 16.4297 5.95055 16.4297 6.35366C16.4297 6.75677 16.7273 7.04269 17.1764 7.05676C17.4651 7.06519 17.7543 7.0591 18.0435 7.0591C18.7541 7.0591 19.4652 7.07269 20.1753 7.05019C20.3825 7.04272 20.5832 6.97656 20.7542 6.85942C20.9886 6.69114 21.0415 6.41741 20.9483 6.13992C20.8545 5.8554 20.6469 5.67446 20.3427 5.66696C19.7961 5.65384 19.2491 5.66369 18.7026 5.66369Z" fill="#969BA0"/>
<path d="M0.000469189 11.5392C0.0290618 11.4122 0.0618734 11.2856 0.0857787 11.1572C0.423734 9.31976 1.9607 7.85028 3.81454 7.59482C3.92235 7.58029 4.02922 7.55873 4.19468 7.53061C3.32331 7.41436 2.63662 7.06188 2.11023 6.42112C1.85439 6.11909 1.66142 5.76904 1.54262 5.39147C1.42382 5.0139 1.38158 4.61641 1.41838 4.2223C1.47912 3.49543 1.79701 2.81402 2.31496 2.30045C2.83292 1.78688 3.517 1.47479 4.24437 1.42022C5.75181 1.31617 7.09472 2.32253 7.45611 3.77794C7.76876 5.03836 7.10972 7.11625 4.92965 7.54045C5.88493 7.48186 6.73052 7.82169 7.55877 8.24074C8.77091 8.85009 9.98867 9.45147 11.2036 10.0561C11.2585 10.0833 11.3142 10.1077 11.3864 10.1419C11.4441 10.0313 11.4985 9.92958 11.55 9.82692C11.9864 8.95462 12.4195 8.08137 12.8597 7.2114C13.0204 6.89313 13.274 6.76001 13.6026 6.79798C13.8759 6.82939 14.1393 7.0286 14.1716 7.30843C14.1933 7.51423 14.1588 7.72207 14.0718 7.90981C13.5562 8.97758 13.0148 10.0327 12.4926 11.0972C12.4363 11.2214 12.417 11.3593 12.4369 11.4942C12.5437 12.1856 12.3319 12.7635 11.8205 13.2219C11.2767 13.7085 10.6257 13.865 9.94883 13.6021C9.28932 13.3462 8.66591 12.9979 8.02703 12.689C7.84563 12.6013 7.66657 12.5104 7.44815 12.4021C7.44158 12.5292 7.43315 12.6248 7.43315 12.7204C7.43315 15.1812 7.43174 17.6422 7.42893 20.1034C7.43354 20.2742 7.40537 20.4443 7.34596 20.6045C7.233 20.8754 6.99113 20.9968 6.70567 20.9977C5.2137 21.002 3.72173 21.0057 2.22976 20.9977C1.7779 20.9949 1.50557 20.6888 1.50463 20.221C1.50088 19.0023 1.50088 17.7836 1.50463 16.5649C1.50463 16.4403 1.49385 16.3531 1.35276 16.2935C0.658569 15.9982 0.234366 15.469 0.054373 14.7392C0.0379674 14.6727 0.0182805 14.6071 0 14.5405L0.000469189 11.5392Z" fill="#969BA0"/>
</svg>
