<svg width="25" height="22" viewBox="0 0 25 22" fill="none" xmlns="http://www.w3.org/2000/svg">
<path d="M10.1237 9.71223C8.73179 9.71223 7.57699 9.24833 6.65931 8.32054C5.74215 7.39224 5.28357 6.23211 5.28357 4.84017C5.28357 3.44823 5.74215 2.29367 6.65931 1.37651C7.57699 0.458835 8.73179 0 10.1237 0C11.5157 0 12.6702 0.458835 13.5874 1.37651C14.5051 2.29367 14.9639 3.44823 14.9639 4.84017C14.9639 6.23211 14.5051 7.39224 13.5874 8.32054C12.6702 9.24833 11.5157 9.71223 10.1237 9.71223ZM1.04396 19.8352C0.748866 19.8352 0.5011 19.735 0.30066 19.5345C0.10022 19.3346 0 19.0868 0 18.7912V16.6722C0 15.955 0.184496 15.2959 0.553488 14.6951C0.922985 14.0938 1.44509 13.635 2.1198 13.3186C3.49049 12.6859 4.82979 12.2114 6.13771 11.8951C7.44513 11.5787 8.7738 11.4205 10.1237 11.4205C10.2503 11.4205 10.3821 11.4205 10.5193 11.4205C10.656 11.4205 10.7772 11.4205 10.883 11.4205C10.7352 11.7581 10.6033 12.1218 10.4874 12.5116C10.3715 12.9018 10.2713 13.2974 10.1868 13.6983C10.0815 14.331 10.0445 15.0006 10.0759 15.7072C10.1078 16.4138 10.2186 17.0938 10.4085 17.7473C10.535 18.1482 10.6825 18.5227 10.8511 18.871C11.0196 19.2187 11.2201 19.5401 11.4524 19.8352H1.04396ZM19.2658 17.3677C20.0043 17.3677 20.6106 17.1305 21.0849 16.6563C21.5597 16.1815 21.7971 15.5751 21.7971 14.8371C21.7971 14.0991 21.5597 13.4927 21.0849 13.018C20.6106 12.5437 20.0043 12.3066 19.2658 12.3066C18.5278 12.3066 17.9214 12.5437 17.4466 13.018C16.9724 13.4927 16.7352 14.0991 16.7352 14.8371C16.7352 15.5751 16.9724 16.1815 17.4466 16.6563C17.9214 17.1305 18.5278 17.3677 19.2658 17.3677ZM17.9371 19.1709C17.6208 19.0656 17.3044 18.9287 16.988 18.7601C16.6717 18.5911 16.387 18.3906 16.1339 18.1588L14.7422 18.5065C14.6369 18.549 14.5261 18.549 14.4097 18.5065C14.2937 18.4645 14.2042 18.3802 14.1409 18.2537L13.6352 17.3677C13.5507 17.2624 13.5244 17.1518 13.5563 17.0359C13.5877 16.92 13.6456 16.8091 13.7301 16.7033L14.9001 15.6594C14.8581 15.4276 14.8371 15.1588 14.8371 14.8531C14.8371 14.5473 14.8581 14.2783 14.9001 14.046L13.7301 12.9709C13.6456 12.8864 13.5877 12.7861 13.5563 12.6702C13.5244 12.5543 13.5507 12.4435 13.6352 12.3377L14.1409 11.4205C14.2042 11.3152 14.2937 11.2413 14.4097 11.1988C14.5261 11.1568 14.6369 11.1568 14.7422 11.1988L16.1339 11.5473C16.387 11.315 16.6717 11.1145 16.988 10.946C17.3044 10.7774 17.6208 10.6403 17.9371 10.5345L18.2218 8.95299C18.2431 8.80519 18.301 8.69459 18.3957 8.6212C18.4908 8.5473 18.6017 8.51035 18.7282 8.51035H19.8352C19.9617 8.51035 20.0726 8.5473 20.1678 8.6212C20.2624 8.69459 20.3204 8.80519 20.3416 8.95299L20.5944 10.5345C20.9321 10.6403 21.259 10.7774 21.5754 10.946C21.8917 11.1145 22.1765 11.315 22.4295 11.5473L23.7901 11.1988C23.9166 11.1356 24.0379 11.1302 24.1538 11.1829C24.2697 11.236 24.3486 11.3152 24.3907 11.4205L24.929 12.3696C24.9922 12.4541 25.0132 12.5596 24.992 12.6862C24.9707 12.8127 24.9181 12.918 24.8341 13.002L23.6633 14.0779C23.7053 14.2889 23.7263 14.5527 23.7263 14.869C23.7263 15.1854 23.7053 15.4488 23.6633 15.6594L24.8022 16.7033C24.9075 16.8091 24.9707 16.92 24.992 17.0359C25.0132 17.1518 24.9922 17.2624 24.929 17.3677L24.3907 18.2537C24.3486 18.3802 24.2697 18.4645 24.1538 18.5065C24.0379 18.549 23.9166 18.549 23.7901 18.5065L22.4295 18.1588C22.1765 18.3906 21.8917 18.5911 21.5754 18.7601C21.259 18.9287 20.9321 19.0656 20.5944 19.1709L20.3416 20.7531C20.3204 20.8797 20.2624 20.985 20.1678 21.069C20.0726 21.1535 19.9617 21.1958 19.8352 21.1958H18.7282C18.6017 21.1958 18.4908 21.1535 18.3957 21.069C18.301 20.985 18.2431 20.8797 18.2218 20.7531L17.9371 19.1709Z" fill="#969BA0"/>
</svg>
