<svg width="18" height="18" viewBox="0 0 18 18" fill="none" xmlns="http://www.w3.org/2000/svg">
<path d="M17.34 2.16C16.9184 1.73792 16.3465 1.50053 15.75 1.5H14.25V0.75C14.25 0.551088 14.171 0.360322 14.0303 0.219669C13.8897 0.0790171 13.6989 0 13.5 0C13.3011 0 13.1103 0.0790171 12.9697 0.219669C12.829 0.360322 12.75 0.551088 12.75 0.75V1.5H5.25V0.75C5.25 0.551088 5.17098 0.360322 5.03033 0.219669C4.88968 0.0790171 4.69891 0 4.5 0C4.30109 0 4.11032 0.0790171 3.96967 0.219669C3.82902 0.360322 3.75 0.551088 3.75 0.75V1.5H2.25C1.65412 1.50377 1.08339 1.74067 0.66 2.16C0.237922 2.58155 0.000525156 3.15346 0 3.75V15.75C0 16.3467 0.237053 16.919 0.65901 17.341C1.08097 17.7629 1.65326 18 2.25 18H15.75C16.3465 17.9995 16.9184 17.7621 17.34 17.34C17.7593 16.9166 17.9962 16.3459 18 15.75V3.75C17.9995 3.15346 17.7621 2.58155 17.34 2.16ZM5.78 14.03C5.63948 14.1707 5.44885 14.2498 5.25 14.25H4.5C4.30109 14.25 4.11032 14.171 3.96967 14.0303C3.82902 13.8897 3.75 13.6989 3.75 13.5C3.75 13.3011 3.82902 13.1103 3.96967 12.9697C4.11032 12.829 4.30109 12.75 4.5 12.75H5.25C5.39824 12.7501 5.54312 12.7942 5.66633 12.8766C5.78955 12.959 5.88558 13.0761 5.94229 13.2131C5.999 13.35 6.01385 13.5007 5.98496 13.6461C5.95608 13.7915 5.88476 13.9251 5.78 14.03ZM5.9 10.85C5.86949 10.9377 5.818 11.0167 5.75 11.08C5.60948 11.2207 5.41884 11.2998 5.22 11.3H4.5C4.30109 11.3 4.11032 11.221 3.96967 11.0803C3.82902 10.9397 3.75 10.7489 3.75 10.55C3.75 10.3511 3.82902 10.1603 3.96967 10.0197C4.11032 9.87902 4.30109 9.8 4.5 9.8H5.25C5.44891 9.8 5.63968 9.87902 5.78033 10.0197C5.92098 10.1603 6 10.3511 6 10.55C5.99271 10.6569 5.9583 10.7601 5.9 10.85ZM9.9 14.08C9.75948 14.2207 9.56884 14.2998 9.37 14.3H8.62C8.42115 14.2998 8.23052 14.2207 8.09 14.08C8.02531 14.014 7.97433 13.9358 7.94 13.85C7.8922 13.7573 7.86815 13.6543 7.87 13.55C7.87 13.3511 7.94902 13.1603 8.08967 13.0197C8.23032 12.879 8.42109 12.8 8.62 12.8H9.37C9.50859 12.8084 9.64215 12.855 9.75579 12.9348C9.86943 13.0146 9.95869 13.1243 10.0136 13.2518C10.0686 13.3794 10.087 13.5196 10.067 13.657C10.0469 13.7944 9.98911 13.9235 9.9 14.03V14.08ZM9.9 11.08C9.75948 11.2207 9.56884 11.2998 9.37 11.3H8.62C8.42115 11.2998 8.23052 11.2207 8.09 11.08C8.02531 11.014 7.97433 10.9358 7.94 10.85C7.8922 10.7573 7.86815 10.6543 7.87 10.55C7.87 10.3511 7.94902 10.1603 8.08967 10.0197C8.23032 9.87902 8.42109 9.8 8.62 9.8H9.37C9.50859 9.80836 9.64215 9.85502 9.75579 9.9348C9.86943 10.0146 9.95869 10.1243 10.0136 10.2518C10.0686 10.3794 10.087 10.5196 10.067 10.657C10.0469 10.7944 9.98911 10.9235 9.9 11.03V11.08ZM14.02 14.08C13.8795 14.2207 13.6888 14.2998 13.49 14.3H12.74C12.5411 14.3 12.3503 14.221 12.2097 14.0803C12.069 13.9397 11.99 13.7489 11.99 13.55C11.99 13.3511 12.069 13.1603 12.2097 13.0197C12.3503 12.879 12.5411 12.8 12.74 12.8H13.49C13.6382 12.8001 13.7831 12.8442 13.9063 12.9266C14.0295 13.009 14.1256 13.1261 14.1823 13.2631C14.239 13.4 14.2538 13.5507 14.225 13.6961C14.1961 13.8415 14.1248 13.9751 14.02 14.08ZM14.02 11.08C13.8795 11.2207 13.6888 11.2998 13.49 11.3H12.74C12.5412 11.2998 12.3505 11.2207 12.21 11.08C12.1487 11.0114 12.0981 10.9338 12.06 10.85C12.017 10.7556 11.9932 10.6537 11.99 10.55C11.99 10.3511 12.069 10.1603 12.2097 10.0197C12.3503 9.87902 12.5411 9.8 12.74 9.8H13.49C13.6382 9.80013 13.7831 9.84419 13.9063 9.92661C14.0295 10.009 14.1256 10.1261 14.1823 10.2631C14.239 10.4 14.2538 10.5507 14.225 10.6961C14.1961 10.8415 14.1248 10.9751 14.02 11.08ZM16.49 6.08H1.49V3.75C1.49 3.55109 1.56902 3.36032 1.70967 3.21967C1.85032 3.07902 2.04109 3 2.24 3H3.74V3.75C3.74 3.94891 3.81902 4.13968 3.95967 4.28033C4.10032 4.42098 4.29109 4.5 4.49 4.5C4.68891 4.5 4.87968 4.42098 5.02033 4.28033C5.16098 4.13968 5.24 3.94891 5.24 3.75V3H12.74V3.75C12.74 3.94891 12.819 4.13968 12.9597 4.28033C13.1003 4.42098 13.2911 4.5 13.49 4.5C13.6889 4.5 13.8797 4.42098 14.0203 4.28033C14.161 4.13968 14.24 3.94891 14.24 3.75V3H15.74C15.9389 3 16.1297 3.07902 16.2703 3.21967C16.411 3.36032 16.49 3.55109 16.49 3.75V6.08Z" fill="#969BA0"/>
</svg>
