<svg width="24" height="24" viewBox="0 0 24 24" fill="none" xmlns="http://www.w3.org/2000/svg">
<g clip-path="url(#clip0_10083_110175)">
<path d="M12.3958 12.1962C13.1474 11.5526 13.6251 10.5977 13.6251 9.53278C13.6251 7.59882 12.0517 6.02539 10.1179 6.02539C9.18097 6.02539 8.30023 6.39014 7.63776 7.05261C6.97528 7.71509 6.61053 8.59583 6.61053 9.53278C6.61053 10.4695 6.97528 11.3503 7.63776 12.0128C7.70239 12.0774 7.76959 12.1384 7.83826 12.1973C7.06042 12.6057 6.39813 13.2194 5.9314 13.9799C6.97327 15.1083 8.46429 15.8164 10.1179 15.8164C11.7712 15.8164 13.2622 15.1083 14.3043 13.9797C13.8372 13.2189 13.1743 12.6047 12.3958 12.1962Z" fill="#969BA0"/>
<path d="M20.2354 10.1177C20.2354 7.41522 19.1829 4.87445 17.272 2.96338C15.3609 1.05249 12.8203 0 10.1177 0C7.41522 0 4.87445 1.05249 2.96338 2.96338C1.05249 4.87427 0 7.41522 0 10.1177C0 12.8203 1.05231 15.3611 2.96338 17.2722C4.87445 19.183 7.41522 20.2355 10.1177 20.2355C12.8201 20.2355 15.3609 19.183 17.272 17.2722C19.1829 15.3611 20.2354 12.8203 20.2354 10.1177ZM10.1177 17.2227C6.19995 17.2227 3.01263 14.0354 3.01263 10.1177C3.01263 6.19995 6.19995 3.01263 10.1177 3.01263C14.0354 3.01263 17.2227 6.19995 17.2227 10.1177C17.2227 14.0354 14.0356 17.2227 10.1177 17.2227Z" fill="#969BA0"/>
<path d="M23.2435 19.5864L19.8898 16.2324C19.432 16.9608 18.8893 17.6431 18.2662 18.2664C17.6429 18.8895 16.9608 19.432 16.2324 19.8898L19.5864 23.2437C20.0905 23.7476 20.7527 23.9998 21.4149 23.9998C22.0771 23.9998 22.7394 23.7476 23.2437 23.2435C24.2517 22.2352 24.2517 20.5945 23.2435 19.5864Z" fill="#969BA0"/>
</g>
<defs>
<clipPath id="clip0_10083_110175">
<rect width="24" height="24" fill="white"/>
</clipPath>
</defs>
</svg>
