<svg width="22" height="21" viewBox="0 0 22 21" fill="none" xmlns="http://www.w3.org/2000/svg">
<path d="M20.9406 15.4818C20.9406 15.2385 20.9071 15.0174 20.8736 14.7852L21.8117 13.9779C22.0127 13.8009 22.0574 13.5134 21.9234 13.2812L21.2645 12.1532C21.2013 12.0422 21.1005 11.9568 20.9799 11.9123C20.8593 11.8678 20.7267 11.8669 20.6055 11.91L19.4217 12.3081C19.0643 12.0095 18.6622 11.7773 18.2155 11.6114L17.9698 10.406C17.9435 10.2814 17.8748 10.1695 17.7752 10.089C17.6756 10.0085 17.5511 9.96426 17.4226 9.96367H16.1047C15.8367 9.96367 15.6133 10.1517 15.5575 10.406L15.3118 11.6114C14.865 11.7773 14.463 12.0095 14.1056 12.3081L12.9217 11.91C12.8004 11.8687 12.6684 11.8704 12.5483 11.9148C12.4281 11.9592 12.3272 12.0434 12.2628 12.1532L11.6039 13.2812C11.4699 13.5134 11.5145 13.8009 11.7156 13.9779L12.6537 14.7852C12.6202 15.0174 12.5867 15.2385 12.5867 15.4818C12.5867 15.7251 12.6202 15.9463 12.6537 16.1785L11.7156 16.9858C11.5145 17.1627 11.4699 17.4502 11.6039 17.6825L12.2628 18.8104C12.3968 19.0427 12.676 19.1422 12.9217 19.0537L14.1056 18.6556C14.463 18.9542 14.865 19.1864 15.3118 19.3523L15.5575 20.5577C15.6133 20.812 15.8367 21 16.1047 21H17.4226C17.6906 21 17.914 20.812 17.9698 20.5577L18.2155 19.3523C18.6622 19.1864 19.0643 18.9542 19.4217 18.6556L20.6055 19.0537C20.8624 19.1422 21.1304 19.0316 21.2645 18.8104L21.9234 17.6825C22.0574 17.4502 22.0127 17.1627 21.8117 16.9858L20.8736 16.1785C20.9071 15.9463 20.9406 15.7251 20.9406 15.4818ZM16.7525 17.6935C15.524 17.6935 14.5188 16.6983 14.5188 15.4818C14.5188 14.2654 15.524 13.2701 16.7525 13.2701C17.981 13.2701 18.9861 14.2654 18.9861 15.4818C18.9861 16.6983 17.981 17.6935 16.7525 17.6935ZM12.2851 9.13428V3.31754H15.6356V7.74092H17.8693V2.21169C17.8693 1.60348 17.3667 1.10585 16.7525 1.10585H12.2851C12.2851 0.49763 11.7826 0 11.1683 0H3.35049C2.73624 0 2.23366 0.49763 2.23366 1.10585V17.6935H1.11683C0.502574 17.6935 0 18.1912 0 18.7994C0 19.4076 0.502574 19.9052 1.11683 19.9052H10.3419C9.42484 18.609 8.93348 17.0644 8.93465 15.4818C8.93465 12.8499 10.2637 10.5387 12.2851 9.13428ZM7.81782 9.95261C7.81782 9.34439 8.32039 8.84676 8.93465 8.84676C9.54891 8.84676 10.0515 9.34439 10.0515 9.95261C10.0515 10.5608 9.54891 11.0585 8.93465 11.0585C8.32039 11.0585 7.81782 10.5608 7.81782 9.95261Z" fill="#969BA0"/>
</svg>
