<svg width="25" height="19" viewBox="0 0 25 19" fill="none" xmlns="http://www.w3.org/2000/svg">
<path d="M24.9844 6.03644C24.8752 6.54006 24.7496 7.03723 24.4561 7.47276C23.801 8.44362 22.8948 9.0124 21.7208 9.02824C19.2849 9.05642 16.8489 9.03939 14.4118 9.03998C12.2024 9.03998 9.99268 9.03881 7.78253 9.03646C7.7103 9.03086 7.63789 9.04473 7.57285 9.07663C7.50781 9.10853 7.45251 9.15729 7.41273 9.21784C7.22842 9.46965 7.02768 9.70972 6.83045 9.95155C6.21237 10.7093 5.27497 10.6982 4.67978 9.92514C4.48432 9.67157 4.30177 9.40801 4.09868 9.16207C4.03174 9.08071 3.93964 9.02393 3.83689 9.00065C3.05087 8.87531 2.33434 8.47647 1.81363 7.87447C1.29292 7.27247 1.00146 6.50596 0.990651 5.71008C0.978912 4.98399 0.98713 4.25791 0.987717 3.53123C0.987717 1.46802 2.44693 0.00293487 4.50956 0.00176092C9.82676 -0.000586974 15.1443 -0.000586974 20.4623 0.00176092C20.9542 0.00176092 21.4479 -0.00939043 21.9368 0.0322847C23.4629 0.162006 24.7085 1.35063 24.9386 2.86326C24.9495 2.90719 24.9644 2.95003 24.9832 2.99122L24.9844 6.03644ZM12.962 3.78833H20.693C20.7789 3.79098 20.8649 3.78921 20.9507 3.78304C21.058 3.77364 21.1617 3.73975 21.2539 3.68397C21.3461 3.6282 21.4242 3.55203 21.4823 3.46132C21.5404 3.37061 21.577 3.26778 21.5891 3.16074C21.6012 3.0537 21.5887 2.94531 21.5523 2.84389C21.4438 2.53925 21.179 2.38253 20.7652 2.38253H5.21041C5.14011 2.38036 5.06975 2.38232 4.99968 2.3884C4.89069 2.40088 4.78617 2.43887 4.69462 2.49931C4.60306 2.55974 4.52704 2.64091 4.47272 2.73622C4.4184 2.83154 4.38732 2.93831 4.38199 3.04789C4.37666 3.15746 4.39724 3.26675 4.44206 3.36688C4.59115 3.69265 4.86761 3.79068 5.20865 3.79009C7.79289 3.78461 10.3773 3.78402 12.962 3.78833ZM8.25093 6.6058C9.31981 6.6058 10.3887 6.60932 11.4576 6.6058C11.8714 6.6058 12.1666 6.31877 12.1825 5.93196C12.1977 5.55747 11.9054 5.24461 11.5028 5.20704C11.4253 5.2 11.3466 5.20293 11.268 5.20293H6.70484C6.18243 5.20293 5.65944 5.19882 5.13703 5.20293C4.77311 5.20704 4.50897 5.39194 4.41388 5.69012C4.2642 6.1597 4.59408 6.60169 5.11825 6.60463C6.16013 6.6105 7.20553 6.6058 8.25093 6.6058Z" fill="#969BA0"/>
<path d="M2.5999 17.6008C2.69441 17.052 2.78891 16.475 2.89339 15.8986C2.91154 15.8321 2.91012 15.7618 2.8893 15.6961C2.86848 15.6304 2.82913 15.5721 2.77599 15.5282C2.38331 15.1596 2.0053 14.7757 1.61613 14.4035C1.44474 14.2398 1.34378 14.0549 1.42067 13.8166C1.49404 13.5906 1.676 13.5019 1.90375 13.4714C2.41324 13.4027 2.92098 13.3153 3.42988 13.2525C3.6318 13.2272 3.76152 13.1644 3.85133 12.9625C4.05325 12.5064 4.29039 12.0668 4.50639 11.6172C4.61263 11.3947 4.74118 11.2016 5.01647 11.1993C5.30233 11.1963 5.43264 11.3959 5.54475 11.6272C5.75841 12.0779 5.99554 12.5176 6.19981 12.9725C6.28668 13.165 6.41112 13.2272 6.60658 13.2513C7.12488 13.3153 7.64025 13.4022 8.15796 13.4732C8.3857 13.5049 8.55886 13.5988 8.63223 13.8254C8.7056 14.0519 8.60405 14.2321 8.44264 14.3883C8.04995 14.7686 7.66196 15.1513 7.26869 15.5299C7.17067 15.6233 7.12664 15.706 7.15599 15.8522C7.26282 16.3951 7.34735 16.9422 7.44244 17.4875C7.48118 17.71 7.453 17.9136 7.25871 18.0539C7.06442 18.1942 6.86661 18.1713 6.66411 18.061C6.18338 17.8033 5.69619 17.5568 5.21839 17.2932C5.16055 17.2561 5.0931 17.2367 5.02437 17.2374C4.95563 17.2381 4.88862 17.259 4.83158 17.2973C4.3391 17.5662 3.84311 17.8291 3.34066 18.0798C2.96206 18.2764 2.57642 18.0304 2.5999 17.6008Z" fill="#969BA0"/>
<path d="M18.5185 17.5986C18.613 17.041 18.7198 16.4423 18.812 15.8412C18.8165 15.7914 18.8109 15.7412 18.7956 15.6936C18.7802 15.646 18.7555 15.602 18.7227 15.5641C18.3348 15.1685 17.9344 14.7852 17.5359 14.4002C17.3751 14.2446 17.2671 14.0738 17.3393 13.8396C17.4115 13.6054 17.5963 13.5074 17.8317 13.4757C18.3571 13.4047 18.8806 13.3213 19.406 13.2503C19.5721 13.228 19.6813 13.1716 19.7582 13.0038C19.9783 12.5213 20.2277 12.0523 20.4555 11.5751C20.5582 11.3632 20.6991 11.2035 20.948 11.2041C21.1968 11.2047 21.3377 11.3614 21.4398 11.5745C21.6694 12.0523 21.9171 12.5213 22.1372 13.0032C22.2135 13.171 22.3227 13.2274 22.4894 13.2497C23.03 13.3231 23.5694 13.4064 24.11 13.4845C24.3207 13.5138 24.4821 13.6119 24.5514 13.8167C24.6207 14.0216 24.5555 14.2135 24.3964 14.3685C24.0043 14.7494 23.6187 15.1368 23.2225 15.5096C23.1624 15.5574 23.1178 15.6219 23.0941 15.695C23.0704 15.768 23.0687 15.8464 23.0892 15.9204C23.192 16.4563 23.2724 16.9964 23.3686 17.5334C23.4068 17.7448 23.3634 17.9249 23.1926 18.057C23.0135 18.1973 22.8175 18.1897 22.6214 18.0864C22.1248 17.8252 21.6236 17.5687 21.1329 17.2998C21.0782 17.2648 21.0146 17.2462 20.9497 17.2462C20.8848 17.2462 20.8212 17.2648 20.7666 17.2998C20.2735 17.5687 19.7775 17.8316 19.2768 18.0846C18.8865 18.2766 18.5108 18.0517 18.5185 17.5986Z" fill="#969BA0"/>
<path d="M10.556 17.6145C10.6517 17.051 10.745 16.4658 10.8542 15.8835C10.8719 15.8213 10.8711 15.7553 10.8518 15.6935C10.8325 15.6318 10.7956 15.577 10.7456 15.536C10.3535 15.1668 9.9737 14.7847 9.58454 14.4126C9.4149 14.25 9.30749 14.0698 9.38086 13.8309C9.45423 13.592 9.64559 13.5057 9.8792 13.474C10.3969 13.4041 10.9129 13.3196 11.4306 13.2527C11.6067 13.2304 11.7211 13.1717 11.8015 12.9962C12.0217 12.5149 12.2711 12.0453 12.4989 11.5681C12.6016 11.3544 12.7466 11.2006 12.9949 11.2042C13.2296 11.2077 13.3723 11.3556 13.4715 11.5616C13.6981 12.0312 13.9411 12.4932 14.1577 12.9704C14.2439 13.1605 14.3637 13.231 14.5586 13.2562C15.0868 13.3226 15.6075 13.4082 16.1328 13.4816C16.3518 13.5121 16.5208 13.6072 16.5901 13.825C16.6593 14.0428 16.586 14.2212 16.4269 14.375C16.0342 14.7548 15.6468 15.1381 15.2529 15.5155C15.1356 15.6282 15.0892 15.7291 15.1238 15.9005C15.2324 16.4435 15.3146 16.9911 15.4091 17.5364C15.4461 17.746 15.3979 17.9291 15.2259 18.0577C15.1485 18.1185 15.0543 18.1544 14.956 18.1605C14.8576 18.1666 14.7597 18.1426 14.6754 18.0917C14.1788 17.8299 13.6775 17.5746 13.1868 17.3058C13.1294 17.2678 13.0622 17.2472 12.9934 17.2465C12.9246 17.2457 12.857 17.2649 12.7988 17.3016C12.3063 17.5711 11.8103 17.834 11.3091 18.0858C10.924 18.276 10.5413 18.0395 10.556 17.6145Z" fill="#969BA0"/>
</svg>
