<svg width="24" height="24" viewBox="0 0 24 24" fill="none" xmlns="http://www.w3.org/2000/svg">
<path d="M0 8.98124C0.134865 8.51619 0.226132 8.03486 0.415059 7.59481C0.728387 6.8641 1.26203 6.30197 1.93287 5.87179C2.04913 5.79855 2.11772 5.79216 2.22934 5.8904C3.87445 7.34368 6.16018 7.34368 7.79658 5.8933C7.90296 5.79913 7.97504 5.78925 8.09247 5.86831C9.29869 6.67343 9.94919 7.79536 10.023 9.24458C10.0393 9.5707 10.0311 9.89797 10.0265 10.2247C10.0201 10.6211 9.74805 10.8978 9.35159 10.8978C6.46169 10.9009 3.57178 10.9009 0.68188 10.8978C0.337161 10.8978 0.144166 10.6955 0 10.4177V8.98124Z" fill="#969BA0"/>
<path d="M13.7865 22.3235C13.4098 22.1491 13.2958 21.8515 13.2999 21.4463C13.3075 20.6964 13.3115 19.9529 13.6097 19.2443C13.9377 18.4467 14.5026 17.769 15.2281 17.3027C15.3444 17.226 15.4211 17.2114 15.5426 17.319C17.1761 18.7659 19.4653 18.763 21.1069 17.3137C21.2168 17.2167 21.2889 17.219 21.4034 17.2946C22.4602 17.9921 23.0945 18.9629 23.2927 20.2162C23.3032 20.2796 23.3206 20.3424 23.3345 20.4052V21.8439C23.2352 22.0546 23.0656 22.2242 22.855 22.3235H13.7865Z" fill="#969BA0"/>
<path d="M5.36262 0.00107016C5.64456 0.0888485 5.93928 0.147561 6.20552 0.269637C6.80483 0.544388 7.28875 1.02067 7.57301 1.61553C7.85726 2.21038 7.92384 2.88611 7.76112 3.52499C7.43965 4.83528 6.22412 5.72875 4.85048 5.66481C3.53206 5.60319 2.41594 4.58008 2.21364 3.24713C2.10566 2.51756 2.28648 1.77463 2.71766 1.17629C3.14883 0.577938 3.79636 0.17134 4.52262 0.0429231C4.57098 0.0319692 4.61857 0.0177934 4.66504 0.000488281L5.36262 0.00107016Z" fill="#969BA0"/>
<path d="M21.1546 14.2689C21.1517 14.8298 20.9824 15.3772 20.6682 15.8418C20.354 16.3065 19.909 16.6674 19.3896 16.8789C18.8701 17.0905 18.2995 17.1431 17.7501 17.0302C17.2007 16.9173 16.6972 16.6438 16.3033 16.2446C15.9094 15.8453 15.6428 15.3381 15.5374 14.7872C15.4319 14.2363 15.4923 13.6665 15.7108 13.15C15.9294 12.6334 16.2963 12.1934 16.7652 11.8855C17.234 11.5776 17.7837 11.4158 18.3445 11.4205C19.0942 11.4277 19.8106 11.7314 20.3371 12.2651C20.8636 12.7988 21.1575 13.5192 21.1546 14.2689Z" fill="#969BA0"/>
<path d="M5.2498 19.7077H7.60354V18.5991C7.59859 18.6359 7.59607 18.673 7.59599 18.7101C7.59599 19.0357 7.59599 19.3612 7.59599 19.6984H5.02832V19.7054L5.2498 19.7077Z" fill="#B7B7B7"/>
<path d="M11.3274 20.5181C10.4511 19.743 9.57123 18.9729 8.68764 18.2079C8.59474 18.119 8.4766 18.0609 8.34942 18.0418C8.22224 18.0226 8.09224 18.0433 7.97727 18.101C7.87604 18.1424 7.78794 18.2105 7.72232 18.298C7.65671 18.3855 7.61604 18.4892 7.60465 18.598V19.7077H5.02943V16.2652C5.37822 16.2652 5.70956 16.2652 6.04208 16.2652C6.16575 16.2639 6.28651 16.2274 6.39025 16.1601C6.494 16.0927 6.57646 15.9973 6.62802 15.8848C6.67957 15.7724 6.69809 15.6476 6.68142 15.5251C6.66475 15.4025 6.61358 15.2872 6.53387 15.1927C5.75879 14.2986 4.97905 13.4073 4.19467 12.5186C3.92029 12.2088 3.49185 12.2111 3.21689 12.5186C2.43173 13.4045 1.65219 14.2959 0.878268 15.1927C0.797303 15.2889 0.745931 15.4066 0.730356 15.5314C0.714781 15.6562 0.73567 15.7829 0.790496 15.8961C0.845321 16.0093 0.931742 16.1043 1.03933 16.1694C1.14691 16.2346 1.27107 16.2673 1.3968 16.2634H1.53922C1.8229 16.2634 2.10775 16.2634 2.39899 16.2634V16.5355C2.39899 18.0179 2.39899 19.5 2.39899 20.982C2.39899 21.579 2.74138 22.0603 3.28491 22.2486C3.35292 22.2719 3.42035 22.2963 3.48779 22.3207H7.60348V23.4252C7.6115 23.5152 7.63876 23.6025 7.68344 23.6811C7.72811 23.7596 7.78914 23.8277 7.8624 23.8806C7.93566 23.9335 8.01944 23.9701 8.10806 23.9878C8.19668 24.0055 8.28807 24.004 8.37605 23.9833C8.4956 23.9553 8.60654 23.8987 8.69927 23.8182C9.57821 23.0586 10.4535 22.294 11.3251 21.5243C11.6535 21.2377 11.6541 20.8076 11.3274 20.5181Z" fill="#969BA0"/>
<path d="M16.6621 8.19761C18.145 9.14225 19.6111 9.14109 21.0801 8.19761C21.0998 8.22261 21.1196 8.24644 21.1382 8.27144C21.4289 8.6586 21.7195 9.04633 22.0102 9.43407C22.141 9.60846 22.3467 9.63927 22.5031 9.5201C22.6595 9.40093 22.6827 9.19689 22.5549 9.02192C22.4648 8.8981 22.3717 8.7766 22.2805 8.65452L21.5934 7.73779C22.0516 7.25901 22.3748 6.66729 22.5299 6.02292C22.6859 5.38171 22.6711 4.71078 22.4868 4.07712C22.3024 3.44345 21.9551 2.86923 21.4794 2.4118C20.1383 1.12709 18.0229 1.01257 16.5743 2.1473C15.8308 2.72861 15.3495 3.48432 15.1791 4.41442C14.9466 5.67762 15.289 6.78909 16.1517 7.74012L15.7599 8.2633C15.5686 8.51792 15.3762 8.77137 15.1873 9.02773C15.0437 9.22363 15.1036 9.47011 15.3134 9.56195C15.3871 9.59437 15.4699 9.5996 15.5471 9.57671C15.6242 9.55383 15.6908 9.50431 15.7349 9.43697C15.961 9.13876 16.1842 8.83822 16.4092 8.53884C16.4929 8.422 16.579 8.30806 16.6621 8.19761Z" fill="white"/>
<path d="M21.0547 0.00116376C21.1773 0.0319734 21.3029 0.0546443 21.4226 0.0953363C21.6951 0.188324 21.9397 0.348584 22.1337 0.561267C22.3277 0.77395 22.4649 1.03217 22.5326 1.312C22.6002 1.59183 22.5961 1.8842 22.5207 2.16203C22.4453 2.43986 22.3009 2.69416 22.101 2.90134C21.9441 3.06527 21.7394 3.06294 21.5668 2.89145C21.1091 2.43725 20.6537 1.98286 20.2007 1.52828C20.031 1.35853 19.8601 1.18937 19.6915 1.01846C19.5084 0.833605 19.5136 0.635377 19.7043 0.459239C19.9634 0.216395 20.2925 0.0615745 20.6448 0.0168604C20.6627 0.0128323 20.6802 0.00718757 20.6971 0L21.0547 0.00116376Z" fill="#969BA0"/>
<path d="M13 1.687C13.0372 1.50795 13.0581 1.32309 13.1163 1.15103C13.368 0.399387 14.1574 -0.0761297 14.9439 0.0331572C15.2925 0.0784721 15.6185 0.230336 15.8775 0.467982C16.0629 0.637145 16.067 0.837698 15.8845 1.02023C15.283 1.62325 14.6808 2.22568 14.0778 2.82753C14.04 2.86532 14.0033 2.90427 13.9615 2.93798C13.8955 2.99733 13.8088 3.02824 13.7202 3.02399C13.6316 3.01975 13.5483 2.98069 13.4883 2.91531C13.2111 2.63117 13.0436 2.25794 13.0157 1.86197C13.0157 1.82884 13.0058 1.7957 13.0006 1.76198L13 1.687Z" fill="#969BA0"/>
<path d="M15.5769 8.19759C15.4938 8.30746 15.4078 8.42139 15.3223 8.53591C15.0973 8.83529 14.8741 9.13583 14.648 9.43404C14.6039 9.50139 14.5373 9.5509 14.4602 9.57379C14.383 9.59667 14.3002 9.59144 14.2265 9.55903C14.0167 9.46718 13.9568 9.2207 14.1004 9.0248C14.2893 8.76844 14.4817 8.51498 14.673 8.26037L15.0648 7.73719C14.2021 6.78616 13.8603 5.67469 14.0923 4.41149C14.2632 3.48139 14.7445 2.72568 15.4874 2.14437C16.936 1.00964 19.0514 1.12416 20.3925 2.40887C20.8682 2.8663 21.2155 3.44052 21.3999 4.07419C21.5842 4.70785 21.5991 5.37878 21.443 6.01999C21.2879 6.66435 20.9648 7.25609 20.5065 7.73487L21.1936 8.6516C21.2848 8.77367 21.3779 8.89517 21.468 9.01899C21.5958 9.19338 21.5738 9.39742 21.4162 9.51717C21.2587 9.63692 21.0541 9.60379 20.9233 9.43114C20.6326 9.04572 20.342 8.65799 20.0513 8.26851C20.0327 8.24351 20.0129 8.21968 19.9932 8.19468C18.5259 9.14164 17.0599 9.14281 15.5769 8.19759Z" fill="#969BA0"/>
<path d="M18.1803 2.87047C18.1805 2.84053 18.1785 2.81062 18.1745 2.78095C18.1654 2.72166 18.1424 2.66535 18.1075 2.61661C18.0725 2.56786 18.0265 2.52805 17.9733 2.50041C17.9201 2.47277 17.861 2.45808 17.8011 2.45754C17.7411 2.45699 17.6818 2.4706 17.6281 2.49727C17.5598 2.53126 17.5031 2.58476 17.4652 2.65099C17.4273 2.71722 17.41 2.7932 17.4153 2.86931C17.4153 3.38784 17.4169 3.90637 17.42 4.4249C17.42 4.54931 17.42 4.67371 17.42 4.79811C17.42 5.12539 17.4368 5.05912 17.2281 5.29688L16.9014 5.62823L16.6986 5.83401C16.5858 5.95028 16.4689 6.06305 16.3626 6.1828C16.3093 6.24861 16.2803 6.33069 16.2803 6.41533C16.2803 6.49997 16.3093 6.58205 16.3626 6.64785C16.5143 6.83852 16.7747 6.84724 16.9537 6.66587C17.2293 6.38626 17.7449 5.86191 18.0193 5.58056C18.0408 5.55774 18.0603 5.53304 18.0774 5.50673C18.1507 5.42557 18.1891 5.31889 18.1844 5.20968C18.1844 4.43033 18.183 3.6506 18.1803 2.87047Z" fill="white"/>
</svg>
