<svg width="22" height="24" viewBox="0 0 22 24" fill="none" xmlns="http://www.w3.org/2000/svg">
<path d="M6.72544 10.1756C6.94409 11.5968 8.04228 13.4056 9.8461 14.0417C10.5865 14.3001 11.3965 14.305 12.1369 14.0367C13.9109 13.3957 15.0439 11.5918 15.2675 10.1756C15.506 10.1557 15.8191 9.82281 16.157 8.62523C16.6191 6.99037 16.1272 6.74687 15.7098 6.78663C15.7893 6.56301 15.8489 6.33443 15.8887 6.11578C16.5943 1.87705 14.5072 1.73295 14.5072 1.73295C14.5072 1.73295 14.1594 1.06707 13.25 0.565185C12.6388 0.202433 11.7891 -0.0758425 10.671 0.0185724C10.3082 0.03348 9.96536 0.108018 9.64237 0.212371C9.22992 0.351509 8.85226 0.555246 8.50939 0.793768C8.09197 1.05714 7.69444 1.3851 7.34659 1.75779C6.79501 2.32428 6.30306 3.05476 6.08938 3.96412C5.91049 4.6449 5.95025 5.3555 6.09932 6.12075C6.13908 6.34437 6.19871 6.56798 6.27821 6.7916C5.8608 6.75184 5.36885 6.99533 5.83099 8.6302C6.17386 9.82281 6.48692 10.1557 6.72544 10.1756Z" fill="#969BA0"/>
<path d="M19.1938 15.7367C16.6545 15.0907 14.5923 13.6396 14.5923 13.6396L12.9823 18.7331L12.6792 19.6921L12.6742 19.6772L12.4108 20.4922L11.5611 18.0821C13.6482 15.1702 11.1387 15.2 10.9996 15.2049C10.8604 15.2 8.35097 15.1702 10.438 18.0821L9.58831 20.4922L9.32494 19.6772L9.31997 19.6921L9.01685 18.7331L7.40185 13.6396C7.40185 13.6396 5.33963 15.0907 2.80036 15.7367C0.907095 16.2187 0.81765 18.4051 0.892188 19.4834C0.892188 19.4834 1.00151 20.9494 1.11083 21.5954C1.11083 21.5954 4.80793 23.9955 10.9996 24.0005C17.1912 24.0005 20.8883 21.5954 20.8883 21.5954C20.9976 20.9494 21.1069 19.4834 21.1069 19.4834C21.1765 18.4051 21.0871 16.2187 19.1938 15.7367Z" fill="#969BA0"/>
</svg>
