<svg width="24" height="22" viewBox="0 0 24 22" fill="none" xmlns="http://www.w3.org/2000/svg">
<path d="M24 10.7424C23.8537 11.0986 23.7614 11.4924 23.5504 11.8031C23.1183 12.4444 22.4597 12.7087 21.6957 12.7106C20.649 12.7134 19.6023 12.7106 18.5552 12.7106H18.2627C18.2927 12.8081 18.3128 12.8864 18.3405 12.9618C19.1867 15.268 20.0318 17.5743 20.8759 19.8808C20.9451 20.0682 20.9698 20.2691 20.9481 20.4676C20.9087 20.7582 20.6574 20.9579 20.3598 20.9832C20.0715 21.01 19.8395 20.897 19.69 20.6453C19.6331 20.5433 19.586 20.4361 19.5494 20.3251C18.6431 17.8668 17.7407 15.4072 16.842 12.9464C16.7749 12.7622 16.692 12.7012 16.497 12.6993C16.302 12.6975 16.2317 12.7673 16.1689 12.9398C15.2711 15.4266 14.3667 17.9109 13.4558 20.3926C13.3844 20.5796 13.2675 20.7457 13.1155 20.8759C12.9032 21.054 12.5728 21.0231 12.3492 20.8628C12.112 20.6931 11.9878 20.4011 12.0829 20.1212C12.3342 19.3835 12.6032 18.6513 12.869 17.9182C13.4674 16.2689 14.0668 14.6199 14.667 12.9712C14.6961 12.8925 14.7186 12.8109 14.7514 12.7078H13.8046C13.8266 12.3037 13.844 11.9166 13.8721 11.5303C13.8857 11.4539 13.9134 11.3806 13.9536 11.3142C14.4158 10.3852 14.8786 9.45666 15.342 8.52857C15.7461 7.71579 15.7104 6.93489 15.1653 6.19382C14.3417 5.0759 12.5062 5.12558 11.7783 6.30632C11.4436 6.84911 11.182 7.4369 10.8877 8.00453C10.8483 8.08047 10.8108 8.15687 10.7639 8.24921C10.7124 8.22952 10.6627 8.21546 10.6172 8.19343C10.1485 7.96188 9.68209 7.7247 9.21101 7.49877C9.09336 7.44158 9.03664 7.37877 9.03711 7.23534C9.04321 5.57134 9.03055 3.90735 9.04508 2.24335C9.05633 0.953401 9.99848 0.0112496 11.2903 0.00749971C14.7739 -0.0024999 18.2582 -0.0024999 21.743 0.00749971C22.9116 0.0103121 23.7586 0.753253 23.969 1.91289C23.9765 1.93447 23.9871 1.95484 24.0004 1.97336L24 10.7424ZM16.5003 4.42061H17.2737C18.2805 4.42061 19.2892 4.42436 20.2951 4.41592C20.4729 4.41755 20.6445 4.35001 20.7735 4.22758C20.9025 4.10514 20.9788 3.93738 20.9865 3.7597C21.0095 3.40018 20.7442 3.08379 20.3673 3.02894C20.2739 3.01843 20.18 3.01451 20.0861 3.01723H13.4573C13.2309 3.01723 13.0045 3.01301 12.7781 3.01723C12.4607 3.02613 12.2217 3.16957 12.1017 3.46955C11.9142 3.94297 12.2564 4.41639 12.7992 4.4192C14.0329 4.42436 15.2666 4.42061 16.5003 4.42061ZM18.7033 8.29514C18.2046 8.29514 17.7054 8.29514 17.2066 8.29514C16.7426 8.29749 16.4346 8.57638 16.4304 8.98559C16.4262 9.39479 16.736 9.69571 17.1916 9.69853C18.205 9.70415 19.2184 9.70415 20.2318 9.69853C20.6799 9.69524 20.9987 9.38026 20.9874 8.97762C20.9762 8.57498 20.6701 8.29889 20.2234 8.29561C19.7167 8.29233 19.21 8.29514 18.7033 8.29514ZM18.7033 5.66369V5.65525C18.1957 5.65525 17.688 5.64775 17.1804 5.65525C16.7299 5.66321 16.4304 5.95055 16.4304 6.35366C16.4304 6.75677 16.7281 7.04269 17.1771 7.05676C17.4658 7.06519 17.7551 7.0591 18.0443 7.0591C18.7549 7.0591 19.4659 7.07269 20.176 7.05019C20.3832 7.04272 20.5839 6.97656 20.7549 6.85942C20.9893 6.69114 21.0423 6.41741 20.949 6.13992C20.8552 5.8554 20.6476 5.67446 20.3434 5.66696C19.7968 5.65384 19.2498 5.66369 18.7033 5.66369Z" fill="#969BA0"/>
<path d="M0.000469189 11.5385C0.0290618 11.4114 0.0618734 11.2849 0.0857787 11.1565C0.423734 9.31902 1.9607 7.84955 3.81454 7.59409C3.92235 7.57956 4.02922 7.558 4.19468 7.52988C3.32331 7.41363 2.63662 7.06115 2.11023 6.42039C1.85439 6.11836 1.66142 5.7683 1.54262 5.39073C1.42382 5.01316 1.38158 4.61568 1.41838 4.22157C1.47912 3.4947 1.79701 2.81329 2.31496 2.29972C2.83292 1.78614 3.517 1.47405 4.24437 1.41949C5.75181 1.31543 7.09472 2.3218 7.45611 3.77721C7.76876 5.03763 7.10972 7.11552 4.92965 7.53972C5.88493 7.48113 6.73052 7.82096 7.55877 8.24001C8.77091 8.84936 9.98867 9.45074 11.2036 10.0554C11.2585 10.0826 11.3142 10.107 11.3864 10.1412C11.4441 10.0306 11.4985 9.92884 11.55 9.82619C11.9864 8.95388 12.4195 8.08064 12.8597 7.21067C13.0204 6.8924 13.274 6.75928 13.6026 6.79725C13.8759 6.82865 14.1393 7.02787 14.1716 7.3077C14.1933 7.5135 14.1588 7.72134 14.0718 7.90908C13.5562 8.97685 13.0148 10.032 12.4926 11.0965C12.4363 11.2207 12.417 11.3585 12.4369 11.4935C12.5437 12.1848 12.3319 12.7628 11.8205 13.2212C11.2767 13.7078 10.6257 13.8643 9.94883 13.6014C9.28932 13.3454 8.66591 12.9972 8.02703 12.6883C7.84563 12.6006 7.66657 12.5097 7.44815 12.4014C7.44158 12.5284 7.43315 12.6241 7.43315 12.7197C7.43315 15.1805 7.43174 17.6415 7.42893 20.1027C7.43354 20.2735 7.40537 20.4435 7.34596 20.6037C7.233 20.8747 6.99113 20.9961 6.70567 20.997C5.2137 21.0012 3.72173 21.005 2.22976 20.997C1.7779 20.9942 1.50557 20.6881 1.50463 20.2203C1.50088 19.0016 1.50088 17.7829 1.50463 16.5642C1.50463 16.4395 1.49385 16.3523 1.35276 16.2928C0.658569 15.9975 0.234366 15.4683 0.054373 14.7385C0.0379674 14.6719 0.0182805 14.6063 0 14.5398L0.000469189 11.5385Z" fill="#969BA0"/>
</svg>
