<svg width="24" height="25" viewBox="0 0 24 25" fill="none" xmlns="http://www.w3.org/2000/svg">
<path d="M0 11.1132C0.147868 10.6559 0.247934 10.1826 0.455077 9.74989C0.798615 9.03139 1.38371 8.47865 2.11923 8.05566C2.2467 7.98364 2.32191 7.97735 2.44428 8.07395C4.24801 9.50295 6.75412 9.50295 8.54829 8.07681C8.66492 7.98421 8.74396 7.9745 8.8727 8.05223C10.1952 8.8439 10.9084 9.94709 10.9894 11.3721C11.0072 11.6928 10.9983 12.0146 10.9932 12.3358C10.9862 12.7256 10.6879 12.9977 10.2532 12.9977C7.08469 13.0008 3.91616 13.0008 0.747623 12.9977C0.369668 12.9977 0.158066 12.7988 0 12.5256V11.1132Z" fill="#969BA0"/>
<path d="M5.92869 0.000718683C6.27706 0.109134 6.64123 0.18165 6.97021 0.332426C7.71072 0.671772 8.30867 1.26003 8.65991 1.99474C9.01114 2.72945 9.0934 3.56403 8.89234 4.35313C8.49513 5.97146 6.99319 7.075 5.29588 6.99602C3.6668 6.91991 2.28769 5.65627 2.03773 4.00993C1.90431 3.10884 2.12773 2.19125 2.6605 1.45223C3.19328 0.713209 3.99338 0.21102 4.89076 0.0524113C4.95052 0.0388822 5.00932 0.0213736 5.06675 0L5.92869 0.000718683Z" fill="#969BA0"/>
<path d="M12.834 3.93615L12.8337 3.93586C12.6247 3.74293 12.4991 3.48026 12.4997 3.19556C12.5002 2.91121 12.6265 2.6492 12.8368 2.45743C13.455 1.88875 14.0757 1.32379 14.6991 0.762554C14.8251 0.648886 14.9774 0.567296 15.1436 0.526708C15.1438 0.526662 15.144 0.526617 15.1442 0.526571L15.2625 1.01236C15.3248 0.997105 15.3895 0.995975 15.4523 1.00905C15.515 1.02212 15.5744 1.04909 15.6262 1.08812L12.834 3.93615ZM12.834 3.93615C13.4532 4.50678 14.075 5.07371 14.6994 5.63695C14.8369 5.76986 15.0123 5.859 15.2039 5.88905C15.3942 5.91889 15.5877 5.88844 15.759 5.80345C15.9087 5.73582 16.0365 5.62985 16.1313 5.49814L15.7254 5.20608L16.1313 5.49813C16.2297 5.3613 16.2895 5.20111 16.3062 5.03481L16.3087 5.00987L16.3087 4.9848L16.3087 4.66622M12.834 3.93615L16.3087 4.66622M16.3087 4.66622L17.1321 4.66622L17.1321 6.2056L17.1319 6.2056L17.1305 6.2056L17.1291 6.2056L17.1277 6.2056L17.1263 6.2056L17.1249 6.2056L17.1236 6.2056L17.1222 6.2056L17.1208 6.2056L17.1194 6.2056L17.118 6.2056L17.1166 6.2056L17.1153 6.2056L17.1139 6.2056L17.1125 6.2056L17.1111 6.2056L17.1097 6.2056L17.1083 6.2056L17.107 6.2056L17.1056 6.2056L17.1042 6.2056L17.1028 6.2056L17.1014 6.2056L17.1 6.2056L17.0987 6.2056L17.0973 6.2056L17.0959 6.2056L17.0945 6.2056L17.0931 6.2056L17.0918 6.2056L17.0904 6.2056L17.089 6.2056L17.0876 6.2056L17.0862 6.2056L17.0848 6.2056L17.0835 6.2056L17.0821 6.2056L17.0807 6.2056L17.0793 6.2056L17.0779 6.2056L17.0766 6.2056L17.0752 6.2056L17.0738 6.2056L17.0724 6.2056L17.071 6.2056L17.0697 6.2056L17.0683 6.2056L17.0669 6.2056L17.0655 6.2056L17.0641 6.2056L17.0627 6.2056L17.0614 6.2056L17.06 6.2056L17.0586 6.2056L17.0572 6.2056L17.0558 6.2056L17.0545 6.2056L17.0531 6.2056L17.0517 6.2056L17.0503 6.2056L17.0489 6.2056L17.0476 6.2056L17.0462 6.2056L17.0448 6.2056L17.0434 6.2056L17.042 6.2056L17.0407 6.2056L17.0393 6.2056L17.0379 6.2056L17.0365 6.2056L17.0351 6.2056L17.0338 6.2056L17.0324 6.2056L17.031 6.2056L17.0296 6.2056L17.0282 6.2056L17.0269 6.2056L17.0255 6.2056L17.0241 6.2056L17.0227 6.2056L17.0213 6.2056L17.02 6.2056L17.0186 6.2056L17.0172 6.2056L17.0158 6.2056L17.0144 6.2056L17.0131 6.2056L17.0117 6.2056L17.0103 6.2056L17.0089 6.2056L17.0075 6.2056L17.0062 6.2056L17.0048 6.2056L17.0034 6.2056L17.002 6.2056L17.0006 6.2056L16.9993 6.2056L16.9979 6.2056L16.9965 6.2056L16.9951 6.2056L16.9937 6.2056L16.9924 6.2056L16.991 6.2056L16.9896 6.2056L16.9882 6.2056L16.9869 6.2056L16.9855 6.2056L16.9841 6.2056L16.9827 6.2056L16.9813 6.2056L16.98 6.2056L16.9786 6.2056L16.9772 6.2056L16.9758 6.2056L16.9744 6.2056L16.9731 6.2056L16.9717 6.2056L16.9703 6.2056L16.9689 6.2056L16.9675 6.2056L16.9662 6.2056L16.9648 6.2056L16.9634 6.2056L16.962 6.2056L16.9606 6.2056L16.9593 6.2056L16.9579 6.2056L16.9565 6.2056L16.9551 6.2056L16.9537 6.2056L16.9524 6.2056L16.951 6.2056L16.9496 6.2056L16.9482 6.2056L16.9469 6.2056L16.9455 6.2056L16.9441 6.2056L16.9427 6.2056L16.9413 6.2056L16.94 6.2056L16.9386 6.2056L16.9372 6.2056L16.9358 6.2056L16.9344 6.2056L16.9331 6.2056L16.9317 6.2056L16.9303 6.2056L16.9289 6.2056L16.9275 6.2056L16.9262 6.2056L16.9248 6.2056L16.9234 6.2056L16.922 6.2056L16.9206 6.2056L16.9193 6.2056L16.9179 6.2056L16.9165 6.2056L16.9151 6.2056L16.9151 6.20556L16.9096 6.20563C16.7228 6.2077 16.542 6.26514 16.3885 6.36895C16.2352 6.4726 16.1162 6.61755 16.0426 6.78473L16.5002 6.98616L16.0426 6.78473C15.9691 6.95178 15.9431 7.13591 15.9666 7.31626C15.9902 7.49665 16.0627 7.66848 16.1782 7.81121L16.1781 7.81125L16.1826 7.81657C16.7323 8.47721 17.2854 9.13584 17.8417 9.79246L17.8422 9.79307C18.0258 10.009 18.2856 10.1405 18.5701 10.14C18.8539 10.1395 19.1122 10.0078 19.2949 9.79489L19.2949 9.79489L19.2964 9.79323C19.8537 9.13806 20.4071 8.47889 20.9565 7.81571L20.9565 7.81574L20.9605 7.81081C21.0778 7.66547 21.1506 7.49009 21.1726 7.30633C21.1946 7.12259 21.1653 6.93553 21.087 6.76709C21.0086 6.5985 20.8836 6.45398 20.7242 6.35341L20.7242 6.35341C20.5673 6.25433 20.3846 6.20283 20.1978 6.20688L20.1034 6.20688L20.1022 6.20688L20.1011 6.20688L20.0999 6.20688L20.0987 6.20688L20.0975 6.20688L20.0964 6.20688L20.0952 6.20688L20.094 6.20688L20.0928 6.20688L20.0916 6.20688L20.0905 6.20688L20.0893 6.20688L20.0881 6.20688L20.0869 6.20688L20.0858 6.20688L20.0846 6.20688L20.0834 6.20688L20.0822 6.20688L20.081 6.20688L20.0799 6.20688L20.0787 6.20688L20.0775 6.20688L20.0763 6.20688L20.0752 6.20688L20.074 6.20688L20.0728 6.20688L20.0716 6.20688L20.0705 6.20688L20.0693 6.20688L20.0681 6.20688L20.0669 6.20688L20.0657 6.20688L20.0646 6.20688L20.0634 6.20688L20.0622 6.20688L20.061 6.20688L20.0599 6.20688L20.0587 6.20688L20.0575 6.20688L20.0563 6.20688L20.0551 6.20688L20.054 6.20688L20.0528 6.20688L20.0516 6.20688L20.0504 6.20688L20.0493 6.20688L20.0481 6.20688L20.0469 6.20688L20.0457 6.20688L20.0445 6.20688L20.0434 6.20688L20.0422 6.20688L20.041 6.20688L20.0398 6.20688L20.0386 6.20688L20.0375 6.20688L20.0363 6.20688L20.0351 6.20688L20.0339 6.20688L20.0328 6.20688L20.0316 6.20688L20.0304 6.20688L20.0292 6.20688L20.028 6.20688L20.0269 6.20688L20.0257 6.20688L20.0245 6.20688L20.0233 6.20688L20.0222 6.20688L20.021 6.20688L20.0198 6.20688L20.0186 6.20688L20.0174 6.20688L20.0163 6.20688L20.0151 6.20688L20.0139 6.20688L20.0127 6.20688L20.0115 6.20688L20.0104 6.20688L20.0092 6.20688L20.008 6.20688L20.0068 6.20688L20.0056 6.20688L20.0045 6.20688L20.0033 6.20688L20.0021 6.20688L20.0009 6.20688L19.9998 6.20688L19.9986 6.20688L19.9974 6.20688L19.9962 6.20688L19.995 6.20688L19.9946 6.20688L19.9946 6.20508L19.9946 6.19867L19.9946 6.19226L19.9946 6.18586L19.9946 6.17945L19.9946 6.17304L19.9946 6.16664L19.9946 6.16023L19.9946 6.15382L19.9946 6.14742L19.9946 6.14101L19.9946 6.1346L19.9946 6.1282L19.9946 6.12179L19.9946 6.11538L19.9946 6.10898L19.9946 6.10257L19.9946 6.09616L19.9946 6.08976L19.9946 6.08335L19.9946 6.07694L19.9946 6.07054L19.9946 6.06413L19.9946 6.05772L19.9946 6.05132L19.9946 6.04491L19.9946 6.0385L19.9946 6.0321L19.9946 6.02569L19.9946 6.01928L19.9946 6.01288L19.9946 6.00647L19.9946 6.00006L19.9946 5.99366L19.9946 5.98725L19.9946 5.98084L19.9946 5.97444L19.9946 5.96803L19.9946 5.96162L19.9946 5.95522L19.9946 5.94881L19.9946 5.9424L19.9946 5.936L19.9946 5.92959L19.9946 5.92318L19.9946 5.91678L19.9946 5.91037L19.9946 5.90396L19.9946 5.89756L19.9946 5.89115L19.9946 5.88474L19.9946 5.87834L19.9946 5.87193L19.9946 5.86552L19.9946 5.85912L19.9946 5.85271L19.9946 5.8463L19.9946 5.8399L19.9946 5.83349L19.9946 5.82708L19.9946 5.82068L19.9946 5.81427L19.9946 5.80786L19.9946 5.80146L19.9946 5.79505L19.9946 5.78864L19.9946 5.78224L19.9946 5.77583L19.9946 5.76942L19.9946 5.76302L19.9946 5.75661L19.9946 5.7502L19.9946 5.7438L19.9946 5.73739L19.9946 5.73098L19.9946 5.72458L19.9946 5.71817L19.9946 5.71177L19.9946 5.70536L19.9946 5.69895L19.9946 5.69255L19.9946 5.68614L19.9946 5.67973L19.9946 5.67333L19.9946 5.66692L19.9946 5.66051L19.9946 5.65411L19.9946 5.6477L19.9946 5.64129L19.9946 5.63489L19.9946 5.62848L19.9946 5.62207L19.9946 5.61567L19.9946 5.60926L19.9946 5.60285L19.9946 5.59645L19.9946 5.59004L19.9946 5.58363L19.9946 5.57723L19.9946 5.57082L19.9946 5.56442L19.9946 5.55801L19.9946 5.5516L19.9946 5.5452L19.9946 5.53879L19.9946 5.53238L19.9946 5.52598L19.9946 5.51957L19.9946 5.51316L19.9946 5.50676L19.9946 5.50035L19.9946 5.49394L19.9946 5.48754L19.9946 5.48113L19.9946 5.47473L19.9946 5.46832L19.9946 5.46191L19.9946 5.45551L19.9946 5.4491L19.9946 5.44269L19.9946 5.43629L19.9946 5.42988L19.9946 5.42347L19.9946 5.41707L19.9946 5.41066L19.9946 5.40425L19.9946 5.39785L19.9946 5.39144L19.9946 5.38504L19.9946 5.37863L19.9946 5.37222L19.9946 5.36582L19.9946 5.35941L19.9946 5.353L19.9946 5.3466L19.9946 5.34019L19.9946 5.33379L19.9946 5.32738L19.9946 5.32097L19.9946 5.31457L19.9946 5.30816L19.9946 5.30175L19.9946 5.29535L19.9946 5.28894L19.9946 5.28253L19.9946 5.27613L19.9946 5.26972L19.9946 5.26332L19.9946 5.25691L19.9946 5.2505L19.9946 5.2441L19.9946 5.23769L19.9946 5.23128L19.9946 5.22488L19.9946 5.21847L19.9946 5.21207L19.9946 5.20566L19.9946 5.19925L19.9946 5.19285L19.9946 5.18644L19.9946 5.18003L19.9946 5.17363L19.9946 5.16722L19.9946 5.16082L19.9946 5.15441L19.9946 5.148L19.9946 5.1416L19.9946 5.13519L19.9946 5.12878L19.9946 5.12238L19.9946 5.11597L19.9946 5.10957L19.9946 5.10316L19.9946 5.09675L19.9946 5.09035L19.9946 5.08394L19.9946 5.07753L19.9946 5.07113L19.9946 5.06472L19.9946 5.05832L19.9946 5.05191L19.9946 5.0455L19.9946 5.0391L19.9946 5.03269L19.9946 5.02628L19.9946 5.01988L19.9946 5.01347L19.9946 5.00707L19.9946 5.00066L19.9946 4.99425L19.9946 4.98785L19.9946 4.98144L19.9946 4.97504L19.9946 4.96863L19.9946 4.96222L19.9946 4.95582L19.9946 4.94941L19.9946 4.943L19.9946 4.9366L19.9946 4.93019L19.9946 4.92379L19.9946 4.91738L19.9946 4.91097L19.9946 4.90457L19.9946 4.89816L19.9946 4.89176L19.9946 4.88535L19.9946 4.87894L19.9946 4.87254L19.9946 4.86613L19.9946 4.85973L19.9946 4.85332L19.9946 4.84691L19.9946 4.84051L19.9946 4.8341L19.9946 4.82769L19.9946 4.82129L19.9946 4.81488L19.9946 4.80848L19.9946 4.80207L19.9946 4.79566L19.9946 4.78926L19.9946 4.78285L19.9946 4.77645L19.9946 4.77004L19.9946 4.76363L19.9946 4.75723L19.9946 4.75082L19.9946 4.74442L19.9946 4.73801L19.9946 4.7316L19.9946 4.7252L19.9946 4.71879L19.9946 4.71239L19.9946 4.70598L19.9946 4.69957L19.9946 4.69317L19.9946 4.68676L19.9946 4.68036L19.9946 4.67395L19.9946 4.66754L19.9946 4.66114L19.9946 4.65473L19.9946 4.64833L19.9946 4.64192L19.9946 4.63551L19.9946 4.62911L19.9946 4.6227L19.9946 4.6163L19.9946 4.60989L19.9946 4.60348L19.9946 4.59708L19.9946 4.59067L19.9946 4.58427L19.9946 4.57786L19.9946 4.57145L19.9946 4.56505L19.9946 4.55864L19.9946 4.55224L19.9946 4.54583L19.9946 4.53942L19.9946 4.53302L19.9946 4.52661L19.9946 4.52021L19.9946 4.5138L19.9946 4.50739L19.9946 4.50099L19.9946 4.49458L19.9946 4.48818L19.9946 4.48177L19.9946 4.47536L19.9946 4.46896L19.9946 4.46255L19.9946 4.45615L19.9946 4.44974L19.9946 4.44334L19.9946 4.43693L19.9946 4.43052L19.9946 4.42412L19.9946 4.41771L19.9946 4.41131L19.9946 4.4049L19.9946 4.39849L19.9946 4.39209L19.9946 4.38568L19.9946 4.37928L19.9946 4.37287L19.9946 4.36647L19.9946 4.36006L19.9946 4.35365L19.9946 4.34725L19.9946 4.34084L19.9946 4.33444L19.9946 4.32803L19.9946 4.32162L19.9946 4.31522L19.9946 4.30881L19.9946 4.30241L19.9946 4.296L19.9946 4.2896L19.9946 4.28319L19.9946 4.27678L19.9946 4.27038L19.9946 4.26397L19.9946 4.25757L19.9946 4.25116L19.9946 4.24475L19.9946 4.23835L19.9946 4.23194L19.9946 4.22554L19.9946 4.21913L19.9946 4.21273L19.9946 4.20632L19.9946 4.19991L19.9946 4.19351L19.9946 4.1871L19.9946 4.1807L19.9946 4.17429L19.9946 4.16789L19.9946 4.16148L19.9946 4.15507L19.9946 4.14867L19.9946 4.14226L19.9946 4.13586L19.9946 4.12945L19.9946 4.12305L19.9946 4.11664L19.9946 4.11023L19.9946 4.10383L19.9946 4.09742L19.9946 4.09102L19.9946 4.08461L19.9946 4.07821L19.9946 4.0718L19.9946 4.06539L19.9946 4.05899L19.9946 4.05258L19.9946 4.04618L19.9946 4.03977L19.9946 4.03337L19.9946 4.02696L19.9946 4.02055L19.9946 4.01415L19.9946 4.00774L19.9946 4.00134L19.9946 3.99493L19.9946 3.98853L19.9946 3.98212L19.9946 3.97571L19.9946 3.96931L19.9946 3.9629L19.9946 3.9565L19.9946 3.95009L19.9946 3.94369L19.9946 3.93728L19.9946 3.93087L19.9946 3.92447L19.9946 3.91806L19.9946 3.91166L19.9946 3.90525L19.9946 3.89885L19.9946 3.89244L19.9946 3.88604L19.9946 3.87963L19.9946 3.87322L19.9946 3.86682L19.9946 3.86041L19.9946 3.85401L19.9946 3.8476L19.9946 3.8412L19.9946 3.83479L19.9946 3.82839L19.9946 3.82198L19.9946 3.81557L19.9946 3.80917L19.9946 3.80276L19.9946 3.79636L19.9946 3.78995L19.9946 3.78355L19.9946 3.77714L19.9946 3.77074L19.9946 3.76433L19.9946 3.75792L19.9946 3.75152L19.9946 3.74511L19.9946 3.73871L19.9946 3.7323L19.9946 3.7259L19.9946 3.71949L19.9946 3.71309L19.9946 3.70668L19.9946 3.70027L19.9946 3.69387L19.9946 3.68746L19.9946 3.68106L19.9946 3.67465L19.9946 3.66825L19.9946 3.66184L19.9946 3.65544L19.9946 3.64903L19.9946 3.64263L19.9946 3.63622L19.9946 3.62981L19.9946 3.62341L19.9946 3.617L19.9946 3.6106L19.9946 3.60419L19.9946 3.59779L19.9946 3.59138L19.9946 3.58498L19.9946 3.57857L19.9946 3.57217L19.9946 3.56576L19.9946 3.55935L19.9946 3.55295L19.9946 3.54654L19.9946 3.54014L19.9946 3.53373L19.9946 3.52733L19.9946 3.52092L19.9946 3.51452L19.9946 3.50811L19.9946 3.50171L19.9946 3.4953L19.9946 3.48889L19.9946 3.48249L19.9946 3.47608L19.9946 3.46968L19.9946 3.46327L19.9946 3.45687L19.9946 3.45046L19.9946 3.44406L19.9946 3.43765L19.9946 3.43125L19.9946 3.42484L19.9946 3.41844L19.9946 3.41203L19.9946 3.40562L19.9946 3.39922L19.9946 3.39281L19.9946 3.38641L19.9946 3.38L19.9946 3.3736L19.9946 3.36719L19.9946 3.36079L19.9946 3.35438L19.9946 3.34798L19.9946 3.34157L19.9946 3.33517L19.9946 3.32876L19.9946 3.32236L19.9946 3.31595L19.9946 3.30954L19.9946 3.30314L19.9946 3.29673L19.9946 3.29033L19.9946 3.28392L19.9946 3.27752L19.9946 3.27111L19.9946 3.26471L19.9946 3.2583L19.9946 3.2519L19.9946 3.24549L19.9946 3.23909L19.9946 3.23268L19.9946 3.22628C19.9946 2.5907 19.6343 2.03721 19.0371 1.82162L19.0351 1.8209C18.9921 1.80556 18.9486 1.7892 18.9002 1.77092L18.8149 1.73874L18.7237 1.73874L16.3096 1.73874L16.3087 4.66622Z" fill="#969BA0" stroke="white"/>
<path d="M5.99973 19.9194H8.25932V18.8552C8.25456 18.8905 8.25215 18.9261 8.25207 18.9617C8.25207 19.2743 8.25207 19.5868 8.25207 19.9105H5.78711V19.9171L5.99973 19.9194Z" fill="#B7B7B7"/>
<path d="M10.7256 20.7039L10.7259 20.7042C10.9349 20.8971 11.0604 21.1598 11.0599 21.4445C11.0593 21.7288 10.933 21.9908 10.7227 22.1826C10.1046 22.7513 9.48382 23.3162 8.86044 23.8775C8.73446 23.9911 8.58213 24.0727 8.41596 24.1133C8.41577 24.1134 8.41558 24.1134 8.4154 24.1134L8.29704 23.6277C8.23474 23.6429 8.17003 23.644 8.10728 23.631C8.04453 23.6179 7.98521 23.5909 7.93334 23.5519L10.7256 20.7039ZM10.7256 20.7039C10.1064 20.1332 9.48456 19.5663 8.86015 19.0031C8.72267 18.8702 8.54725 18.781 8.35566 18.751C8.16542 18.7211 7.97183 18.7516 7.80053 18.8366C7.65089 18.9042 7.52311 19.0102 7.42832 19.1419L7.83416 19.4339L7.42832 19.1419C7.32985 19.2787 7.27006 19.4389 7.25334 19.6052L7.25084 19.6301V19.6552V19.9738M10.7256 20.7039L7.25084 19.9738M7.25084 19.9738H6.42743V18.4344H6.42771H6.4291H6.43048H6.43186H6.43325H6.43463H6.43601H6.4374H6.43878H6.44016H6.44155H6.44293H6.44431H6.4457H6.44708H6.44846H6.44984H6.45123H6.45261H6.45399H6.45537H6.45676H6.45814H6.45952H6.4609H6.46229H6.46367H6.46505H6.46643H6.46781H6.4692H6.47058H6.47196H6.47334H6.47472H6.4761H6.47749H6.47887H6.48025H6.48163H6.48301H6.48439H6.48577H6.48716H6.48854H6.48992H6.4913H6.49268H6.49406H6.49544H6.49682H6.4982H6.49958H6.50096H6.50235H6.50373H6.50511H6.50649H6.50787H6.50925H6.51063H6.51201H6.51339H6.51477H6.51615H6.51753H6.51891H6.52029H6.52167H6.52305H6.52443H6.52581H6.52719H6.52857H6.52995H6.53133H6.53271H6.53409H6.53547H6.53685H6.53823H6.53961H6.54099H6.54237H6.54375H6.54513H6.54651H6.54789H6.54927H6.55065H6.55203H6.55341H6.55479H6.55617H6.55755H6.55893H6.56031H6.56168H6.56306H6.56444H6.56582H6.5672H6.56858H6.56996H6.57134H6.57272H6.5741H6.57548H6.57686H6.57824H6.57962H6.581H6.58237H6.58375H6.58513H6.58651H6.58789H6.58927H6.59065H6.59203H6.59341H6.59479H6.59617H6.59755H6.59893H6.6003H6.60168H6.60306H6.60444H6.60582H6.6072H6.60858H6.60996H6.61134H6.61272H6.6141H6.61548H6.61686H6.61823H6.61961H6.62099H6.62237H6.62375H6.62513H6.62651H6.62789H6.62927H6.63065H6.63203H6.63341H6.63479H6.63617H6.63755H6.63892H6.6403H6.64168H6.64306H6.64444V18.4345L6.64999 18.4344C6.8368 18.4323 7.01755 18.3749 7.17106 18.2711C7.32434 18.1674 7.44337 18.0225 7.51696 17.8553L7.05932 17.6539L7.51696 17.8553C7.59048 17.6882 7.61648 17.5041 7.59293 17.3238C7.56938 17.1434 7.49686 16.9715 7.38139 16.8288L7.38143 16.8288L7.377 16.8234C6.82724 16.1628 6.2742 15.5042 5.71785 14.8476L5.71733 14.8469C5.5338 14.631 5.27401 14.4995 4.9895 14.5C4.70571 14.5005 4.44741 14.6322 4.26463 14.8451L4.26463 14.8451L4.26321 14.8468C3.70586 15.502 3.15249 16.1611 2.60312 16.8243L2.60309 16.8243L2.59911 16.8292C2.48178 16.9745 2.40899 17.1499 2.38698 17.3337C2.36498 17.5174 2.39431 17.7045 2.47261 17.8729C2.55097 18.0415 2.67598 18.186 2.83533 18.2866L2.83533 18.2866C2.9923 18.3857 3.17499 18.4372 3.36176 18.4331H3.45616H3.45733H3.45851H3.45969H3.46087H3.46204H3.46322H3.4644H3.46557H3.46675H3.46793H3.4691H3.47028H3.47146H3.47264H3.47381H3.47499H3.47617H3.47735H3.47852H3.4797H3.48088H3.48205H3.48323H3.48441H3.48559H3.48676H3.48794H3.48912H3.4903H3.49147H3.49265H3.49383H3.49501H3.49618H3.49736H3.49854H3.49972H3.5009H3.50207H3.50325H3.50443H3.50561H3.50678H3.50796H3.50914H3.51032H3.5115H3.51267H3.51385H3.51503H3.51621H3.51739H3.51857H3.51974H3.52092H3.5221H3.52328H3.52446H3.52563H3.52681H3.52799H3.52917H3.53035H3.53153H3.53271H3.53388H3.53506H3.53624H3.53742H3.5386H3.53978H3.54096H3.54213H3.54331H3.54449H3.54567H3.54685H3.54803H3.54921H3.55039H3.55157H3.55274H3.55392H3.5551H3.55628H3.55746H3.55864H3.55982H3.561H3.56218H3.56336H3.56454H3.56492V18.4349V18.4413V18.4478V18.4542V18.4606V18.467V18.4734V18.4798V18.4862V18.4926V18.499V18.5054V18.5118V18.5182V18.5246V18.531V18.5374V18.5439V18.5503V18.5567V18.5631V18.5695V18.5759V18.5823V18.5887V18.5951V18.6015V18.6079V18.6143V18.6207V18.6271V18.6335V18.64V18.6464V18.6528V18.6592V18.6656V18.672V18.6784V18.6848V18.6912V18.6976V18.704V18.7104V18.7168V18.7232V18.7296V18.7361V18.7425V18.7489V18.7553V18.7617V18.7681V18.7745V18.7809V18.7873V18.7937V18.8001V18.8065V18.8129V18.8193V18.8257V18.8322V18.8386V18.845V18.8514V18.8578V18.8642V18.8706V18.877V18.8834V18.8898V18.8962V18.9026V18.909V18.9154V18.9218V18.9282V18.9347V18.9411V18.9475V18.9539V18.9603V18.9667V18.9731V18.9795V18.9859V18.9923V18.9987V19.0051V19.0115V19.0179V19.0243V19.0308V19.0372V19.0436V19.05V19.0564V19.0628V19.0692V19.0756V19.082V19.0884V19.0948V19.1012V19.1076V19.114V19.1204V19.1269V19.1333V19.1397V19.1461V19.1525V19.1589V19.1653V19.1717V19.1781V19.1845V19.1909V19.1973V19.2037V19.2101V19.2165V19.2229V19.2294V19.2358V19.2422V19.2486V19.255V19.2614V19.2678V19.2742V19.2806V19.287V19.2934V19.2998V19.3062V19.3126V19.319V19.3254V19.3319V19.3383V19.3447V19.3511V19.3575V19.3639V19.3703V19.3767V19.3831V19.3895V19.3959V19.4023V19.4087V19.4151V19.4215V19.4279V19.4344V19.4408V19.4472V19.4536V19.46V19.4664V19.4728V19.4792V19.4856V19.492V19.4984V19.5048V19.5112V19.5176V19.524V19.5304V19.5369V19.5433V19.5497V19.5561V19.5625V19.5689V19.5753V19.5817V19.5881V19.5945V19.6009V19.6073V19.6137V19.6201V19.6265V19.6329V19.6394V19.6458V19.6522V19.6586V19.665V19.6714V19.6778V19.6842V19.6906V19.697V19.7034V19.7098V19.7162V19.7226V19.729V19.7354V19.7419V19.7483V19.7547V19.7611V19.7675V19.7739V19.7803V19.7867V19.7931V19.7995V19.8059V19.8123V19.8187V19.8251V19.8315V19.8379V19.8444V19.8508V19.8572V19.8636V19.87V19.8764V19.8828V19.8892V19.8956V19.902V19.9084V19.9148V19.9212V19.9276V19.934V19.9404V19.9468V19.9533V19.9597V19.9661V19.9725V19.9789V19.9853V19.9917V19.9981V20.0045V20.0109V20.0173V20.0237V20.0301V20.0365V20.0429V20.0493V20.0557V20.0622V20.0686V20.075V20.0814V20.0878V20.0942V20.1006V20.107V20.1134V20.1198V20.1262V20.1326V20.139V20.1454V20.1518V20.1582V20.1646V20.1711V20.1775V20.1839V20.1903V20.1967V20.2031V20.2095V20.2159V20.2223V20.2287V20.2351V20.2415V20.2479V20.2543V20.2607V20.2671V20.2735V20.28V20.2864V20.2928V20.2992V20.3056V20.312V20.3184V20.3248V20.3312V20.3376V20.344V20.3504V20.3568V20.3632V20.3696V20.376V20.3824V20.3889V20.3953V20.4017V20.4081V20.4145V20.4209V20.4273V20.4337V20.4401V20.4465V20.4529V20.4593V20.4657V20.4721V20.4785V20.4849V20.4913V20.4978V20.5042V20.5106V20.517V20.5234V20.5298V20.5362V20.5426V20.549V20.5554V20.5618V20.5682V20.5746V20.581V20.5874V20.5938V20.6002V20.6066V20.6131V20.6195V20.6259V20.6323V20.6387V20.6451V20.6515V20.6579V20.6643V20.6707V20.6771V20.6835V20.6899V20.6963V20.7027V20.7091V20.7155V20.722V20.7284V20.7348V20.7412V20.7476V20.754V20.7604V20.7668V20.7732V20.7796V20.786V20.7924V20.7988V20.8052V20.8116V20.818V20.8244V20.8308V20.8373V20.8437V20.8501V20.8565V20.8629V20.8693V20.8757V20.8821V20.8885V20.8949V20.9013V20.9077V20.9141V20.9205V20.9269V20.9333V20.9397V20.9461V20.9526V20.959V20.9654V20.9718V20.9782V20.9846V20.991V20.9974V21.0038V21.0102V21.0166V21.023V21.0294V21.0358V21.0422V21.0486V21.055V21.0614V21.0678V21.0743V21.0807V21.0871V21.0935V21.0999V21.1063V21.1127V21.1191V21.1255V21.1319V21.1383V21.1447V21.1511V21.1575V21.1639V21.1703V21.1767V21.1831V21.1896V21.196V21.2024V21.2088V21.2152V21.2216V21.228V21.2344V21.2408V21.2472V21.2536V21.26V21.2664V21.2728V21.2792V21.2856V21.292V21.2984V21.3048V21.3113V21.3177V21.3241V21.3305V21.3369V21.3433V21.3497V21.3561V21.3625V21.3689V21.3753V21.3817V21.3881V21.3945V21.4009V21.4073V21.4137C3.56492 22.0493 3.92523 22.6028 4.52243 22.8184L4.52444 22.8191C4.56751 22.8345 4.61093 22.8508 4.65939 22.8691L4.74469 22.9013H4.83586H7.25001L7.25084 19.9738Z" fill="#969BA0" stroke="white"/>
<path d="M13 22.1132C13.1479 21.6559 13.2479 21.1826 13.4551 20.7499C13.7986 20.0314 14.3837 19.4786 15.1192 19.0557C15.2467 18.9836 15.3219 18.9774 15.4443 19.074C17.248 20.503 19.7541 20.503 21.5483 19.0768C21.6649 18.9842 21.744 18.9745 21.8727 19.0522C23.1952 19.8439 23.9084 20.9471 23.9894 22.3721C24.0072 22.6928 23.9983 23.0146 23.9932 23.3358C23.9862 23.7256 23.6879 23.9977 23.2532 23.9977C20.0847 24.0008 16.9162 24.0008 13.7476 23.9977C13.3697 23.9977 13.1581 23.7988 13 23.5256V22.1132Z" fill="#969BA0"/>
<path d="M18.9287 11.0007C19.2771 11.1091 19.6412 11.1816 19.9702 11.3324C20.7107 11.6718 21.3087 12.26 21.6599 12.9947C22.0111 13.7294 22.0934 14.564 21.8923 15.3531C21.4951 16.9715 19.9932 18.075 18.2959 17.996C16.6668 17.9199 15.2877 16.6563 15.0377 15.0099C14.9043 14.1088 15.1277 13.1913 15.6605 12.4522C16.1933 11.7132 16.9934 11.211 17.8908 11.0524C17.9505 11.0389 18.0093 11.0214 18.0667 11L18.9287 11.0007Z" fill="#969BA0"/>
</svg>
