<svg width="24" height="22" viewBox="0 0 24 22" fill="none" xmlns="http://www.w3.org/2000/svg">
<path d="M12 8.68604C14.2523 8.68604 16.0781 6.8602 16.0781 4.60791C16.0781 2.35562 14.2523 0.529785 12 0.529785C9.74771 0.529785 7.92188 2.35562 7.92188 4.60791C7.92188 6.8602 9.74771 8.68604 12 8.68604Z" fill="#969BA0"/>
<path d="M20.25 8.68604C21.6739 8.68604 22.8281 7.53177 22.8281 6.10791C22.8281 4.68405 21.6739 3.52979 20.25 3.52979C18.8261 3.52979 17.6719 4.68405 17.6719 6.10791C17.6719 7.53177 18.8261 8.68604 20.25 8.68604Z" fill="#969BA0"/>
<path d="M3.75 8.68604C5.17386 8.68604 6.32812 7.53177 6.32812 6.10791C6.32812 4.68405 5.17386 3.52979 3.75 3.52979C2.32614 3.52979 1.17188 4.68405 1.17188 6.10791C1.17188 7.53177 2.32614 8.68604 3.75 8.68604Z" fill="#969BA0"/>
<path d="M6.29016 11.0011C5.27531 10.1697 4.35623 10.2797 3.18281 10.2797C1.42781 10.2797 0 11.6991 0 13.4433V18.5625C0 19.32 0.618281 19.936 1.37859 19.936C4.66106 19.936 4.26562 19.9953 4.26562 19.7944C4.26562 16.1669 3.83597 13.5067 6.29016 11.0011Z" fill="#969BA0"/>
<path d="M13.116 10.2985C11.0664 10.1275 9.28494 10.3004 7.74833 11.5688C5.17691 13.6285 5.67177 16.4017 5.67177 19.7944C5.67177 20.692 6.40208 21.436 7.31333 21.436C17.2078 21.436 17.6016 21.7551 18.1883 20.4558C18.3808 20.0164 18.328 20.1561 18.328 15.9525C18.328 12.6138 15.4371 10.2985 13.116 10.2985Z" fill="#969BA0"/>
<path d="M20.8173 10.2796C19.6375 10.2796 18.7234 10.1707 17.71 11.001C20.1458 13.488 19.7345 15.9667 19.7345 19.7943C19.7345 19.9965 19.4062 19.9358 22.5723 19.9358C23.3598 19.9358 24.0001 19.2979 24.0001 18.5137V13.4432C24.0001 11.699 22.5723 10.2796 20.8173 10.2796Z" fill="#969BA0"/>
</svg>
