<svg width="22" height="24" viewBox="0 0 22 24" fill="none" xmlns="http://www.w3.org/2000/svg">
<path d="M6.72715 10.1756C6.9458 11.5968 8.04399 13.4056 9.84781 14.0417C10.5882 14.3001 11.3982 14.305 12.1386 14.0367C13.9126 13.3957 15.0456 11.5918 15.2692 10.1756C15.5077 10.1557 15.8208 9.82281 16.1587 8.62523C16.6208 6.99037 16.1289 6.74687 15.7115 6.78663C15.791 6.56301 15.8506 6.33443 15.8904 6.11578C16.596 1.87705 14.5089 1.73295 14.5089 1.73295C14.5089 1.73295 14.1611 1.06707 13.2517 0.565185C12.6405 0.202433 11.7908 -0.0758425 10.6727 0.0185724C10.3099 0.03348 9.96707 0.108018 9.64408 0.212371C9.23163 0.351509 8.85397 0.555246 8.5111 0.793768C8.09368 1.05714 7.69615 1.3851 7.3483 1.75779C6.79672 2.32428 6.30477 3.05476 6.09109 3.96412C5.9122 4.6449 5.95196 5.3555 6.10103 6.12075C6.14079 6.34437 6.20042 6.56798 6.27992 6.7916C5.86251 6.75184 5.37056 6.99533 5.8327 8.6302C6.17557 9.82281 6.48863 10.1557 6.72715 10.1756Z" fill="#969BA0"/>
<path d="M19.195 15.7357C16.6557 15.0897 14.5935 13.6387 14.5935 13.6387L12.9835 18.7321L12.6804 19.6912L12.6754 19.6763L12.412 20.4912L11.5623 18.0811C13.6494 15.1692 11.1399 15.199 11.0008 15.204C10.8616 15.199 8.35219 15.1692 10.4393 18.0811L9.58953 20.4912L9.32616 19.6763L9.32119 19.6912L9.01807 18.7321L7.40307 13.6387C7.40307 13.6387 5.34085 15.0897 2.80159 15.7357C0.908316 16.2177 0.81887 18.4041 0.893408 19.4825C0.893408 19.4825 1.00273 20.9484 1.11205 21.5944C1.11205 21.5944 4.80915 23.9945 11.0008 23.9995C17.1924 23.9995 20.8895 21.5944 20.8895 21.5944C20.9988 20.9484 21.1082 19.4825 21.1082 19.4825C21.1777 18.4041 21.0883 16.2177 19.195 15.7357Z" fill="#969BA0"/>
</svg>
