<svg width="24" height="19" viewBox="0 0 24 19" fill="none" xmlns="http://www.w3.org/2000/svg">
<path d="M21.4801 0H2.52002C1.13013 0 0 1.13 0 2.52997V15.79C0 17.18 1.13013 18.31 2.52002 18.31H21.4801C22.8701 18.31 24 17.18 24 15.79V2.52997C24 1.13 22.8701 0 21.4801 0ZM12 15.79C8.34009 15.79 5.37012 12.82 5.37012 9.15002C5.37012 5.48999 8.34009 2.52002 12 2.52002C15.67 2.52002 18.6401 5.48999 18.6401 9.15002C18.6401 12.82 15.67 15.79 12 15.79Z" fill="#969BA0"/>
<path d="M14.5288 9.7L11.1589 11.96C10.7189 12.26 10.1289 11.94 10.1289 11.41V6.90001C10.1289 6.36998 10.7189 6.04997 11.1589 6.34001L14.5288 8.59996C14.9188 8.85997 14.9188 9.43999 14.5288 9.7Z" fill="#969BA0"/>
</svg>
