<svg width="17" height="19" viewBox="0 0 17 19" fill="none" xmlns="http://www.w3.org/2000/svg">
<path d="M8.75 11C8.49028 11 8.27257 10.9122 8.09688 10.7365C7.92118 10.5608 7.83333 10.3431 7.83333 10.0833C7.83333 9.82361 7.92118 9.6059 8.09688 9.43021C8.27257 9.25451 8.49028 9.16667 8.75 9.16667C9.00972 9.16667 9.22743 9.25451 9.40312 9.43021C9.57882 9.6059 9.66667 9.82361 9.66667 10.0833C9.66667 10.3431 9.57882 10.5608 9.40312 10.7365C9.22743 10.9122 9.00972 11 8.75 11ZM5.08333 11C4.82361 11 4.6059 10.9122 4.43021 10.7365C4.25451 10.5608 4.16667 10.3431 4.16667 10.0833C4.16667 9.82361 4.25451 9.6059 4.43021 9.43021C4.6059 9.25451 4.82361 9.16667 5.08333 9.16667C5.34306 9.16667 5.56076 9.25451 5.73646 9.43021C5.91215 9.6059 6 9.82361 6 10.0833C6 10.3431 5.91215 10.5608 5.73646 10.7365C5.56076 10.9122 5.34306 11 5.08333 11ZM12.4167 11C12.1569 11 11.9392 10.9122 11.7635 10.7365C11.5878 10.5608 11.5 10.3431 11.5 10.0833C11.5 9.82361 11.5878 9.6059 11.7635 9.43021C11.9392 9.25451 12.1569 9.16667 12.4167 9.16667C12.6764 9.16667 12.8941 9.25451 13.0698 9.43021C13.2455 9.6059 13.3333 9.82361 13.3333 10.0833C13.3333 10.3431 13.2455 10.5608 13.0698 10.7365C12.8941 10.9122 12.6764 11 12.4167 11ZM8.75 14.6667C8.49028 14.6667 8.27257 14.5788 8.09688 14.4031C7.92118 14.2274 7.83333 14.0097 7.83333 13.75C7.83333 13.4903 7.92118 13.2726 8.09688 13.0969C8.27257 12.9212 8.49028 12.8333 8.75 12.8333C9.00972 12.8333 9.22743 12.9212 9.40312 13.0969C9.57882 13.2726 9.66667 13.4903 9.66667 13.75C9.66667 14.0097 9.57882 14.2274 9.40312 14.4031C9.22743 14.5788 9.00972 14.6667 8.75 14.6667ZM5.08333 14.6667C4.82361 14.6667 4.6059 14.5788 4.43021 14.4031C4.25451 14.2274 4.16667 14.0097 4.16667 13.75C4.16667 13.4903 4.25451 13.2726 4.43021 13.0969C4.6059 12.9212 4.82361 12.8333 5.08333 12.8333C5.34306 12.8333 5.56076 12.9212 5.73646 13.0969C5.91215 13.2726 6 13.4903 6 13.75C6 14.0097 5.91215 14.2274 5.73646 14.4031C5.56076 14.5788 5.34306 14.6667 5.08333 14.6667ZM12.4167 14.6667C12.1569 14.6667 11.9392 14.5788 11.7635 14.4031C11.5878 14.2274 11.5 14.0097 11.5 13.75C11.5 13.4903 11.5878 13.2726 11.7635 13.0969C11.9392 12.9212 12.1569 12.8333 12.4167 12.8333C12.6764 12.8333 12.8941 12.9212 13.0698 13.0969C13.2455 13.2726 13.3333 13.4903 13.3333 13.75C13.3333 14.0097 13.2455 14.2274 13.0698 14.4031C12.8941 14.5788 12.6764 14.6667 12.4167 14.6667ZM1.875 18.3333C1.50833 18.3333 1.1875 18.1958 0.9125 17.9208C0.6375 17.6458 0.5 17.325 0.5 16.9583V2.75C0.5 2.38333 0.6375 2.0625 0.9125 1.7875C1.1875 1.5125 1.50833 1.375 1.875 1.375H3.36458V0.733333C3.36458 0.519444 3.43333 0.34375 3.57083 0.20625C3.70833 0.0687499 3.88403 0 4.09792 0C4.31181 0 4.49132 0.0687499 4.63646 0.20625C4.7816 0.34375 4.85417 0.519444 4.85417 0.733333V1.375H12.6458V0.733333C12.6458 0.519444 12.7146 0.34375 12.8521 0.20625C12.9896 0.0687499 13.1653 0 13.3792 0C13.5931 0 13.7726 0.0687499 13.9177 0.20625C14.0628 0.34375 14.1354 0.519444 14.1354 0.733333V1.375H15.625C15.9917 1.375 16.3125 1.5125 16.5875 1.7875C16.8625 2.0625 17 2.38333 17 2.75V16.9583C17 17.325 16.8625 17.6458 16.5875 17.9208C16.3125 18.1958 15.9917 18.3333 15.625 18.3333H1.875ZM1.875 16.9583H15.625V7.10417H1.875V16.9583Z" fill="#A0A3BD"/>
</svg>
