<svg width="21" height="20" viewBox="0 0 21 20" fill="none" xmlns="http://www.w3.org/2000/svg">
<path d="M8.91016 12L10.9102 10M10.9102 10L12.9102 8M10.9102 10L8.91016 8M10.9102 10L12.9102 12M19.9102 10C19.9102 11.1819 19.6774 12.3522 19.2251 13.4442C18.7728 14.5361 18.1098 15.5282 17.2741 16.364C16.4384 17.1997 15.4462 17.8626 14.3543 18.3149C13.2624 18.7672 12.0921 19 10.9102 19C9.72826 19 8.55794 18.7672 7.46601 18.3149C6.37408 17.8626 5.38192 17.1997 4.5462 16.364C3.71047 15.5282 3.04753 14.5361 2.59524 13.4442C2.14295 12.3522 1.91016 11.1819 1.91016 10C1.91016 7.61305 2.85837 5.32387 4.5462 3.63604C6.23402 1.94821 8.52321 1 10.9102 1C13.2971 1 15.5863 1.94821 17.2741 3.63604C18.9619 5.32387 19.9102 7.61305 19.9102 10Z" stroke="#FF4D4F" stroke-width="2" stroke-linecap="round" stroke-linejoin="round"/>
</svg>
