<svg width="16" height="18" viewBox="0 0 16 18" fill="none" xmlns="http://www.w3.org/2000/svg">
<path d="M8.08403 1C8.73994 0.999957 9.37101 1.25091 9.84777 1.70137C10.3245 2.15183 10.6108 2.76766 10.648 3.42252L10.6519 3.5679H14.8001C14.9502 3.56795 15.0948 3.62498 15.2045 3.72748C15.3142 3.82999 15.3809 3.97031 15.3911 4.1201C15.4013 4.2699 15.3543 4.41799 15.2596 4.53446C15.1648 4.65093 15.0294 4.72709 14.8807 4.74756L14.8001 4.75309H14.1711L13.1598 15.0405C13.1091 15.5534 12.8778 16.0315 12.5071 16.3896C12.1365 16.7477 11.6506 16.9623 11.1363 16.9953L10.9972 17H5.17085C4.65526 17 4.15648 16.8166 3.76364 16.4827C3.3708 16.1488 3.10951 15.686 3.02645 15.1772L3.00828 15.0397L1.99613 4.75309H1.36798C1.22478 4.75308 1.08643 4.70122 0.978507 4.6071C0.870585 4.51297 0.800397 4.38296 0.780921 4.24109L0.775391 4.16049C0.775397 4.01729 0.827256 3.87894 0.921379 3.77102C1.0155 3.6631 1.14552 3.59291 1.28739 3.57343L1.36798 3.5679H5.51613C5.51613 2.88685 5.78668 2.2337 6.26825 1.75212C6.74983 1.27055 7.40298 1 8.08403 1ZM12.9804 4.75309H3.18685L4.18793 14.9236C4.2101 15.1505 4.31011 15.3628 4.47097 15.5244C4.63184 15.6859 4.84367 15.7869 5.0705 15.8101L5.17085 15.8148H10.9972C11.4713 15.8148 11.8735 15.479 11.9651 15.0231L11.9809 14.9236L12.9804 4.75309ZM9.46675 6.92593C9.60995 6.92593 9.7483 6.97779 9.85623 7.07191C9.96415 7.16604 10.0343 7.29606 10.0538 7.43793L10.0593 7.51852V13.0494C10.0593 13.1995 10.0023 13.3441 9.89976 13.4538C9.79726 13.5635 9.65693 13.6302 9.50714 13.6404C9.35735 13.6506 9.20925 13.6036 9.09278 13.5089C8.97631 13.4141 8.90015 13.2787 8.87969 13.13L8.87416 13.0494V7.51852C8.87416 7.36135 8.93659 7.21063 9.04772 7.09949C9.15886 6.98836 9.30958 6.92593 9.46675 6.92593ZM6.70132 6.92593C6.84452 6.92593 6.98287 6.97779 7.09079 7.07191C7.19871 7.16604 7.2689 7.29606 7.28838 7.43793L7.29391 7.51852V13.0494C7.29386 13.1995 7.23683 13.3441 7.13433 13.4538C7.03182 13.5635 6.8915 13.6302 6.74171 13.6404C6.59191 13.6506 6.44382 13.6036 6.32735 13.5089C6.21088 13.4141 6.13472 13.2787 6.11425 13.13L6.10872 13.0494V7.51852C6.10872 7.36135 6.17116 7.21063 6.28229 7.09949C6.39342 6.98836 6.54415 6.92593 6.70132 6.92593ZM8.08403 2.18519C7.73702 2.1852 7.40269 2.31569 7.14743 2.55076C6.89216 2.78583 6.73461 3.10829 6.70606 3.45412L6.70132 3.5679H9.46675C9.46675 3.20118 9.32107 2.84948 9.06176 2.59017C8.80245 2.33086 8.45075 2.18519 8.08403 2.18519Z" fill="#65CDF0" stroke="#65CDF0"/>
</svg>
