<svg width="20" height="19" viewBox="0 0 20 19" fill="none" xmlns="http://www.w3.org/2000/svg">
<path d="M19.9 9.00256C19.9 8.89256 19.84 8.78256 19.81 8.67256C19.7637 8.4785 19.7036 8.28801 19.63 8.10256C19.58 7.98256 19.51 7.86256 19.45 7.73256C19.39 7.60256 19.3 7.43256 19.21 7.29256C19.12 7.15256 19 7.08256 19 7.00256C19 6.92256 18.8 6.75256 18.69 6.63256C18.58 6.51256 18.48 6.43256 18.37 6.33256L18 6.00256L17.64 5.76256C17.4987 5.67607 17.3517 5.59923 17.2 5.53256L16.81 5.35256C16.6467 5.29206 16.4797 5.24196 16.31 5.20256C16.1756 5.16302 16.0386 5.13295 15.9 5.11256H15.72C15.3348 3.91182 14.5811 2.86296 13.5659 2.11494C12.5507 1.36692 11.3257 0.95777 10.0647 0.945592C8.80376 0.933415 7.57103 1.31883 6.54158 2.0471C5.51213 2.77538 4.73831 3.80948 4.33 5.00256H4.15C4.0114 5.02295 3.8744 5.05302 3.74 5.09256C3.57034 5.13196 3.40334 5.18206 3.24 5.24256L2.85 5.42256C2.69832 5.48923 2.55132 5.56607 2.41 5.65256L2.05 6.00256L1.68 6.31256C1.57 6.41256 1.46 6.50256 1.36 6.61256C1.26 6.72256 1.15 6.86256 1.05 6.98256C0.95 7.10256 0.87 7.21256 0.79 7.34256C0.71 7.47256 0.63 7.63256 0.55 7.78256C0.47 7.93256 0.42 8.03256 0.37 8.15256C0.296442 8.33801 0.236288 8.5285 0.19 8.72256C0.19 8.83256 0.12 8.94256 0.0999999 9.05256C0.0377566 9.36551 0.00428374 9.6835 0 10.0026C0.0046879 10.3079 0.0347918 10.6122 0.0899999 10.9126C0.0899999 11.0126 0.14 11.1026 0.16 11.2026C0.209427 11.399 0.269516 11.5926 0.34 11.7826L0.46 12.0726C0.548028 12.2654 0.64823 12.4524 0.76 12.6326L0.9 12.8526C0.914387 12.8806 0.931113 12.9073 0.95 12.9326L1 13.0026C1.46574 13.6235 2.06965 14.1276 2.76393 14.4747C3.45821 14.8218 4.22377 15.0026 5 15.0026C5.00223 14.473 5.21441 13.9659 5.59 13.5926C5.96335 13.217 6.47042 13.0048 7 13.0026C7.35177 12.9992 7.6977 13.0926 8 13.2726V10.0026C8 9.47213 8.21071 8.96342 8.58579 8.58835C8.96086 8.21327 9.46957 8.00256 10 8.00256C10.5304 8.00256 11.0391 8.21327 11.4142 8.58835C11.7893 8.96342 12 9.47213 12 10.0026V13.3726C12.3038 13.1963 12.6487 13.1032 13 13.1026C13.5417 13.1076 14.0595 13.3269 14.44 13.7126C14.7767 14.0606 14.9757 14.5189 15 15.0026C15.7762 15.0026 16.5418 14.8218 17.2361 14.4747C17.9303 14.1276 18.5343 13.6235 19 13.0026L19.05 12.9526C19.0689 12.9273 19.0856 12.9006 19.1 12.8726L19.24 12.6526C19.3518 12.4724 19.452 12.2854 19.54 12.0926L19.66 11.8026C19.7305 11.6126 19.7906 11.419 19.84 11.2226C19.84 11.1226 19.89 11.0326 19.91 10.9326C19.9663 10.6257 19.9964 10.3145 20 10.0026C19.9988 9.66679 19.9654 9.33191 19.9 9.00256Z" fill="#969BA0"/>
<path d="M12.3102 14.38L11.0002 15.64V10C11.0002 9.73478 10.8948 9.48043 10.7073 9.29289C10.5198 9.10536 10.2654 9 10.0002 9C9.73497 9 9.48062 9.10536 9.29308 9.29289C9.10554 9.48043 9.00019 9.73478 9.00019 10V15.59L7.71019 14.29C7.61695 14.1968 7.50626 14.1228 7.38444 14.0723C7.26261 14.0219 7.13204 13.9959 7.00019 13.9959C6.86833 13.9959 6.73776 14.0219 6.61594 14.0723C6.49411 14.1228 6.38342 14.1968 6.29019 14.29C6.19695 14.3832 6.12299 14.4939 6.07253 14.6158C6.02207 14.7376 5.99609 14.8681 5.99609 15C5.99609 15.1319 6.02207 15.2624 6.07253 15.3842C6.12299 15.5061 6.19695 15.6168 6.29019 15.71L9.29019 18.71C9.38363 18.8027 9.49444 18.876 9.61628 18.9258C9.73812 18.9755 9.86858 19.0008 10.0002 19C10.2577 18.999 10.5048 18.8987 10.6902 18.72L13.6902 15.82C13.7963 15.7324 13.8832 15.6239 13.9455 15.5013C14.0077 15.3786 14.044 15.2444 14.052 15.107C14.0601 14.9697 14.0397 14.8322 13.9921 14.7031C13.9446 14.574 13.8709 14.4561 13.7757 14.3568C13.6805 14.2575 13.5659 14.1788 13.4389 14.1259C13.312 14.0729 13.1754 14.0466 13.0379 14.0488C12.9003 14.051 12.7647 14.0815 12.6395 14.1385C12.5143 14.1955 12.4022 14.2777 12.3102 14.38Z" fill="#969BA0"/>
</svg>
