<svg width="18" height="16" viewBox="0 0 18 16" fill="none" xmlns="http://www.w3.org/2000/svg">
<path d="M17.2513 7.16872C17.2513 7.07705 17.2013 6.98538 17.1763 6.89372C17.1377 6.732 17.0876 6.57326 17.0263 6.41872C16.9846 6.31872 16.9263 6.21872 16.8763 6.11038C16.8263 6.00205 16.7513 5.86038 16.6763 5.74372C16.6013 5.62705 16.5013 5.56872 16.5013 5.50205C16.5013 5.43538 16.3346 5.29372 16.243 5.19372C16.1513 5.09372 16.068 5.02705 15.9763 4.94372L15.668 4.66872L15.368 4.46872C15.2502 4.39665 15.1277 4.33261 15.0013 4.27705L14.6763 4.12705C14.5402 4.07664 14.401 4.03489 14.2596 4.00205C14.1476 3.9691 14.0335 3.94404 13.918 3.92705H13.768C13.447 2.92643 12.8189 2.05239 11.9729 1.42904C11.1269 0.805687 10.106 0.464727 9.05523 0.454579C8.00444 0.444431 6.97716 0.765611 6.11928 1.3725C5.26141 1.9794 4.61656 2.84115 4.2763 3.83538H4.1263C4.0108 3.85238 3.89663 3.87744 3.78464 3.91038C3.64325 3.94322 3.50408 3.98497 3.36797 4.03538L3.04297 4.18538C2.91657 4.24095 2.79407 4.30498 2.6763 4.37705L2.3763 4.66872L2.06797 4.92705C1.9763 5.01038 1.88464 5.08538 1.8013 5.17705C1.71797 5.26872 1.6263 5.38538 1.54297 5.48538C1.45964 5.58538 1.39297 5.67705 1.3263 5.78538C1.25964 5.89372 1.19297 6.02705 1.1263 6.15205C1.05964 6.27705 1.01797 6.36038 0.976302 6.46038C0.915004 6.61492 0.864875 6.77367 0.826302 6.93538C0.826302 7.02705 0.767969 7.11872 0.751302 7.21038C0.699433 7.47118 0.671539 7.73617 0.667969 8.00205C0.671875 8.25647 0.696962 8.51013 0.742969 8.76038C0.742969 8.84372 0.784635 8.91872 0.801302 9.00205C0.842491 9.16576 0.892565 9.32711 0.951302 9.48538L1.0513 9.72705C1.12466 9.88775 1.20816 10.0436 1.3013 10.1937L1.41797 10.3771C1.42996 10.4004 1.4439 10.4227 1.45964 10.4437L1.5013 10.502C1.88941 11.0195 2.39268 11.4395 2.97125 11.7288C3.54981 12.0181 4.18778 12.1687 4.83464 12.1687C4.8365 11.7274 5.01331 11.3048 5.3263 10.9937C5.63743 10.6807 6.05999 10.5039 6.5013 10.502C6.79445 10.4993 7.08272 10.5771 7.33464 10.727V8.00205C7.33464 7.56002 7.51023 7.1361 7.82279 6.82354C8.13535 6.51098 8.55927 6.33538 9.0013 6.33538C9.44333 6.33538 9.86725 6.51098 10.1798 6.82354C10.4924 7.1361 10.668 7.56002 10.668 8.00205V10.8104C10.9212 10.6635 11.2086 10.5859 11.5013 10.5854C11.9528 10.5896 12.3842 10.7724 12.7013 11.0937C12.9819 11.3837 13.1477 11.7657 13.168 12.1687C13.8148 12.1687 14.4528 12.0181 15.0314 11.7288C15.6099 11.4395 16.1132 11.0195 16.5013 10.502L16.543 10.4604C16.5587 10.4394 16.5726 10.4171 16.5846 10.3937L16.7013 10.2104C16.7944 10.0603 16.8779 9.90441 16.9513 9.74372L17.0513 9.50205C17.11 9.34378 17.1601 9.18243 17.2013 9.01872C17.2013 8.93538 17.243 8.86038 17.2596 8.77705C17.3066 8.52131 17.3317 8.26204 17.3346 8.00205C17.3337 7.72224 17.3058 7.44318 17.2513 7.16872Z" fill="white"/>
<path d="M10.9258 11.6498L9.83414 12.6998V7.99984C9.83414 7.77882 9.74634 7.56686 9.59006 7.41058C9.43378 7.2543 9.22182 7.1665 9.00081 7.1665C8.77979 7.1665 8.56783 7.2543 8.41155 7.41058C8.25527 7.56686 8.16747 7.77882 8.16747 7.99984V12.6582L7.09247 11.5748C7.01477 11.4971 6.92253 11.4355 6.82101 11.3935C6.7195 11.3514 6.61069 11.3298 6.50081 11.3298C6.39092 11.3298 6.28212 11.3514 6.1806 11.3935C6.07908 11.4355 5.98684 11.4971 5.90914 11.5748C5.83144 11.6525 5.76981 11.7448 5.72776 11.8463C5.68571 11.9478 5.66406 12.0566 5.66406 12.1665C5.66406 12.2764 5.68571 12.3852 5.72776 12.4867C5.76981 12.5882 5.83144 12.6805 5.90914 12.7582L8.40914 15.2582C8.48701 15.3354 8.57935 15.3965 8.68088 15.438C8.78241 15.4795 8.89113 15.5005 9.00081 15.4998C9.21536 15.499 9.42132 15.4154 9.57581 15.2665L12.0758 12.8498C12.1642 12.7769 12.2366 12.6864 12.2885 12.5842C12.3404 12.482 12.3706 12.3702 12.3773 12.2557C12.384 12.1413 12.367 12.0267 12.3274 11.9191C12.2878 11.8115 12.2264 11.7133 12.1471 11.6305C12.0678 11.5477 11.9722 11.4822 11.8664 11.438C11.7606 11.3939 11.6469 11.372 11.5322 11.3738C11.4176 11.3757 11.3046 11.4011 11.2002 11.4486C11.0959 11.4961 11.0025 11.5646 10.9258 11.6498Z" fill="white"/>
</svg>
