<svg width="21" height="21" viewBox="0 0 21 21" fill="none" xmlns="http://www.w3.org/2000/svg">
<path d="M16.6667 19H2V4.33333H10.8133L12.1467 3H2C1.64638 3 1.30724 3.14048 1.05719 3.39052C0.80714 3.64057 0.666664 3.97971 0.666664 4.33333V19C0.666664 19.3536 0.80714 19.6928 1.05719 19.9428C1.30724 20.1929 1.64638 20.3333 2 20.3333H16.6667C17.0203 20.3333 17.3594 20.1929 17.6095 19.9428C17.8595 19.6928 18 19.3536 18 19V9L16.6667 10.3333V19Z" fill="#65CDF0"/>
<path d="M20.3533 2.89334L18.1066 0.646669C18.0069 0.546689 17.8885 0.467365 17.7581 0.413241C17.6276 0.359117 17.4878 0.331257 17.3466 0.331257C17.2054 0.331257 17.0656 0.359117 16.9352 0.413241C16.8048 0.467365 16.6863 0.546689 16.5866 0.646669L7.44664 9.84L6.70664 13.0467C6.67511 13.2021 6.67842 13.3626 6.71634 13.5166C6.75426 13.6706 6.82583 13.8143 6.92592 13.9373C7.02601 14.0604 7.15212 14.1597 7.29518 14.2282C7.43824 14.2966 7.5947 14.3326 7.7533 14.3333C7.83528 14.3424 7.91799 14.3424 7.99997 14.3333L11.2333 13.62L20.3533 4.41334C20.4533 4.31363 20.5326 4.19518 20.5867 4.06476C20.6409 3.93435 20.6687 3.79454 20.6687 3.65334C20.6687 3.51214 20.6409 3.37232 20.5867 3.24191C20.5326 3.1115 20.4533 2.99304 20.3533 2.89334V2.89334ZM10.54 12.3867L8.09997 12.9267L8.66664 10.5067L15.5466 3.58L17.4266 5.46L10.54 12.3867ZM18.18 4.70667L16.3 2.82667L17.3333 1.77334L19.2266 3.66667L18.18 4.70667Z" fill="#65CDF0"/>
</svg>
