<svg width="18" height="18" viewBox="0 0 18 18" fill="none" xmlns="http://www.w3.org/2000/svg">
<path d="M16.0509 4.44171L13.0026 1.39348L14.0028 0.393277C14.2727 0.123381 14.6101 -0.00759791 15.0149 0.000340205C15.4198 0.00827832 15.7571 0.147195 16.027 0.417091L17.0511 1.44111C17.321 1.711 17.4559 2.0444 17.4559 2.44131C17.4559 2.83822 17.321 3.17162 17.0511 3.44151L16.0509 4.44171ZM0.71443 17.4443C0.508039 17.4443 0.33737 17.3769 0.202422 17.2419C0.067474 17.107 0 16.9363 0 16.7299V14.6819C0 14.5866 0.0158762 14.4993 0.0476286 14.4199C0.079381 14.3405 0.134948 14.2612 0.214329 14.1818L12.0024 2.39368L15.0507 5.44192L3.26256 17.23C3.18318 17.3094 3.1038 17.365 3.02442 17.3967C2.94504 17.4285 2.85772 17.4443 2.76246 17.4443H0.71443Z" fill="#65CDF0"/>
</svg>
