<svg width="21" height="21" viewBox="0 0 21 21" fill="none" xmlns="http://www.w3.org/2000/svg">
<path d="M16 19.001H1.33333V4.33431H10.1467L11.48 3.00098H1.33333C0.979711 3.00098 0.640573 3.14145 0.390524 3.3915C0.140476 3.64155 0 3.98069 0 4.33431V19.001C0 19.3546 0.140476 19.6937 0.390524 19.9438C0.640573 20.1938 0.979711 20.3343 1.33333 20.3343H16C16.3536 20.3343 16.6928 20.1938 16.9428 19.9438C17.1929 19.6937 17.3333 19.3546 17.3333 19.001V9.00098L16 10.3343V19.001Z" fill="#F7B923"/>
<path d="M19.6876 2.89411L17.4409 0.647443C17.3412 0.547464 17.2228 0.468139 17.0924 0.414015C16.962 0.359891 16.8221 0.332031 16.6809 0.332031C16.5397 0.332031 16.3999 0.359891 16.2695 0.414015C16.1391 0.468139 16.0207 0.547464 15.9209 0.647443L6.78095 9.84078L6.04095 13.0474C6.00942 13.2029 6.01274 13.3634 6.05065 13.5174C6.08857 13.6714 6.16014 13.8151 6.26023 13.9381C6.36032 14.0611 6.48643 14.1605 6.62949 14.2289C6.77255 14.2974 6.92901 14.3333 7.08761 14.3341C7.16959 14.3431 7.25231 14.3431 7.33428 14.3341L10.5676 13.6208L19.6876 4.41411C19.7876 4.3144 19.8669 4.19595 19.921 4.06554C19.9752 3.93512 20.003 3.79531 20.003 3.65411C20.003 3.51291 19.9752 3.3731 19.921 3.24268C19.8669 3.11227 19.7876 2.99382 19.6876 2.89411ZM9.87428 12.3874L7.43428 12.9274L8.00095 10.5074L14.8809 3.58078L16.7609 5.46078L9.87428 12.3874ZM17.5143 4.70744L15.6343 2.82744L16.6676 1.77411L18.5609 3.66744L17.5143 4.70744Z" fill="#F7B923"/>
</svg>
