<svg width="18" height="18" viewBox="0 0 18 18" fill="none" xmlns="http://www.w3.org/2000/svg">
<path d="M13.574 15.8201H1.84373V4.08983H8.89256L9.95895 3.02344H1.84373C1.56091 3.02344 1.28967 3.13579 1.08968 3.33578C0.889695 3.53576 0.777344 3.807 0.777344 4.08983V15.8201C0.777344 16.1029 0.889695 16.3742 1.08968 16.5742C1.28967 16.7741 1.56091 16.8865 1.84373 16.8865H13.574C13.8568 16.8865 14.1281 16.7741 14.3281 16.5742C14.528 16.3742 14.6404 16.1029 14.6404 15.8201V7.82219L13.574 8.88858V15.8201Z" fill="#65CDF0" stroke="#65CDF0"/>
<path d="M16.5234 2.93585L14.7266 1.13898C14.6468 1.05902 14.5521 0.995577 14.4478 0.952289C14.3435 0.909001 14.2316 0.886719 14.1187 0.886719C14.0058 0.886719 13.894 0.909001 13.7897 0.952289C13.6853 0.995577 13.5906 1.05902 13.5109 1.13898L6.20077 8.49173L5.60893 11.0564C5.58371 11.1807 5.58636 11.3091 5.61669 11.4323C5.64701 11.5554 5.70426 11.6703 5.78431 11.7688C5.86436 11.8672 5.96522 11.9466 6.07964 12.0014C6.19406 12.0561 6.31919 12.0848 6.44604 12.0855C6.5116 12.0927 6.57776 12.0927 6.64332 12.0855L9.22932 11.5149L16.5234 4.15153C16.6034 4.07179 16.6668 3.97705 16.7101 3.87274C16.7534 3.76844 16.7757 3.65662 16.7757 3.54369C16.7757 3.43076 16.7534 3.31894 16.7101 3.21463C16.6668 3.11033 16.6034 3.01559 16.5234 2.93585ZM8.67479 10.5285L6.7233 10.9604L7.17652 9.02493L12.6791 3.48504L14.1827 4.98865L8.67479 10.5285ZM14.7852 4.38614L13.2816 2.88253L14.108 2.04008L15.6223 3.55435L14.7852 4.38614Z" fill="#65CDF0" stroke="#65CDF0"/>
</svg>
