<svg width="21" height="21" viewBox="0 0 21 21" fill="none" xmlns="http://www.w3.org/2000/svg">
<path d="M16 18.668H1.33333V4.0013H10.1467L11.48 2.66797H1.33333C0.979711 2.66797 0.640573 2.80844 0.390524 3.05849C0.140476 3.30854 0 3.64768 0 4.0013V18.668C0 19.0216 0.140476 19.3607 0.390524 19.6108C0.640573 19.8608 0.979711 20.0013 1.33333 20.0013H16C16.3536 20.0013 16.6928 19.8608 16.9428 19.6108C17.1929 19.3607 17.3333 19.0216 17.3333 18.668V8.66797L16 10.0013V18.668Z" fill="#65CDF0"/>
<path d="M19.6866 2.56208L17.44 0.315412C17.3403 0.215432 17.2218 0.136108 17.0914 0.081984C16.961 0.02786 16.8212 0 16.68 0C16.5388 0 16.399 0.02786 16.2685 0.081984C16.1381 0.136108 16.0197 0.215432 15.92 0.315412L6.77997 9.50875L6.03997 12.7154C6.00845 12.8709 6.01176 13.0313 6.04968 13.1854C6.08759 13.3394 6.15917 13.483 6.25925 13.6061C6.35934 13.7291 6.48545 13.8284 6.62851 13.8969C6.77158 13.9654 6.92804 14.0013 7.08664 14.0021C7.16861 14.0111 7.25133 14.0111 7.3333 14.0021L10.5666 13.2887L19.6866 4.08208C19.7866 3.98237 19.8659 3.86392 19.9201 3.7335C19.9742 3.60309 20.002 3.46328 20.002 3.32208C20.002 3.18088 19.9742 3.04107 19.9201 2.91065C19.8659 2.78024 19.7866 2.66179 19.6866 2.56208ZM9.8733 12.0554L7.4333 12.5954L7.99997 10.1754L14.88 3.24875L16.76 5.12875L9.8733 12.0554ZM17.5133 4.37541L15.6333 2.49541L16.6666 1.44208L18.56 3.33541L17.5133 4.37541Z" fill="#65CDF0"/>
</svg>
