<svg width="24" height="24" viewBox="0 0 24 24" fill="none" xmlns="http://www.w3.org/2000/svg">
<path d="M20.4857 3.51454C15.7994 -1.17125 8.20125 -1.17177 3.51442 3.51454C-1.1719 8.20085 -1.17137 15.799 3.51442 20.4859C8.20073 25.1711 15.7989 25.1716 20.4857 20.4859C25.1715 15.799 25.171 8.20137 20.4857 3.51454ZM13.5648 17.2176C13.5648 18.0822 12.8641 18.7829 11.9996 18.7829C11.135 18.7829 10.4343 18.0822 10.4343 17.2176V10.9567C10.4343 10.0922 11.135 9.39147 11.9996 9.39147C12.8641 9.39147 13.5648 10.0922 13.5648 10.9567V17.2176ZM11.9719 8.2812C11.0703 8.2812 10.4693 7.64258 10.4881 6.85423C10.4693 6.02778 11.0703 5.40847 11.9902 5.40847C12.9105 5.40847 13.4928 6.0283 13.5121 6.85423C13.5116 7.64258 12.911 8.2812 11.9719 8.2812Z" fill="#65CDF0"/>
</svg>
