<svg width="34" height="34" viewBox="0 0 34 34" fill="none" xmlns="http://www.w3.org/2000/svg">
<rect width="34" height="34" rx="17" fill="#F7B923"/>
<path d="M15 18H21M23 26H13C12.4696 26 11.9609 25.7893 11.5858 25.4142C11.2107 25.0391 11 24.5304 11 24V10C11 9.46957 11.2107 8.96086 11.5858 8.58579C11.9609 8.21071 12.4696 8 13 8H18.586C18.8512 8.00006 19.1055 8.10545 19.293 8.293L24.707 13.707C24.8946 13.8945 24.9999 14.1488 25 14.414V24C25 24.5304 24.7893 25.0391 24.4142 25.4142C24.0391 25.7893 23.5304 26 23 26Z" stroke="white" stroke-width="1.2" stroke-linecap="round" stroke-linejoin="round"/>
</svg>
