<svg width="34" height="34" viewBox="0 0 34 34" fill="none" xmlns="http://www.w3.org/2000/svg">
<rect width="34" height="34" rx="17" fill="#52C41A"/>
<path d="M13 12V20C13 20.5304 13.2107 21.0391 13.5858 21.4142C13.9609 21.7893 14.4696 22 15 22H21M13 12V10C13 9.46957 13.2107 8.96086 13.5858 8.58579C13.9609 8.21071 14.4696 8 15 8H19.586C19.8512 8.00006 20.1055 8.10545 20.293 8.293L24.707 12.707C24.8946 12.8945 24.9999 13.1488 25 13.414V20C25 20.5304 24.7893 21.0391 24.4142 21.4142C24.0391 21.7893 23.5304 22 23 22H21M13 12H11C10.4696 12 9.96086 12.2107 9.58579 12.5858C9.21071 12.9609 9 13.4696 9 14V24C9 24.5304 9.21071 25.0391 9.58579 25.4142C9.96086 25.7893 10.4696 26 11 26H19C19.5304 26 20.0391 25.7893 20.4142 25.4142C20.7893 25.0391 21 24.5304 21 24V22" stroke="white" stroke-width="1.2" stroke-linecap="round" stroke-linejoin="round"/>
</svg>
