<svg width="50" height="50" viewBox="0 0 50 50" fill="none" xmlns="http://www.w3.org/2000/svg">
<circle cx="25" cy="25" r="25" fill="#4E132C"/>
<path d="M20.664 19.7827V26.6427C20.664 27.5947 20.3887 28.3367 19.838 28.8687C19.2873 29.3914 18.55 29.6527 17.626 29.6527C16.6927 29.6527 15.9367 29.382 15.358 28.8407C14.7887 28.2994 14.504 27.5434 14.504 26.5727H16.464C16.4733 26.9927 16.5713 27.3194 16.758 27.5527C16.954 27.786 17.234 27.9027 17.598 27.9027C17.9527 27.9027 18.2233 27.7907 18.41 27.5667C18.5967 27.3427 18.69 27.0347 18.69 26.6427V19.7827H20.664ZM26.3664 19.7827C27.393 19.7827 28.2937 19.9834 29.0684 20.3847C29.8524 20.786 30.4544 21.36 30.8744 22.1067C31.3037 22.844 31.5184 23.7027 31.5184 24.6827C31.5184 25.6627 31.3037 26.5214 30.8744 27.2587C30.4544 27.9867 29.8524 28.5514 29.0684 28.9527C28.2937 29.354 27.393 29.5547 26.3664 29.5547H22.9504V19.7827H26.3664ZM26.2964 27.8887C27.323 27.8887 28.1164 27.6087 28.6764 27.0487C29.2364 26.4887 29.5164 25.7 29.5164 24.6827C29.5164 23.6654 29.2364 22.872 28.6764 22.3027C28.1164 21.724 27.323 21.4347 26.2964 21.4347H24.9104V27.8887H26.2964Z" fill="white"/>
</svg>
