<svg width="22" height="22" viewBox="0 0 22 22" fill="none" xmlns="http://www.w3.org/2000/svg">
<path d="M10.5 11.2422C13.5376 11.2422 16 8.77975 16 5.74219C16 2.70462 13.5376 0.242188 10.5 0.242188C7.46243 0.242188 5 2.70462 5 5.74219C5 8.77975 7.46243 11.2422 10.5 11.2422Z" fill="#65CDF0"/>
<path fill-rule="evenodd" clip-rule="evenodd" d="M11.925 20.7555C10.886 19.6395 10.25 18.1435 10.25 16.4995C10.25 14.8165 10.917 13.2875 12.001 12.1635C11.511 12.1255 11.01 12.1055 10.5 12.1055C7.178 12.1055 4.237 12.9365 2.411 14.1815C1.018 15.1315 0.25 16.3385 0.25 17.6055V19.0555C0.25 19.5065 0.429 19.9395 0.748 20.2575C1.067 20.5765 1.499 20.7555 1.95 20.7555H11.925Z" fill="#65CDF0"/>
<path fill-rule="evenodd" clip-rule="evenodd" d="M16.5 11.25C13.602 11.25 11.25 13.602 11.25 16.5C11.25 19.398 13.602 21.75 16.5 21.75C19.398 21.75 21.75 19.398 21.75 16.5C21.75 13.602 19.398 11.25 16.5 11.25ZM15.75 16.5V19C15.75 19.414 16.086 19.75 16.5 19.75C16.914 19.75 17.25 19.414 17.25 19V16.5C17.25 16.086 16.914 15.75 16.5 15.75C16.086 15.75 15.75 16.086 15.75 16.5ZM16.5 13.25C17.052 13.25 17.5 13.698 17.5 14.25C17.5 14.802 17.052 15.25 16.5 15.25C15.948 15.25 15.5 14.802 15.5 14.25C15.5 13.698 15.948 13.25 16.5 13.25Z" fill="#65CDF0"/>
</svg>
