<svg width="45" height="45" viewBox="0 0 45 45" fill="none" xmlns="http://www.w3.org/2000/svg">
<circle cx="22.5" cy="22.5" r="22.5" fill="#EE2E7E"/>
<path d="M15.382 18.228C16.4087 18.228 17.3093 18.4287 18.084 18.83C18.868 19.2313 19.47 19.8053 19.89 20.552C20.3193 21.2893 20.534 22.148 20.534 23.128C20.534 24.108 20.3193 24.9667 19.89 25.704C19.47 26.432 18.868 26.9967 18.084 27.398C17.3093 27.7993 16.4087 28 15.382 28H11.966V18.228H15.382ZM15.312 26.334C16.3387 26.334 17.132 26.054 17.692 25.494C18.252 24.934 18.532 24.1453 18.532 23.128C18.532 22.1107 18.252 21.3173 17.692 20.748C17.132 20.1693 16.3387 19.88 15.312 19.88H13.926V26.334H15.312ZM32.6552 18.228V28H30.6952V21.644L28.0772 28H26.5932L23.9612 21.644V28H22.0012V18.228H24.2272L27.3352 25.494L30.4432 18.228H32.6552Z" fill="white"/>
</svg>
