<svg width="18" height="20" viewBox="0 0 18 20" fill="none" xmlns="http://www.w3.org/2000/svg">
<path d="M9 11.834C8.74028 11.834 8.52257 11.7461 8.34688 11.5704C8.17118 11.3947 8.08333 11.177 8.08333 10.9173C8.08333 10.6576 8.17118 10.4399 8.34688 10.2642C8.52257 10.0885 8.74028 10.0007 9 10.0007C9.25972 10.0007 9.47743 10.0885 9.65312 10.2642C9.82882 10.4399 9.91667 10.6576 9.91667 10.9173C9.91667 11.177 9.82882 11.3947 9.65312 11.5704C9.47743 11.7461 9.25972 11.834 9 11.834ZM5.33333 11.834C5.07361 11.834 4.8559 11.7461 4.68021 11.5704C4.50451 11.3947 4.41667 11.177 4.41667 10.9173C4.41667 10.6576 4.50451 10.4399 4.68021 10.2642C4.8559 10.0885 5.07361 10.0007 5.33333 10.0007C5.59306 10.0007 5.81076 10.0885 5.98646 10.2642C6.16215 10.4399 6.25 10.6576 6.25 10.9173C6.25 11.177 6.16215 11.3947 5.98646 11.5704C5.81076 11.7461 5.59306 11.834 5.33333 11.834ZM12.6667 11.834C12.4069 11.834 12.1892 11.7461 12.0135 11.5704C11.8378 11.3947 11.75 11.177 11.75 10.9173C11.75 10.6576 11.8378 10.4399 12.0135 10.2642C12.1892 10.0885 12.4069 10.0007 12.6667 10.0007C12.9264 10.0007 13.1441 10.0885 13.3198 10.2642C13.4955 10.4399 13.5833 10.6576 13.5833 10.9173C13.5833 11.177 13.4955 11.3947 13.3198 11.5704C13.1441 11.7461 12.9264 11.834 12.6667 11.834ZM9 15.5007C8.74028 15.5007 8.52257 15.4128 8.34688 15.2371C8.17118 15.0614 8.08333 14.8437 8.08333 14.584C8.08333 14.3243 8.17118 14.1066 8.34688 13.9309C8.52257 13.7552 8.74028 13.6673 9 13.6673C9.25972 13.6673 9.47743 13.7552 9.65312 13.9309C9.82882 14.1066 9.91667 14.3243 9.91667 14.584C9.91667 14.8437 9.82882 15.0614 9.65312 15.2371C9.47743 15.4128 9.25972 15.5007 9 15.5007ZM5.33333 15.5007C5.07361 15.5007 4.8559 15.4128 4.68021 15.2371C4.50451 15.0614 4.41667 14.8437 4.41667 14.584C4.41667 14.3243 4.50451 14.1066 4.68021 13.9309C4.8559 13.7552 5.07361 13.6673 5.33333 13.6673C5.59306 13.6673 5.81076 13.7552 5.98646 13.9309C6.16215 14.1066 6.25 14.3243 6.25 14.584C6.25 14.8437 6.16215 15.0614 5.98646 15.2371C5.81076 15.4128 5.59306 15.5007 5.33333 15.5007ZM12.6667 15.5007C12.4069 15.5007 12.1892 15.4128 12.0135 15.2371C11.8378 15.0614 11.75 14.8437 11.75 14.584C11.75 14.3243 11.8378 14.1066 12.0135 13.9309C12.1892 13.7552 12.4069 13.6673 12.6667 13.6673C12.9264 13.6673 13.1441 13.7552 13.3198 13.9309C13.4955 14.1066 13.5833 14.3243 13.5833 14.584C13.5833 14.8437 13.4955 15.0614 13.3198 15.2371C13.1441 15.4128 12.9264 15.5007 12.6667 15.5007ZM2.125 19.1673C1.75833 19.1673 1.4375 19.0298 1.1625 18.7548C0.8875 18.4798 0.75 18.159 0.75 17.7923V3.58398C0.75 3.21732 0.8875 2.89648 1.1625 2.62148C1.4375 2.34648 1.75833 2.20898 2.125 2.20898H3.61458V1.56732C3.61458 1.35343 3.68333 1.17773 3.82083 1.04023C3.95833 0.902734 4.13403 0.833984 4.34792 0.833984C4.56181 0.833984 4.74132 0.902734 4.88646 1.04023C5.0316 1.17773 5.10417 1.35343 5.10417 1.56732V2.20898H12.8958V1.56732C12.8958 1.35343 12.9646 1.17773 13.1021 1.04023C13.2396 0.902734 13.4153 0.833984 13.6292 0.833984C13.8431 0.833984 14.0226 0.902734 14.1677 1.04023C14.3128 1.17773 14.3854 1.35343 14.3854 1.56732V2.20898H15.875C16.2417 2.20898 16.5625 2.34648 16.8375 2.62148C17.1125 2.89648 17.25 3.21732 17.25 3.58398V17.7923C17.25 18.159 17.1125 18.4798 16.8375 18.7548C16.5625 19.0298 16.2417 19.1673 15.875 19.1673H2.125ZM2.125 17.7923H15.875V7.93815H2.125V17.7923Z" fill="#A0A3BD"/>
</svg>
