<svg width="24" height="27" viewBox="0 0 24 27" fill="none" xmlns="http://www.w3.org/2000/svg">
<path d="M12.0001 9.049e-09C13.0771 -7.05047e-05 14.1132 0.411967 14.8961 1.15159C15.6789 1.89121 16.149 2.90234 16.2099 3.97756L16.2164 4.21627H23.0273C23.2738 4.21634 23.5111 4.30999 23.6913 4.47829C23.8714 4.64659 23.9809 4.87699 23.9977 5.12293C24.0145 5.36888 23.9374 5.61204 23.7818 5.80327C23.6262 5.9945 23.4039 6.11955 23.1596 6.15316L23.0273 6.16224H21.9947L20.3341 23.0533C20.2509 23.8954 19.8711 24.6805 19.2625 25.2684C18.6539 25.8563 17.8561 26.2088 17.0117 26.2628L16.7833 26.2706H7.21695C6.37041 26.2706 5.55145 25.9695 4.90645 25.4212C4.26144 24.873 3.83242 24.1132 3.69605 23.2777L3.66621 23.052L2.00435 6.16224H0.972985C0.737863 6.16223 0.510698 6.07708 0.333499 5.92254C0.156301 5.768 0.0410577 5.55452 0.00908115 5.32158L0 5.18925C9.91523e-06 4.95413 0.0851591 4.72697 0.239701 4.54977C0.394242 4.37257 0.607722 4.25733 0.840659 4.22535L0.972985 4.21627H7.78388C7.78388 3.09804 8.22809 2.02562 9.0188 1.23492C9.8095 0.444213 10.8819 9.049e-09 12.0001 9.049e-09ZM20.0396 6.16224H3.9594L5.6031 22.8613C5.63949 23.2339 5.80369 23.5824 6.06782 23.8477C6.33196 24.113 6.67976 24.2788 7.0522 24.3168L7.21695 24.3246H16.7833C17.5617 24.3246 18.2221 23.7733 18.3726 23.0247L18.3985 22.8613L20.0383 6.16224H20.0396ZM14.2704 9.72985C14.5056 9.72986 14.7327 9.81501 14.9099 9.96955C15.0871 10.1241 15.2024 10.3376 15.2344 10.5705L15.2434 10.7028V19.784C15.2434 20.0305 15.1497 20.2678 14.9814 20.448C14.8131 20.6281 14.5827 20.7376 14.3368 20.7545C14.0908 20.7713 13.8477 20.6941 13.6564 20.5385C13.4652 20.3829 13.3401 20.1606 13.3065 19.9164L13.2975 19.784V10.7028C13.2975 10.4448 13.4 10.1973 13.5824 10.0148C13.7649 9.83236 14.0124 9.72985 14.2704 9.72985ZM9.72985 9.72985C9.96497 9.72986 10.1921 9.81501 10.3693 9.96955C10.5465 10.1241 10.6618 10.3376 10.6938 10.5705L10.7028 10.7028V19.784C10.7028 20.0305 10.6091 20.2678 10.4408 20.448C10.2725 20.6281 10.0421 20.7376 9.79617 20.7545C9.55022 20.7713 9.30707 20.6941 9.11583 20.5385C8.9246 20.3829 8.79955 20.1606 8.76595 19.9164L8.75686 19.784V10.7028C8.75686 10.4448 8.85938 10.1973 9.04185 10.0148C9.22432 9.83236 9.4718 9.72985 9.72985 9.72985ZM12.0001 1.94597C11.4304 1.94599 10.8815 2.16025 10.4623 2.54621C10.0432 2.93217 9.78452 3.46162 9.73763 4.02946L9.72985 4.21627H14.2704C14.2704 3.61415 14.0313 3.03669 13.6055 2.61093C13.1797 2.18516 12.6023 1.94597 12.0001 1.94597Z" fill="#FF4D4F"/>
</svg>
