<svg width="11" height="8" viewBox="0 0 11 8" fill="none" xmlns="http://www.w3.org/2000/svg">
<path d="M1.37267 7.92627C1.18579 7.92627 1.02227 7.85619 0.882112 7.71603C0.741954 7.57588 0.671875 7.41236 0.671875 7.22548V1.15196C0.671875 0.965085 0.741954 0.801567 0.882112 0.661409C1.02227 0.521251 1.18579 0.451172 1.37267 0.451172H9.31496C9.50184 0.451172 9.66535 0.521251 9.80551 0.661409C9.94567 0.801567 10.0157 0.965085 10.0157 1.15196V7.22548C10.0157 7.41236 9.94567 7.57588 9.80551 7.71603C9.66535 7.85619 9.50184 7.92627 9.31496 7.92627H1.37267ZM5.34381 4.32888C5.38274 4.32888 5.41584 4.32304 5.44309 4.31136C5.47034 4.29968 5.49954 4.28605 5.53069 4.27048L9.19816 1.87611C9.23709 1.85275 9.26629 1.82161 9.28576 1.78267C9.30523 1.74374 9.31496 1.70091 9.31496 1.6542C9.31496 1.55297 9.27019 1.47316 9.18064 1.41476C9.09109 1.35636 8.9996 1.35831 8.90616 1.4206L5.34381 3.69817L1.79314 1.4206C1.6997 1.35831 1.60626 1.35441 1.51282 1.40892C1.41938 1.46342 1.37267 1.54129 1.37267 1.64252C1.37267 1.68924 1.38435 1.73401 1.40771 1.77683C1.43106 1.81966 1.45832 1.85275 1.48946 1.87611L5.15693 4.27048C5.18808 4.28605 5.21728 4.29968 5.24453 4.31136C5.27179 4.32304 5.30488 4.32888 5.34381 4.32888Z" fill="#65CDF0"/>
</svg>
