<svg width="24" height="24" viewBox="0 0 24 24" fill="none" xmlns="http://www.w3.org/2000/svg">
<g clip-path="url(#clip0_146_128695)">
<path d="M23.25 20.25H12.75C12.336 20.25 12 19.914 12 19.5C12 19.086 12 4.914 12 4.5C12 4.086 12.336 3.75 12.75 3.75H23.25C23.664 3.75 24 4.086 24 4.5V19.5C24 19.914 23.664 20.25 23.25 20.25Z" fill="#ECEFF1"/>
<path d="M15.75 8.25H12.75C12.336 8.25 12 7.914 12 7.5C12 7.086 12.336 6.75 12.75 6.75H15.75C16.164 6.75 16.5 7.086 16.5 7.5C16.5 7.914 16.164 8.25 15.75 8.25Z" fill="#388E3C"/>
<path d="M15.75 11.25H12.75C12.336 11.25 12 10.914 12 10.5C12 10.086 12.336 9.75 12.75 9.75H15.75C16.164 9.75 16.5 10.086 16.5 10.5C16.5 10.914 16.164 11.25 15.75 11.25Z" fill="#388E3C"/>
<path d="M15.75 14.25H12.75C12.336 14.25 12 13.914 12 13.5C12 13.086 12.336 12.75 12.75 12.75H15.75C16.164 12.75 16.5 13.086 16.5 13.5C16.5 13.914 16.164 14.25 15.75 14.25Z" fill="#388E3C"/>
<path d="M15.75 17.25H12.75C12.336 17.25 12 16.914 12 16.5C12 16.086 12.336 15.75 12.75 15.75H15.75C16.164 15.75 16.5 16.086 16.5 16.5C16.5 16.914 16.164 17.25 15.75 17.25Z" fill="#388E3C"/>
<path d="M20.25 8.25H18.75C18.336 8.25 18 7.914 18 7.5C18 7.086 18.336 6.75 18.75 6.75H20.25C20.664 6.75 21 7.086 21 7.5C21 7.914 20.664 8.25 20.25 8.25Z" fill="#388E3C"/>
<path d="M20.25 11.25H18.75C18.336 11.25 18 10.914 18 10.5C18 10.086 18.336 9.75 18.75 9.75H20.25C20.664 9.75 21 10.086 21 10.5C21 10.914 20.664 11.25 20.25 11.25Z" fill="#388E3C"/>
<path d="M20.25 14.25H18.75C18.336 14.25 18 13.914 18 13.5C18 13.086 18.336 12.75 18.75 12.75H20.25C20.664 12.75 21 13.086 21 13.5C21 13.914 20.664 14.25 20.25 14.25Z" fill="#388E3C"/>
<path d="M20.25 17.25H18.75C18.336 17.25 18 16.914 18 16.5C18 16.086 18.336 15.75 18.75 15.75H20.25C20.664 15.75 21 16.086 21 16.5C21 16.914 20.664 17.25 20.25 17.25Z" fill="#388E3C"/>
<path d="M13.2285 0.923511C13.0575 0.781011 12.828 0.719511 12.612 0.764511L0.612 3.01451C0.2565 3.08051 0 3.38951 0 3.75101V20.251C0 20.611 0.2565 20.9215 0.612 20.9875L12.612 23.2375C12.657 23.2465 12.7035 23.251 12.75 23.251C12.924 23.251 13.0935 23.191 13.2285 23.0785C13.401 22.936 13.5 22.723 13.5 22.501V1.50101C13.5 1.27751 13.401 1.06601 13.2285 0.923511Z" fill="#2E7D32"/>
<path d="M10.314 14.5077L7.94254 11.7972L10.341 8.71322C10.596 8.38622 10.536 7.91522 10.2105 7.66022C9.88504 7.40522 9.41404 7.46522 9.15754 7.79072L6.93604 10.6467L5.06404 8.50772C4.78954 8.19272 4.31554 8.16422 4.00654 8.43722C3.69454 8.71022 3.66304 9.18422 3.93604 9.49472L5.99854 11.8527L3.90754 14.5407C3.65254 14.8677 3.71254 15.3387 4.03804 15.5937C4.17604 15.7002 4.33954 15.7512 4.50004 15.7512C4.72354 15.7512 4.94404 15.6522 5.09254 15.4617L7.00504 13.0017L9.18604 15.4932C9.33454 15.6642 9.54154 15.7512 9.75004 15.7512C9.92554 15.7512 10.101 15.6897 10.2435 15.5652C10.5555 15.2922 10.587 14.8182 10.314 14.5077Z" fill="#FAFAFA"/>
</g>
<defs>
<clipPath id="clip0_146_128695">
<rect width="24" height="24" fill="white"/>
</clipPath>
</defs>
</svg>
