<svg width="11" height="13" viewBox="0 0 11 13" fill="none" xmlns="http://www.w3.org/2000/svg">
<path d="M9.49195 2.62921C9.14425 1.94368 8.6298 1.35655 7.99588 0.921811C7.36197 0.487069 6.62893 0.218662 5.86417 0.141268C5.51821 0.106557 5.16965 0.106557 4.8237 0.141268C4.05895 0.218713 3.32593 0.487112 2.69199 0.921802C2.05805 1.35649 1.54352 1.94353 1.19568 2.62898C0.758048 3.50358 0.589008 4.48812 0.709853 5.45861C0.830698 6.42909 1.23602 7.34211 1.87478 8.08267L4.98959 11.8697C5.03261 11.922 5.08669 11.9641 5.14793 11.9931C5.20918 12.022 5.27608 12.037 5.34382 12.037C5.41156 12.037 5.47845 12.022 5.5397 11.9931C5.60095 11.9641 5.65502 11.922 5.69804 11.8697L8.81285 8.08267C9.4516 7.34215 9.85693 6.42917 9.97777 5.45872C10.0986 4.48828 9.92958 3.50377 9.49195 2.62921ZM5.34382 6.53441C4.98105 6.53441 4.62644 6.42684 4.32481 6.2253C4.02319 6.02376 3.7881 5.73731 3.64927 5.40216C3.51045 5.06701 3.47413 4.69822 3.5449 4.34243C3.61567 3.98664 3.79036 3.65982 4.04687 3.40331C4.30338 3.1468 4.6302 2.97211 4.98599 2.90134C5.34178 2.83057 5.71057 2.86689 6.04572 3.00571C6.38087 3.14454 6.66733 3.37962 6.86887 3.68125C7.07041 3.98288 7.17798 4.33749 7.17798 4.70025C7.17741 5.18653 6.98398 5.65272 6.64013 5.99657C6.29629 6.34042 5.83009 6.53384 5.34382 6.53441Z" fill="#65CDF0"/>
</svg>
