<svg width="18" height="24" viewBox="0 0 18 24" fill="none" xmlns="http://www.w3.org/2000/svg">
<path fill-rule="evenodd" clip-rule="evenodd" d="M3.14994 0H11.1739L17.9745 7.08846V20.8756C17.9745 22.6027 16.5772 24 14.8561 24H3.14994C1.42281 24 0.0255127 22.6027 0.0255127 20.8756V3.12443C0.0254824 1.3973 1.42278 0 3.14994 0V0Z" fill="#E5252A"/>
<path opacity="0.302" fill-rule="evenodd" clip-rule="evenodd" d="M11.1681 0V7.03449H17.9747L11.1681 0Z" fill="white"/>
<path d="M3.49817 17.9072V13.5234H5.36324C5.82502 13.5234 6.19084 13.6494 6.4667 13.9072C6.74256 14.1591 6.8805 14.501 6.8805 14.9267C6.8805 15.3525 6.74256 15.6944 6.4667 15.9462C6.19084 16.2041 5.82502 16.33 5.36324 16.33H4.61961V17.9072H3.49817ZM4.61961 15.3765H5.23731C5.40521 15.3765 5.53715 15.3405 5.62712 15.2566C5.71706 15.1786 5.76506 15.0707 5.76506 14.9268C5.76506 14.7829 5.71709 14.6749 5.62712 14.5969C5.53718 14.513 5.40524 14.477 5.23731 14.477H4.61961V15.3765ZM7.34224 17.9072V13.5234H8.89547C9.20131 13.5234 9.48918 13.5654 9.75903 13.6554C10.0289 13.7453 10.2748 13.8713 10.4907 14.0452C10.7066 14.2131 10.8805 14.441 11.0064 14.7288C11.1263 15.0167 11.1923 15.3465 11.1923 15.7183C11.1923 16.0842 11.1264 16.414 11.0064 16.7018C10.8805 16.9897 10.7066 17.2176 10.4907 17.3855C10.2747 17.5594 10.0289 17.6853 9.75903 17.7753C9.48918 17.8652 9.20131 17.9072 8.89547 17.9072H7.34224ZM8.4397 16.9537H8.76353C8.93743 16.9537 9.09936 16.9358 9.24929 16.8938C9.3932 16.8518 9.53115 16.7858 9.66309 16.6959C9.78902 16.6059 9.89097 16.48 9.96293 16.3121C10.0349 16.1442 10.0709 15.9462 10.0709 15.7183C10.0709 15.4845 10.0349 15.2866 9.96293 15.1187C9.89097 14.9508 9.78902 14.8248 9.66309 14.7348C9.53115 14.6449 9.39323 14.5789 9.24929 14.537C9.09936 14.495 8.93743 14.477 8.76353 14.477H8.4397V16.9537ZM11.756 17.9072V13.5234H14.8745V14.477H12.8775V15.1786H14.4727V16.1261H12.8775V17.9072H11.756Z" fill="white"/>
</svg>
