<svg width="25" height="17" viewBox="0 0 25 17" fill="none" xmlns="http://www.w3.org/2000/svg">
<path d="M12.1219 13.2807C13.4471 13.2807 14.5715 12.8145 15.4954 11.882C16.4192 10.9495 16.8811 9.81456 16.8811 8.47706C16.8811 7.13957 16.4192 6.00459 15.4954 5.07211C14.5715 4.13963 13.4471 3.67339 12.1219 3.67339C10.7968 3.67339 9.67236 4.13963 8.74851 5.07211C7.82467 6.00459 7.36275 7.13957 7.36275 8.47706C7.36275 9.81456 7.82467 10.9495 8.74851 11.882C9.67236 12.8145 10.7968 13.2807 12.1219 13.2807ZM12.1219 11.6418C11.2448 11.6418 10.5029 11.3357 9.89632 10.7235C9.28976 10.1113 8.98647 9.36245 8.98647 8.47706C8.98647 7.59168 9.28976 6.84287 9.89632 6.23064C10.5029 5.61841 11.2448 5.31229 12.1219 5.31229C12.9991 5.31229 13.741 5.61841 14.3476 6.23064C14.9541 6.84287 15.2574 7.59168 15.2574 8.47706C15.2574 9.36245 14.9541 10.1113 14.3476 10.7235C13.741 11.3357 12.9991 11.6418 12.1219 11.6418ZM12.1219 16.9541C9.54638 16.9541 7.19944 16.2477 5.08114 14.8349C2.96283 13.422 1.32511 11.5571 0.167972 9.24C0.111981 9.14581 0.0699881 9.03278 0.0419929 8.90092C0.0139976 8.76905 0 8.62777 0 8.47706C0 8.32636 0.0139976 8.18508 0.0419929 8.05321C0.0699881 7.92134 0.111981 7.80832 0.167972 7.71413C1.32511 5.39706 2.96283 3.53211 5.08114 2.11927C7.19944 0.706422 9.54638 0 12.1219 0C14.6975 0 17.0444 0.706422 19.1627 2.11927C21.2811 3.53211 22.9188 5.39706 24.0759 7.71413C24.1319 7.80832 24.1739 7.92134 24.2019 8.05321C24.2299 8.18508 24.2439 8.32636 24.2439 8.47706C24.2439 8.62777 24.2299 8.76905 24.2019 8.90092C24.1739 9.03278 24.1319 9.14581 24.0759 9.24C22.9188 11.5571 21.2811 13.422 19.1627 14.8349C17.0444 16.2477 14.6975 16.9541 12.1219 16.9541Z" fill="#65CDF0"/>
</svg>
