<svg width="47" height="48" viewBox="0 0 47 48" fill="none" xmlns="http://www.w3.org/2000/svg">
<rect width="47" height="48" rx="7" fill="white"/>
<g clip-path="url(#clip0_4274_93597)">
<path d="M30.1392 11H14.1768C13.5997 11.0007 13.0464 11.2306 12.6383 11.6395C12.2302 12.0483 12.0007 12.6027 12 13.1809V34.0191C12.0007 34.5973 12.2302 35.1517 12.6383 35.5605C13.0464 35.9694 13.5997 36.1994 14.1768 36.2H29.1193C28.9876 36.104 28.8806 35.9781 28.8068 35.8327C28.733 35.6873 28.6946 35.5264 28.6948 35.3633V34.7461H14.1768C13.9844 34.7459 13.7999 34.6693 13.6639 34.533C13.5278 34.3967 13.4513 34.2119 13.4512 34.0191V33.05H25.2874L25.0078 32.5642C24.8711 32.3269 24.834 32.0449 24.9048 31.7802C24.9755 31.5155 25.1483 31.2897 25.3851 31.1526L25.9629 30.8174C25.9131 30.5322 25.9131 30.2404 25.9629 29.9551L25.3851 29.6209C25.2678 29.553 25.165 29.4627 25.0825 29.3549C25.0001 29.2472 24.9396 29.1243 24.9046 28.9932C24.8695 28.8621 24.8606 28.7253 24.8783 28.5907C24.8961 28.4561 24.9401 28.3264 25.0078 28.2088L25.9619 26.5526C26.0987 26.3154 26.3238 26.1423 26.5879 26.0713C26.852 26.0004 27.1335 26.0373 27.3704 26.1741L27.9476 26.5088C28.1822 26.3364 28.4323 26.1862 28.6948 26.0604V25.4098C28.6948 25.1356 28.8035 24.8728 28.997 24.6789C29.1905 24.4851 29.4529 24.3762 29.7265 24.3762H30.8648V11.727C30.8648 11.5342 30.7883 11.3493 30.6522 11.2129C30.5162 11.0766 30.3316 11 30.1392 11ZM21.4565 19.4809H15.628C15.4356 19.4809 15.251 19.4043 15.1149 19.268C14.9789 19.1316 14.9024 18.9467 14.9024 18.7539C14.9024 18.5611 14.9789 18.3762 15.1149 18.2399C15.251 18.1036 15.4356 18.027 15.628 18.027H21.4565C21.6489 18.027 21.8335 18.1036 21.9695 18.2399C22.1056 18.3762 22.1821 18.5611 22.1821 18.7539C22.1821 18.9467 22.1056 19.1316 21.9695 19.268C21.8335 19.4043 21.6489 19.4809 21.4565 19.4809ZM27.2367 15.6039H15.628C15.5327 15.6039 15.4384 15.5851 15.3503 15.5486C15.2623 15.5121 15.1823 15.4585 15.1149 15.391C15.0476 15.3235 14.9941 15.2434 14.9577 15.1552C14.9212 15.067 14.9024 14.9724 14.9024 14.877C14.9024 14.7815 14.9212 14.687 14.9577 14.5988C14.9941 14.5106 15.0476 14.4304 15.1149 14.3629C15.1823 14.2954 15.2623 14.2419 15.3503 14.2053C15.4384 14.1688 15.5327 14.15 15.628 14.15H27.2367C27.332 14.15 27.4264 14.1688 27.5144 14.2053C27.6024 14.2419 27.6824 14.2954 27.7498 14.3629C27.8172 14.4304 27.8706 14.5106 27.9071 14.5988C27.9436 14.687 27.9623 14.7815 27.9623 14.877C27.9623 14.9724 27.9436 15.067 27.9071 15.1552C27.8706 15.2434 27.8172 15.3235 27.7498 15.391C27.6824 15.4585 27.6024 15.5121 27.5144 15.5486C27.4264 15.5851 27.332 15.6039 27.2367 15.6039ZM30.6805 28.5844C30.4441 28.5844 30.2101 28.631 29.9917 28.7217C29.7733 28.8123 29.5749 28.9451 29.4077 29.1126C29.2406 29.28 29.108 29.4788 29.0175 29.6976C28.9271 29.9164 28.8805 30.1509 28.8805 30.3878C28.8805 30.6246 28.9271 30.8591 29.0175 31.0779C29.108 31.2967 29.2406 31.4955 29.4077 31.6629C29.5749 31.8304 29.7733 31.9632 29.9917 32.0539C30.2101 32.1445 30.4441 32.1911 30.6805 32.1911C30.7421 32.1913 30.8036 32.1881 30.8648 32.1818V28.5937C30.8036 28.5874 30.7421 28.5843 30.6805 28.5844ZM30.6805 28.5844C30.4441 28.5844 30.2101 28.631 29.9917 28.7217C29.7733 28.8123 29.5749 28.9451 29.4077 29.1126C29.2406 29.28 29.108 29.4788 29.0175 29.6976C28.9271 29.9164 28.8805 30.1509 28.8805 30.3878C28.8805 30.6246 28.9271 30.8591 29.0175 31.0779C29.108 31.2967 29.2406 31.4955 29.4077 31.6629C29.5749 31.8304 29.7733 31.9632 29.9917 32.0539C30.2101 32.1445 30.4441 32.1911 30.6805 32.1911C30.7421 32.1913 30.8036 32.1881 30.8648 32.1818V28.5937C30.8036 28.5874 30.7421 28.5843 30.6805 28.5844ZM30.6805 28.5844C30.4441 28.5844 30.2101 28.631 29.9917 28.7217C29.7733 28.8123 29.5749 28.9451 29.4077 29.1126C29.2406 29.28 29.108 29.4788 29.0175 29.6976C28.9271 29.9164 28.8805 30.1509 28.8805 30.3878C28.8805 30.6246 28.9271 30.8591 29.0175 31.0779C29.108 31.2967 29.2406 31.4955 29.4077 31.6629C29.5749 31.8304 29.7733 31.9632 29.9917 32.0539C30.2101 32.1445 30.4441 32.1911 30.6805 32.1911C30.7421 32.1913 30.8036 32.1881 30.8648 32.1818V28.5937C30.8036 28.5874 30.7421 28.5843 30.6805 28.5844ZM30.6805 28.5844C30.4441 28.5844 30.2101 28.631 29.9917 28.7217C29.7733 28.8123 29.5749 28.9451 29.4077 29.1126C29.2406 29.28 29.108 29.4788 29.0175 29.6976C28.9271 29.9164 28.8805 30.1509 28.8805 30.3878C28.8805 30.6246 28.9271 30.8591 29.0175 31.0779C29.108 31.2967 29.2406 31.4955 29.4077 31.6629C29.5749 31.8304 29.7733 31.9632 29.9917 32.0539C30.2101 32.1445 30.4441 32.1911 30.6805 32.1911C30.7421 32.1913 30.8036 32.1881 30.8648 32.1818V28.5937C30.8036 28.5874 30.7421 28.5843 30.6805 28.5844ZM30.6805 28.5844C30.4441 28.5844 30.2101 28.631 29.9917 28.7217C29.7733 28.8123 29.5749 28.9451 29.4077 29.1126C29.2406 29.28 29.108 29.4788 29.0175 29.6976C28.9271 29.9164 28.8805 30.1509 28.8805 30.3878C28.8805 30.6246 28.9271 30.8591 29.0175 31.0779C29.108 31.2967 29.2406 31.4955 29.4077 31.6629C29.5749 31.8304 29.7733 31.9632 29.9917 32.0539C30.2101 32.1445 30.4441 32.1911 30.6805 32.1911C30.7421 32.1913 30.8036 32.1881 30.8648 32.1818V28.5937C30.8036 28.5874 30.7421 28.5843 30.6805 28.5844ZM30.6805 28.5844C30.4441 28.5844 30.2101 28.631 29.9917 28.7217C29.7733 28.8123 29.5749 28.9451 29.4077 29.1126C29.2406 29.28 29.108 29.4788 29.0175 29.6976C28.9271 29.9164 28.8805 30.1509 28.8805 30.3878C28.8805 30.6246 28.9271 30.8591 29.0175 31.0779C29.108 31.2967 29.2406 31.4955 29.4077 31.6629C29.5749 31.8304 29.7733 31.9632 29.9917 32.0539C30.2101 32.1445 30.4441 32.1911 30.6805 32.1911C30.7421 32.1913 30.8036 32.1881 30.8648 32.1818V28.5937C30.8036 28.5874 30.7421 28.5843 30.6805 28.5844ZM30.6805 28.5844C30.4441 28.5844 30.2101 28.631 29.9917 28.7217C29.7733 28.8123 29.5749 28.9451 29.4077 29.1126C29.2406 29.28 29.108 29.4788 29.0175 29.6976C28.9271 29.9164 28.8805 30.1509 28.8805 30.3878C28.8805 30.6246 28.9271 30.8591 29.0175 31.0779C29.108 31.2967 29.2406 31.4955 29.4077 31.6629C29.5749 31.8304 29.7733 31.9632 29.9917 32.0539C30.2101 32.1445 30.4441 32.1911 30.6805 32.1911C30.7421 32.1913 30.8036 32.1881 30.8648 32.1818V28.5937C30.8036 28.5874 30.7421 28.5843 30.6805 28.5844ZM30.6805 28.5844C30.4441 28.5844 30.2101 28.631 29.9917 28.7217C29.7733 28.8123 29.5749 28.9451 29.4077 29.1126C29.2406 29.28 29.108 29.4788 29.0175 29.6976C28.9271 29.9164 28.8805 30.1509 28.8805 30.3878C28.8805 30.6246 28.9271 30.8591 29.0175 31.0779C29.108 31.2967 29.2406 31.4955 29.4077 31.6629C29.5749 31.8304 29.7733 31.9632 29.9917 32.0539C30.2101 32.1445 30.4441 32.1911 30.6805 32.1911C30.7421 32.1913 30.8036 32.1881 30.8648 32.1818V28.5937C30.8036 28.5874 30.7421 28.5843 30.6805 28.5844ZM29.726 24.8689C29.5827 24.8689 29.4452 24.9259 29.3439 25.0274C29.2425 25.129 29.1856 25.2667 29.1856 25.4103V26.3853L29.0348 26.4483C28.7057 26.5922 28.3961 26.7774 28.1136 26.9995L27.9835 27.098L27.1257 26.6009C27.0019 26.5294 26.8548 26.51 26.7167 26.5469C26.5786 26.5837 26.4607 26.674 26.3888 26.7977L25.4333 28.4549C25.3619 28.579 25.3425 28.7264 25.3794 28.8647C25.4162 29.0031 25.5062 29.1212 25.6298 29.1932L26.4925 29.6948L26.4708 29.8577C26.4659 29.898 26.46 29.9379 26.4546 29.9778C26.4022 30.2482 26.4022 30.5263 26.4546 30.7968C26.46 30.8366 26.4659 30.8765 26.4708 30.9164L26.4925 31.0793L25.6293 31.5789C25.5057 31.6509 25.4157 31.769 25.3789 31.9073C25.342 32.0457 25.3614 32.1931 25.4328 32.3171L25.8538 33.05H29.0849C28.5034 32.7007 28.0523 32.17 27.8006 31.5393C27.549 30.9086 27.5107 30.2126 27.6917 29.5579C27.8726 28.9033 28.2629 28.3262 28.8025 27.9151C29.3422 27.5039 30.0016 27.2814 30.6795 27.2816C30.7414 27.2816 30.8029 27.2816 30.8638 27.287V24.8689H29.726ZM30.6805 28.5844C30.4441 28.5844 30.2101 28.631 29.9917 28.7217C29.7733 28.8123 29.5749 28.9451 29.4077 29.1126C29.2406 29.28 29.108 29.4788 29.0175 29.6976C28.9271 29.9164 28.8805 30.1509 28.8805 30.3878C28.8805 30.6246 28.9271 30.8591 29.0175 31.0779C29.108 31.2967 29.2406 31.4955 29.4077 31.6629C29.5749 31.8304 29.7733 31.9632 29.9917 32.0539C30.2101 32.1445 30.4441 32.1911 30.6805 32.1911C30.7421 32.1913 30.8036 32.1881 30.8648 32.1818V28.5937C30.8036 28.5874 30.7421 28.5843 30.6805 28.5844ZM30.6805 28.5844C30.4441 28.5844 30.2101 28.631 29.9917 28.7217C29.7733 28.8123 29.5749 28.9451 29.4077 29.1126C29.2406 29.28 29.108 29.4788 29.0175 29.6976C28.9271 29.9164 28.8805 30.1509 28.8805 30.3878C28.8805 30.6246 28.9271 30.8591 29.0175 31.0779C29.108 31.2967 29.2406 31.4955 29.4077 31.6629C29.5749 31.8304 29.7733 31.9632 29.9917 32.0539C30.2101 32.1445 30.4441 32.1911 30.6805 32.1911C30.7421 32.1913 30.8036 32.1881 30.8648 32.1818V28.5937C30.8036 28.5874 30.7421 28.5843 30.6805 28.5844ZM30.6805 28.5844C30.4441 28.5844 30.2101 28.631 29.9917 28.7217C29.7733 28.8123 29.5749 28.9451 29.4077 29.1126C29.2406 29.28 29.108 29.4788 29.0175 29.6976C28.9271 29.9164 28.8805 30.1509 28.8805 30.3878C28.8805 30.6246 28.9271 30.8591 29.0175 31.0779C29.108 31.2967 29.2406 31.4955 29.4077 31.6629C29.5749 31.8304 29.7733 31.9632 29.9917 32.0539C30.2101 32.1445 30.4441 32.1911 30.6805 32.1911C30.7421 32.1913 30.8036 32.1881 30.8648 32.1818V28.5937C30.8036 28.5874 30.7421 28.5843 30.6805 28.5844ZM30.6805 28.5844C30.4441 28.5844 30.2101 28.631 29.9917 28.7217C29.7733 28.8123 29.5749 28.9451 29.4077 29.1126C29.2406 29.28 29.108 29.4788 29.0175 29.6976C28.9271 29.9164 28.8805 30.1509 28.8805 30.3878C28.8805 30.6246 28.9271 30.8591 29.0175 31.0779C29.108 31.2967 29.2406 31.4955 29.4077 31.6629C29.5749 31.8304 29.7733 31.9632 29.9917 32.0539C30.2101 32.1445 30.4441 32.1911 30.6805 32.1911C30.7421 32.1913 30.8036 32.1881 30.8648 32.1818V28.5937C30.8036 28.5874 30.7421 28.5843 30.6805 28.5844ZM30.6805 28.5844C30.4441 28.5844 30.2101 28.631 29.9917 28.7217C29.7733 28.8123 29.5749 28.9451 29.4077 29.1126C29.2406 29.28 29.108 29.4788 29.0175 29.6976C28.9271 29.9164 28.8805 30.1509 28.8805 30.3878C28.8805 30.6246 28.9271 30.8591 29.0175 31.0779C29.108 31.2967 29.2406 31.4955 29.4077 31.6629C29.5749 31.8304 29.7733 31.9632 29.9917 32.0539C30.2101 32.1445 30.4441 32.1911 30.6805 32.1911C30.7421 32.1913 30.8036 32.1881 30.8648 32.1818V28.5937C30.8036 28.5874 30.7421 28.5843 30.6805 28.5844ZM30.6805 28.5844C30.4441 28.5844 30.2101 28.631 29.9917 28.7217C29.7733 28.8123 29.5749 28.9451 29.4077 29.1126C29.2406 29.28 29.108 29.4788 29.0175 29.6976C28.9271 29.9164 28.8805 30.1509 28.8805 30.3878C28.8805 30.6246 28.9271 30.8591 29.0175 31.0779C29.108 31.2967 29.2406 31.4955 29.4077 31.6629C29.5749 31.8304 29.7733 31.9632 29.9917 32.0539C30.2101 32.1445 30.4441 32.1911 30.6805 32.1911C30.7421 32.1913 30.8036 32.1881 30.8648 32.1818V28.5937C30.8036 28.5874 30.7421 28.5843 30.6805 28.5844ZM30.6805 28.5844C30.4441 28.5844 30.2101 28.631 29.9917 28.7217C29.7733 28.8123 29.5749 28.9451 29.4077 29.1126C29.2406 29.28 29.108 29.4788 29.0175 29.6976C28.9271 29.9164 28.8805 30.1509 28.8805 30.3878C28.8805 30.6246 28.9271 30.8591 29.0175 31.0779C29.108 31.2967 29.2406 31.4955 29.4077 31.6629C29.5749 31.8304 29.7733 31.9632 29.9917 32.0539C30.2101 32.1445 30.4441 32.1911 30.6805 32.1911C30.7421 32.1913 30.8036 32.1881 30.8648 32.1818V28.5937C30.8036 28.5874 30.7421 28.5843 30.6805 28.5844ZM30.6805 28.5844C30.4441 28.5844 30.2101 28.631 29.9917 28.7217C29.7733 28.8123 29.5749 28.9451 29.4077 29.1126C29.2406 29.28 29.108 29.4788 29.0175 29.6976C28.9271 29.9164 28.8805 30.1509 28.8805 30.3878C28.8805 30.6246 28.9271 30.8591 29.0175 31.0779C29.108 31.2967 29.2406 31.4955 29.4077 31.6629C29.5749 31.8304 29.7733 31.9632 29.9917 32.0539C30.2101 32.1445 30.4441 32.1911 30.6805 32.1911C30.7421 32.1913 30.8036 32.1881 30.8648 32.1818V28.5937C30.8036 28.5874 30.7421 28.5843 30.6805 28.5844ZM30.6805 28.5844C30.4441 28.5844 30.2101 28.631 29.9917 28.7217C29.7733 28.8123 29.5749 28.9451 29.4077 29.1126C29.2406 29.28 29.108 29.4788 29.0175 29.6976C28.9271 29.9164 28.8805 30.1509 28.8805 30.3878C28.8805 30.6246 28.9271 30.8591 29.0175 31.0779C29.108 31.2967 29.2406 31.4955 29.4077 31.6629C29.5749 31.8304 29.7733 31.9632 29.9917 32.0539C30.2101 32.1445 30.4441 32.1911 30.6805 32.1911C30.7421 32.1913 30.8036 32.1881 30.8648 32.1818V28.5937C30.8036 28.5874 30.7421 28.5843 30.6805 28.5844ZM30.6805 28.5844C30.4441 28.5844 30.2101 28.631 29.9917 28.7217C29.7733 28.8123 29.5749 28.9451 29.4077 29.1126C29.2406 29.28 29.108 29.4788 29.0175 29.6976C28.9271 29.9164 28.8805 30.1509 28.8805 30.3878C28.8805 30.6246 28.9271 30.8591 29.0175 31.0779C29.108 31.2967 29.2406 31.4955 29.4077 31.6629C29.5749 31.8304 29.7733 31.9632 29.9917 32.0539C30.2101 32.1445 30.4441 32.1911 30.6805 32.1911C30.7421 32.1913 30.8036 32.1881 30.8648 32.1818V28.5937C30.8036 28.5874 30.7421 28.5843 30.6805 28.5844ZM30.6805 28.5844C30.4441 28.5844 30.2101 28.631 29.9917 28.7217C29.7733 28.8123 29.5749 28.9451 29.4077 29.1126C29.2406 29.28 29.108 29.4788 29.0175 29.6976C28.9271 29.9164 28.8805 30.1509 28.8805 30.3878C28.8805 30.6246 28.9271 30.8591 29.0175 31.0779C29.108 31.2967 29.2406 31.4955 29.4077 31.6629C29.5749 31.8304 29.7733 31.9632 29.9917 32.0539C30.2101 32.1445 30.4441 32.1911 30.6805 32.1911C30.7421 32.1913 30.8036 32.1881 30.8648 32.1818V28.5937C30.8036 28.5874 30.7421 28.5843 30.6805 28.5844ZM30.6805 28.5844C30.4441 28.5844 30.2101 28.631 29.9917 28.7217C29.7733 28.8123 29.5749 28.9451 29.4077 29.1126C29.2406 29.28 29.108 29.4788 29.0175 29.6976C28.9271 29.9164 28.8805 30.1509 28.8805 30.3878C28.8805 30.6246 28.9271 30.8591 29.0175 31.0779C29.108 31.2967 29.2406 31.4955 29.4077 31.6629C29.5749 31.8304 29.7733 31.9632 29.9917 32.0539C30.2101 32.1445 30.4441 32.1911 30.6805 32.1911C30.7421 32.1913 30.8036 32.1881 30.8648 32.1818V28.5937C30.8036 28.5874 30.7421 28.5843 30.6805 28.5844ZM30.6805 28.5844C30.4441 28.5844 30.2101 28.631 29.9917 28.7217C29.7733 28.8123 29.5749 28.9451 29.4077 29.1126C29.2406 29.28 29.108 29.4788 29.0175 29.6976C28.9271 29.9164 28.8805 30.1509 28.8805 30.3878C28.8805 30.6246 28.9271 30.8591 29.0175 31.0779C29.108 31.2967 29.2406 31.4955 29.4077 31.6629C29.5749 31.8304 29.7733 31.9632 29.9917 32.0539C30.2101 32.1445 30.4441 32.1911 30.6805 32.1911C30.7421 32.1913 30.8036 32.1881 30.8648 32.1818V28.5937C30.8036 28.5874 30.7421 28.5843 30.6805 28.5844ZM30.6805 28.5844C30.4441 28.5844 30.2101 28.631 29.9917 28.7217C29.7733 28.8123 29.5749 28.9451 29.4077 29.1126C29.2406 29.28 29.108 29.4788 29.0175 29.6976C28.9271 29.9164 28.8805 30.1509 28.8805 30.3878C28.8805 30.6246 28.9271 30.8591 29.0175 31.0779C29.108 31.2967 29.2406 31.4955 29.4077 31.6629C29.5749 31.8304 29.7733 31.9632 29.9917 32.0539C30.2101 32.1445 30.4441 32.1911 30.6805 32.1911C30.7421 32.1913 30.8036 32.1881 30.8648 32.1818V28.5937C30.8036 28.5874 30.7421 28.5843 30.6805 28.5844ZM30.6805 28.5844C30.4441 28.5844 30.2101 28.631 29.9917 28.7217C29.7733 28.8123 29.5749 28.9451 29.4077 29.1126C29.2406 29.28 29.108 29.4788 29.0175 29.6976C28.9271 29.9164 28.8805 30.1509 28.8805 30.3878C28.8805 30.6246 28.9271 30.8591 29.0175 31.0779C29.108 31.2967 29.2406 31.4955 29.4077 31.6629C29.5749 31.8304 29.7733 31.9632 29.9917 32.0539C30.2101 32.1445 30.4441 32.1911 30.6805 32.1911C30.7421 32.1913 30.8036 32.1881 30.8648 32.1818V28.5937C30.8036 28.5874 30.7421 28.5843 30.6805 28.5844ZM30.6805 28.5844C30.4441 28.5844 30.2101 28.631 29.9917 28.7217C29.7733 28.8123 29.5749 28.9451 29.4077 29.1126C29.2406 29.28 29.108 29.4788 29.0175 29.6976C28.9271 29.9164 28.8805 30.1509 28.8805 30.3878C28.8805 30.6246 28.9271 30.8591 29.0175 31.0779C29.108 31.2967 29.2406 31.4955 29.4077 31.6629C29.5749 31.8304 29.7733 31.9632 29.9917 32.0539C30.2101 32.1445 30.4441 32.1911 30.6805 32.1911C30.7421 32.1913 30.8036 32.1881 30.8648 32.1818V28.5937C30.8036 28.5874 30.7421 28.5843 30.6805 28.5844ZM30.6805 28.5844C30.4441 28.5844 30.2101 28.631 29.9917 28.7217C29.7733 28.8123 29.5749 28.9451 29.4077 29.1126C29.2406 29.28 29.108 29.4788 29.0175 29.6976C28.9271 29.9164 28.8805 30.1509 28.8805 30.3878C28.8805 30.6246 28.9271 30.8591 29.0175 31.0779C29.108 31.2967 29.2406 31.4955 29.4077 31.6629C29.5749 31.8304 29.7733 31.9632 29.9917 32.0539C30.2101 32.1445 30.4441 32.1911 30.6805 32.1911C30.7421 32.1913 30.8036 32.1881 30.8648 32.1818V28.5937C30.8036 28.5874 30.7421 28.5843 30.6805 28.5844ZM30.6805 28.5844C30.4441 28.5844 30.2101 28.631 29.9917 28.7217C29.7733 28.8123 29.5749 28.9451 29.4077 29.1126C29.2406 29.28 29.108 29.4788 29.0175 29.6976C28.9271 29.9164 28.8805 30.1509 28.8805 30.3878C28.8805 30.6246 28.9271 30.8591 29.0175 31.0779C29.108 31.2967 29.2406 31.4955 29.4077 31.6629C29.5749 31.8304 29.7733 31.9632 29.9917 32.0539C30.2101 32.1445 30.4441 32.1911 30.6805 32.1911C30.7421 32.1913 30.8036 32.1881 30.8648 32.1818V28.5937C30.8036 28.5874 30.7421 28.5843 30.6805 28.5844ZM30.6805 33.4935C30.2438 33.494 29.8119 33.4015 29.4135 33.2223V34.748H29.1861V35.3652C29.1861 35.5088 29.243 35.6465 29.3444 35.7481C29.4457 35.8496 29.5832 35.9067 29.7265 35.9067H30.7223C30.8154 35.7814 30.8655 35.6292 30.8652 35.473V33.488C30.8038 33.4915 30.7424 33.4935 30.6805 33.4935Z" fill="#65CDF0"/>
<path d="M35.729 31.5801L34.8664 31.081L34.8875 30.9186C34.8929 30.8743 34.8993 30.83 34.9052 30.7862C34.9556 30.523 34.9556 30.2526 34.9052 29.9894C34.8993 29.9456 34.8929 29.9018 34.8875 29.858L34.8664 29.6955L35.729 29.1965C35.8525 29.1246 35.9426 29.0068 35.9796 28.8687C35.9986 28.8 36.0037 28.7282 35.9946 28.6575C35.9855 28.5869 35.9623 28.5187 35.9265 28.4572L34.972 26.801C34.9001 26.6772 34.7822 26.587 34.6441 26.5501C34.506 26.5132 34.3589 26.5326 34.2351 26.6041L33.3773 27.1007L33.2471 27.0023C32.9644 26.7802 32.6547 26.5948 32.3255 26.4505L32.1747 26.3875V25.4105C32.1747 25.267 32.1178 25.1292 32.0164 25.0277C31.9151 24.9262 31.7776 24.8691 31.6343 24.8691H29.7267C29.5834 24.8691 29.4459 24.9262 29.3446 25.0277C29.2432 25.1292 29.1863 25.267 29.1863 25.4105V26.3856L29.0355 26.4486C28.7063 26.5926 28.3968 26.778 28.1144 27.0003L27.9842 27.0987L27.1264 26.6016C27.0026 26.5301 26.8555 26.5107 26.7174 26.5476C26.5793 26.5845 26.4614 26.6747 26.3895 26.7985L25.434 28.4557C25.3626 28.5798 25.3432 28.7271 25.3801 28.8655C25.4169 29.0039 25.5069 29.122 25.6305 29.194L26.4932 29.6955L26.4715 29.8584C26.4666 29.8988 26.4607 29.9387 26.4553 29.9785C26.4029 30.249 26.4029 30.5271 26.4553 30.7975C26.4607 30.8374 26.4666 30.8773 26.4715 30.9171L26.4932 31.0801L25.63 31.5796C25.5065 31.6516 25.4164 31.7697 25.3796 31.9081C25.3427 32.0465 25.3621 32.1938 25.4335 32.3179L25.8545 33.0508L26.387 33.9756C26.4584 34.0998 26.5761 34.1906 26.7142 34.2281C26.853 34.2643 27.0003 34.2449 27.1249 34.1739L27.9822 33.6768L28.1124 33.7753C28.3949 33.9982 28.7048 34.1838 29.0345 34.3275L29.1858 34.3905V35.366C29.1858 35.5096 29.2427 35.6473 29.3441 35.7489C29.4454 35.8504 29.5829 35.9074 29.7262 35.9074H31.6348C31.7781 35.9074 31.9156 35.8504 32.0169 35.7489C32.1183 35.6473 32.1752 35.5096 32.1752 35.366V34.3915L32.3255 34.328C32.655 34.1841 32.9647 33.9985 33.2471 33.7758L33.3773 33.6773L34.2356 34.1744C34.3594 34.2459 34.5065 34.2654 34.6446 34.2285C34.7827 34.1916 34.9006 34.1013 34.9725 33.9776L35.927 32.3209C35.9627 32.2592 35.9858 32.1911 35.9952 32.1205C36.0045 32.0499 35.9999 31.9781 35.9815 31.9093C35.9631 31.8405 35.9313 31.776 35.888 31.7195C35.8447 31.663 35.7907 31.6157 35.729 31.5801ZM30.8655 33.4888C30.8045 33.4923 30.7431 33.4942 30.6812 33.4942C30.2445 33.4947 29.8127 33.4023 29.4143 33.223C29.3017 33.1723 29.1922 33.1148 29.0866 33.0508C28.5051 32.7015 28.054 32.1708 27.8023 31.5401C27.5507 30.9093 27.5124 30.2133 27.6934 29.5587C27.8743 28.9041 28.2645 28.327 28.8042 27.9158C29.3439 27.5047 30.0032 27.2821 30.6812 27.2823C30.7431 27.2823 30.8045 27.2823 30.8655 27.2877C31.6547 27.3345 32.3963 27.6815 32.9386 28.2579C33.4809 28.8343 33.7829 29.5965 33.7829 30.3885C33.7829 31.1806 33.4809 31.9428 32.9386 32.5191C32.3963 33.0955 31.6547 33.4426 30.8655 33.4893V33.4888Z" fill="#65CDF0"/>
<path d="M32.4809 30.3874C32.4803 30.8335 32.3148 31.2637 32.0165 31.5949C31.7182 31.9262 31.308 32.1351 30.8651 32.1814C30.8039 32.1877 30.7424 32.1909 30.6809 32.1907C30.2035 32.1907 29.7456 32.0007 29.4081 31.6625C29.0705 31.3243 28.8809 30.8656 28.8809 30.3874C28.8809 29.9091 29.0705 29.4504 29.4081 29.1122C29.7456 28.774 30.2035 28.584 30.6809 28.584C30.7424 28.5839 30.8039 28.587 30.8651 28.5933C31.3081 28.6396 31.7183 28.8484 32.0166 29.1797C32.315 29.511 32.4804 29.9412 32.4809 30.3874Z" fill="#65CDF0"/>
</g>
<defs>
<clipPath id="clip0_4274_93597">
<rect width="24" height="25.2" fill="white" transform="translate(12 11)"/>
</clipPath>
</defs>
</svg>
