<svg width="47" height="48" viewBox="0 0 47 48" fill="none" xmlns="http://www.w3.org/2000/svg">
<rect width="47" height="48" rx="7" fill="white"/>
<path d="M31.4859 15.5145C26.7995 10.8287 19.2014 10.8282 14.5145 15.5145C9.82823 20.2008 9.82875 27.799 14.5145 32.4859C19.2008 37.1711 26.799 37.1716 31.4859 32.4859C36.1716 27.799 36.1711 20.2014 31.4859 15.5145ZM24.5649 29.2176C24.5649 30.0822 23.8642 30.7829 22.9997 30.7829C22.1351 30.7829 21.4344 30.0822 21.4344 29.2176V22.9567C21.4344 22.0922 22.1351 21.3915 22.9997 21.3915C23.8642 21.3915 24.5649 22.0922 24.5649 22.9567V29.2176ZM22.972 20.2812C22.0704 20.2812 21.4694 19.6426 21.4882 18.8542C21.4694 18.0278 22.0704 17.4085 22.9903 17.4085C23.9106 17.4085 24.4929 18.0283 24.5122 18.8542C24.5117 19.6426 23.9112 20.2812 22.972 20.2812Z" fill="#F7B923"/>
</svg>
