<svg width="47" height="48" viewBox="0 0 47 48" fill="none" xmlns="http://www.w3.org/2000/svg">
<rect width="47" height="48" rx="7" fill="#EE2E7E"/>
<path d="M33.4801 15H14.52C13.1301 15 12 16.13 12 17.53V30.79C12 32.18 13.1301 33.31 14.52 33.31H33.4801C34.8701 33.31 36 32.18 36 30.79V17.53C36 16.13 34.8701 15 33.4801 15ZM24 30.79C20.3401 30.79 17.3701 27.82 17.3701 24.15C17.3701 20.49 20.3401 17.52 24 17.52C27.67 17.52 30.6401 20.49 30.6401 24.15C30.6401 27.82 27.67 30.79 24 30.79Z" fill="white"/>
<path d="M26.5308 24.7L23.1609 26.96C22.7208 27.26 22.1309 26.94 22.1309 26.41V21.9C22.1309 21.37 22.7208 21.05 23.1609 21.34L26.5308 23.6C26.9208 23.86 26.9208 24.44 26.5308 24.7Z" fill="white"/>
</svg>
