<svg width="27" height="29" viewBox="0 0 27 29" fill="none" xmlns="http://www.w3.org/2000/svg">
<path d="M0.9375 5.2215V12.9707C0.9375 12.9707 0.9375 16.8453 9.97827 16.8453C10.7429 16.8453 11.4442 16.8182 12.0848 16.7678" stroke="white" stroke-width="1.76782" stroke-linecap="round" stroke-linejoin="round"/>
<path d="M19.0195 5.2215V12.9707" stroke="white" stroke-width="1.76782" stroke-linecap="round" stroke-linejoin="round"/>
<path d="M9.97827 1.34668C19.019 1.34668 19.019 5.22129 19.019 5.22129C19.019 5.22129 19.019 9.09591 9.97827 9.09591C0.9375 9.09591 0.9375 5.22129 0.9375 5.22129C0.9375 5.22129 0.9375 1.34668 9.97827 1.34668Z" stroke="white" stroke-width="1.76782" stroke-linecap="round" stroke-linejoin="round"/>
<path d="M9.97827 24.5964C0.9375 24.5964 0.9375 20.7218 0.9375 20.7218V12.9725" stroke="white" stroke-width="1.76782" stroke-linecap="round" stroke-linejoin="round"/>
<path d="M25.0449 20.291C24.2468 18.2633 22.4205 16.8464 20.2972 16.8464C18.0267 16.8464 16.0972 18.4673 15.3984 20.721" stroke="white" stroke-width="1.76782" stroke-linecap="round" stroke-linejoin="round"/>
<path d="M22.8887 20.2907H25.0468C25.2858 20.2907 25.4782 20.097 25.4782 19.8593V17.4209" stroke="white" stroke-width="1.76782" stroke-linecap="round" stroke-linejoin="round"/>
<path d="M15.5762 23.7339C16.3743 25.7616 18.2006 27.1784 20.3239 27.1784C22.5944 27.1784 24.5239 25.5575 25.2227 23.3038" stroke="white" stroke-width="1.76782" stroke-linecap="round" stroke-linejoin="round"/>
<path d="M17.7341 23.7341H15.5759C15.4615 23.7341 15.3518 23.7795 15.2709 23.8604C15.19 23.9413 15.1445 24.051 15.1445 24.1654V26.6039" stroke="white" stroke-width="1.76782" stroke-linecap="round" stroke-linejoin="round"/>
</svg>
