<svg width="13" height="14" viewBox="0 0 13 14" fill="none" xmlns="http://www.w3.org/2000/svg">
<path d="M6.23816 0.94519C3.76321 0.94519 1.59763 2.49204 0.514835 4.65762C0.205466 5.43104 0.0507812 6.20446 0.0507812 7.13257C0.0507812 10.5356 2.8351 13.3199 6.23816 13.3199C6.39284 13.3199 6.70221 13.3199 6.8569 13.3199C9.95059 13.0106 12.4255 10.3809 12.4255 7.13257C12.4255 3.72951 9.64122 0.94519 6.23816 0.94519ZM9.17716 8.98878C9.48653 9.29815 9.48653 9.7622 9.17716 10.0716C9.02248 10.2263 8.8678 10.2263 8.55843 10.2263C8.24906 10.2263 8.24906 10.2263 8.09437 10.0716L6.23816 8.21536L4.38195 10.0716C4.22726 10.2263 4.07258 10.2263 3.91789 10.2263C3.76321 10.2263 3.45384 10.2263 3.29915 10.0716C2.98979 9.7622 2.98979 9.29815 3.29915 8.98878L5.15537 7.13257L3.29915 5.27635C2.98979 4.96699 2.98979 4.50293 3.29915 4.19356C3.60852 3.88419 4.07258 3.88419 4.38195 4.19356L6.23816 6.04978L8.09437 4.19356C8.40374 3.88419 8.86779 3.88419 9.17716 4.19356C9.48653 4.50293 9.48653 4.96699 9.17716 5.27635L7.32095 7.13257L9.17716 8.98878Z" fill="#FF1515"/>
</svg>
