<svg width="9" height="5" viewBox="0 0 9 5" fill="none" xmlns="http://www.w3.org/2000/svg">
<path fill-rule="evenodd" clip-rule="evenodd" d="M8.05652 0.61003V2.23053C8.05652 2.39834 7.92049 2.53438 7.75268 2.53438C7.58487 2.53438 7.44883 2.39834 7.44883 2.23053V1.53547L5.96385 3.55313C5.91432 3.62043 5.83926 3.66436 5.75632 3.67459C5.67339 3.68481 5.5899 3.66043 5.52551 3.60718L3.4037 1.85257L1.51597 4.43545C1.41695 4.57093 1.22686 4.60049 1.09137 4.50147C0.955893 4.40246 0.926334 4.21236 1.02535 4.07688L3.10343 1.23355C3.15284 1.16594 3.22796 1.12173 3.31105 1.11134C3.39414 1.10095 3.47784 1.12532 3.54237 1.17868L5.665 2.93398L7.00786 1.10943L6.20587 1.30993C6.04307 1.35063 5.8781 1.25165 5.8374 1.08885C5.7967 0.926051 5.89568 0.761083 6.05848 0.720384L7.67898 0.315258C7.76975 0.292565 7.86592 0.312958 7.93967 0.370538C8.01341 0.428119 8.05652 0.516466 8.05652 0.61003Z" fill="#4AB58E"/>
</svg>
