<svg width="36" height="19" viewBox="0 0 36 19" fill="none" xmlns="http://www.w3.org/2000/svg">
<path d="M18.1978 10.4431C20.599 10.4431 22.7204 11.0177 24.4441 11.769C26.0351 12.4761 27.0369 14.0672 27.0369 15.7908V16.7042C27.0369 17.5144 26.3739 18.1774 25.5637 18.1774H10.8318C10.0216 18.1774 9.35864 17.5144 9.35864 16.7042V15.8055C9.35864 14.0672 10.3604 12.4761 11.9514 11.7837C13.6751 11.0177 15.7965 10.4431 18.1978 10.4431ZM6.41227 10.8114C8.03277 10.8114 9.35864 9.48557 9.35864 7.86507C9.35864 6.24457 8.03277 4.9187 6.41227 4.9187C4.79177 4.9187 3.4659 6.24457 3.4659 7.86507C3.4659 9.48557 4.79177 10.8114 6.41227 10.8114ZM8.07697 12.4319C7.53189 12.3436 6.98681 12.2846 6.41227 12.2846C4.95382 12.2846 3.56902 12.594 2.31682 13.1391C1.22666 13.6105 0.519531 14.6712 0.519531 15.8645V16.7042C0.519531 17.5144 1.18246 18.1774 1.99272 18.1774H7.14886V15.8055C7.14886 14.5828 7.4877 13.4337 8.07697 12.4319ZM29.9832 10.8114C31.6037 10.8114 32.9296 9.48557 32.9296 7.86507C32.9296 6.24457 31.6037 4.9187 29.9832 4.9187C28.3627 4.9187 27.0369 6.24457 27.0369 7.86507C27.0369 9.48557 28.3627 10.8114 29.9832 10.8114ZM35.876 15.8645C35.876 14.6712 35.1688 13.6105 34.0787 13.1391C32.8265 12.594 31.4417 12.2846 29.9832 12.2846C29.4087 12.2846 28.8636 12.3436 28.3185 12.4319C28.9078 13.4337 29.2466 14.5828 29.2466 15.8055V18.1774H34.4028C35.213 18.1774 35.876 17.5144 35.876 16.7042V15.8645ZM18.1978 0.499146C20.6432 0.499146 22.6173 2.47321 22.6173 4.9187C22.6173 7.36419 20.6432 9.33826 18.1978 9.33826C15.7523 9.33826 13.7782 7.36419 13.7782 4.9187C13.7782 2.47321 15.7523 0.499146 18.1978 0.499146Z" fill="#F7B923"/>
</svg>
