<svg width="29" height="37" viewBox="0 0 29 37" fill="none" xmlns="http://www.w3.org/2000/svg">
<path fill-rule="evenodd" clip-rule="evenodd" d="M1.4943 1.49442C2.45108 0.537637 3.74876 0.00012207 5.10185 0.00012207H15.6015C16.4559 0.000304655 17.2756 0.339854 17.8797 0.94409C17.8797 0.944042 17.8798 0.944138 17.8797 0.94409L28.0559 11.1203C28.6602 11.7244 28.9998 12.5439 29 13.3984V31.4168C29 32.7699 28.4625 34.0676 27.5057 35.0243C26.5489 35.9811 25.2512 36.5186 23.8981 36.5186H10.7407C9.99925 36.5186 9.39815 35.9175 9.39815 35.1761C9.39815 34.4346 9.99925 33.8335 10.7407 33.8335H23.8981C24.5391 33.8335 25.1538 33.5788 25.607 33.1256C26.0602 32.6724 26.3148 32.0577 26.3148 31.4168V13.3989C26.3148 13.3989 26.3148 13.399 26.3148 13.3989C26.3147 13.2566 26.2581 13.1199 26.1575 13.0193L15.981 2.8428C15.8804 2.74215 15.7438 2.68541 15.6015 2.68531C15.6014 2.68531 15.6016 2.68531 15.6015 2.68531H5.10185C4.46091 2.68531 3.84622 2.93992 3.39301 3.39313C2.9398 3.84635 2.68518 4.46103 2.68518 5.10197V25.7779C2.68518 26.5194 2.08409 27.1205 1.34259 27.1205C0.601099 27.1205 0 26.5194 0 25.7779V5.10197C0 3.74888 0.537515 2.4512 1.4943 1.49442ZM14.5058 15.0697C16.3475 15.0624 18.1176 15.7832 19.4303 17.075C20.0872 17.7214 20.6096 18.4915 20.9673 19.3408C21.3251 20.1902 21.5112 21.1019 21.5148 22.0235C21.5185 22.9451 21.3396 23.8583 20.9886 24.7104C20.6375 25.5626 20.1212 26.3368 19.4695 26.9883C18.8177 27.6399 18.0434 28.1561 17.1912 28.5069C16.339 28.8577 15.4258 29.0364 14.5042 29.0325C13.5826 29.0287 12.6708 28.8424 11.8216 28.4844C11.3918 28.3032 10.9824 28.0799 10.599 27.8184L2.29195 36.1254C1.76763 36.6497 0.917551 36.6497 0.393236 36.1254C-0.131079 35.6011 -0.131079 34.751 0.393236 34.2267L8.71315 25.9068C7.95575 24.7634 7.54615 23.4131 7.55198 22.0219C7.5597 20.1801 8.29486 18.416 9.59733 17.1139C10.8998 15.8117 12.6641 15.077 14.5058 15.0697ZM17.5469 18.9889C16.739 18.1939 15.6498 17.7504 14.5164 17.7548C13.383 17.7593 12.2973 18.2115 11.4958 19.0128C10.6943 19.8141 10.2419 20.8997 10.2371 22.0331C10.2324 23.1665 10.6757 24.2558 11.4705 25.0639C11.8682 25.4682 12.342 25.7898 12.8646 26.0101C13.3872 26.2304 13.9483 26.345 14.5154 26.3474C15.0825 26.3498 15.6445 26.2398 16.169 26.0239C16.6934 25.808 17.1699 25.4904 17.571 25.0894C17.9721 24.6884 18.2898 24.212 18.5058 23.6876C18.7218 23.1632 18.8319 22.6013 18.8297 22.0341C18.8274 21.467 18.7129 20.9059 18.4927 20.3832C18.2726 19.8606 17.9511 19.3867 17.5469 18.9889Z" fill="white"/>
</svg>
