<svg width="34" height="29" viewBox="0 0 34 29" fill="none" xmlns="http://www.w3.org/2000/svg">
<path d="M17.1804 6.20627C18.5947 6.20627 19.9205 6.55984 20.8928 7.00179C21.8651 7.44375 22.4839 8.41605 22.4839 9.38835V9.9187C22.4839 10.3607 22.0419 10.8026 21.6 10.8026H12.7609C12.2305 10.8026 11.877 10.3607 11.877 9.9187V9.38835C11.877 8.32766 12.4957 7.35536 13.468 7.00179C14.4403 6.47145 15.7662 6.20627 17.1804 6.20627ZM17.1804 0.195679C18.6831 0.195679 19.8322 1.34476 19.8322 2.84741C19.8322 4.35006 18.6831 5.49915 17.1804 5.49915C15.6778 5.49915 14.5287 4.35006 14.5287 2.84741C14.5287 1.34476 15.6778 0.195679 17.1804 0.195679Z" fill="#09AF42"/>
<path d="M5.68823 24.0611C7.10249 24.0611 8.42836 24.4147 9.40066 24.8567C10.373 25.2986 10.9917 26.2709 10.9917 27.2432V27.7736C10.9917 28.2155 10.5497 28.6575 10.1078 28.6575H1.26868C0.73833 28.6575 0.384766 28.2155 0.384766 27.7736V27.2432C0.384766 26.1825 1.0035 25.2102 1.97581 24.8567C2.94811 24.3263 4.27397 24.0611 5.68823 24.0611ZM5.68823 18.0505C7.19088 18.0505 8.33997 19.1996 8.33997 20.7023C8.33997 22.2049 7.19088 23.354 5.68823 23.354C4.18558 23.354 3.0365 22.2049 3.0365 20.7023C3.0365 19.1996 4.18558 18.0505 5.68823 18.0505Z" fill="#09AF42"/>
<path d="M28.6707 24.0609C30.0849 24.0609 31.4108 24.4145 32.3831 24.8564C33.3554 25.2984 33.9741 26.2707 33.9741 27.243V27.7733C33.9741 28.2153 33.5322 28.6572 33.0902 28.6572H24.2511C23.8091 28.6572 23.3672 28.2153 23.3672 27.7733V27.243C23.3672 26.1823 23.9859 25.21 24.9582 24.8564C25.9305 24.3261 27.2564 24.0609 28.6707 24.0609ZM28.6707 18.0503C30.1733 18.0503 31.3224 19.1994 31.3224 20.702C31.3224 22.2047 30.1733 23.3538 28.6707 23.3538C27.168 23.3538 26.0189 22.2047 26.0189 20.702C26.0189 19.1994 27.168 18.0503 28.6707 18.0503Z" fill="#09AF42"/>
<path d="M31.2335 15.4859C31.2335 16.0162 30.7915 16.4582 30.2612 16.5466C29.7308 16.635 29.2889 16.193 29.2005 15.6627C29.1121 15.1323 29.0237 14.6904 28.9353 14.16C28.1398 11.3315 26.5488 9.03335 24.1622 7.26553C23.897 7.08875 23.7202 6.82357 23.6319 6.5584C23.4551 6.11645 23.6319 5.76288 23.9854 5.49771C24.339 5.23253 24.7809 5.23253 25.2229 5.49771C26.2836 6.20484 27.2559 7.08875 28.1398 8.14944C29.9076 10.2708 30.8799 12.6574 31.3219 15.3091C31.2335 15.3975 31.2335 15.3975 31.2335 15.4859Z" fill="#09AF42"/>
<path d="M2.94727 15.5756C2.94727 16.106 3.38922 16.5479 3.91957 16.6363C4.44991 16.7247 4.89187 16.2828 4.98026 15.7524C5.06865 15.2221 5.15704 14.7801 5.24543 14.2498C6.12935 11.3329 7.72039 9.03468 10.1069 7.35525C10.3721 7.17847 10.5489 6.9133 10.6373 6.64812C10.8141 6.20617 10.6373 5.8526 10.2837 5.58743C9.93016 5.32226 9.48821 5.32226 9.04625 5.58743C7.98556 6.29456 7.01326 7.17847 6.12935 8.23916C4.36152 10.3606 3.38922 12.7471 2.94727 15.3988C3.03566 15.3988 2.94727 15.4872 2.94727 15.5756Z" fill="#09AF42"/>
<path d="M18.327 24.3282C17.5315 24.3282 16.736 24.3282 16.0288 24.3282C16.0288 24.5933 16.1172 24.8585 16.1172 25.0353C16.0288 25.3889 15.8521 25.654 15.4101 25.7424C15.0565 25.8308 14.703 25.7424 14.4378 25.3889C14.0842 24.8585 13.7307 24.3282 13.3771 23.7978C13.2003 23.4443 13.2003 23.0907 13.4655 22.8255C13.8191 22.3836 14.0842 21.8532 14.4378 21.4113C14.7914 20.9693 15.2333 20.7925 15.6753 21.0577C16.1172 21.3229 16.294 21.7648 16.0288 22.2952V22.3836C16.8244 22.3836 17.6199 22.3836 18.327 22.3836C18.327 22.1184 18.2386 21.8532 18.2386 21.6764C18.327 21.3229 18.5922 21.0577 18.9458 20.9693C19.2993 20.8809 19.6529 20.9693 19.8297 21.3229C20.1832 21.8532 20.6252 22.3836 20.8904 23.0023C21.0671 23.2675 21.0671 23.621 20.802 23.8862C20.4484 24.3282 20.1832 24.8585 19.8297 25.3005C19.5645 25.7424 19.0341 25.8308 18.5922 25.654C18.1502 25.3889 17.9735 24.9469 18.1502 24.4166C18.327 24.4166 18.327 24.3282 18.327 24.3282Z" fill="#09AF42"/>
</svg>
