<svg width="31" height="31" viewBox="0 0 31 31" fill="none" xmlns="http://www.w3.org/2000/svg">
<path d="M17.4248 0.578857C9.34714 0.578857 4.26157 3.23688 4.6039 5.50421C4.70265 6.15369 4.97421 8.7516 5.31818 10.9688C1.36 12.5283 0.0482829 15.0577 0.224385 17.1197C0.433404 19.559 2.596 22.1702 7.34747 22.621C10.0598 22.8782 13.3234 21.3688 15.4383 18.7893C15.1823 18.3468 15.0769 17.8311 15.1384 17.3219C15.1999 16.8126 15.4249 16.338 15.7786 15.9713C16.1323 15.6046 16.5952 15.3661 17.0958 15.2927C17.5963 15.2193 18.1068 15.315 18.5484 15.5651C18.9901 15.8151 19.3383 16.2056 19.5395 16.6764C19.7407 17.1472 19.7835 17.672 19.6615 18.1699C19.5396 18.6678 19.2594 19.1112 18.8644 19.4317C18.4694 19.7521 17.9815 19.9318 17.4758 19.943C14.9594 23.2371 11.1263 25.2256 7.4956 24.9936C7.57953 25.5345 7.6108 26.5747 7.65359 26.8518C7.80172 27.8185 11.5163 30.6252 17.4248 30.6318C23.3333 30.6252 27.0479 27.8185 27.1976 26.8535C27.3425 25.8901 29.8984 7.80493 30.2457 5.50421C30.588 3.23688 25.5008 0.578857 17.4248 0.578857ZM2.51865 16.916C2.42813 15.8424 3.2675 14.4149 5.6852 13.3447L6.74346 20.1467C4.10357 19.6241 2.63221 18.2283 2.51865 16.916ZM17.4248 8.96698C11.5163 8.96364 7.32443 6.73972 7.32443 5.90825C7.32114 5.08346 11.5163 2.91965 17.4248 2.92299C23.3333 2.91965 27.5285 5.08346 27.5252 5.90825C27.5252 6.73972 23.3333 8.96364 17.4248 8.96698Z" fill="white"/>
</svg>
