<svg width="24" height="24" viewBox="0 0 24 24" fill="none" xmlns="http://www.w3.org/2000/svg">
<g clip-path="url(#clip0_97_71162)">
<path d="M15 6.5C14.448 6.5 14 6.052 14 5.5V4H10V5.5C10 6.052 9.552 6.5 9 6.5C8.448 6.5 8 6.052 8 5.5V4C8 2.897 8.897 2 10 2H14C15.103 2 16 2.897 16 4V5.5C16 6.052 15.552 6.5 15 6.5Z" fill="#65CDF0"/>
<path d="M12.71 15.385C12.53 15.455 12.27 15.505 12 15.505C11.73 15.505 11.47 15.455 11.23 15.365L0 11.625V19.255C0 20.775 1.23 22.005 2.75 22.005H21.25C22.77 22.005 24 20.775 24 19.255V11.625L12.71 15.385Z" fill="#65CDF0"/>
<path d="M24 7.75V10.04L12.24 13.96C12.16 13.99 12.08 14 12 14C11.92 14 11.84 13.99 11.76 13.96L0 10.04V7.75C0 6.23 1.23 5 2.75 5H21.25C22.77 5 24 6.23 24 7.75Z" fill="#65CDF0"/>
</g>
<defs>
<clipPath id="clip0_97_71162">
<rect width="24" height="24" fill="white"/>
</clipPath>
</defs>
</svg>
