<svg width="24" height="24" viewBox="0 0 24 24" fill="none" xmlns="http://www.w3.org/2000/svg">
<g clip-path="url(#clip0_97_71171)">
<path d="M1.49984 15.7546C1.35153 15.7546 1.20655 15.7106 1.08325 15.6281C0.959939 15.5457 0.863834 15.4286 0.807082 15.2916C0.750329 15.1546 0.735477 15.0038 0.764403 14.8583C0.793328 14.7129 0.864733 14.5792 0.96959 14.4743L6.78734 8.65585C6.92879 8.51923 7.11824 8.44363 7.31489 8.44534C7.51154 8.44705 7.69965 8.52593 7.8387 8.66498C7.97776 8.80404 8.05664 8.99215 8.05835 9.1888C8.06005 9.38544 7.98446 9.5749 7.84784 9.71635L2.03009 15.5348C1.88947 15.6755 1.69874 15.7546 1.49984 15.7546V15.7546Z" fill="#EE2E7E"/>
<path d="M5.10565 15.3207C4.90676 15.3207 4.71602 15.2416 4.5754 15.101L1.39315 11.9195C1.25653 11.778 1.18094 11.5886 1.18265 11.3919C1.18435 11.1953 1.26323 11.0072 1.40229 10.8681C1.54134 10.7291 1.72945 10.6502 1.9261 10.6485C2.12275 10.6468 2.3122 10.7224 2.45365 10.859L5.6359 14.0412C5.74076 14.1461 5.81216 14.2797 5.84109 14.4252C5.87001 14.5707 5.85516 14.7214 5.79841 14.8585C5.74166 14.9955 5.64555 15.1126 5.52225 15.195C5.39894 15.2774 5.25396 15.3214 5.10565 15.3215V15.3207Z" fill="#EE2E7E"/>
<path d="M10.4996 11.25C9.80987 11.2517 9.1266 11.1167 8.48936 10.8526C7.85212 10.5886 7.27356 10.2008 6.78714 9.71175C5.92842 8.85277 5.3941 7.72262 5.27522 6.51385C5.15633 5.30509 5.46025 4.0925 6.13517 3.08269C6.8101 2.07287 7.81428 1.32832 8.97662 0.97588C10.139 0.623442 11.3875 0.684926 12.5096 1.14986C13.6317 1.61479 14.5579 2.4544 15.1303 3.52564C15.7028 4.59687 15.8861 5.83346 15.649 7.02469C15.412 8.21593 14.7692 9.28812 13.8302 10.0586C12.8913 10.829 11.7142 11.2501 10.4996 11.25V11.25ZM10.4996 2.25C9.75801 2.25001 9.03304 2.46992 8.41639 2.88193C7.79973 3.29394 7.31909 3.87955 7.03524 4.5647C6.75138 5.24986 6.67706 6.00379 6.82166 6.73119C6.96627 7.45858 7.32331 8.12676 7.84764 8.65125C8.28366 9.0874 8.82051 9.40929 9.41065 9.58839C10.0008 9.76749 10.626 9.79828 11.2309 9.67803C11.8358 9.55778 12.4016 9.2902 12.8784 8.899C13.3552 8.5078 13.7281 8.00506 13.9641 7.4353C14.2002 6.86555 14.2921 6.24637 14.2316 5.63262C14.1712 5.01887 13.9604 4.42949 13.6178 3.9167C13.2751 3.40391 12.8113 2.98353 12.2674 2.69281C11.7236 2.40209 11.1164 2.24999 10.4996 2.25V2.25Z" fill="#EE2E7E"/>
<path d="M16.6825 15.5671C16.5341 15.5671 16.3892 15.5231 16.2659 15.4406C16.1426 15.3582 16.0465 15.2411 15.9897 15.1041C15.9329 14.9671 15.9181 14.8163 15.947 14.6708C15.9759 14.5254 16.0473 14.3917 16.1522 14.2868L21.97 8.46835C22.1114 8.33173 22.3009 8.25613 22.4975 8.25784C22.6942 8.25955 22.8823 8.33843 23.0213 8.47748C23.1604 8.61654 23.2393 8.80465 23.241 9.0013C23.2427 9.19794 23.1671 9.38739 23.0305 9.52885L17.2127 15.3473C17.0721 15.488 16.8814 15.5671 16.6825 15.5671V15.5671Z" fill="#65CDF0"/>
<path d="M13.5004 23.25C12.637 23.2501 11.7869 23.0372 11.0254 22.6302C10.2639 22.2232 9.61453 21.6347 9.13483 20.9168C8.65513 20.1989 8.35989 19.3738 8.27528 18.5145C8.19066 17.6553 8.31927 16.7884 8.64972 15.9907C8.98016 15.193 9.50224 14.4892 10.1697 13.9415C10.8372 13.3938 11.6294 13.0191 12.4763 12.8508C13.3231 12.6824 14.1984 12.7255 15.0246 12.9763C15.8508 13.227 16.6024 13.6776 17.2129 14.2883C17.9469 15.0225 18.4468 15.9579 18.6492 16.9763C18.8517 17.9946 18.7477 19.0501 18.3503 20.0093C17.9529 20.9685 17.2801 21.7883 16.4168 22.3652C15.5535 22.942 14.5386 23.2499 13.5004 23.25V23.25ZM13.5004 14.25C12.6328 14.25 11.7921 14.5508 11.1214 15.1011C10.4508 15.6515 9.99171 16.4174 9.82241 17.2682C9.65312 18.1191 9.78409 19.0024 10.193 19.7675C10.6019 20.5327 11.2635 21.1324 12.065 21.4644C12.8665 21.7965 13.7583 21.8404 14.5885 21.5886C15.4188 21.3369 16.136 20.805 16.6181 20.0838C17.1002 19.3625 17.3172 18.4963 17.2323 17.6329C17.1474 16.7695 16.7657 15.9623 16.1524 15.3488C15.8048 14.9995 15.3915 14.7226 14.9363 14.534C14.4811 14.3454 13.9931 14.2489 13.5004 14.25V14.25Z" fill="#65CDF0"/>
<path d="M22.5 13.5C22.3011 13.5 22.1103 13.421 21.9697 13.2803C21.829 13.1397 21.75 12.9489 21.75 12.75V9.75H18.75C18.5511 9.75 18.3603 9.67098 18.2197 9.53033C18.079 9.38968 18 9.19891 18 9C18 8.80109 18.079 8.61032 18.2197 8.46967C18.3603 8.32902 18.5511 8.25 18.75 8.25H22.5C22.6989 8.25 22.8897 8.32902 23.0303 8.46967C23.171 8.61032 23.25 8.80109 23.25 9V12.75C23.25 12.9489 23.171 13.1397 23.0303 13.2803C22.8897 13.421 22.6989 13.5 22.5 13.5Z" fill="#65CDF0"/>
</g>
<defs>
<clipPath id="clip0_97_71171">
<rect width="24" height="24" fill="white"/>
</clipPath>
</defs>
</svg>
