<svg width="24" height="24" viewBox="0 0 24 24" fill="none" xmlns="http://www.w3.org/2000/svg">
<path d="M20.4852 3.51478C18.2187 1.24819 15.2052 0 11.9999 0C8.7945 0 5.78114 1.24823 3.51469 3.51478C1.24823 5.78128 0 8.79473 0 12.0001C0 15.2055 1.24819 18.2189 3.51469 20.4854C5.78114 22.7518 8.79455 24 11.9999 24C15.2052 24 18.2186 22.7518 20.4852 20.4853C22.7517 18.2189 23.9999 15.2054 23.9999 12C23.9999 8.79469 22.7517 5.78128 20.4852 3.51478ZM21.0968 8.37558C20.6597 8.40919 20.3174 8.2823 19.8838 8.12161C19.5862 8.01131 19.2487 7.88625 18.8532 7.80764C17.7871 7.59581 16.6937 8.17697 16.0674 9.28828C15.885 9.61191 15.0128 11.2782 15.755 12.3005C16.0332 12.6837 16.4055 12.9069 16.7047 13.0861C17.1061 13.3267 17.5212 13.5755 17.9914 13.7653C18.0915 13.8057 18.1907 13.8423 18.2865 13.8776C18.5717 13.9829 18.8666 14.0918 18.9721 14.2362C19.0312 14.3171 19.0929 14.4994 19.0508 14.9077C19.0227 15.1808 18.9134 15.4789 18.7976 15.7945C18.5125 16.572 18.122 17.6369 19.0371 18.6824C19.2008 18.8694 19.3857 19.0279 19.5863 19.1568C17.6825 21.1738 14.9858 22.4348 11.9999 22.4348C6.24614 22.4348 1.5652 17.7538 1.5652 12.0001C1.5652 10.8915 1.73962 9.82289 2.06137 8.81972C2.22844 9.05878 2.41706 9.27131 2.598 9.46177C3.17677 10.0711 3.81656 10.628 4.50248 11.1191C4.55334 11.1555 4.62577 11.2073 4.6635 11.2413C4.68928 11.3565 4.67892 11.5225 4.66725 11.7116C4.64241 12.1122 4.60833 12.6609 4.91091 13.2382C5.10802 13.6144 5.38397 13.9039 5.62744 14.1593C5.86453 14.4081 6.06928 14.6229 6.12651 14.8312C6.1673 14.9797 6.14995 15.1982 6.13153 15.4296C6.10622 15.7483 6.07748 16.1095 6.16941 16.4982C6.29297 17.0205 6.58786 17.4075 6.84801 17.749C7.01203 17.9643 7.16695 18.1677 7.23417 18.3539C7.28597 18.4975 7.30692 18.6912 7.329 18.8962C7.35117 19.1018 7.37634 19.3348 7.43775 19.5747C7.62178 20.2935 8.21845 20.9834 9.02358 20.9833C9.06647 20.9833 9.11011 20.9813 9.15417 20.9773C9.98789 20.9011 10.5604 20.1562 10.6481 19.0331C10.6623 18.8513 10.6997 18.3721 10.7925 18.2664C10.8211 18.255 10.891 18.2378 10.9429 18.2252C11.1634 18.1712 11.4967 18.0895 11.772 17.8075C12.2791 17.2882 12.1393 16.637 12.0557 16.248C12.0306 16.1309 12.0021 15.998 12.0037 15.9288C12.0082 15.7434 12.3879 15.4191 12.5309 15.297L13.9613 14.0751C14.5182 13.6042 14.7265 12.7849 14.4797 12.0367C14.3034 11.5025 13.9133 11.0221 13.3515 10.6475C12.6582 10.1855 11.9087 10.067 11.2955 10.3225C11.0869 10.4094 10.9183 10.5285 10.7828 10.6243C10.7418 10.6533 10.6877 10.6915 10.6438 10.7194C10.6236 10.6969 10.6003 10.6658 10.5787 10.6261C10.5271 10.5315 10.4808 10.4087 10.4317 10.2787C10.3671 10.1076 10.2939 9.91364 10.1856 9.71841C9.60586 8.6738 8.65889 8.55792 7.96748 8.47336C7.84931 8.45892 7.73766 8.44523 7.62633 8.42803C7.04428 8.33799 6.45216 8.08242 5.99761 7.73077C6.1642 7.67086 6.36783 7.62469 6.47742 7.62895C6.55673 7.63158 6.64969 7.64217 6.74822 7.65338C7.03055 7.68558 7.38178 7.72556 7.76034 7.61944C8.14251 7.51233 8.42428 7.29225 8.65064 7.11544C8.71523 7.065 8.77622 7.01733 8.83247 6.97786C8.93841 6.90352 9.14451 6.88631 9.36272 6.86808C9.90614 6.8227 11.0369 6.72834 11.197 5.15602C11.2762 4.37808 10.992 3.68161 10.7637 3.12197C10.5738 2.65641 10.3896 2.19431 10.2288 1.71614C10.8046 1.61742 11.3962 1.56525 12 1.56525C13.2953 1.56525 14.5359 1.80323 15.6814 2.2365C15.6471 2.27025 15.6127 2.30395 15.5784 2.33756C15.2306 2.67872 14.8709 3.03155 14.6233 3.35203C14.5186 3.48755 14.3435 3.71428 14.2919 4.04081C14.2043 4.59478 14.5356 5.02036 14.6771 5.20205C14.8873 5.47219 15.2392 5.92434 15.8205 6.06933C15.9503 6.10167 16.0757 6.11555 16.196 6.11555C16.634 6.11555 17.0065 5.93213 17.2954 5.78986C17.4617 5.70797 17.6337 5.62327 17.7365 5.61502C17.8343 5.607 18.0071 5.66395 18.1745 5.7188C18.4189 5.79895 18.6959 5.8897 19.0222 5.90156C19.4514 5.91694 19.8321 5.76145 20.1308 5.46788C20.8238 6.32869 21.3831 7.3012 21.777 8.35402C21.7213 8.35547 21.6645 8.35627 21.6137 8.35687C21.4602 8.35884 21.2863 8.36105 21.0968 8.37558Z" fill="#F7B923"/>
</svg>
