<svg width="24" height="24" viewBox="0 0 24 24" fill="none" xmlns="http://www.w3.org/2000/svg">
<path d="M17.5223 14.8125C17.1482 15.4157 16.7397 16.0444 16.2971 16.6983C20.0191 17.2549 21.9248 18.4471 21.9248 19.0403C21.9248 19.8302 18.5481 21.6815 11.9997 21.6815C5.45191 21.6815 2.0752 19.8302 2.0752 19.0403C2.0752 18.4471 3.98038 17.2554 7.70339 16.6983C7.26032 16.0444 6.85229 15.4157 6.47774 14.8125C2.80442 15.5051 0 16.929 0 19.0403C0 22.1372 6.03727 23.7578 11.9997 23.7578C17.9633 23.7578 24 22.1372 24 19.0403C24.0005 16.929 21.1966 15.5051 17.5223 14.8125Z" fill="#52C41A"/>
<path d="M12.0272 0.25C8.13628 0.25 4.98242 3.40386 4.98242 7.29374C4.98242 10.0846 8.60604 15.424 10.6556 18.2206C10.9763 18.6579 11.4853 18.9163 12.0272 18.9163C12.5681 18.9163 13.0787 18.6579 13.3978 18.2206C15.4473 15.424 19.0715 10.0846 19.0715 7.29374C19.0715 3.40386 15.9176 0.25 12.0272 0.25ZM12.0272 11.6675C9.72812 11.6675 7.85799 9.79737 7.85799 7.49933C7.85799 5.20076 9.72812 3.33062 12.0272 3.33062C14.3258 3.33062 16.1954 5.20076 16.1954 7.49933C16.1954 9.79737 14.3258 11.6675 12.0272 11.6675Z" fill="#52C41A"/>
<path d="M12.0277 4.96875C10.6294 4.96875 9.49219 6.106 9.49219 7.50429C9.49219 8.90153 10.6294 10.0393 12.0277 10.0393C13.4255 10.0393 14.5633 8.90205 14.5633 7.50429C14.5633 6.10548 13.4255 4.96875 12.0277 4.96875Z" fill="#52C41A"/>
</svg>
