<svg width="24" height="24" viewBox="0 0 24 24" fill="none" xmlns="http://www.w3.org/2000/svg">
<path d="M24 12C24 18.6274 18.6274 24 12 24C5.37258 24 0 18.6274 0 12C0 5.37258 5.37258 0 12 0C18.6274 0 24 5.37258 24 12ZM2.4 12C2.4 17.3019 6.69807 21.6 12 21.6C17.3019 21.6 21.6 17.3019 21.6 12C21.6 6.69807 17.3019 2.4 12 2.4C6.69807 2.4 2.4 6.69807 2.4 12Z" fill="white"/>
<path d="M9.61042 14.3906L14.3867 9.61432M14.3867 9.61432V14.3906M14.3867 9.61432H9.61042" stroke="#3B3B3B" stroke-linecap="round" stroke-linejoin="round"/>
<path d="M12 1.2C12 0.537258 12.5386 -0.00621546 13.198 0.0599495C14.7548 0.216153 16.2701 0.675753 17.6568 1.41694C19.3972 2.3472 20.8813 3.69232 21.9776 5.33316C23.074 6.97399 23.7488 8.85988 23.9422 10.8238C24.1356 12.7877 23.8417 14.769 23.0866 16.5922C22.3314 18.4154 21.1382 20.0242 19.6127 21.2761C18.0873 22.528 16.2766 23.3844 14.3411 23.7694C12.4056 24.1544 10.405 24.0561 8.51659 23.4833C7.01196 23.0269 5.61552 22.2804 4.40424 21.29C3.89117 20.8705 3.89462 20.1054 4.36325 19.6368C4.83188 19.1681 5.58767 19.175 6.11107 19.5816C7.03563 20.2997 8.08653 20.8448 9.21327 21.1866C10.724 21.6449 12.3245 21.7235 13.8729 21.4155C15.4213 21.1075 16.8698 20.4224 18.0902 19.4209C19.3106 18.4194 20.2651 17.1323 20.8692 15.6738C21.4734 14.2152 21.7085 12.6302 21.5538 11.059C21.399 9.48791 20.8592 7.97919 19.9821 6.66652C19.105 5.35386 17.9177 4.27776 16.5254 3.53356C15.487 2.97852 14.3585 2.62086 13.1969 2.4749C12.5393 2.39227 12 1.86274 12 1.2Z" fill="#F7B923"/>
</svg>
