<svg width="24" height="24" viewBox="0 0 24 24" fill="none" xmlns="http://www.w3.org/2000/svg">
<path d="M0.75 9.99919V20.1369C0.75 21.3714 1.76925 22.3847 3.003 22.3847H14.004C15.2378 22.3847 16.251 21.3699 16.251 20.1369V9.99919C16.251 8.76469 15.237 7.74619 14.004 7.74619H3.003C1.76925 7.74619 0.75 8.76544 0.75 9.99919ZM10.2495 1.61719C8.877 1.61719 7.7535 2.74669 7.7535 4.11919V6.24469H14.004C16.065 6.24469 17.751 7.94344 17.751 9.99919V16.2557H20.7525C22.125 16.2557 23.25 15.1262 23.25 13.7537V4.11919C23.25 2.74669 22.125 1.61719 20.7525 1.61719H10.2495Z" fill="#FA5F1C"/>
</svg>
