<svg width="24" height="24" viewBox="0 0 24 24" fill="none" xmlns="http://www.w3.org/2000/svg">
<path d="M12 0.601562C5.38323 0.601562 3.22506e-05 5.44636 3.22506e-05 11.4016C3.22506e-05 13.4832 0.658432 15.4996 1.90723 17.2432C1.67083 19.858 1.03723 21.7992 0.117232 22.7188C-0.00436775 22.8404 -0.0347678 23.0264 0.0420322 23.18C0.110032 23.3172 0.250032 23.4016 0.400032 23.4016C0.418432 23.4016 0.436832 23.4004 0.455632 23.3976C0.617632 23.3748 4.38083 22.8332 7.10283 21.262C8.64843 21.8856 10.2948 22.2016 12 22.2016C18.6168 22.2016 24 17.3568 24 11.4016C24 5.44636 18.6168 0.601562 12 0.601562ZM6.40003 13.0016C5.51763 13.0016 4.80003 12.284 4.80003 11.4016C4.80003 10.5192 5.51763 9.80156 6.40003 9.80156C7.28243 9.80156 8.00003 10.5192 8.00003 11.4016C8.00003 12.284 7.28243 13.0016 6.40003 13.0016ZM12 13.0016C11.1176 13.0016 10.4 12.284 10.4 11.4016C10.4 10.5192 11.1176 9.80156 12 9.80156C12.8824 9.80156 13.6 10.5192 13.6 11.4016C13.6 12.284 12.8824 13.0016 12 13.0016ZM17.6 13.0016C16.7176 13.0016 16 12.284 16 11.4016C16 10.5192 16.7176 9.80156 17.6 9.80156C18.4824 9.80156 19.2 10.5192 19.2 11.4016C19.2 12.284 18.4824 13.0016 17.6 13.0016Z" fill="#65CDF0"/>
</svg>
