<svg width="18" height="20" viewBox="0 0 18 20" fill="none" xmlns="http://www.w3.org/2000/svg">
<path d="M9 11.8359C8.74028 11.8359 8.52257 11.7481 8.34688 11.5724C8.17118 11.3967 8.08333 11.179 8.08333 10.9193C8.08333 10.6595 8.17118 10.4418 8.34688 10.2661C8.52257 10.0905 8.74028 10.0026 9 10.0026C9.25972 10.0026 9.47743 10.0905 9.65312 10.2661C9.82882 10.4418 9.91667 10.6595 9.91667 10.9193C9.91667 11.179 9.82882 11.3967 9.65312 11.5724C9.47743 11.7481 9.25972 11.8359 9 11.8359ZM5.33333 11.8359C5.07361 11.8359 4.8559 11.7481 4.68021 11.5724C4.50451 11.3967 4.41667 11.179 4.41667 10.9193C4.41667 10.6595 4.50451 10.4418 4.68021 10.2661C4.8559 10.0905 5.07361 10.0026 5.33333 10.0026C5.59306 10.0026 5.81076 10.0905 5.98646 10.2661C6.16215 10.4418 6.25 10.6595 6.25 10.9193C6.25 11.179 6.16215 11.3967 5.98646 11.5724C5.81076 11.7481 5.59306 11.8359 5.33333 11.8359ZM12.6667 11.8359C12.4069 11.8359 12.1892 11.7481 12.0135 11.5724C11.8378 11.3967 11.75 11.179 11.75 10.9193C11.75 10.6595 11.8378 10.4418 12.0135 10.2661C12.1892 10.0905 12.4069 10.0026 12.6667 10.0026C12.9264 10.0026 13.1441 10.0905 13.3198 10.2661C13.4955 10.4418 13.5833 10.6595 13.5833 10.9193C13.5833 11.179 13.4955 11.3967 13.3198 11.5724C13.1441 11.7481 12.9264 11.8359 12.6667 11.8359ZM9 15.5026C8.74028 15.5026 8.52257 15.4148 8.34688 15.2391C8.17118 15.0634 8.08333 14.8457 8.08333 14.5859C8.08333 14.3262 8.17118 14.1085 8.34688 13.9328C8.52257 13.7571 8.74028 13.6693 9 13.6693C9.25972 13.6693 9.47743 13.7571 9.65312 13.9328C9.82882 14.1085 9.91667 14.3262 9.91667 14.5859C9.91667 14.8457 9.82882 15.0634 9.65312 15.2391C9.47743 15.4148 9.25972 15.5026 9 15.5026ZM5.33333 15.5026C5.07361 15.5026 4.8559 15.4148 4.68021 15.2391C4.50451 15.0634 4.41667 14.8457 4.41667 14.5859C4.41667 14.3262 4.50451 14.1085 4.68021 13.9328C4.8559 13.7571 5.07361 13.6693 5.33333 13.6693C5.59306 13.6693 5.81076 13.7571 5.98646 13.9328C6.16215 14.1085 6.25 14.3262 6.25 14.5859C6.25 14.8457 6.16215 15.0634 5.98646 15.2391C5.81076 15.4148 5.59306 15.5026 5.33333 15.5026ZM12.6667 15.5026C12.4069 15.5026 12.1892 15.4148 12.0135 15.2391C11.8378 15.0634 11.75 14.8457 11.75 14.5859C11.75 14.3262 11.8378 14.1085 12.0135 13.9328C12.1892 13.7571 12.4069 13.6693 12.6667 13.6693C12.9264 13.6693 13.1441 13.7571 13.3198 13.9328C13.4955 14.1085 13.5833 14.3262 13.5833 14.5859C13.5833 14.8457 13.4955 15.0634 13.3198 15.2391C13.1441 15.4148 12.9264 15.5026 12.6667 15.5026ZM2.125 19.1693C1.75833 19.1693 1.4375 19.0318 1.1625 18.7568C0.8875 18.4818 0.75 18.1609 0.75 17.7943V3.58594C0.75 3.21927 0.8875 2.89844 1.1625 2.62344C1.4375 2.34844 1.75833 2.21094 2.125 2.21094H3.61458V1.56927C3.61458 1.35538 3.68333 1.17969 3.82083 1.04219C3.95833 0.904687 4.13403 0.835938 4.34792 0.835938C4.56181 0.835938 4.74132 0.904687 4.88646 1.04219C5.0316 1.17969 5.10417 1.35538 5.10417 1.56927V2.21094H12.8958V1.56927C12.8958 1.35538 12.9646 1.17969 13.1021 1.04219C13.2396 0.904687 13.4153 0.835938 13.6292 0.835938C13.8431 0.835938 14.0226 0.904687 14.1677 1.04219C14.3128 1.17969 14.3854 1.35538 14.3854 1.56927V2.21094H15.875C16.2417 2.21094 16.5625 2.34844 16.8375 2.62344C17.1125 2.89844 17.25 3.21927 17.25 3.58594V17.7943C17.25 18.1609 17.1125 18.4818 16.8375 18.7568C16.5625 19.0318 16.2417 19.1693 15.875 19.1693H2.125ZM2.125 17.7943H15.875V7.9401H2.125V17.7943Z" fill="#A0A3BD"/>
</svg>
