<svg width="16" height="15" viewBox="0 0 16 15" fill="none" xmlns="http://www.w3.org/2000/svg">
<path d="M14.375 6.27346H12.2075C10.43 6.27346 8.9825 4.85953 8.9825 3.12326V1.00604C8.9825 0.603109 8.645 0.273438 8.2325 0.273438H5.0525C2.7425 0.273438 0.875 1.73864 0.875 4.35404V10.8449C0.875 13.4603 2.7425 14.9255 5.0525 14.9255H10.9475C13.2575 14.9255 15.125 13.4603 15.125 10.8449V7.00606C15.125 6.60313 14.7875 6.27346 14.375 6.27346ZM7.625 11.8119H4.625C4.3175 11.8119 4.0625 11.5629 4.0625 11.2625C4.0625 10.9621 4.3175 10.713 4.625 10.713H7.625C7.9325 10.713 8.1875 10.9621 8.1875 11.2625C8.1875 11.5629 7.9325 11.8119 7.625 11.8119ZM9.125 8.88152H4.625C4.3175 8.88152 4.0625 8.63244 4.0625 8.33207C4.0625 8.0317 4.3175 7.78262 4.625 7.78262H9.125C9.4325 7.78262 9.6875 8.0317 9.6875 8.33207C9.6875 8.63244 9.4325 8.88152 9.125 8.88152Z" fill="white"/>
</svg>
