<svg width="24" height="24" viewBox="0 0 24 24" fill="none" xmlns="http://www.w3.org/2000/svg">
<path d="M5.64453 18.3594V2.11719C5.64453 1.72887 5.32972 1.41406 4.94141 1.41406H2.11719C1.72887 1.41406 1.41406 1.72887 1.41406 2.11719V18.3594H5.64453Z" fill="#427A0A"/>
<path d="M16.9414 18.3555V4.9375C16.9414 4.54919 16.6266 4.23438 16.2383 4.23438H13.4141C13.0257 4.23438 12.7109 4.54919 12.7109 4.9375V18.3555H16.9414Z" fill="#427A0A"/>
<path d="M11.293 18.3594V7.76562C11.293 7.37731 10.9782 7.0625 10.5898 7.0625H7.76562C7.37731 7.0625 7.0625 7.37731 7.0625 7.76562V18.3594H11.293Z" fill="#427A0A"/>
<path d="M22.5898 18.3633V10.5938C22.5898 10.2054 22.275 9.89062 21.8867 9.89062H19.0625C18.6742 9.89062 18.3594 10.2054 18.3594 10.5938V18.3633H22.5898Z" fill="#427A0A"/>
<path d="M0 19.7656V21.8867C0 22.275 0.314812 22.5898 0.703125 22.5898H23.2969C23.6852 22.5898 24 22.275 24 21.8867V19.7656H0Z" fill="#427A0A"/>
</svg>
