<svg width="24" height="24" viewBox="0 0 24 24" fill="none" xmlns="http://www.w3.org/2000/svg">
<path d="M24 12C24 18.6274 18.6274 24 12 24C5.37258 24 0 18.6274 0 12C0 5.37258 5.37258 0 12 0C18.6274 0 24 5.37258 24 12ZM2.4 12C2.4 17.3019 6.69807 21.6 12 21.6C17.3019 21.6 21.6 17.3019 21.6 12C21.6 6.69807 17.3019 2.4 12 2.4C6.69807 2.4 2.4 6.69807 2.4 12Z" fill="white"/>
<path d="M14.3896 9.60938L9.61328 14.3857M9.61328 14.3857V9.60938M9.61328 14.3857H14.3896" stroke="#3B3B3B" stroke-linecap="round" stroke-linejoin="round"/>
<path d="M12 1.2C12 0.537258 12.5386 -0.00622052 13.198 0.0599392C15.3691 0.277762 17.448 1.08459 19.205 2.40378C21.2831 3.96404 22.7985 6.15669 23.5235 8.65211C24.2485 11.1475 24.1439 13.8109 23.2253 16.2417C22.3068 18.6725 20.624 20.7395 18.4299 22.1319C16.2358 23.5243 13.6491 24.1669 11.0585 23.963C8.4679 23.7591 6.01349 22.7198 4.06426 21.0013C2.11502 19.2828 0.776288 16.9781 0.249326 14.4334C-0.19622 12.282 -0.0411018 10.0574 0.686215 8.00018C0.907124 7.37534 1.6282 7.1194 2.22787 7.40158C2.82754 7.68376 3.07702 8.39723 2.87181 9.0274C2.35675 10.609 2.25937 12.3045 2.59946 13.9468C3.02103 15.9824 4.09201 17.8263 5.6514 19.2011C7.2108 20.5759 9.17432 21.4073 11.2468 21.5704C13.3193 21.7335 15.3887 21.2195 17.1439 20.1055C18.8992 18.9916 20.2454 17.338 20.9803 15.3934C21.7151 13.4487 21.7988 11.318 21.2188 9.32169C20.6388 7.32535 19.4265 5.57123 17.764 4.32303C16.4229 3.31608 14.8473 2.68228 13.1969 2.47489C12.5393 2.39227 12 1.86274 12 1.2Z" fill="#65CDF0"/>
</svg>
