<svg width="24" height="24" viewBox="0 0 24 24" fill="none" xmlns="http://www.w3.org/2000/svg">
<path d="M22.5 7.875V18C22.5 18.5967 22.2629 19.169 21.841 19.591C21.419 20.0129 20.8467 20.25 20.25 20.25H3.75C3.15326 20.25 2.58097 20.0129 2.15901 19.591C1.73705 19.169 1.5 18.5967 1.5 18V6C1.5 5.40326 1.73705 4.83097 2.15901 4.40901C2.58097 3.98705 3.15326 3.75 3.75 3.75H7.5C8.0819 3.75037 8.64103 3.97617 9.06 4.38L10.35 5.625H20.25C20.8467 5.625 21.419 5.86205 21.841 6.28401C22.2629 6.70597 22.5 7.27826 22.5 7.875Z" fill="#1A55AF"/>
</svg>
