<svg width="65" height="64" viewBox="0 0 65 64" fill="none" xmlns="http://www.w3.org/2000/svg">
<rect opacity="0.1" x="0.599609" width="63.6638" height="63.6969" rx="12.9892" fill="#F7B923"/>
<path d="M46.5764 32H39.2469M36.8037 25.8889C36.8037 27.1855 36.2889 28.429 35.3726 29.3459C34.4562 30.2627 33.2133 30.7778 31.9174 30.7778C30.6215 30.7778 29.3786 30.2627 28.4622 29.3459C27.5459 28.429 27.0311 27.1855 27.0311 25.8889C27.0311 24.5923 27.5459 23.3488 28.4622 22.4319C29.3786 21.5151 30.6215 21 31.9174 21C33.2133 21 34.4562 21.5151 35.3726 22.4319C36.2889 23.3488 36.8037 24.5923 36.8037 25.8889ZM31.9174 34.4444C29.9735 34.4444 28.1092 35.2171 26.7347 36.5923C25.3601 37.9676 24.5879 39.8329 24.5879 41.7778V43H39.2469V41.7778C39.2469 39.8329 38.4747 37.9676 37.1002 36.5923C35.7256 35.2171 33.8613 34.4444 31.9174 34.4444Z" stroke="#F7B516" stroke-width="2" stroke-linecap="round" stroke-linejoin="round"/>
</svg>
