<svg width="22" height="15" viewBox="0 0 22 15" fill="none" xmlns="http://www.w3.org/2000/svg">
<path d="M11.0008 11.75C12.1841 11.75 13.1883 11.3375 14.0133 10.5125C14.8383 9.6875 15.2508 8.68333 15.2508 7.5C15.2508 6.31667 14.8383 5.3125 14.0133 4.4875C13.1883 3.6625 12.1841 3.25 11.0008 3.25C9.81745 3.25 8.81328 3.6625 7.98828 4.4875C7.16328 5.3125 6.75078 6.31667 6.75078 7.5C6.75078 8.68333 7.16328 9.6875 7.98828 10.5125C8.81328 11.3375 9.81745 11.75 11.0008 11.75ZM11.0008 10.3C10.2174 10.3 9.55495 10.0292 9.01328 9.4875C8.47161 8.94583 8.20078 8.28333 8.20078 7.5C8.20078 6.71667 8.47161 6.05417 9.01328 5.5125C9.55495 4.97083 10.2174 4.7 11.0008 4.7C11.7841 4.7 12.4466 4.97083 12.9883 5.5125C13.5299 6.05417 13.8008 6.71667 13.8008 7.5C13.8008 8.28333 13.5299 8.94583 12.9883 9.4875C12.4466 10.0292 11.7841 10.3 11.0008 10.3ZM11.0008 15C8.70078 15 6.60495 14.375 4.71328 13.125C2.82162 11.875 1.35911 10.225 0.325781 8.175C0.275781 8.09167 0.238281 7.99167 0.213281 7.875C0.188281 7.75833 0.175781 7.63333 0.175781 7.5C0.175781 7.36667 0.188281 7.24167 0.213281 7.125C0.238281 7.00833 0.275781 6.90833 0.325781 6.825C1.35911 4.775 2.82162 3.125 4.71328 1.875C6.60495 0.625 8.70078 0 11.0008 0C13.3008 0 15.3966 0.625 17.2883 1.875C19.18 3.125 20.6425 4.775 21.6758 6.825C21.7258 6.90833 21.7633 7.00833 21.7883 7.125C21.8133 7.24167 21.8258 7.36667 21.8258 7.5C21.8258 7.63333 21.8133 7.75833 21.7883 7.875C21.7633 7.99167 21.7258 8.09167 21.6758 8.175C20.6425 10.225 19.18 11.875 17.2883 13.125C15.3966 14.375 13.3008 15 11.0008 15Z" fill="#65CDF0"/>
</svg>
