<svg width="21" height="23" viewBox="0 0 21 23" fill="none" xmlns="http://www.w3.org/2000/svg">
<path d="M14.3182 3.83333H20.0455C20.2986 3.83333 20.5414 3.9343 20.7204 4.11402C20.8994 4.29375 21 4.5375 21 4.79167C21 5.04583 20.8994 5.28959 20.7204 5.46931C20.5414 5.64903 20.2986 5.75 20.0455 5.75H18.9897L17.5541 18.7373C17.4244 19.9095 16.8687 20.9924 15.9934 21.7789C15.1181 22.5653 13.9847 23.0001 12.81 23H8.19C7.01534 23.0001 5.88188 22.5653 5.00657 21.7789C4.13126 20.9924 3.57559 19.9095 3.44591 18.7373L2.00836 5.75H0.954545C0.701384 5.75 0.458592 5.64903 0.27958 5.46931C0.100568 5.28959 0 5.04583 0 4.79167C0 4.5375 0.100568 4.29375 0.27958 4.11402C0.458592 3.9343 0.701384 3.83333 0.954545 3.83333H6.68182C6.68182 2.81667 7.08409 1.84165 7.80014 1.12276C8.51619 0.403868 9.48736 0 10.5 0C11.5126 0 12.4838 0.403868 13.1999 1.12276C13.9159 1.84165 14.3182 2.81667 14.3182 3.83333ZM10.5 1.91667C9.99368 1.91667 9.50809 2.1186 9.15007 2.47805C8.79204 2.83749 8.59091 3.325 8.59091 3.83333H12.4091C12.4091 3.325 12.208 2.83749 11.8499 2.47805C11.4919 2.1186 11.0063 1.91667 10.5 1.91667ZM7.63636 9.58333V17.25C7.63636 17.5042 7.73693 17.7479 7.91594 17.9276C8.09496 18.1074 8.33775 18.2083 8.59091 18.2083C8.84407 18.2083 9.08686 18.1074 9.26587 17.9276C9.44489 17.7479 9.54545 17.5042 9.54545 17.25V9.58333C9.54545 9.32917 9.44489 9.08541 9.26587 8.90569C9.08686 8.72597 8.84407 8.625 8.59091 8.625C8.33775 8.625 8.09496 8.72597 7.91594 8.90569C7.73693 9.08541 7.63636 9.32917 7.63636 9.58333ZM12.4091 8.625C12.1559 8.625 11.9131 8.72597 11.7341 8.90569C11.5551 9.08541 11.4545 9.32917 11.4545 9.58333V17.25C11.4545 17.5042 11.5551 17.7479 11.7341 17.9276C11.9131 18.1074 12.1559 18.2083 12.4091 18.2083C12.6623 18.2083 12.905 18.1074 13.0841 17.9276C13.2631 17.7479 13.3636 17.5042 13.3636 17.25V9.58333C13.3636 9.32917 13.2631 9.08541 13.0841 8.90569C12.905 8.72597 12.6623 8.625 12.4091 8.625Z" fill="#FF4D4F"/>
</svg>
