<svg width="20" height="22" viewBox="0 0 20 22" fill="none" xmlns="http://www.w3.org/2000/svg">
<path d="M18.3313 5.11399H19.3062C19.5083 5.08322 19.6922 4.97868 19.8228 4.82024C19.9506 4.65586 20.013 4.44939 19.9977 4.24115C19.9799 4.03628 19.888 3.84514 19.7394 3.70402C19.5824 3.56018 19.3768 3.48213 19.1645 3.48581H13.5151V3.30117C13.4534 2.38819 13.0433 1.53469 12.3707 0.919554C11.698 0.304418 10.8151 -0.0246062 9.90693 0.00143595C8.99876 0.0274781 8.13586 0.406565 7.49905 1.05925C6.86224 1.71194 6.50097 2.58755 6.49094 3.5026H0.699921C0.505838 3.52614 0.327512 3.62194 0.199977 3.77116C0.0745668 3.91878 0.00388883 4.10565 0 4.2999L0 4.409C0.0277503 4.60308 0.122087 4.78124 0.266637 4.91256C0.424061 5.04834 0.626074 5.12016 0.83324 5.11399H18.3313ZM8.10742 3.48581V3.30117C8.14116 2.82478 8.35606 2.37986 8.70735 2.05906C9.0687 1.75635 9.52938 1.60068 9.99887 1.62264C10.2479 1.6204 10.4948 1.66815 10.7253 1.7631C10.9558 1.85805 11.1652 1.9983 11.3413 2.17565C11.5174 2.35301 11.6566 2.56392 11.7509 2.79607C11.8451 3.02822 11.8926 3.27697 11.8903 3.52778L8.10742 3.48581Z" fill="#6E7191"/>
<path d="M1.78906 6.39844L3.05559 19.2895V19.4826C3.16831 20.1846 3.52524 20.8233 4.06257 21.2845C4.5999 21.7458 5.28259 21.9995 5.98859 22.0004H14.1627C14.867 21.9575 15.5329 21.6624 16.0402 21.1683C16.5475 20.6743 16.8627 20.0139 16.929 19.3063L18.1955 6.39844H1.78906ZM8.91326 13.4567V17.2669C8.91067 17.472 8.83361 17.6691 8.69662 17.8208C8.55651 17.9704 8.36675 18.063 8.16334 18.081C7.95834 18.0919 7.75658 18.0261 7.59674 17.8964C7.5159 17.8338 7.44841 17.7555 7.3983 17.6661C7.3482 17.5767 7.3165 17.478 7.30511 17.376V10.9305C7.29456 10.7201 7.36297 10.5133 7.49675 10.3514C7.65122 10.2014 7.85715 10.1172 8.07169 10.1164C8.27141 10.1138 8.46541 10.1836 8.61835 10.3129C8.77128 10.4423 8.87299 10.6228 8.90493 10.8214V13.4567H8.91326ZM12.6962 13.4567V17.2669C12.6936 17.472 12.6165 17.6691 12.4795 17.8208C12.3394 17.9704 12.1497 18.063 11.9463 18.081C11.7413 18.0919 11.5395 18.0261 11.3796 17.8964C11.2224 17.7648 11.1186 17.5796 11.088 17.376V10.9305C11.0889 10.7144 11.1724 10.507 11.3213 10.3514C11.4758 10.2014 11.6817 10.1172 11.8963 10.1164C12.096 10.1138 12.29 10.1836 12.4429 10.3129C12.5959 10.4423 12.6976 10.6228 12.7295 10.8214V13.4567H12.6962Z" fill="#6E7191"/>
</svg>
