<svg width="10" height="12" viewBox="0 0 10 12" fill="none" xmlns="http://www.w3.org/2000/svg">
<path d="M9.68618 2.62342L7.81382 0.37658C7.61289 0.135462 7.34037 1.78306e-06 7.05621 0H1.07143C0.479687 0 0 0.575625 0 1.28571V10.7143C0 11.4244 0.479687 12 1.07143 12H8.92857C9.52031 12 10 11.4244 10 10.7143V3.53255C10 3.19156 9.88712 2.86454 9.68618 2.62342ZM5 10.2857C4.21103 10.2857 3.57143 9.5182 3.57143 8.57143C3.57143 7.62466 4.21103 6.85714 5 6.85714C5.78897 6.85714 6.42857 7.62466 6.42857 8.57143C6.42857 9.5182 5.78897 10.2857 5 10.2857ZM7.14286 2.12893V4.82143C7.14286 4.99894 7.02292 5.14286 6.875 5.14286H1.69643C1.5485 5.14286 1.42857 4.99894 1.42857 4.82143V2.03571C1.42857 1.85821 1.5485 1.71429 1.69643 1.71429H6.79732C6.86837 1.71429 6.9365 1.74814 6.98672 1.80844L7.0644 1.90165C7.08927 1.93149 7.10901 1.96693 7.12247 2.00592C7.13593 2.04492 7.14286 2.08672 7.14286 2.12893Z" fill="#4E4B66"/>
</svg>
