<svg width="44" height="40" viewBox="0 0 44 40" fill="none" xmlns="http://www.w3.org/2000/svg">
<path fill-rule="evenodd" clip-rule="evenodd" d="M12.4317 4.0573C15.0941 1.80282 18.4897 0.557701 22.0052 0.546875C29.1706 0.546875 35.1187 5.7785 35.766 12.5247C40.0067 13.1132 43.315 16.6001 43.315 20.8796C43.315 25.5776 39.3248 29.3208 34.4901 29.3208L27.3326 29.3208C26.9794 29.3208 26.6406 29.183 26.3909 28.9377C26.1411 28.6925 26.0008 28.3598 26.0008 28.0129C26.0008 27.666 26.1411 27.3334 26.3909 27.0881C26.6406 26.8428 26.9794 26.705 27.3326 26.705L34.4928 26.705C37.9316 26.705 40.6513 24.0578 40.6513 20.8796C40.6513 17.6988 37.9343 15.0516 34.4901 15.0516H33.1582V13.7437C33.1609 7.93655 28.2064 3.16269 22.0052 3.16269C19.128 3.17397 16.3496 4.19445 14.1711 6.04008C12.1547 7.74559 11.0999 9.80162 11.0999 11.4156V12.5875L9.91449 12.7156C6.19326 13.1159 3.35905 16.1162 3.35905 19.6894C3.35905 23.5268 6.63544 26.705 10.7669 26.705H16.6777C17.0309 26.705 17.3697 26.8428 17.6195 27.0881C17.8693 27.3334 18.0096 27.666 18.0096 28.0129C18.0096 28.3598 17.8693 28.6925 17.6195 28.9377C17.3697 29.183 17.0309 29.3208 16.6777 29.3208H10.7669C5.24497 29.3208 0.695312 25.0466 0.695312 19.6894C0.695312 15.0777 4.0676 11.2586 8.53202 10.2908C8.91293 8.03333 10.3913 5.78373 12.4317 4.0573Z" fill="#65CDF0"/>
<path fill-rule="evenodd" clip-rule="evenodd" d="M21.0615 11.3901C21.1852 11.2683 21.3322 11.1717 21.494 11.1057C21.6558 11.0398 21.8293 11.0059 22.0044 11.0059C22.1796 11.0059 22.3531 11.0398 22.5149 11.1057C22.6767 11.1717 22.8237 11.2683 22.9474 11.3901L30.9386 19.2375C31.1887 19.4831 31.3292 19.8162 31.3292 20.1635C31.3292 20.5109 31.1887 20.844 30.9386 21.0895C30.6885 21.3351 30.3493 21.4731 29.9956 21.4731C29.642 21.4731 29.3028 21.3351 29.0527 21.0895L23.3363 15.4734L23.3363 38.4742C23.3363 38.8211 23.196 39.1538 22.9462 39.3991C22.6964 39.6443 22.3577 39.7821 22.0044 39.7821C21.6512 39.7821 21.3124 39.6443 21.0627 39.3991C20.8129 39.1538 20.6726 38.8211 20.6726 38.4742L20.6726 15.4734L14.9562 21.0895C14.7061 21.3351 14.3669 21.4731 14.0132 21.4731C13.6596 21.4731 13.3204 21.3351 13.0703 21.0895C12.8202 20.844 12.6797 20.5109 12.6797 20.1635C12.6797 19.8162 12.8202 19.4831 13.0703 19.2375L21.0615 11.3901Z" fill="#65CDF0"/>
</svg>
