<svg width="16" height="22" viewBox="0 0 16 22" fill="none" xmlns="http://www.w3.org/2000/svg">
<path d="M9.33333 5.84375V0H1C0.445833 0 0 0.459766 0 1.03125V20.9688C0 21.5402 0.445833 22 1 22H15C15.5542 22 16 21.5402 16 20.9688V6.875H10.3333C9.78333 6.875 9.33333 6.41094 9.33333 5.84375ZM12.0492 15.1254H9.33333V18.5629C9.33333 18.9428 9.035 19.2504 8.66667 19.2504H7.33333C6.965 19.2504 6.66667 18.9428 6.66667 18.5629V15.1254H3.95083C3.35583 15.1254 3.05875 14.3825 3.48125 13.9498L7.49875 9.8377C7.77583 9.55367 8.22333 9.55367 8.50042 9.8377L12.5179 13.9498C12.9408 14.3825 12.6442 15.1254 12.0492 15.1254ZM15.7083 4.51172L11.6292 0.300781C11.4417 0.107422 11.1875 0 10.9208 0H10.6667V5.5H16V5.23789C16 4.96719 15.8958 4.70508 15.7083 4.51172Z" fill="#6E7191"/>
</svg>
