<svg width="13" height="14" viewBox="0 0 13 14" fill="none" xmlns="http://www.w3.org/2000/svg">
<path d="M6.18738 0.94519C3.71243 0.94519 1.54684 2.49204 0.464054 4.65762C0.154685 5.43104 0 6.20446 0 7.13257C0 10.5356 2.78432 13.3199 6.18738 13.3199C6.34206 13.3199 6.65143 13.3199 6.80612 13.3199C9.8998 13.0106 12.3748 10.3809 12.3748 7.13257C12.3748 3.72951 9.59044 0.94519 6.18738 0.94519ZM9.8998 5.43104L4.79522 10.5356L2.47495 8.21536C2.16558 7.90599 2.16558 7.44194 2.47495 7.13257C2.78432 6.8232 3.24837 6.8232 3.55774 7.13257L4.79522 8.37004L8.81701 4.34825C9.12638 4.03888 9.59044 4.03888 9.8998 4.34825C10.2092 4.65762 10.2092 5.12167 9.8998 5.43104Z" fill="#28A745"/>
</svg>
