<svg width="31" height="31" viewBox="0 0 31 31" fill="none" xmlns="http://www.w3.org/2000/svg">
<path d="M17.4248 0.578857C9.34714 0.578857 4.26157 3.23688 4.6039 5.50421C4.70265 6.15368 4.97421 8.7516 5.31818 10.9688C1.36 12.5283 0.0482829 15.0577 0.224385 17.1197C0.433404 19.559 2.596 22.1703 7.34747 22.621C10.0598 22.8782 13.3234 21.3688 15.4383 18.7893C15.1823 18.3468 15.0769 17.8311 15.1384 17.3219C15.1999 16.8126 15.4249 16.338 15.7786 15.9713C16.1323 15.6046 16.5952 15.3661 17.0958 15.2927C17.5963 15.2193 18.1068 15.315 18.5484 15.5651C18.9901 15.8151 19.3383 16.2056 19.5395 16.6764C19.7407 17.1472 19.7835 17.672 19.6615 18.1699C19.5396 18.6678 19.2594 19.1112 18.8644 19.4317C18.4694 19.7521 17.9815 19.9318 17.4758 19.943C14.9594 23.2371 11.1263 25.2256 7.4956 24.9936C7.57953 25.5345 7.6108 26.5747 7.65359 26.8518C7.80172 27.8185 11.5163 30.6252 17.4248 30.6318C23.3333 30.6252 27.0479 27.8185 27.1976 26.8535C27.3425 25.8901 29.8984 7.80493 30.2457 5.50421C30.588 3.23688 25.5008 0.578857 17.4248 0.578857ZM2.51865 16.916C2.42813 15.8424 3.2675 14.4149 5.6852 13.3447L6.74346 20.1467C4.10357 19.6241 2.63221 18.2283 2.51865 16.916ZM17.4248 8.96698C11.5163 8.96364 7.32443 6.73972 7.32443 5.90825C7.32114 5.08346 11.5163 2.91965 17.4248 2.92299C23.3333 2.91965 27.5285 5.08346 27.5252 5.90825C27.5252 6.73972 23.3333 8.96364 17.4248 8.96698Z" fill="white"/>
<path d="M21.1157 27.0257C20.759 27.0257 20.4104 26.9199 20.1139 26.7218C19.8174 26.5236 19.5862 26.242 19.4498 25.9125C19.3133 25.583 19.2776 25.2205 19.3471 24.8707C19.4167 24.5209 19.5885 24.1996 19.8406 23.9475C20.0928 23.6953 20.4141 23.5235 20.7639 23.454C21.1137 23.3844 21.4762 23.4201 21.8057 23.5566C22.1352 23.693 22.4168 23.9242 22.615 24.2207C22.8131 24.5172 22.9189 24.8659 22.9189 25.2225C22.9214 25.46 22.8766 25.6956 22.7868 25.9156C22.6971 26.1355 22.5644 26.3353 22.3965 26.5033C22.2285 26.6712 22.0287 26.8039 21.8088 26.8937C21.5888 26.9834 21.3532 27.0282 21.1157 27.0257ZM21.1157 24.0204C20.9568 24.0168 20.7989 24.0454 20.6514 24.1045C20.5039 24.1636 20.37 24.2521 20.2576 24.3644C20.1452 24.4768 20.0568 24.6107 19.9977 24.7582C19.9386 24.9057 19.9099 25.0636 19.9136 25.2225C19.9099 25.3813 19.9386 25.5393 19.9977 25.6868C20.0568 25.8342 20.1452 25.9682 20.2576 26.0806C20.37 26.1929 20.5039 26.2813 20.6514 26.3405C20.7989 26.3996 20.9568 26.4282 21.1157 26.4246C21.2745 26.4282 21.4325 26.3996 21.58 26.3405C21.7274 26.2813 21.8614 26.1929 21.9738 26.0806C22.0861 25.9682 22.1745 25.8342 22.2337 25.6868C22.2928 25.5393 22.3214 25.3813 22.3178 25.2225C22.3214 25.0636 22.2928 24.9057 22.2337 24.7582C22.1745 24.6107 22.0861 24.4768 21.9738 24.3644C21.8614 24.2521 21.7274 24.1636 21.58 24.1045C21.4325 24.0454 21.2745 24.0168 21.1157 24.0204Z" fill="#6C757D"/>
<path d="M25.1146 23.7331L24.4053 22.5046C24.3359 22.3841 24.2268 22.2915 24.0967 22.2425C23.9666 22.1935 23.8235 22.1911 23.6919 22.2359L22.9604 22.4832C22.8343 22.3984 22.7026 22.3222 22.5661 22.2554L22.4149 21.4984C22.3877 21.3621 22.314 21.2394 22.2065 21.1513C22.099 21.0632 21.9643 21.0151 21.8253 21.0151H20.4068C20.2678 21.0151 20.133 21.0632 20.0255 21.1513C19.918 21.2394 19.8444 21.3621 19.8171 21.4984L19.666 22.2554C19.5279 22.3215 19.3947 22.3971 19.2672 22.4817L18.5399 22.2359C18.4083 22.1913 18.2654 22.1937 18.1354 22.2427C18.0054 22.2917 17.8964 22.3842 17.827 22.5046L17.1178 23.7331C17.0483 23.8534 17.0226 23.9941 17.0452 24.1312C17.0677 24.2683 17.137 24.3933 17.2413 24.4851L17.8216 24.9951C17.8165 25.0708 17.8102 25.1459 17.8102 25.2226C17.8102 25.3001 17.8132 25.3767 17.8186 25.4528L17.2416 25.9601C17.1372 26.0517 17.0678 26.1767 17.0451 26.3138C17.0225 26.4509 17.0481 26.5916 17.1175 26.712L17.8267 27.9405C17.8961 28.0611 18.0052 28.1538 18.1353 28.2028C18.2654 28.2519 18.4085 28.2542 18.5402 28.2095L19.2717 27.9619C19.3977 28.0469 19.5294 28.1231 19.666 28.19L19.8171 28.9467C19.8444 29.083 19.918 29.2057 20.0255 29.2938C20.133 29.3819 20.2678 29.43 20.4068 29.43H21.7171V28.8289H20.4068L20.1934 27.762C19.8982 27.6524 19.6242 27.4926 19.3835 27.2896L18.3475 27.64L17.6383 26.4114L18.4572 25.6917C18.4012 25.3809 18.4005 25.0627 18.4551 24.7516L17.6383 24.0337L18.3475 22.8051L19.3775 23.1537C19.6199 22.9505 19.8961 22.7912 20.1934 22.6831L20.4068 21.6162H21.8253L22.0387 22.6831C22.3338 22.7927 22.6078 22.9526 22.8486 23.1555L23.8845 22.8051L24.5938 24.0337L23.7529 24.7706L24.149 25.2226L24.9905 24.4851C25.0949 24.3934 25.1643 24.2684 25.1869 24.1313C25.2095 23.9942 25.184 23.8535 25.1146 23.7331Z" fill="#6C757D"/>
<path d="M23.2217 28.2817L22.4433 27.5033L22.0195 27.9271L23.2217 29.1292L25.3254 27.0255L24.9016 26.6017L23.2217 28.2817Z" fill="#333333" fill-opacity="0.8"/>
</svg>
