<svg width="19" height="19" viewBox="0 0 19 19" fill="none" xmlns="http://www.w3.org/2000/svg">
<path d="M9.49527 0C4.22012 0 0 4.22012 0 9.49527C0 14.7704 4.22012 18.9905 9.49527 18.9905C14.7704 18.9905 18.9905 14.7704 18.9905 9.49527C18.9905 4.22012 14.6385 0 9.49527 0ZM14.3748 9.75903C14.111 10.0228 13.7154 10.0228 13.4516 9.75903L10.1547 6.46206V14.111C10.1547 14.5067 9.8909 14.7704 9.49527 14.7704C9.09963 14.7704 8.83587 14.5067 8.83587 14.111V6.46206L5.40703 9.75903C5.14327 10.0228 4.74763 10.0228 4.48388 9.75903C4.22012 9.49527 4.22012 9.09963 4.48388 8.83587L8.96775 4.352C9.23151 4.08824 9.62715 4.08824 9.89091 4.352L14.3748 8.83587C14.6385 9.09963 14.6385 9.49527 14.3748 9.75903Z" fill="#F7B923"/>
</svg>
