<svg width="20" height="20" viewBox="0 0 20 20" fill="none" xmlns="http://www.w3.org/2000/svg">
<path d="M10.4774 19.4417C15.7525 19.4417 19.9727 15.2215 19.9727 9.94638C19.9727 4.67123 15.7525 0.451113 10.4774 0.451114C5.20224 0.451114 0.982117 4.67123 0.982118 9.94638C0.982118 15.2215 5.33412 19.4417 10.4774 19.4417ZM5.59787 9.68263C5.86163 9.41887 6.25727 9.41887 6.52102 9.68263L9.81799 12.9796L9.81799 5.33063C9.81799 4.93499 10.0818 4.67123 10.4774 4.67123C10.873 4.67123 11.1368 4.93499 11.1368 5.33063L11.1368 12.9796L14.5656 9.68262C14.8294 9.41887 15.225 9.41887 15.4888 9.68262C15.7525 9.94638 15.7525 10.342 15.4888 10.6058L11.0049 15.0897C10.7411 15.3534 10.3455 15.3534 10.0818 15.0897L5.59787 10.6058C5.33412 10.342 5.33412 9.94638 5.59787 9.68263Z" fill="#EE2E7E"/>
</svg>
