<svg width="1283" height="189" viewBox="0 0 1283 189" fill="none" xmlns="http://www.w3.org/2000/svg">
<path d="M369.744 39.4415C370.078 39.5956 370.329 39.8424 370.45 40.1349C370.572 40.4275 370.555 40.7455 370.402 41.0287L370.32 41.1606L366.783 46.0649C365.666 47.6128 363.844 48.7548 361.699 49.252C359.555 49.7491 357.253 49.5628 355.275 48.732L354.971 48.5984L345.093 44.0333C344.305 43.6694 343.7 43.0982 343.379 42.4171C343.059 41.7359 343.043 40.9869 343.336 40.2977L346.531 41.7745L346.595 41.817L346.665 41.8536L356.543 46.4187C357.759 46.9805 359.197 47.1492 360.563 46.8901C361.929 46.631 363.119 45.9638 363.891 45.025L364.05 44.8195L367.597 39.9021C367.805 39.6131 368.149 39.4021 368.551 39.3158C368.954 39.2294 369.383 39.2746 369.744 39.4415ZM367.234 35.3561C367.568 35.5103 367.819 35.7571 367.94 36.0496C368.061 36.3422 368.044 36.6602 367.892 36.9433L367.81 37.0752L362.7 44.1593C362.201 44.8511 361.392 45.3652 360.437 45.5972C359.483 45.8292 358.453 45.7618 357.558 45.4086L357.33 45.312L343.715 39.0197C342.85 38.6204 342.208 37.9729 341.918 37.2086C341.629 36.4443 341.713 35.6203 342.154 34.9038L342.276 34.722L347.378 27.6488C347.579 27.3714 347.904 27.166 348.288 27.0743C348.672 26.9827 349.085 27.0118 349.443 27.1557C349.801 27.2996 350.077 27.5475 350.214 27.8487C350.352 28.1499 350.34 28.4817 350.182 28.7764L350.101 28.9072L344.999 35.9804C344.907 36.1079 344.874 36.2572 344.905 36.4024C344.936 36.5475 345.03 36.6792 345.171 36.7746L345.287 36.84L358.902 43.1322C359.062 43.2059 359.248 43.2325 359.429 43.2075C359.611 43.1824 359.775 43.1072 359.894 42.995L359.976 42.9019L365.086 35.8168C365.295 35.5277 365.638 35.3168 366.041 35.2304C366.444 35.144 366.873 35.1893 367.234 35.3561ZM355.561 24.5937L363.074 22.9796C363.444 22.9001 363.837 22.9313 364.18 23.0673C364.523 23.2034 364.792 23.435 364.937 23.7186L365 23.87L367.017 29.888C367.12 30.197 367.072 30.5257 366.883 30.8073C366.694 31.089 366.378 31.3025 365.999 31.4044C365.621 31.5064 365.208 31.4892 364.844 31.3563C364.481 31.2234 364.195 30.9848 364.043 30.689L363.98 30.5393L362.948 27.4581L355.999 37.0924C355.806 37.3594 355.498 37.5604 355.133 37.6575C354.767 37.7546 354.37 37.7409 354.016 37.6191L353.851 37.5531C353.518 37.3989 353.267 37.1522 353.145 36.8596C353.024 36.5671 353.041 36.249 353.193 35.9659L353.276 35.834L360.227 26.1964L356.375 27.0245C356.005 27.1038 355.612 27.0723 355.269 26.9361C354.926 26.7998 354.657 26.5681 354.512 26.2843L354.45 26.1347C354.351 25.8387 354.39 25.524 354.56 25.2495C354.73 24.975 355.02 24.7597 355.374 24.6439L355.561 24.5937Z" fill="#FDEABD"/>
<path d="M969.049 32.9979L968.59 26.2348L964.595 29.4327L969.049 32.9979ZM968.217 34.8053L961.327 29.2907L967.507 24.3442L957.173 16.0723L938.634 30.912L955.857 44.6984L968.217 34.8053ZM957.857 14.1464L970.774 24.4861L971.484 34.9473L956.807 46.6954C956.602 46.8594 956.315 46.944 956.009 46.9307C955.702 46.9174 955.402 46.8072 955.173 46.6244L936.228 31.4594C936 31.2765 935.862 31.0361 935.845 30.7908C935.829 30.5456 935.934 30.3157 936.139 30.1517L956.223 14.0754C956.428 13.9114 956.715 13.8267 957.022 13.84C957.328 13.8533 957.629 13.9635 957.857 14.1464ZM950.665 28.1754L959.276 35.0686L957.731 36.3053L949.12 29.4121L950.665 28.1754Z" fill="#65CDF0" fill-opacity="0.2"/>
<path d="M439.699 76.7482C439.543 76.5314 439.5 76.2738 439.581 76.032C439.662 75.7902 439.86 75.584 440.131 75.4589C440.401 75.3337 440.723 75.2998 441.025 75.3646C441.327 75.4294 441.585 75.5876 441.741 75.8043C441.898 76.0211 441.94 76.2788 441.859 76.5205C441.778 76.7623 441.581 76.9685 441.31 77.0937C441.039 77.2188 440.717 77.2527 440.415 77.1879C440.113 77.1232 439.855 76.965 439.699 76.7482ZM442.489 78.7284C442.218 78.8536 442.02 79.0598 441.939 79.3015C441.859 79.5433 441.901 79.801 442.057 80.0178C442.214 80.2345 442.471 80.3927 442.773 80.4575C443.075 80.5223 443.397 80.4884 443.668 80.3632C443.939 80.2381 444.136 80.0319 444.217 79.7901C444.298 79.5483 444.256 79.2907 444.1 79.0739C443.943 78.8571 443.686 78.6989 443.384 78.6342C443.082 78.5694 442.76 78.6033 442.489 78.7284ZM444.416 83.2873C444.259 83.0705 444.217 82.8129 444.298 82.5711C444.379 82.3293 444.576 82.1232 444.847 81.998C445.118 81.8728 445.44 81.8389 445.742 81.9037C446.044 81.9685 446.302 82.1267 446.458 82.3435C446.614 82.5603 446.657 82.8179 446.576 83.0597C446.495 83.3015 446.297 83.5076 446.026 83.6328C445.755 83.758 445.434 83.7919 445.132 83.7271C444.829 83.6623 444.572 83.5041 444.416 83.2873ZM444.215 73.5712C443.944 73.6963 443.747 73.9025 443.666 74.1443C443.585 74.3861 443.627 74.6437 443.784 74.8605C443.94 75.0773 444.198 75.2355 444.5 75.3003C444.802 75.365 445.124 75.3311 445.394 75.206L452.883 71.7452C453.154 71.62 453.351 71.4139 453.432 71.1721C453.513 70.9303 453.471 70.6727 453.314 70.4559C453.158 70.2391 452.901 70.0809 452.598 70.0161C452.296 69.9513 451.975 69.9853 451.704 70.1104L444.215 73.5712ZM446.142 78.1301C445.986 77.9133 445.943 77.6557 446.024 77.4139C446.105 77.1721 446.303 76.9659 446.574 76.8408L454.062 73.38C454.333 73.2548 454.655 73.2209 454.957 73.2857C455.259 73.3505 455.516 73.5087 455.673 73.7255C455.829 73.9423 455.871 74.1999 455.791 74.4417C455.71 74.6835 455.512 74.8896 455.241 75.0148L447.753 78.4755C447.482 78.6007 447.16 78.6346 446.858 78.5698C446.556 78.505 446.298 78.3469 446.142 78.1301ZM448.932 80.1103C448.661 80.2355 448.463 80.4416 448.382 80.6834C448.301 80.9252 448.344 81.1829 448.5 81.3996C448.657 81.6164 448.914 81.7746 449.216 81.8394C449.518 81.9042 449.84 81.8703 450.111 81.7451L457.599 78.2843C457.87 78.1592 458.068 77.953 458.149 77.7112C458.23 77.4694 458.187 77.2118 458.031 76.995C457.875 76.7782 457.617 76.6201 457.315 76.5553C457.013 76.4905 456.691 76.5244 456.42 76.6496L448.932 80.1103ZM453.586 64.7562L441.068 62.0723C441.036 62.0664 441.003 62.0621 440.97 62.0596C440.946 62.057 440.921 62.0536 440.897 62.0495C440.753 62.0221 440.606 62.0026 440.458 61.9912C440.41 61.9893 440.362 61.9901 440.314 61.9935L440.23 61.9976L440.139 61.9974C440.041 61.9976 439.941 61.9974 439.845 62.0071C439.511 62.0457 439.187 62.1275 438.887 62.2493C438.859 62.2604 438.83 62.2702 438.801 62.2788C438.76 62.2913 438.721 62.306 438.684 62.3228L430.28 66.2064C429.558 66.5401 429.031 67.0899 428.815 67.7347C428.599 68.3795 428.712 69.0665 429.129 69.6446L441.707 87.0823C442.124 87.6604 442.81 88.0822 443.616 88.255C444.421 88.4277 445.28 88.3373 446.002 88.0035L462.34 80.4528C463.063 80.119 463.59 79.5693 463.805 78.9245C464.021 78.2797 463.908 77.5927 463.491 77.0146L455.495 65.9286C455.078 65.3506 454.391 64.9289 453.586 64.7562ZM461.449 77.9584C461.553 78.103 461.581 78.2747 461.527 78.4359C461.474 78.5971 461.342 78.7345 461.161 78.818L444.823 86.3687C444.642 86.4522 444.428 86.4748 444.226 86.4316C444.025 86.3884 443.853 86.2829 443.749 86.1384L431.171 68.7007C431.067 68.5562 431.039 68.3844 431.093 68.2232C431.147 68.062 431.279 67.9246 431.459 67.8412L439.628 64.0658L443.166 68.9702C443.583 69.5482 444.27 69.9701 445.075 70.1428C445.881 70.3156 446.739 70.2252 447.461 69.8914L453.588 67.0599L461.449 77.9584ZM442.552 64.3437L450.881 66.1311L446.282 68.2566C446.101 68.3401 445.887 68.3627 445.686 68.3195C445.484 68.2763 445.312 68.1708 445.208 68.0263L442.552 64.3437Z" fill="#65CDF0" fill-opacity="0.2"/>
<path fill-rule="evenodd" clip-rule="evenodd" d="M918.499 115.448C919.206 113.49 920.748 111.878 922.847 110.904C927.132 108.931 932.742 110.135 935.777 113.621C938.544 112.773 941.891 113.756 943.571 116.081C945.414 118.633 944.497 121.765 941.605 123.097L937.325 125.068C937.113 125.165 936.857 125.184 936.611 125.119C936.365 125.055 936.151 124.913 936.015 124.724C935.879 124.536 935.832 124.317 935.885 124.114C935.938 123.912 936.087 123.744 936.298 123.647L940.58 121.675C942.637 120.728 943.225 118.541 941.977 116.814C940.729 115.086 938.065 114.397 936.006 115.345L935.209 115.712L934.696 115.002C932.418 111.846 927.582 110.617 923.873 112.325C922.157 113.124 920.896 114.443 920.317 116.046C919.78 117.528 919.956 118.935 920.59 119.812L921.05 120.449L920.391 120.845C918.323 122.087 917.805 124.498 919.207 126.439C920.713 128.523 923.92 129.347 926.391 128.209L929.926 126.582C930.137 126.484 930.394 126.466 930.639 126.53C930.885 126.595 931.1 126.737 931.236 126.925C931.372 127.114 931.418 127.333 931.365 127.535C931.312 127.737 931.164 127.905 930.952 128.003L927.417 129.63C924.115 131.151 919.717 130.082 917.614 127.172C915.804 124.667 916.322 121.664 918.613 119.908C917.955 118.577 917.956 116.948 918.499 115.448V115.448Z" fill="#F7B923" fill-opacity="0.3"/>
<path fill-rule="evenodd" clip-rule="evenodd" d="M926.523 117.039C926.549 116.939 926.599 116.846 926.67 116.766C926.741 116.685 926.831 116.619 926.935 116.571C927.04 116.523 927.157 116.494 927.279 116.485C927.402 116.476 927.527 116.488 927.649 116.52L935.494 118.576C935.74 118.641 935.954 118.783 936.09 118.971C936.226 119.159 936.273 119.379 936.22 119.581C936.167 119.783 936.019 119.951 935.808 120.048C935.596 120.145 935.34 120.164 935.094 120.1L929.481 118.627L938.496 131.099C938.632 131.287 938.678 131.506 938.625 131.708C938.572 131.909 938.424 132.077 938.213 132.175C938.003 132.272 937.746 132.29 937.501 132.226C937.256 132.162 937.042 132.02 936.906 131.832L927.891 119.36L926.68 123.978C926.627 124.18 926.479 124.348 926.268 124.445C926.057 124.543 925.8 124.561 925.555 124.497C925.309 124.433 925.095 124.291 924.959 124.102C924.823 123.914 924.776 123.695 924.829 123.493L926.523 117.039Z" fill="#F7B923" fill-opacity="0.3"/>
<path d="M399.343 121.382C397.614 118.985 393.762 118.149 390.753 119.54C387.744 120.93 386.721 124.018 388.451 126.416C390.188 128.825 394.032 129.649 397.041 128.259C400.05 126.868 401.08 123.791 399.343 121.382V121.382ZM388.458 133.373C388.044 133.945 387.775 134.576 387.666 135.232C387.557 135.887 387.61 136.553 387.823 137.191C388.035 137.83 388.403 138.429 388.905 138.953C389.408 139.478 390.034 139.918 390.749 140.249C392.195 140.918 393.913 141.1 395.526 140.755C397.14 140.41 398.516 139.566 399.352 138.409C399.765 137.836 400.032 137.203 400.139 136.547C400.247 135.891 400.191 135.225 399.976 134.586C399.762 133.947 399.392 133.348 398.888 132.823C398.384 132.299 397.756 131.859 397.04 131.529C394.041 130.139 390.194 130.973 388.458 133.373V133.373ZM406.868 134.936C410.347 134.926 413.158 132.683 413.168 129.903C413.156 127.118 410.353 124.868 406.866 124.866C403.401 124.869 400.576 127.119 400.58 129.893C400.579 130.554 400.741 131.21 401.057 131.821C401.372 132.433 401.835 132.988 402.419 133.457C403.003 133.925 403.696 134.297 404.46 134.55C405.223 134.804 406.041 134.935 406.868 134.936Z" fill="#EE2E7E" fill-opacity="0.2"/>
<path d="M859.605 63.5288L860.084 62.0967C860.128 61.9654 860.039 61.8311 859.885 61.7982L846.496 58.9264C846.342 58.8935 846.181 58.974 846.137 59.1052L845.657 60.5373C845.613 60.6686 845.703 60.803 845.856 60.8359L859.246 63.7077C859.399 63.7406 859.561 63.6601 859.605 63.5288ZM845.057 63.2227C844.904 63.1898 844.743 63.2703 844.699 63.4016L844.219 64.8337C844.175 64.965 844.265 65.0993 844.418 65.1322L850.834 66.5083C850.987 66.5412 851.149 66.4607 851.193 66.3294L851.672 64.8973C851.716 64.766 851.627 64.6317 851.473 64.5988L845.057 63.2227ZM857.009 69.4956C852.85 68.6034 848.512 70.7653 847.321 74.3247C846.129 77.8841 848.535 81.4924 852.695 82.3846C856.855 83.2768 861.192 81.1149 862.384 77.5555C863.575 73.9961 861.169 70.3878 857.009 69.4956ZM857.527 79.9514C856.24 80.593 854.75 80.7788 853.334 80.4751C851.918 80.1715 850.744 79.4144 850.03 78.3435C849.316 77.2726 849.147 76.0147 849.552 74.8034C849.958 73.592 850.89 72.5705 852.177 71.9288C853.465 71.2872 854.955 71.1015 856.37 71.4051C857.786 71.7087 858.96 72.4658 859.674 73.5367C860.388 74.6077 860.558 75.8655 860.152 77.0769C859.747 78.2882 858.814 79.3098 857.527 79.9514ZM858.715 74.3382L857.17 74.0069C857.079 73.9875 856.984 74.0053 856.91 74.0567L853.819 76.2014L853.332 75.0769C853.317 75.0406 853.291 75.0083 853.257 74.9827C853.224 74.9572 853.183 74.939 853.139 74.9298L851.601 74.6C851.374 74.5514 851.168 74.7438 851.247 74.9303L852.801 78.5285C852.869 78.6837 853.095 78.7323 853.251 78.625L858.811 74.765C859 74.636 858.941 74.3868 858.715 74.3382ZM845.564 77.7853L837.475 76.0503L844.506 55.046L864.032 59.234L860.597 69.4975C860.553 69.6288 860.642 69.7631 860.796 69.796L862.748 70.2148C862.902 70.2477 863.063 70.1672 863.107 70.036L866.942 58.5791C867.119 58.051 866.763 57.5174 866.146 57.385L843.83 52.5987C843.213 52.4663 842.572 52.786 842.395 53.3141L834.565 76.7053C834.388 77.2334 834.744 77.767 835.361 77.8993L844.845 79.9335C844.999 79.9664 845.16 79.8859 845.204 79.7547L845.763 78.0839C845.807 77.9526 845.718 77.8183 845.564 77.7853Z" fill="#EE2E7E" fill-opacity="0.2"/>
</svg>
