<svg width="44" height="40" viewBox="0 0 44 40" fill="none" xmlns="http://www.w3.org/2000/svg">
<path fill-rule="evenodd" clip-rule="evenodd" d="M12.4317 3.51042C15.0941 1.25594 18.4897 0.0108256 22.0052 0C29.1706 0 35.1187 5.23163 35.766 11.9778C40.0067 12.5664 43.315 16.0532 43.315 20.3327C43.315 25.0307 39.3248 28.7739 34.4901 28.7739L27.3326 28.7739C26.9794 28.7739 26.6406 28.6361 26.3909 28.3909C26.1411 28.1456 26.0008 27.8129 26.0008 27.466C26.0008 27.1192 26.1411 26.7865 26.3909 26.5412C26.6406 26.2959 26.9794 26.1581 27.3326 26.1581L34.4928 26.1581C37.9316 26.1581 40.6513 23.5109 40.6513 20.3327C40.6513 17.1519 37.9343 14.5047 34.4901 14.5047H33.1582V13.1968C33.1609 7.38967 28.2064 2.61581 22.0052 2.61581C19.128 2.6271 16.3496 3.64758 14.1711 5.49321C12.1547 7.19872 11.0999 9.25475 11.0999 10.8687V12.0406L9.91449 12.1688C6.19326 12.569 3.35905 15.5693 3.35905 19.1425C3.35905 22.9799 6.63544 26.1581 10.7669 26.1581H16.6777C17.0309 26.1581 17.3697 26.2959 17.6195 26.5412C17.8693 26.7865 18.0096 27.1192 18.0096 27.466C18.0096 27.8129 17.8693 28.1456 17.6195 28.3909C17.3697 28.6361 17.0309 28.7739 16.6777 28.7739H10.7669C5.24497 28.7739 0.695312 24.4997 0.695312 19.1425C0.695312 14.5308 4.0676 10.7118 8.53202 9.7439C8.91293 7.48646 10.3913 5.23686 12.4317 3.51042Z" fill="#65CDF0"/>
<path fill-rule="evenodd" clip-rule="evenodd" d="M21.0634 10.8441C21.1871 10.7223 21.3341 10.6256 21.4959 10.5597C21.6577 10.4938 21.8312 10.4598 22.0064 10.4598C22.1816 10.4598 22.355 10.4938 22.5169 10.5597C22.6787 10.6256 22.8256 10.7223 22.9494 10.8441L30.9406 18.6915C31.1906 18.9371 31.3311 19.2702 31.3311 19.6175C31.3311 19.9648 31.1906 20.2979 30.9406 20.5435C30.6905 20.7891 30.3513 20.9271 29.9976 20.9271C29.6439 20.9271 29.3047 20.7891 29.0546 20.5435L23.3383 14.9274L23.3383 37.9282C23.3383 38.2751 23.1979 38.6078 22.9482 38.853C22.6984 39.0983 22.3596 39.2361 22.0064 39.2361C21.6532 39.2361 21.3144 39.0983 21.0646 38.853C20.8148 38.6078 20.6745 38.2751 20.6745 37.9282L20.6745 14.9274L14.9582 20.5435C14.7081 20.7891 14.3689 20.9271 14.0152 20.9271C13.6615 20.9271 13.3223 20.7891 13.0722 20.5435C12.8221 20.2979 12.6816 19.9648 12.6816 19.6175C12.6816 19.2702 12.8221 18.9371 13.0722 18.6915L21.0634 10.8441Z" fill="#65CDF0"/>
</svg>
