<svg width="22" height="24" viewBox="0 0 22 24" fill="none" xmlns="http://www.w3.org/2000/svg">
<path d="M14.5715 21.5861L12.3515 19.3661L11.1429 20.5746L14.5715 24.0032L21.4286 17.1461L20.22 15.9375L14.5715 21.5861Z" fill="#52C41A"/>
<path d="M17.1429 2.57143H14.5714V1.71429C14.5701 1.26005 14.389 0.824799 14.0678 0.503601C13.7466 0.182404 13.3114 0.00135662 12.8571 0H6C5.54576 0.00135662 5.11051 0.182404 4.78932 0.503601C4.46812 0.824799 4.28707 1.26005 4.28571 1.71429V2.57143H1.71429C1.26005 2.57279 0.824799 2.75383 0.503601 3.07503C0.182404 3.39623 0.00135662 3.83147 0 4.28571V22.2857C0.00135662 22.74 0.182404 23.1752 0.503601 23.4964C0.824799 23.8176 1.26005 23.9986 1.71429 24H9.42857V22.2857H1.71429V4.28571H4.28571V6.85714H14.5714V4.28571H17.1429V13.7143H18.8571V4.28571C18.8558 3.83147 18.6747 3.39623 18.3535 3.07503C18.0323 2.75383 17.5971 2.57279 17.1429 2.57143ZM12.8571 5.14286H6V1.71429H12.8571V5.14286Z" fill="#52C41A"/>
</svg>
