<svg width="22" height="24" viewBox="0 0 22 24" fill="none" xmlns="http://www.w3.org/2000/svg">
<path d="M15.2727 21.8182V19.6364H19.6364V8.72727H4.36364V13.0909H2.18182V4.36364C2.18182 3.76364 2.39527 3.25018 2.82218 2.82327C3.24982 2.39564 3.76364 2.18182 4.36364 2.18182H5.45455V0H7.63636V2.18182H16.3636V0H18.5455V2.18182H19.6364C20.2364 2.18182 20.7502 2.39564 21.1778 2.82327C21.6047 3.25018 21.8182 3.76364 21.8182 4.36364V19.6364C21.8182 20.2364 21.6047 20.7502 21.1778 21.1778C20.7502 21.6047 20.2364 21.8182 19.6364 21.8182H15.2727ZM7.63636 24L6.10909 22.4727L8.91818 19.6364H0V17.4545H8.91818L6.10909 14.6182L7.63636 13.0909L13.0909 18.5455L7.63636 24Z" fill="#F7B923"/>
</svg>
