<svg width="25" height="17" viewBox="0 0 25 17" fill="none" xmlns="http://www.w3.org/2000/svg">
<path d="M12.2683 13.3167C13.6094 13.3167 14.7475 12.8492 15.6825 11.9142C16.6175 10.9792 17.085 9.84111 17.085 8.5C17.085 7.15889 16.6175 6.02083 15.6825 5.08583C14.7475 4.15083 13.6094 3.68333 12.2683 3.68333C10.9272 3.68333 9.78917 4.15083 8.85417 5.08583C7.91917 6.02083 7.45167 7.15889 7.45167 8.5C7.45167 9.84111 7.91917 10.9792 8.85417 11.9142C9.78917 12.8492 10.9272 13.3167 12.2683 13.3167ZM12.2683 11.6733C11.3806 11.6733 10.6297 11.3664 10.0158 10.7525C9.40195 10.1386 9.095 9.38778 9.095 8.5C9.095 7.61222 9.40195 6.86139 10.0158 6.2475C10.6297 5.63361 11.3806 5.32667 12.2683 5.32667C13.1561 5.32667 13.9069 5.63361 14.5208 6.2475C15.1347 6.86139 15.4417 7.61222 15.4417 8.5C15.4417 9.38778 15.1347 10.1386 14.5208 10.7525C13.9069 11.3664 13.1561 11.6733 12.2683 11.6733ZM12.2683 17C9.66167 17 7.28639 16.2917 5.1425 14.875C2.99861 13.4583 1.34111 11.5883 0.17 9.265C0.113333 9.17056 0.0708334 9.05722 0.0425 8.925C0.0141667 8.79278 0 8.65111 0 8.5C0 8.34889 0.0141667 8.20722 0.0425 8.075C0.0708334 7.94278 0.113333 7.82944 0.17 7.735C1.34111 5.41167 2.99861 3.54167 5.1425 2.125C7.28639 0.708333 9.66167 0 12.2683 0C14.875 0 17.2503 0.708333 19.3942 2.125C21.5381 3.54167 23.1956 5.41167 24.3667 7.735C24.4233 7.82944 24.4658 7.94278 24.4942 8.075C24.5225 8.20722 24.5367 8.34889 24.5367 8.5C24.5367 8.65111 24.5225 8.79278 24.4942 8.925C24.4658 9.05722 24.4233 9.17056 24.3667 9.265C23.1956 11.5883 21.5381 13.4583 19.3942 14.875C17.2503 16.2917 14.875 17 12.2683 17Z" fill="#65CDF0"/>
</svg>
