<svg width="22" height="22" viewBox="0 0 22 22" fill="none" xmlns="http://www.w3.org/2000/svg">
<path d="M2.09524 17.8095V6.28571H18.8571V9.73238C19.6114 9.96286 20.3238 10.2981 20.9524 10.7486V6.28571C20.9524 5.12286 20.02 4.19048 18.8571 4.19048H14.6667V2.09524C14.6667 0.932381 13.7343 0 12.5714 0H8.38095C7.2181 0 6.28571 0.932381 6.28571 2.09524V4.19048H2.09524C0.932381 4.19048 0.0104762 5.12286 0.0104762 6.28571L0 17.8095C0 18.9724 0.932381 19.9048 2.09524 19.9048H10.141C9.82667 19.2552 9.61714 18.5533 9.51238 17.8095H2.09524ZM8.38095 2.09524H12.5714V4.19048H8.38095V2.09524Z" fill="#4E132C"/>
<path d="M16.7619 11.5234C13.8705 11.5234 11.5238 13.8701 11.5238 16.7615C11.5238 19.653 13.8705 21.9996 16.7619 21.9996C19.6533 21.9996 22 19.653 22 16.7615C22 13.8701 19.6533 11.5234 16.7619 11.5234ZM18.4905 19.2234L16.2381 16.9711V13.6187H17.2857V16.5415L19.2238 18.4796L18.4905 19.2234Z" fill="#4E132C"/>
</svg>
