<svg width="40" height="40" viewBox="0 0 40 40" fill="none" xmlns="http://www.w3.org/2000/svg">
<path d="M13.345 3.975C10.964 4.63121 8.59913 5.34475 6.25251 6.115C6.03824 6.18441 5.84776 6.31261 5.70279 6.48499C5.55781 6.65736 5.46416 6.867 5.43251 7.09C4.04751 17.4825 7.24751 25.065 11.065 30.06C12.6813 32.196 14.6085 34.0777 16.7825 35.6425C17.6475 36.2525 18.4125 36.6925 19.015 36.975C19.315 37.1175 19.56 37.2125 19.7475 37.27C19.8295 37.2988 19.9141 37.3197 20 37.3325C20.0849 37.3187 20.1686 37.2978 20.25 37.27C20.44 37.2125 20.685 37.1175 20.985 36.975C21.585 36.6925 22.3525 36.25 23.2175 35.6425C25.3915 34.0777 27.3187 32.196 28.935 30.06C32.7525 25.0675 35.9525 17.4825 34.5675 7.09C34.5361 6.86689 34.4426 6.65712 34.2976 6.4847C34.1526 6.31227 33.9619 6.18415 33.7475 6.115C32.12 5.5825 29.3725 4.715 26.655 3.9775C23.88 3.225 21.3275 2.6675 20 2.6675C18.675 2.6675 16.12 3.225 13.345 3.9775V3.975ZM12.68 1.4C15.3925 0.6625 18.275 0 20 0C21.725 0 24.6075 0.6625 27.32 1.4C30.095 2.15 32.8925 3.0375 34.5375 3.575C35.2253 3.80213 35.835 4.21866 36.2967 4.77675C36.7584 5.33484 37.0533 6.01185 37.1475 6.73C38.6375 17.9225 35.18 26.2175 30.985 31.705C29.2061 34.0525 27.085 36.1196 24.6925 37.8375C23.8652 38.4319 22.9887 38.9547 22.0725 39.4C21.3725 39.73 20.62 40 20 40C19.38 40 18.63 39.73 17.9275 39.4C17.0113 38.9547 16.1348 38.432 15.3075 37.8375C12.9151 36.1196 10.794 34.0524 9.01501 31.705C4.82001 26.2175 1.36251 17.9225 2.85251 6.73C2.94673 6.01185 3.24162 5.33484 3.70331 4.77675C4.16499 4.21866 4.77474 3.80213 5.46251 3.575C7.85049 2.79202 10.257 2.06681 12.68 1.4Z" fill="#2639ED"/>
<path d="M27.1346 12.8653C27.251 12.9814 27.3434 13.1193 27.4064 13.2712C27.4694 13.4231 27.5019 13.5859 27.5019 13.7503C27.5019 13.9147 27.4694 14.0775 27.4064 14.2294C27.3434 14.3812 27.251 14.5192 27.1346 14.6353L19.6346 22.1353C19.5185 22.2517 19.3806 22.344 19.2287 22.4071C19.0768 22.4701 18.914 22.5025 18.7496 22.5025C18.5852 22.5025 18.4224 22.4701 18.2705 22.4071C18.1187 22.344 17.9807 22.2517 17.8646 22.1353L14.1146 18.3853C13.9984 18.2691 13.9062 18.1311 13.8433 17.9792C13.7804 17.8274 13.748 17.6646 13.748 17.5003C13.748 17.3359 13.7804 17.1732 13.8433 17.0213C13.9062 16.8695 13.9984 16.7315 14.1146 16.6153C14.2308 16.4991 14.3688 16.4069 14.5207 16.344C14.6725 16.2811 14.8353 16.2487 14.9996 16.2487C15.164 16.2487 15.3267 16.2811 15.4786 16.344C15.6304 16.4069 15.7684 16.4991 15.8846 16.6153L18.7496 19.4828L25.3646 12.8653C25.4807 12.7489 25.6187 12.6565 25.7705 12.5935C25.9224 12.5305 26.0852 12.498 26.2496 12.498C26.414 12.498 26.5768 12.5305 26.7287 12.5935C26.8806 12.6565 27.0185 12.7489 27.1346 12.8653Z" fill="#2639ED"/>
</svg>
