<svg width="25" height="32" viewBox="0 0 25 32" fill="none" xmlns="http://www.w3.org/2000/svg">
<path d="M7.57143 17.6667H17.4286M12.5 12.6667V22.6667M20.7143 31H4.28571C3.41429 31 2.57855 30.6488 1.96236 30.0237C1.34617 29.3986 1 28.5507 1 27.6667V4.33333C1 3.44928 1.34617 2.60143 1.96236 1.97631C2.57855 1.35119 3.41429 1 4.28571 1H13.4627C13.8984 1.00009 14.3162 1.17575 14.6242 1.48833L23.5186 10.5117C23.8268 10.8242 23.9999 11.248 24 11.69V27.6667C24 28.5507 23.6538 29.3986 23.0376 30.0237C22.4214 30.6488 21.5857 31 20.7143 31Z" stroke="#09AF42" stroke-width="1.5" stroke-linecap="round" stroke-linejoin="round"/>
</svg>
