<svg width="41" height="40" viewBox="0 0 41 40" fill="none" xmlns="http://www.w3.org/2000/svg">
<g clip-path="url(#clip0_9446_16050)">
<path d="M19.6148 23.3848L10.1348 32.8648C9.9597 33.0395 9.84034 33.2622 9.79184 33.5047C9.74335 33.7473 9.76789 33.9987 9.86238 34.2273C9.95686 34.4559 10.117 34.6513 10.3226 34.7888C10.5282 34.9263 10.77 34.9998 11.0173 34.9998H29.9823C30.2299 35.0003 30.472 34.9272 30.6779 34.7899C30.8839 34.6525 31.0445 34.4572 31.1393 34.2285C31.2341 33.9998 31.2588 33.7481 31.2104 33.5053C31.162 33.2626 31.0426 33.0396 30.8673 32.8648L21.3848 23.3848C21.2687 23.2684 21.1308 23.176 20.9789 23.113C20.827 23.05 20.6642 23.0176 20.4998 23.0176C20.3354 23.0176 20.1726 23.05 20.0207 23.113C19.8689 23.176 19.7309 23.2684 19.6148 23.3848Z" fill="#F21162"/>
<path d="M29.035 27.5H36.75C37.0815 27.5 37.3995 27.3683 37.6339 27.1339C37.8683 26.8995 38 26.5815 38 26.25V8.75C38 8.41848 37.8683 8.10054 37.6339 7.86612C37.3995 7.6317 37.0815 7.5 36.75 7.5H4.25C3.91848 7.5 3.60054 7.6317 3.36612 7.86612C3.1317 8.10054 3 8.41848 3 8.75V26.25C3 26.5815 3.1317 26.8995 3.36612 27.1339C3.60054 27.3683 3.91848 27.5 4.25 27.5H11.965L9.465 30H4.25C3.25544 30 2.30161 29.6049 1.59835 28.9017C0.895088 28.1984 0.5 27.2446 0.5 26.25L0.5 8.75C0.5 7.75544 0.895088 6.80161 1.59835 6.09835C2.30161 5.39509 3.25544 5 4.25 5H36.75C37.7446 5 38.6984 5.39509 39.4016 6.09835C40.1049 6.80161 40.5 7.75544 40.5 8.75V26.25C40.5 27.2446 40.1049 28.1984 39.4016 28.9017C38.6984 29.6049 37.7446 30 36.75 30H31.535L29.035 27.5Z" fill="#F21162"/>
</g>
<defs>
<clipPath id="clip0_9446_16050">
<rect width="40" height="40" fill="white" transform="translate(0.5)"/>
</clipPath>
</defs>
</svg>
