<svg width="26" height="32" viewBox="0 0 26 32" fill="none" xmlns="http://www.w3.org/2000/svg">
<path d="M17.8487 12.3807C19.1347 11.1305 19.8571 9.43478 19.8571 7.66667C19.8571 5.89856 19.1347 4.20286 17.8487 2.95262C16.5628 1.70238 14.8186 1 13 1C11.1814 1 9.43723 1.70238 8.15127 2.95262C6.8653 4.20286 6.14286 5.89856 6.14286 7.66667C6.14286 9.43478 6.8653 11.1305 8.15127 12.3807C9.43723 13.631 11.1814 14.3333 13 14.3333C14.8186 14.3333 16.5628 13.631 17.8487 12.3807Z" stroke="#6E00FA" stroke-width="2" stroke-linecap="round" stroke-linejoin="round"/>
<path d="M4.51472 22.7504C6.76515 20.5625 9.8174 19.3333 13 19.3333C16.1826 19.3333 19.2348 20.5625 21.4853 22.7504C23.7357 24.9383 25 27.9058 25 31H1C1 27.9058 2.26428 24.9383 4.51472 22.7504Z" stroke="#6E00FA" stroke-width="2" stroke-linecap="round" stroke-linejoin="round"/>
</svg>
