<svg width="25" height="25" viewBox="0 0 25 25" fill="none" xmlns="http://www.w3.org/2000/svg">
<path d="M20.1667 8.66667V12.5V8.66667ZM20.1667 12.5V16.3333V12.5ZM20.1667 12.5H24H20.1667ZM20.1667 12.5H16.3333H20.1667ZM13.7778 6.11111C13.7778 7.46666 13.2393 8.76669 12.2808 9.72521C11.3222 10.6837 10.0222 11.2222 8.66667 11.2222C7.31112 11.2222 6.01108 10.6837 5.05257 9.72521C4.09405 8.76669 3.55556 7.46666 3.55556 6.11111C3.55556 4.75556 4.09405 3.45553 5.05257 2.49701C6.01108 1.53849 7.31112 1 8.66667 1C10.0222 1 11.3222 1.53849 12.2808 2.49701C13.2393 3.45553 13.7778 4.75556 13.7778 6.11111V6.11111ZM1 22.7222C1 20.6889 1.80774 18.7388 3.24551 17.3011C4.68329 15.8633 6.63334 15.0556 8.66667 15.0556C10.7 15.0556 12.65 15.8633 14.0878 17.3011C15.5256 18.7388 16.3333 20.6889 16.3333 22.7222V24H1V22.7222Z" stroke="#FF4D4F" stroke-width="1.5" stroke-linecap="round" stroke-linejoin="round"/>
</svg>
