<svg width="100" height="100" viewBox="0 0 100 100" fill="none" xmlns="http://www.w3.org/2000/svg">
<path d="M46.8623 0H53.1117C53.372 0.0546818 53.6116 0.119778 53.8642 0.16144C56.9889 0.700446 60.2333 0.900953 63.2382 1.82794C82.9914 7.90022 94.9788 21.0837 99.2006 41.3785C99.5756 43.1856 99.7214 45.0396 99.9818 46.8701V53.1195C99.9116 53.3674 99.8576 53.6196 99.8203 53.8746C98.9428 64.8292 94.9276 74.4948 87.7174 82.7778C79.9656 91.6727 70.2323 97.1722 58.5981 99.2423C56.7753 99.5651 54.9526 99.763 53.1117 100H46.8623C46.6165 99.9286 46.3659 99.8746 46.1124 99.8386C40.7848 99.4428 35.6213 98.3022 30.7494 96.1332C14.2902 88.8136 4.24175 76.3254 0.765546 58.6189C0.408812 56.7962 0.244766 54.9604 0 53.1299V46.8701C0.0572857 46.5863 0.122387 46.3051 0.166653 46.0212C0.565049 43.4876 0.799396 40.9176 1.37486 38.4257C5.84835 19.0657 21.8311 4.07509 41.4748 0.747317C43.2585 0.445265 45.063 0.26039 46.8623 0ZM7.80387 49.9583C7.77263 73.2215 26.5988 92.1024 49.901 92.1779C73.2033 92.2534 92.1362 73.3569 92.1701 50.0286C92.2013 26.7576 73.3804 7.88459 50.0703 7.81169C26.7602 7.73878 7.83512 26.63 7.80387 49.9583Z" fill="#F7B923"/>
<path d="M53.8924 41.6622C53.8924 45.857 53.9106 50.0519 53.8924 54.2468C53.8992 55.2374 53.5277 56.1933 52.8535 56.9192C52.1794 57.6451 51.2536 58.0863 50.2652 58.1526C48.4112 58.3271 46.6197 56.9913 46.19 55.0826C46.1223 54.7652 46.0908 54.4411 46.0963 54.1166C46.0963 45.8223 46.0963 37.5289 46.0963 29.2364C46.0963 27.5933 46.8046 26.3408 48.2862 25.6092C48.921 25.2666 49.6421 25.1174 50.3607 25.1799C51.0793 25.2424 51.7639 25.5138 52.33 25.9607C53.4315 26.7679 53.8924 27.9006 53.8924 29.2572C53.8924 33.387 53.8924 37.522 53.8924 41.6622Z" fill="#F7B923"/>
<path d="M49.9877 73.4436C48.9456 73.4446 47.9265 73.1365 47.0595 72.5582C46.1925 71.9798 45.5165 71.1574 45.1171 70.1948C44.7176 69.2321 44.6127 68.1727 44.8156 67.1505C45.0185 66.1282 45.52 65.1891 46.2568 64.452C46.9935 63.7149 47.9324 63.2129 48.9545 63.0095C49.9767 62.8061 51.0362 62.9105 51.999 63.3094C52.9618 63.7084 53.7846 64.384 54.3633 65.2507C54.9421 66.1174 55.2507 67.1363 55.2502 68.1785C55.2516 68.8701 55.1164 69.5551 54.8525 70.1944C54.5885 70.8336 54.201 71.4144 53.7121 71.9036C53.2232 72.3927 52.6425 72.7806 52.0034 73.0448C51.3643 73.3091 50.6793 73.4446 49.9877 73.4436Z" fill="#F7B923"/>
</svg>
