<svg width="22" height="21" viewBox="0 0 22 21" fill="none" xmlns="http://www.w3.org/2000/svg">
<path d="M12.5714 0C10.0708 0 7.67262 1.06235 5.90442 2.95334C4.13622 4.84433 3.14286 7.40907 3.14286 10.0833H0L4.19048 14.5648L8.38095 10.0833H5.2381C5.2381 5.7587 8.52762 2.24074 12.5714 2.24074C16.6152 2.24074 19.9048 5.7587 19.9048 10.0833C19.9048 14.408 16.6152 17.9259 12.5714 17.9259C10.581 17.9259 8.77905 17.0744 7.45905 15.6964L5.97143 17.2761C7.73154 19.1285 10.102 20.1667 12.5714 20.1667C15.072 20.1667 17.4702 19.1043 19.2384 17.2133C21.0066 15.3223 22 12.7576 22 10.0833C22 7.40907 21.0066 4.84433 19.2384 2.95334C17.4702 1.06235 15.072 3.98497e-08 12.5714 0ZM14.6667 8.96296V7.84259C14.6667 6.61019 13.7238 5.60185 12.5714 5.60185C11.419 5.60185 10.4762 6.61019 10.4762 7.84259V8.96296C9.9 8.96296 9.42857 9.46713 9.42857 10.0833V13.4444C9.42857 14.0606 9.9 14.5648 10.4762 14.5648H14.6667C15.2429 14.5648 15.7143 14.0606 15.7143 13.4444V10.0833C15.7143 9.46713 15.2429 8.96296 14.6667 8.96296ZM13.619 8.96296H11.5238V7.84259C11.5238 7.22639 11.9952 6.72222 12.5714 6.72222C13.1476 6.72222 13.619 7.22639 13.619 7.84259V8.96296Z" fill="#65CDF0"/>
</svg>
