<svg xmlns="http://www.w3.org/2000/svg" width="60" height="60" viewBox="0 0 60 60" fill="none"><g clip-path="url(#clip0_819_1464)"><path d="M57.6244 13.2388L30.3821 0.0873633C30.1405 -0.0291211 29.8593 -0.0291211 29.6179 0.0873633L2.37542 13.2388C2.07167 13.3854 1.87866 13.6931 1.87866 14.0303V45.9697C1.87866 46.3069 2.07167 46.6146 2.37542 46.7612L29.6178 59.9126C29.7385 59.9709 29.8692 60.0001 29.9999 60.0001C30.1306 60.0001 30.2612 59.9709 30.3821 59.9126L57.6244 46.7612C57.9282 46.6146 58.1212 46.3069 58.1212 45.9697V14.0304C58.1212 13.6929 57.928 13.3856 57.6244 13.2388ZM29.9999 1.8549L55.2207 14.0303L47.9097 17.5598C47.8634 17.5245 47.8145 17.4919 47.7608 17.466L22.7114 5.37346L29.9999 1.8549ZM20.7265 6.36721L45.9106 18.5249L40.7526 21.0151L15.5789 8.86225L20.7265 6.36721ZM46.4998 20.1923V29.3969L41.6819 31.7228V22.5182L46.4998 20.1923ZM56.3633 45.4182L30.8788 57.7208V27.7334L36.9577 24.7988C37.3948 24.5878 37.5781 24.0624 37.367 23.6252C37.156 23.1882 36.6306 23.0047 36.1934 23.2158L29.9999 26.2059L27.5629 25.0293C27.1257 24.818 26.6003 25.0015 26.3892 25.4387C26.1782 25.8758 26.3615 26.4012 26.7986 26.6123L29.121 27.7334V57.7208L3.63647 45.4179V15.4306L23.0427 24.7992C23.1659 24.8587 23.2961 24.8868 23.4242 24.8868C23.7509 24.8868 24.0647 24.7038 24.2162 24.3898C24.4273 23.9527 24.244 23.4272 23.8069 23.2162L4.77917 14.0303L13.5102 9.81533L39.9119 22.561C39.9157 22.5664 39.9201 22.5712 39.9241 22.5765V33.1232C39.9241 33.4257 40.0796 33.7068 40.3357 33.8677C40.478 33.957 40.6403 34.0021 40.8031 34.0021C40.9334 34.0021 41.064 33.9732 41.1851 33.9147L47.7608 30.7402C48.0646 30.5936 48.2576 30.2861 48.2576 29.9487V19.3438L56.3633 15.4307V45.4182Z" fill="white"></path><path d="M10.8897 42.0094L6.89187 40.0794C6.45453 39.8681 5.9293 40.0517 5.71824 40.4888C5.50719 40.9259 5.69047 41.4513 6.12758 41.6624L10.1254 43.5924C10.2486 43.6519 10.3788 43.68 10.5069 43.68C10.8336 43.68 11.1474 43.497 11.2989 43.183C11.5101 42.7458 11.3268 42.2206 10.8897 42.0094Z" fill="white"></path><path d="M14.5691 39.6145L6.89742 35.9109C6.46019 35.6998 5.93484 35.8831 5.72378 36.3203C5.51284 36.7574 5.69613 37.2829 6.13324 37.494L13.8049 41.1975C13.9281 41.257 14.0583 41.2852 14.1864 41.2852C14.5131 41.2852 14.8269 41.1022 14.9784 40.7882C15.1895 40.3509 15.0062 39.8254 14.5691 39.6145Z" fill="white"></path></g><defs><clipPath id="clip0_819_1464"><rect width="60" height="60" fill="white"></rect></clipPath></defs></svg>