<svg xmlns="http://www.w3.org/2000/svg" width="45" height="60" viewBox="0 0 45 60" fill="none"><g clip-path="url(#clip0_819_1530)"><path d="M13.2862 54.2328C12.8794 54.4976 12.7643 55.0422 13.0292 55.4489C13.2944 55.8562 13.8389 55.9705 14.2453 55.7059C14.5077 55.535 14.7611 55.3429 14.9983 55.1351C15.3633 54.8151 15.3999 54.2599 15.08 53.8948C14.76 53.5299 14.2047 53.4931 13.8396 53.8132C13.665 53.9662 13.4788 54.1074 13.2862 54.2328Z" fill="white"></path><path d="M17.9021 29.4872C18.0105 29.2509 18.1255 29.0132 18.2438 28.7806C18.4639 28.3479 18.2915 27.8188 17.8589 27.5988C17.4262 27.3784 16.8971 27.5509 16.6769 27.9836C16.5479 28.2371 16.4226 28.4964 16.3044 28.7542C16.102 29.1954 16.2956 29.7172 16.7368 29.9197C17.1788 30.1225 17.7002 29.9276 17.9021 29.4872Z" fill="white"></path><path d="M16.2879 31.13C15.8215 30.9962 15.3345 31.2657 15.2005 31.7324C15.1222 32.0053 15.0483 32.2836 14.981 32.5595C14.8661 33.0311 15.1551 33.5066 15.6267 33.6217C16.1001 33.737 16.5742 33.4461 16.6889 32.9761C16.7506 32.7231 16.8184 32.4678 16.8902 32.2174C17.0241 31.751 16.7544 31.2641 16.2879 31.13Z" fill="white"></path><path d="M14.4638 35.6939C14.4388 35.9768 14.4193 36.2641 14.4058 36.5478C14.3828 37.0326 14.7572 37.4444 15.242 37.4674C15.724 37.4907 16.1385 37.1184 16.1617 36.6311C16.174 36.3712 16.192 36.1079 16.2148 35.8486C16.2576 35.3651 15.9002 34.9384 15.4166 34.8957C14.9343 34.8519 14.5065 35.2104 14.4638 35.6939Z" fill="white"></path><path d="M15.3472 48.2344C15.3953 48.7136 15.8223 49.0699 16.3096 49.0212C16.7926 48.9727 17.1448 48.5418 17.0964 48.0589L17.0146 47.2423C16.9662 46.7592 16.5352 46.4059 16.0523 46.4553C15.5693 46.5037 15.217 46.9345 15.2654 47.4174L15.3472 48.2344Z" fill="white"></path><path d="M10.8597 55.0022C10.7928 55.005 10.7256 55.0065 10.6563 55.0065C10.4925 55.0035 10.3256 54.9991 10.1627 54.9833C9.67856 54.9355 9.24978 55.2901 9.2029 55.7733C9.15603 56.2564 9.5097 56.6861 9.99286 56.7331C10.2134 56.7544 10.4398 56.7632 10.658 56.7646C10.7504 56.7646 10.8425 56.7625 10.9341 56.7586C11.4192 56.7381 11.7957 56.3283 11.7752 55.8432C11.7544 55.3582 11.3452 54.982 10.8597 55.0022Z" fill="white"></path><path d="M15.8173 52.8065C16.2791 52.962 16.7765 52.7124 16.9309 52.2543C17.0315 51.9559 17.1109 51.6472 17.1672 51.3365C17.2536 50.859 16.9365 50.4016 16.4589 50.3151C15.9813 50.2283 15.524 50.5457 15.4374 51.0234C15.3962 51.2501 15.3383 51.4754 15.265 51.6929C15.1101 52.1528 15.3572 52.6513 15.8173 52.8065Z" fill="white"></path><path d="M21.3215 3.58297C20.9965 3.43286 20.6526 3.32997 20.2992 3.27723C19.8193 3.20598 19.3719 3.5368 19.3003 4.01692C19.2287 4.49704 19.5598 4.94422 20.0399 5.01594C20.2279 5.04395 20.4108 5.09868 20.5838 5.17872C21.0262 5.38344 21.5477 5.18832 21.7504 4.74981C21.9542 4.30895 21.7621 3.78665 21.3215 3.58297Z" fill="white"></path><path d="M12.5728 5.04674C12.7988 5.01217 13.0296 4.99436 13.2591 4.99377C13.7445 4.99248 14.1371 4.59803 14.1359 4.11264C14.1347 3.62795 13.7414 3.23584 13.257 3.23584C12.9566 3.23584 12.628 3.25986 12.3069 3.30896C11.8271 3.38244 11.4977 3.83092 11.571 4.3108C11.6445 4.79057 12.0927 5.11998 12.5728 5.04674Z" fill="white"></path><path d="M14.9614 44.3849C15.0095 44.8649 15.4374 45.2203 15.9236 45.1718C16.4066 45.1233 16.7589 44.6925 16.7104 44.2096L16.6286 43.3936C16.5801 42.9107 16.1488 42.5571 15.6664 42.6067C15.1833 42.6551 14.831 43.086 14.8794 43.5689L14.9614 44.3849Z" fill="white"></path><path d="M15.5378 41.3233C16.0208 41.2748 16.3729 40.8437 16.3244 40.3608L16.2424 39.5446C16.1937 39.0617 15.7633 38.7092 15.2799 38.7579C14.7969 38.8066 14.4447 39.2375 14.4932 39.7204L14.5753 40.5368C14.624 41.0208 15.0573 41.3728 15.5378 41.3233Z" fill="white"></path><path d="M21.7486 6.83498C21.7535 6.8917 21.756 6.94983 21.756 7.00713L21.7561 7.35084C21.7563 7.83202 22.1455 8.22928 22.6355 8.22928C23.1209 8.22905 23.5141 7.83541 23.5139 7.34991L23.5138 7.00608C23.5138 6.89932 23.5091 6.79162 23.5001 6.68569C23.4588 6.20205 23.0337 5.84323 22.5497 5.88459C22.0661 5.92573 21.7073 6.35123 21.7486 6.83498Z" fill="white"></path><path d="M17.1243 4.99365C17.6097 4.99365 18.0032 4.60014 18.0032 4.11475C18.0032 3.62936 17.6097 3.23584 17.1243 3.23584H16.304C15.8186 3.23584 15.425 3.62936 15.425 4.11475C15.425 4.60014 15.8186 4.99365 16.304 4.99365H17.1243Z" fill="white"></path><path d="M7.01475 8.50396L6.77347 9.28806C6.63073 9.75201 6.89112 10.244 7.35507 10.3866C7.81491 10.5284 8.30968 10.2728 8.45358 9.8051L8.69487 9.02099C8.83761 8.55705 8.57721 8.0651 8.11327 7.92248C7.64921 7.77951 7.15761 8.04013 7.01475 8.50396Z" fill="white"></path><path d="M5.88208 12.2166C5.80497 12.483 5.72962 12.7494 5.65579 13.0162C5.52641 13.484 5.80087 13.9681 6.2688 14.0975C6.7345 14.2267 7.22036 13.954 7.35009 13.4845C7.42192 13.2246 7.4954 12.965 7.57052 12.7058C7.70552 12.2395 7.43704 11.752 6.97075 11.617C6.50493 11.4819 6.0172 11.7506 5.88208 12.2166Z" fill="white"></path><path d="M6.02261 54.8934C6.24785 55.1123 6.49113 55.3171 6.74566 55.5021C7.13765 55.7869 7.68738 55.7011 7.97332 55.3076C8.25867 54.9148 8.17148 54.3652 7.77879 54.0798C7.59175 53.944 7.41316 53.7936 7.24793 53.633C6.89988 53.2946 6.34336 53.3025 6.00503 53.6505C5.66671 53.9987 5.67457 54.5551 6.02261 54.8934Z" fill="white"></path><path d="M3.25302 32.3911C3.26392 32.8696 3.65521 33.25 4.13134 33.25C4.62669 33.25 5.02161 32.8425 5.01048 32.3511C5.00427 32.0812 4.99982 31.8113 4.997 31.5416C4.99196 31.0593 4.5995 30.6719 4.11833 30.6719C3.62825 30.6719 3.23415 31.0718 3.23931 31.5599C3.242 31.837 3.24669 32.114 3.25302 32.3911Z" fill="white"></path><path d="M4.90179 16.0097C4.84027 16.2799 4.7805 16.5505 4.72238 16.8213C4.62054 17.2959 4.92277 17.7632 5.39738 17.8651C5.86906 17.9667 6.33874 17.6673 6.44117 17.1901C6.49777 16.9265 6.55601 16.6631 6.61589 16.4C6.72359 15.9267 6.42734 15.4556 5.95402 15.3479C5.48058 15.2398 5.00949 15.5364 4.90179 16.0097Z" fill="white"></path><path d="M3.614 23.7358C3.58459 24.0113 3.55682 24.2869 3.5308 24.5627C3.48521 25.046 3.83994 25.4749 4.32322 25.5204C4.80932 25.566 5.23541 25.2089 5.28088 24.728C5.30619 24.4593 5.33326 24.1909 5.36186 23.9226C5.41342 23.44 5.06397 23.0067 4.58139 22.9553C4.09893 22.9035 3.66557 23.2531 3.614 23.7358Z" fill="white"></path><path d="M4.14464 19.854C4.09905 20.1272 4.05523 20.4009 4.01304 20.6746C3.93921 21.1545 4.26815 21.6032 4.74804 21.6772C5.22675 21.7509 5.67651 21.4227 5.75046 20.9422C5.79147 20.6756 5.83413 20.4092 5.87855 20.1429C5.95835 19.6641 5.63491 19.2112 5.15608 19.1315C4.67737 19.0506 4.22456 19.3752 4.14464 19.854Z" fill="white"></path><path d="M9.13515 4.78333C8.89656 4.99228 8.67202 5.22161 8.46765 5.46513C8.15558 5.83696 8.2041 6.3915 8.57593 6.70345C8.94917 7.01693 9.50359 6.96525 9.81413 6.59517C9.96085 6.42032 10.122 6.25568 10.2932 6.10568C10.6584 5.78587 10.6952 5.23064 10.3753 4.86548C10.0555 4.50021 9.50019 4.46318 9.13515 4.78333Z" fill="white"></path><path d="M3.40743 36.2738C3.42852 36.7607 3.84091 37.1349 4.32372 37.1137C4.80864 37.0924 5.18469 36.6823 5.1636 36.1973L5.12798 35.3778C5.10688 34.8928 4.69602 34.5178 4.21169 34.5379C3.72665 34.5591 3.35071 34.9692 3.37169 35.4543L3.40743 36.2738Z" fill="white"></path><path d="M3.57529 40.1371C3.5965 40.6239 4.00877 40.9983 4.49158 40.977C4.97662 40.9558 5.35255 40.5456 5.33158 40.0606L5.29584 39.2411C5.27474 38.7562 4.86681 38.3804 4.37955 38.4012C3.89463 38.4224 3.51857 38.8326 3.53966 39.3176L3.57529 40.1371Z" fill="white"></path><path d="M4.25451 51.9055C4.38435 52.3775 4.87138 52.6478 5.33509 52.5199C5.80314 52.3912 6.07829 51.9074 5.94951 51.4394C5.88845 51.2173 5.84275 50.9882 5.81369 50.7584C5.75275 50.2768 5.31306 49.9353 4.8313 49.9969C4.34966 50.058 4.00876 50.4978 4.06982 50.9793C4.10931 51.2916 4.17142 51.6033 4.25451 51.9055Z" fill="white"></path><path d="M4.15645 29.3832C4.62755 29.3832 5.01743 29.0098 5.03431 28.5352C5.04392 28.2656 5.05505 27.9959 5.06806 27.7266C5.09138 27.2418 4.7172 26.8298 4.23227 26.8066C3.74724 26.7846 3.33544 27.1575 3.31224 27.6424C3.29899 27.9189 3.28739 28.196 3.27767 28.4731C3.25997 28.9719 3.65958 29.3832 4.15645 29.3832Z" fill="white"></path><path d="M3.74326 44.0007C3.76447 44.4873 4.17673 44.8621 4.65955 44.8407C5.14459 44.8196 5.52064 44.4093 5.49955 43.9244L5.46392 43.1049C5.44283 42.62 5.03267 42.2451 4.54763 42.2649C4.06259 42.286 3.68654 42.6963 3.70763 43.1812L3.74326 44.0007Z" fill="white"></path><path d="M3.91134 47.8648C3.93244 48.3517 4.34482 48.7259 4.82763 48.7047C5.31255 48.6834 5.68861 48.2733 5.66752 47.7883L5.63189 46.9688C5.6108 46.4837 5.20228 46.1065 4.71548 46.1289C4.23056 46.1501 3.85451 46.5602 3.8756 47.0453L3.91134 47.8648Z" fill="white"></path><path d="M10.3648 8.619L9.29462 12.0968C7.14353 19.0881 6.214 26.338 6.53169 33.6453L7.069 46.0025C7.09009 46.4874 7.50025 46.8631 7.98529 46.8424C8.47021 46.8213 8.84626 46.411 8.82529 45.926L8.28798 33.5688C7.97896 26.4628 8.88294 19.4123 10.9749 12.6136L12.045 9.1358C12.217 8.57658 12.6874 8.22912 13.2727 8.22912H17.3204C17.9823 8.22912 18.5211 8.7676 18.5215 9.42947L18.5249 15.6169C18.5263 18.1815 17.6796 20.7239 16.1405 22.7757L16.0391 22.9111C12.3499 27.8298 10.6558 33.8973 11.2688 39.9958C11.5705 42.9978 11.9332 46.6149 12.2658 49.935C12.313 50.4065 12.1725 50.8695 11.8804 51.2052C11.5599 51.5734 11.1527 51.7635 10.6705 51.7703C9.79607 51.7826 9.04841 51.0573 9.00904 50.1533C8.98794 49.6683 8.58013 49.2928 8.09275 49.3133C7.60783 49.3344 7.23177 49.7447 7.25287 50.2296C7.33232 52.0583 8.85095 53.5285 10.649 53.5284C11.6058 53.5284 12.5301 53.1363 13.2063 52.3595C13.8156 51.6594 14.1103 50.7119 14.0151 49.7598C13.6825 46.4396 13.3198 42.8223 13.018 39.8201C12.4492 34.1614 14.0216 28.5309 17.4458 23.9654L17.5472 23.8302C19.313 21.4759 20.2845 18.5587 20.2829 15.6158L20.2795 9.42842C20.2786 7.79775 18.9513 6.47119 17.3206 6.47119H13.2728C11.9076 6.47143 10.7661 7.31447 10.3648 8.619Z" fill="white"></path><path d="M44.306 26.1428C43.4287 25.2655 42.9457 24.0993 42.9457 22.8585V21.5692C42.9457 19.4886 41.2531 17.7961 39.1726 17.7961C38.3437 17.7961 37.6094 17.299 37.3016 16.5294L35.4545 11.9115C35.2713 11.4537 35.0014 11.0512 34.6678 10.7198V10.5859C34.6678 10.1004 34.2743 9.70699 33.7889 9.70699C33.5964 9.70699 33.4186 9.76887 33.2738 9.87375C32.9329 9.76488 32.5709 9.70699 32.198 9.70699H26.7511L26.7495 7.0043C26.7473 3.14215 23.6035 0 19.7414 0H13.2727C9.06992 0 5.41566 2.69883 4.17968 6.71578L3.27418 9.65859C3.13144 10.1224 3.39183 10.6144 3.85578 10.757C4.32007 10.9002 4.81156 10.6393 4.95429 10.1755L5.85968 7.23281C6.86726 3.95813 9.84628 1.75781 13.2725 1.75781H19.7411C22.6345 1.75781 24.9897 4.11176 24.9914 7.00512L24.9929 9.70699H22.2751C21.7897 9.70699 21.3962 10.1005 21.3962 10.5859C21.3962 11.0714 21.7897 11.4648 22.2751 11.4648H24.9938L24.9962 15.6132C24.9984 19.5703 23.692 23.4928 21.3177 26.6588L21.2178 26.792C18.5041 30.4103 17.2575 34.8697 17.7077 39.3488C18.0107 42.3635 18.3752 45.9981 18.7088 49.3294C18.9366 51.6036 18.1878 53.8801 16.6543 55.5749C15.1207 57.2699 12.9298 58.2421 10.6437 58.2421C6.29199 58.2421 2.73511 54.8364 2.54609 50.4887L1.82269 33.85C1.53488 27.2305 2.20648 20.6156 3.81886 14.1888C3.93699 13.718 3.65105 13.2405 3.18031 13.1224C2.70968 13.0036 2.23203 13.2901 2.1139 13.761C0.460152 20.3525 -0.228793 27.1371 0.066519 33.9264L0.789917 50.5651C1.01996 55.8555 5.34839 59.9999 10.6439 59.9999C13.4257 59.9999 16.0914 58.8169 17.9578 56.7544C19.8239 54.6919 20.7352 51.9217 20.458 49.1541C20.1242 45.8227 19.7598 42.1879 19.4567 39.173C19.0508 35.1338 20.1757 31.1114 22.6242 27.8466L22.7241 27.7133C25.3252 24.2452 26.7564 19.9477 26.7541 15.6124L26.7518 11.4649H32.1978C32.4492 11.4649 32.6906 11.5177 32.9097 11.6148V35.5523H32.4856C31.7927 35.5523 31.229 36.1161 31.229 36.8089V39.0784C30.7309 39.3312 30.3887 39.8484 30.3887 40.4442V40.8952C30.3887 42.5665 30.047 44.2042 29.3732 45.7629C28.6045 47.5411 28.1077 49.5803 28.1077 50.9576C28.1077 52.4125 28.6571 53.7963 29.6547 54.8543C29.774 54.9807 29.7545 55.1258 29.7405 55.1823C29.7247 55.2464 29.6772 55.361 29.5367 55.41L29.5237 55.4143C28.5332 55.7447 27.8676 56.6681 27.8676 57.7121V58.4473C27.8676 59.3034 28.5642 60 29.4203 60H38.1571C39.0133 60 39.7099 59.3034 39.7099 58.4473V57.7121C39.7099 56.668 39.0444 55.7446 38.0539 55.4143C38.0524 55.4139 38.0443 55.4112 38.0427 55.4107C37.9007 55.362 37.8528 55.2466 37.837 55.1823C37.823 55.1258 37.8036 54.9807 37.9229 54.8543C38.9205 53.7961 39.4699 52.4122 39.4699 50.9576C39.4699 49.7664 39.1051 48.0915 38.4939 46.4777C38.322 46.0239 37.815 45.7952 37.3606 45.967C36.9066 46.1389 36.678 46.6462 36.8499 47.1002C37.3736 48.483 37.712 49.9972 37.712 50.9575C37.712 51.9621 37.3326 52.9177 36.6439 53.6482C36.1496 54.1724 35.9577 54.9032 36.1303 55.6032C36.3005 56.2935 36.8019 56.8431 37.4714 57.073C37.4735 57.0738 37.4963 57.0813 37.4978 57.0819C37.7695 57.1724 37.9521 57.4257 37.9521 57.712V58.242H29.6257V57.712C29.6257 57.4257 29.8082 57.1724 30.0753 57.0834C30.0987 57.0756 30.0909 57.0783 30.1064 57.073C30.7757 56.8431 31.2771 56.2936 31.4475 55.6032C31.6202 54.9033 31.4282 54.1724 30.9339 53.6481C30.2451 52.9175 29.8658 51.962 29.8658 50.9573C29.8658 49.8187 30.3164 48.0114 30.9869 46.4602C31.7565 44.68 32.1467 42.8075 32.1467 40.8949V40.6716H35.431V40.8949C35.431 41.6234 35.4896 42.3591 35.6052 43.0814C35.6818 43.5608 36.1329 43.8862 36.6119 43.8105C37.0912 43.7339 37.4177 43.2831 37.3409 42.8038C37.24 42.173 37.1889 41.5308 37.1889 40.8949V40.444C37.1889 39.8482 36.8468 39.3309 36.3486 39.0782V36.8087C36.3486 36.1159 35.7849 35.5521 35.092 35.5521H34.6679V14.6783L35.6695 17.1824C36.2458 18.6231 37.6209 19.5541 39.1727 19.5541C40.2839 19.5541 41.188 20.4581 41.188 21.5693V22.8586C41.188 24.5687 41.8539 26.1766 43.0632 27.3859C43.4066 27.7291 43.963 27.729 44.3062 27.3859C44.6492 27.0425 44.6492 26.4861 44.306 26.1428ZM34.5905 38.9139H32.987V37.3103C33.4614 37.3396 34.1196 37.3105 34.5905 37.3103V38.9139Z" fill="white"></path><path d="M34.5976 55.0063H32.9797C32.4943 55.0063 32.1008 55.3999 32.1008 55.8853C32.1008 56.3708 32.4943 56.7642 32.9797 56.7642H34.5976C35.083 56.7642 35.4765 56.3706 35.4765 55.8853C35.4767 55.3997 35.0831 55.0063 34.5976 55.0063Z" fill="white"></path></g><defs><clipPath id="clip0_819_1530"><rect width="45" height="60" fill="white"></rect></clipPath></defs></svg>