<svg xmlns="http://www.w3.org/2000/svg" width="44" height="60" viewBox="0 0 44 60" fill="none"><path d="M4.52958 60C3.66186 59.6342 2.70926 59.3957 1.94689 58.8762C0.542145 57.9178 0.00951132 56.4296 0.00658476 54.7644C-0.00219492 47.606 -0.00219492 40.4477 0.00658476 33.2893C0.0139012 30.4315 1.7157 28.5 4.52812 28.1034C4.94662 28.0449 5.01247 27.8869 5.011 27.5181C4.99783 24.1628 4.98027 20.809 5.011 17.4537C5.06661 10.7606 7.89952 5.55281 13.7395 2.2736C19.2546 -0.825624 24.954 -0.731974 30.4618 2.4053C34.9424 4.96019 37.6421 8.89494 38.6255 13.9652C38.8255 15.0975 38.9234 16.2454 38.9181 17.3951C38.9562 20.7695 38.9371 24.1438 38.9181 27.5181C38.9181 27.8898 38.9825 28.0464 39.401 28.1034C42.1929 28.497 43.9064 30.4022 43.9182 33.2249C43.9474 40.4213 43.9328 47.6192 43.9182 54.8156C43.9182 57.6588 41.9164 59.6444 39.5503 59.9166C39.4947 59.9332 39.4423 59.9589 39.3952 59.9927L4.52958 60ZM21.9851 30.0203H5.36951C3.18483 30.0218 1.96884 31.2319 1.96884 33.4268V54.6064C1.96884 56.8013 3.19215 58.0173 5.37243 58.0173H38.545C40.7604 58.0173 41.9749 56.8013 41.9764 54.5756V33.4546C41.9764 31.2231 40.7706 30.0203 38.5435 30.0203H21.9851ZM21.9733 28.0507C25.0931 28.0507 28.2128 28.0376 31.3383 28.0639C31.8563 28.0639 31.9895 27.9293 31.9866 27.4157C31.9632 24.0428 31.9866 20.6685 31.9646 17.2956C31.9734 16.4973 31.8944 15.7004 31.729 14.9193C30.4882 9.61049 25.8057 6.44688 20.3403 7.19022C15.9271 7.79017 12.1225 11.9166 12.0216 16.365C11.9367 20.0876 11.9938 23.8131 11.963 27.5371C11.963 28.0244 12.1694 28.0581 12.5557 28.0566C15.6959 28.0449 18.8346 28.0507 21.9748 28.0507H21.9733ZM36.9661 21.766C36.9661 21.1806 36.9866 20.5953 36.9661 20.01C36.8827 18.0448 36.9998 16.0416 36.6471 14.1247C35.5131 7.95406 30.5013 3.23205 24.319 2.25604C15.8481 0.921532 7.90391 6.87269 7.13422 15.4256C6.7684 19.4906 7.00984 23.6112 6.99667 27.7069C6.99667 27.8225 7.23372 28.0303 7.36835 28.0376C8.04877 28.0712 8.73505 28.0215 9.41694 28.0639C9.9247 28.0961 10.0271 27.9015 10.0257 27.4318C10.0044 24.115 10.0044 20.7982 10.0257 17.4815C10.0171 16.5852 10.0891 15.69 10.2408 14.8066C10.8257 11.7239 12.5992 8.99484 15.1785 7.20828C17.7579 5.42172 20.9363 4.72096 24.0278 5.25723C29.537 6.18788 33.7747 10.9889 33.9035 16.5728C33.9869 20.2002 33.9371 23.8292 33.9313 27.4581C33.9313 27.8971 34.0117 28.0976 34.5063 28.0639C35.1687 28.0266 35.8326 28.0266 36.4949 28.0639C36.8871 28.0815 36.9851 27.9395 36.9807 27.5649C36.9588 25.629 36.9676 23.6975 36.9676 21.766H36.9661Z" fill="white"></path><path d="M26.9428 41.0831C26.9258 41.7674 26.7728 42.4414 26.4927 43.0659C26.2126 43.6905 25.8109 44.253 25.3112 44.7208C25.1088 44.9363 24.9881 45.2158 24.9703 45.511C24.9205 46.7957 24.9703 48.0849 24.8927 49.3667C24.7961 50.8519 23.4529 52.0006 21.9574 51.9889C20.4619 51.9772 19.1435 50.8388 19.0455 49.3389C18.9635 48.0966 19.0279 46.8513 18.9679 45.6002C18.9457 45.2512 18.803 44.9206 18.564 44.6652C17.051 43.2019 16.5623 40.8943 17.4212 39.0155C18.2802 37.1366 20.3697 35.8943 22.25 36.0538C23.3464 36.1266 24.3889 36.5555 25.2191 37.2753C26.0493 37.995 26.6217 38.9663 26.8491 40.0412C26.9048 40.3859 26.936 40.734 26.9428 41.0831ZM20.9433 46.6699C20.9433 47.4103 20.9287 48.1522 20.9433 48.8926C20.9594 49.4779 21.2228 49.9096 21.852 49.9988C22.4812 50.0881 22.9597 49.6096 22.9729 48.8136C22.9934 47.5859 23.0197 46.3538 22.9729 45.1276C22.9378 44.3272 23.1939 43.7916 23.8509 43.3058C25.2 42.3064 25.3332 40.3412 24.224 39.0491C23.9572 38.744 23.6314 38.496 23.2663 38.3201C22.9012 38.1441 22.5042 38.0438 22.0993 38.0252C21.6944 38.0066 21.29 38.0701 20.9103 38.2119C20.5305 38.3536 20.1834 38.5707 19.8898 38.8501C18.6826 39.9915 18.5728 42.1059 19.8898 43.1097C20.8599 43.8531 21.0311 44.6813 20.9477 45.7334C20.9287 46.0436 20.9492 46.3582 20.9492 46.6699H20.9433Z" fill="white"></path></svg>