<svg width="45" height="45" viewBox="0 0 45 45" fill="none" xmlns="http://www.w3.org/2000/svg">
<circle cx="22.5" cy="22.5" r="22.5" fill="#65CDF0"/>
<path d="M21.092 21.252C21.092 21.7747 20.966 22.2647 20.714 22.722C20.4713 23.1793 20.084 23.548 19.552 23.828C19.0293 24.108 18.3667 24.248 17.564 24.248H15.926V28H13.966V18.228H17.564C18.32 18.228 18.964 18.3587 19.496 18.62C20.028 18.8813 20.4247 19.2407 20.686 19.698C20.9567 20.1553 21.092 20.6733 21.092 21.252ZM17.48 22.666C18.0213 22.666 18.4227 22.5447 18.684 22.302C18.9453 22.05 19.076 21.7 19.076 21.252C19.076 20.3 18.544 19.824 17.48 19.824H15.926V22.666H17.48ZM25.8576 28.098C25.1762 28.098 24.5602 27.9813 24.0096 27.748C23.4682 27.5147 23.0389 27.1787 22.7216 26.74C22.4042 26.3013 22.2409 25.7833 22.2316 25.186H24.3316C24.3596 25.5873 24.4996 25.9047 24.7516 26.138C25.0129 26.3713 25.3676 26.488 25.8156 26.488C26.2729 26.488 26.6322 26.3807 26.8936 26.166C27.1549 25.942 27.2856 25.6527 27.2856 25.298C27.2856 25.0087 27.1969 24.7707 27.0196 24.584C26.8422 24.3973 26.6182 24.2527 26.3476 24.15C26.0862 24.038 25.7222 23.9167 25.2556 23.786C24.6209 23.5993 24.1029 23.4173 23.7016 23.24C23.3096 23.0533 22.9689 22.778 22.6796 22.414C22.3996 22.0407 22.2596 21.546 22.2596 20.93C22.2596 20.3513 22.4042 19.8473 22.6936 19.418C22.9829 18.9887 23.3889 18.662 23.9116 18.438C24.4342 18.2047 25.0316 18.088 25.7036 18.088C26.7116 18.088 27.5282 18.3353 28.1536 18.83C28.7882 19.3153 29.1382 19.9967 29.2036 20.874H27.0476C27.0289 20.538 26.8842 20.2627 26.6136 20.048C26.3522 19.824 26.0022 19.712 25.5636 19.712C25.1809 19.712 24.8729 19.81 24.6396 20.006C24.4156 20.202 24.3036 20.4867 24.3036 20.86C24.3036 21.1213 24.3876 21.3407 24.5556 21.518C24.7329 21.686 24.9476 21.826 25.1996 21.938C25.4609 22.0407 25.8249 22.162 26.2916 22.302C26.9262 22.4887 27.4442 22.6753 27.8456 22.862C28.2469 23.0487 28.5922 23.3287 28.8816 23.702C29.1709 24.0753 29.3156 24.5653 29.3156 25.172C29.3156 25.6947 29.1802 26.18 28.9096 26.628C28.6389 27.076 28.2422 27.4353 27.7196 27.706C27.1969 27.9673 26.5762 28.098 25.8576 28.098Z" fill="white"/>
</svg>
