<svg width="45" height="45" viewBox="0 0 45 45" fill="none" xmlns="http://www.w3.org/2000/svg">
<circle cx="22.5" cy="22.5" r="22.5" fill="#4E132C"/>
<path d="M14.382 18.228C15.4087 18.228 16.3093 18.4287 17.084 18.83C17.868 19.2313 18.47 19.8053 18.89 20.552C19.3193 21.2893 19.534 22.148 19.534 23.128C19.534 24.108 19.3193 24.9667 18.89 25.704C18.47 26.432 17.868 26.9967 17.084 27.398C16.3093 27.7993 15.4087 28 14.382 28H10.966V18.228H14.382ZM14.312 26.334C15.3387 26.334 16.132 26.054 16.692 25.494C17.252 24.934 17.532 24.1453 17.532 23.128C17.532 22.1107 17.252 21.3173 16.692 20.748C16.132 20.1693 15.3387 19.88 14.312 19.88H12.926V26.334H14.312ZM34.0632 18.228L31.3332 28H29.0232L27.1892 21.042L25.2712 28L22.9752 28.014L20.3432 18.228H22.4432L24.1652 25.816L26.1532 18.228H28.3372L30.2132 25.774L31.9492 18.228H34.0632Z" fill="white"/>
</svg>
