<svg width="45" height="45" viewBox="0 0 45 45" fill="none" xmlns="http://www.w3.org/2000/svg">
<circle cx="22.5" cy="22.5" r="22.5" fill="#F7B923"/>
<path d="M12.49 23.1C12.49 22.1387 12.7047 21.28 13.134 20.524C13.5727 19.7587 14.1653 19.166 14.912 18.746C15.668 18.3167 16.5127 18.102 17.446 18.102C18.538 18.102 19.4947 18.382 20.316 18.942C21.1373 19.502 21.7113 20.2767 22.038 21.266H19.784C19.56 20.7993 19.2427 20.4493 18.832 20.216C18.4307 19.9827 17.964 19.866 17.432 19.866C16.8627 19.866 16.354 20.0013 15.906 20.272C15.4673 20.5333 15.122 20.9067 14.87 21.392C14.6273 21.8773 14.506 22.4467 14.506 23.1C14.506 23.744 14.6273 24.3133 14.87 24.808C15.122 25.2933 15.4673 25.6713 15.906 25.942C16.354 26.2033 16.8627 26.334 17.432 26.334C17.964 26.334 18.4307 26.2173 18.832 25.984C19.2427 25.7413 19.56 25.3867 19.784 24.92H22.038C21.7113 25.9187 21.1373 26.698 20.316 27.258C19.504 27.8087 18.5473 28.084 17.446 28.084C16.5127 28.084 15.668 27.874 14.912 27.454C14.1653 27.0247 13.5727 26.432 13.134 25.676C12.7047 24.92 12.49 24.0613 12.49 23.1ZM27.1281 18.228C28.1548 18.228 29.0554 18.4287 29.8301 18.83C30.6141 19.2313 31.2161 19.8053 31.6361 20.552C32.0654 21.2893 32.2801 22.148 32.2801 23.128C32.2801 24.108 32.0654 24.9667 31.6361 25.704C31.2161 26.432 30.6141 26.9967 29.8301 27.398C29.0554 27.7993 28.1548 28 27.1281 28H23.7121V18.228H27.1281ZM27.0581 26.334C28.0848 26.334 28.8781 26.054 29.4381 25.494C29.9981 24.934 30.2781 24.1453 30.2781 23.128C30.2781 22.1107 29.9981 21.3173 29.4381 20.748C28.8781 20.1693 28.0848 19.88 27.0581 19.88H25.6721V26.334H27.0581Z" fill="white"/>
</svg>
