<svg width="100" height="100" viewBox="0 0 100 100" fill="none" xmlns="http://www.w3.org/2000/svg">
<path d="M46.8708 0H53.1213C53.3818 0.0546818 53.6214 0.119778 53.874 0.16144C56.9992 0.700446 60.2443 0.900953 63.2497 1.82794C83.0065 7.90022 94.9961 21.0837 99.2187 41.3785C99.5937 43.1856 99.7396 45.0396 100 46.8701V53.1195C99.9298 53.3674 99.8758 53.6196 99.8385 53.8746C98.9609 64.8292 94.9449 74.4948 87.7334 82.7778C79.9802 91.6727 70.2451 97.1722 58.6087 99.2423C56.7857 99.5651 54.9626 99.763 53.1213 100H46.8708C46.625 99.9286 46.3743 99.8746 46.1208 99.8386C40.7922 99.4428 35.6278 98.3022 30.755 96.1332C14.2928 88.8136 4.24252 76.3254 0.765685 58.6189C0.408887 56.7962 0.244811 54.9604 0 53.1299V46.8701C0.0572961 46.5863 0.122409 46.3051 0.166684 46.0212C0.565152 43.4876 0.799541 40.9176 1.37511 38.4257C5.84942 19.0657 21.835 4.07509 41.4824 0.747317C43.2664 0.445265 45.0712 0.26039 46.8708 0ZM7.8053 49.9583C7.77405 73.2215 26.6036 92.1024 49.9101 92.1779C73.2167 92.2534 92.153 73.3569 92.1869 50.0286C92.2181 26.7576 73.3938 7.88459 50.0794 7.81169C26.7651 7.73878 7.83655 26.63 7.8053 49.9583Z" fill="#52C41A"/>
<path d="M30 51.2381L43.3333 64.5714L70 36" stroke="#52C41A" stroke-width="4" stroke-linecap="round" stroke-linejoin="round"/>
</svg>
