<svg width="18" height="24" viewBox="0 0 18 24" fill="none" xmlns="http://www.w3.org/2000/svg">
<path d="M18 21V6.75L11.25 0H3C2.20435 0 1.44129 0.316071 0.87868 0.87868C0.31607 1.44129 0 2.20435 0 3V21C0 21.7956 0.31607 22.5587 0.87868 23.1213C1.44129 23.6839 2.20435 24 3 24H15C15.7956 24 16.5587 23.6839 17.1213 23.1213C17.6839 22.5587 18 21.7956 18 21ZM11.25 4.5C11.25 5.09674 11.4871 5.66903 11.909 6.09099C12.331 6.51295 12.9033 6.75 13.5 6.75H16.5V21C16.5 21.3978 16.342 21.7794 16.0607 22.0607C15.7794 22.342 15.3978 22.5 15 22.5H3C2.60218 22.5 2.22064 22.342 1.93934 22.0607C1.65804 21.7794 1.5 21.3978 1.5 21V3C1.5 2.60218 1.65804 2.22064 1.93934 1.93934C2.22064 1.65804 2.60218 1.5 3 1.5H11.25V4.5Z" fill="#65CDF0"/>
<path d="M3.90426 21.1305C3.6119 21.0136 3.37635 20.7877 3.24726 20.5005C2.95476 19.9185 3.05226 19.3365 3.36726 18.8475C3.66426 18.387 4.15626 17.9955 4.71276 17.667C5.41767 17.2672 6.16279 16.9429 6.93576 16.6995C7.53605 15.6204 8.06809 14.5047 8.52876 13.359C8.25333 12.7331 8.03738 12.0828 7.88376 11.4165C7.75476 10.8165 7.70526 10.2225 7.81476 9.71248C7.92726 9.18148 8.22576 8.70448 8.78976 8.47798C9.07776 8.36248 9.38976 8.29798 9.69276 8.36248C9.84517 8.39493 9.98846 8.4609 10.1122 8.55559C10.236 8.65029 10.3371 8.77135 10.4083 8.90998C10.5403 9.15598 10.5883 9.44398 10.5988 9.71698C10.6093 9.99898 10.5808 10.311 10.5283 10.638C10.4023 11.403 10.1233 12.339 9.74826 13.329C10.1621 14.214 10.654 15.0604 11.2183 15.858C11.8859 15.8053 12.5574 15.8304 13.2193 15.933C13.7653 16.032 14.3203 16.2255 14.6593 16.6305C14.8393 16.8465 14.9488 17.1105 14.9593 17.4075C14.9698 17.6955 14.8888 17.9805 14.7523 18.252C14.634 18.5036 14.4507 18.719 14.2213 18.876C13.9945 19.0239 13.7267 19.0964 13.4563 19.083C12.9598 19.062 12.4753 18.789 12.0568 18.4575C11.5479 18.0367 11.0893 17.5586 10.6903 17.0325C9.67589 17.1476 8.67356 17.3514 7.69476 17.6415C7.24653 18.4364 6.73487 19.1939 6.16476 19.9065C5.72676 20.4315 5.25126 20.8905 4.77426 21.087C4.50019 21.211 4.18933 21.2265 3.90426 21.1305ZM5.97276 18.279C5.72376 18.393 5.49276 18.513 5.28426 18.636C4.79226 18.927 4.47276 19.2105 4.31376 19.4565C4.17276 19.674 4.16976 19.8315 4.25376 19.998C4.26876 20.031 4.28376 20.052 4.29276 20.064C4.31066 20.0592 4.3282 20.0532 4.34526 20.046C4.55076 19.962 4.87776 19.6935 5.29776 19.188C5.53663 18.8955 5.76187 18.5922 5.97276 18.279ZM8.43276 16.284C8.93365 16.1671 9.43906 16.0705 9.94776 15.9945C9.67464 15.5765 9.4194 15.1471 9.18276 14.7075C8.94749 15.2394 8.69739 15.7646 8.43276 16.2825V16.284ZM12.1018 16.959C12.3268 17.2035 12.5458 17.409 12.7543 17.574C13.1143 17.859 13.3648 17.9535 13.5013 17.958C13.5378 17.9628 13.5749 17.9548 13.6063 17.9355C13.6687 17.8862 13.7172 17.8216 13.7473 17.748C13.8006 17.6566 13.831 17.5537 13.8358 17.448C13.8349 17.4127 13.821 17.3791 13.7968 17.3535C13.7188 17.2605 13.4968 17.1255 13.0198 17.04C12.7163 16.9892 12.4094 16.9627 12.1018 16.9605V16.959ZM9.11676 11.7C9.243 11.2928 9.3432 10.8779 9.41676 10.458C9.46326 10.176 9.48126 9.94348 9.47376 9.76048C9.47417 9.65952 9.45796 9.55918 9.42576 9.46348C9.35072 9.47277 9.27745 9.49299 9.20826 9.52348C9.07776 9.57598 8.97126 9.68248 8.91426 9.94798C8.85426 10.236 8.86926 10.6515 8.98326 11.181C9.01926 11.3475 9.06426 11.5215 9.11826 11.7H9.11676Z" fill="#65CDF0"/>
</svg>
