<svg width="19" height="22" viewBox="0 0 19 22" fill="none" xmlns="http://www.w3.org/2000/svg">
<path d="M18.1946 13.7191C18.4104 13.843 18.5729 14.0415 18.6513 14.2768C18.7298 14.5121 18.7187 14.7678 18.6202 14.9955L18.5669 15.1016L16.2785 19.0459C15.5561 20.2907 14.3777 21.2092 12.9901 21.609C11.6026 22.0088 10.1133 21.8589 8.83429 21.1908L8.63708 21.0833L2.2468 17.412C1.73737 17.1193 1.34566 16.6599 1.13841 16.1121C0.931169 15.5643 0.921206 14.9619 1.11022 14.4076L3.17749 15.5953L3.21871 15.6295L3.26387 15.659L9.65416 19.3303C10.4407 19.7822 11.371 19.9178 12.2547 19.7095C13.1384 19.5011 13.9087 18.9645 14.4078 18.2095L14.5108 18.0443L16.8053 14.0895C16.9402 13.8571 17.1623 13.6874 17.4229 13.618C17.6834 13.5485 17.961 13.5849 18.1946 13.7191ZM16.5706 10.4335C16.7863 10.5575 16.9488 10.7559 17.0273 10.9912C17.1057 11.2265 17.0947 11.4822 16.9962 11.71L16.9429 11.816L13.6374 17.5133C13.3147 18.0697 12.7914 18.4831 12.1737 18.6697C11.556 18.8562 10.8901 18.802 10.311 18.518L10.1635 18.4403L1.3554 13.3798C0.796282 13.0587 0.380838 12.538 0.193335 11.9233C0.00583201 11.3086 0.0603091 10.6459 0.345716 10.0697L0.424712 9.92346L3.72512 4.23499C3.85516 4.01193 4.06586 3.84668 4.3142 3.77298C4.56254 3.69929 4.82978 3.7227 5.06136 3.83845C5.29293 3.95419 5.47138 4.15354 5.56025 4.39577C5.64912 4.63801 5.64172 4.90487 5.53956 5.14186L5.48674 5.24708L2.18633 10.9356C2.12679 11.0381 2.10528 11.1582 2.12555 11.2749C2.14582 11.3916 2.20659 11.4976 2.29727 11.5743L2.37247 11.6268L11.1806 16.6873C11.2836 16.7465 11.4043 16.768 11.5216 16.7478C11.6389 16.7276 11.7454 16.6671 11.8224 16.5769L11.8753 16.5021L15.1813 10.804C15.3161 10.5715 15.5383 10.4019 15.7988 10.3324C16.0594 10.2629 16.337 10.2993 16.5706 10.4335ZM9.01917 1.77798L13.8792 0.479881C14.1184 0.415912 14.3729 0.440996 14.5948 0.550424C14.8167 0.659853 14.9909 0.846106 15.0846 1.07424L15.1256 1.19594L16.4303 6.03586C16.4968 6.28435 16.4657 6.54869 16.3434 6.7752C16.2211 7.00171 16.0167 7.1734 15.7718 7.2554C15.5269 7.3374 15.2598 7.32356 15.0247 7.21668C14.7897 7.10981 14.6044 6.91792 14.5064 6.67999L14.4658 6.55967L13.7978 4.08165L9.30232 11.8299C9.17773 12.0446 8.97831 12.2063 8.74187 12.2843C8.50543 12.3624 8.24842 12.3514 8.01959 12.2534L7.91297 12.2003C7.69725 12.0764 7.53475 11.8779 7.4563 11.6426C7.37785 11.4074 7.3889 11.1516 7.48736 10.9239L7.5407 10.8178L12.0377 3.06693L9.54557 3.7329C9.30634 3.79667 9.05195 3.77139 8.83012 3.66181C8.60829 3.55222 8.43426 3.36585 8.34069 3.13767L8.3001 3.01735C8.23601 2.77929 8.26141 2.52615 8.37154 2.3054C8.48167 2.08466 8.66896 1.91148 8.89826 1.81837L9.01917 1.77798Z" fill="#FDEABD"/>
</svg>
