<svg width="21" height="23" viewBox="0 0 21 23" fill="none" xmlns="http://www.w3.org/2000/svg">
<path d="M16.0332 8.55784L16.3167 7.50474C16.3427 7.4082 16.2841 7.30791 16.1864 7.28186L7.66081 5.00863C7.56312 4.98258 7.46193 5.04025 7.43594 5.13679L7.15237 6.18989C7.12638 6.28643 7.18503 6.38672 7.28272 6.41277L15.8083 8.686C15.906 8.71205 16.0072 8.65438 16.0332 8.55784ZM6.81011 8.16795C6.71242 8.1419 6.61123 8.19957 6.58523 8.29611L6.30167 9.34921C6.27567 9.44575 6.33433 9.54604 6.43202 9.57209L10.5172 10.6613C10.6149 10.6874 10.7161 10.6297 10.7421 10.5332L11.0256 9.48008C11.0516 9.38354 10.993 9.28325 10.8953 9.2572L6.81011 8.16795ZM14.4728 12.9388C11.8241 12.2326 9.10587 13.7817 8.40109 16.3991C7.6963 19.0165 9.27196 21.7105 11.9207 22.4168C14.5694 23.123 17.2876 21.5739 17.9923 18.9565C18.6971 16.3391 17.1215 13.6451 14.4728 12.9388ZM14.9484 20.6727C14.1416 21.1325 13.2001 21.253 12.2987 21.0126C11.3973 20.7723 10.6426 20.1995 10.1749 19.3999C9.70728 18.6004 9.58216 17.6687 9.82201 16.778C10.0619 15.8872 10.6383 15.1427 11.4451 14.6829C12.2518 14.2231 13.1933 14.1026 14.0947 14.343C14.9961 14.5833 15.7508 15.1561 16.2185 15.9557C16.6861 16.7552 16.8113 17.6869 16.5714 18.5776C16.3316 19.4684 15.7551 20.2129 14.9484 20.6727ZM15.6217 16.5372L14.6381 16.275C14.5804 16.2596 14.52 16.2717 14.4743 16.3089L12.5458 17.8593L12.2214 17.0227C12.211 16.9957 12.1943 16.9715 12.1726 16.9522C12.1509 16.933 12.1248 16.9191 12.0966 16.9118L11.1175 16.6507C10.9731 16.6123 10.8451 16.7521 10.8981 16.8909L11.9335 19.5678C11.9785 19.6833 12.1228 19.7218 12.2199 19.6442L15.6887 16.8538C15.8066 16.7606 15.766 16.5757 15.6217 16.5372ZM7.33694 18.9372L2.18608 17.5637L6.34507 2.11819L18.7782 5.43332L16.7459 12.9806C16.7199 13.0771 16.7786 13.1774 16.8763 13.2035L18.1196 13.535C18.2173 13.561 18.3185 13.5033 18.3445 13.4068L20.613 4.98196C20.7176 4.59363 20.4846 4.19524 20.0916 4.09046L5.88234 0.301741C5.48936 0.196959 5.0874 0.426042 4.98283 0.814375L0.351231 18.0151C0.246666 18.4034 0.479674 18.8018 0.872649 18.9066L6.91159 20.5168C7.00927 20.5429 7.11047 20.4852 7.13646 20.3887L7.46729 19.16C7.49328 19.0635 7.43463 18.9632 7.33694 18.9372Z" fill="#EE2E7E" fill-opacity="0.2"/>
</svg>
