<svg width="26" height="26" viewBox="0 0 26 26" fill="none" xmlns="http://www.w3.org/2000/svg">
<path fill-rule="evenodd" clip-rule="evenodd" d="M6.12005 8.59361C6.62512 7.13499 7.63805 5.9087 8.97586 5.13627C11.7077 3.57046 15.1587 4.30541 16.9314 6.78779C18.6813 6.09001 20.7313 6.72323 21.6993 8.38766C22.7619 10.2149 22.0873 12.5427 20.2441 13.5992L17.5154 15.1633C17.3807 15.2405 17.2204 15.2609 17.0697 15.2201C16.919 15.1793 16.7902 15.0805 16.7118 14.9456C16.6333 14.8107 16.6116 14.6507 16.6513 14.5007C16.6911 14.3507 16.789 14.2231 16.9237 14.1459L19.6535 12.5812C20.9645 11.8298 21.4026 10.2059 20.6837 8.96975C19.9643 7.73261 18.3296 7.29675 17.0165 8.04939L16.5088 8.34044L16.2129 7.83175C14.9004 5.57259 11.9317 4.79855 9.56754 6.15365C8.47319 6.78677 7.64477 7.7908 7.23169 8.98468C6.8487 10.0887 6.91161 11.1188 7.27667 11.7465L7.54174 12.2023L7.11882 12.5112C5.79064 13.48 5.38876 15.2663 6.19699 16.6561C7.06499 18.1486 9.03299 18.6687 10.6081 17.7659L12.8616 16.4742C12.9962 16.397 13.1566 16.3766 13.3073 16.4174C13.458 16.4582 13.5867 16.557 13.6652 16.6919C13.7436 16.8268 13.7654 16.9868 13.7256 17.1368C13.6859 17.2868 13.5879 17.4144 13.4532 17.4916L11.1998 18.7833C9.09455 19.9899 6.39321 19.3217 5.18146 17.2381C4.13833 15.4445 4.56015 13.2222 6.04327 11.8702C5.67788 10.909 5.73266 9.71096 6.12005 8.59361Z" fill="#F7B923" fill-opacity="0.3"/>
<path fill-rule="evenodd" clip-rule="evenodd" d="M11.058 9.55216C11.0776 9.47788 11.1117 9.4083 11.1584 9.3474C11.2051 9.2865 11.2634 9.23548 11.3301 9.19726C11.3968 9.15904 11.4705 9.13438 11.5469 9.12468C11.6234 9.11499 11.7012 9.12044 11.7757 9.14075L16.589 10.4444C16.7396 10.4852 16.8683 10.5839 16.9467 10.7188C17.0252 10.8536 17.0469 11.0136 17.0072 11.1635C16.9674 11.3134 16.8695 11.441 16.7349 11.5181C16.6003 11.5953 16.44 11.6157 16.2894 11.5749L12.8457 10.6413L18.0393 19.572C18.1176 19.7067 18.1393 19.8664 18.0996 20.0162C18.0599 20.1659 17.9621 20.2933 17.8277 20.3704C17.6933 20.4474 17.5332 20.4678 17.3828 20.4271C17.2323 20.3863 17.1038 20.2878 17.0255 20.1531L11.832 11.2224L10.9245 14.6501C10.8848 14.8 10.7868 14.9275 10.6522 15.0047C10.5176 15.0818 10.3574 15.1023 10.2068 15.0615C10.0561 15.0207 9.92745 14.922 9.84902 14.7871C9.7706 14.6523 9.74886 14.4923 9.78859 14.3424L11.058 9.55216Z" fill="#F7B923" fill-opacity="0.3"/>
</svg>
