<svg width="24" height="23" viewBox="0 0 24 23" fill="none" xmlns="http://www.w3.org/2000/svg">
<path d="M7.44868 12.7238C7.34753 12.5494 7.32012 12.3422 7.37248 12.1478C7.42484 11.9533 7.55269 11.7875 7.72789 11.6869C7.90309 11.5862 8.11131 11.5589 8.30672 11.611C8.50214 11.6631 8.66875 11.7904 8.7699 11.9647C8.87106 12.1391 8.89847 12.3462 8.84611 12.5407C8.79374 12.7352 8.6659 12.901 8.4907 13.0016C8.31549 13.1023 8.10728 13.1296 7.91186 13.0775C7.71645 13.0253 7.54984 12.8981 7.44868 12.7238ZM9.2535 14.3164C9.0783 14.417 8.95045 14.5828 8.89809 14.7773C8.84573 14.9717 8.87314 15.1789 8.97429 15.3533C9.07545 15.5276 9.24206 15.6548 9.43747 15.7069C9.63289 15.7591 9.8411 15.7318 10.0163 15.6311C10.1915 15.5305 10.3194 15.3647 10.3717 15.1702C10.4241 14.9757 10.3967 14.7686 10.2955 14.5942C10.1944 14.4199 10.0277 14.2926 9.83233 14.2405C9.63692 14.1884 9.4287 14.2157 9.2535 14.3164ZM10.4999 17.9828C10.3988 17.8084 10.3713 17.6012 10.4237 17.4068C10.4761 17.2123 10.6039 17.0465 10.7791 16.9459C10.9543 16.8452 11.1625 16.8179 11.3579 16.87C11.5534 16.9221 11.72 17.0494 11.8211 17.2237C11.9223 17.398 11.9497 17.6052 11.8973 17.7997C11.845 17.9942 11.7171 18.16 11.5419 18.2606C11.3667 18.3613 11.1585 18.3885 10.9631 18.3364C10.7677 18.2843 10.6011 18.1571 10.4999 17.9828ZM10.3703 10.1687C10.1951 10.2694 10.0673 10.4352 10.0149 10.6296C9.96255 10.8241 9.98996 11.0313 10.0911 11.2056C10.1923 11.38 10.3589 11.5072 10.5543 11.5593C10.7497 11.6114 10.9579 11.5841 11.1331 11.4835L15.9776 8.70022C16.1528 8.59957 16.2806 8.43377 16.333 8.23931C16.3854 8.04485 16.358 7.83766 16.2568 7.66332C16.1556 7.48897 15.989 7.36175 15.7936 7.30965C15.5982 7.25754 15.39 7.28482 15.2148 7.38548L10.3703 10.1687ZM11.6167 13.8351C11.5156 13.6608 11.4882 13.4536 11.5405 13.2591C11.5929 13.0647 11.7207 12.8989 11.8959 12.7982L16.7404 10.015C16.9156 9.91431 17.1238 9.88704 17.3192 9.93914C17.5146 9.99125 17.6813 10.1185 17.7824 10.2928C17.8836 10.4672 17.911 10.6743 17.8586 10.8688C17.8063 11.0633 17.6784 11.2291 17.5032 11.3297L12.6587 14.113C12.4835 14.2136 12.2753 14.2409 12.0799 14.1888C11.8845 14.1367 11.7179 14.0095 11.6167 13.8351ZM13.4215 15.4277C13.2463 15.5284 13.1185 15.6942 13.0661 15.8886C13.0138 16.0831 13.0412 16.2903 13.1423 16.4646C13.2435 16.639 13.4101 16.7662 13.6055 16.8183C13.8009 16.8704 14.0091 16.8431 14.1843 16.7425L19.0288 13.9592C19.204 13.8586 19.3319 13.6928 19.3842 13.4983C19.4366 13.3038 19.4092 13.0967 19.308 12.9223C19.2069 12.748 19.0403 12.6207 18.8448 12.5686C18.6494 12.5165 18.4412 12.5438 18.266 12.6445L13.4215 15.4277ZM16.4323 3.07947L8.33433 0.920985C8.3134 0.916214 8.29219 0.912786 8.27083 0.910721C8.25508 0.908613 8.23941 0.905918 8.22386 0.902644C8.13024 0.880552 8.03521 0.864866 7.93943 0.855698C7.90847 0.854178 7.87745 0.854819 7.84659 0.857616L7.7921 0.86087L7.73331 0.860754C7.66999 0.860909 7.60527 0.860693 7.54286 0.868502C7.32701 0.899562 7.11767 0.965361 6.92305 1.06332C6.90498 1.0722 6.88644 1.08012 6.86753 1.08704C6.84149 1.0971 6.81617 1.10892 6.79174 1.1224L1.35537 4.24572C0.888161 4.51414 0.547241 4.95626 0.407611 5.47482C0.267981 5.99337 0.341079 6.54589 0.610823 7.01081L8.74741 21.0348C9.01715 21.4997 9.46145 21.839 9.98256 21.9779C10.5037 22.1168 11.0589 22.0441 11.5261 21.7757L22.0958 15.7031C22.5631 15.4347 22.904 14.9926 23.0436 14.474C23.1832 13.9555 23.1101 13.403 22.8404 12.938L17.6676 4.0223C17.3977 3.55747 16.9534 3.21833 16.4323 3.07947ZM21.5192 13.6971C21.5866 13.8133 21.6049 13.9515 21.57 14.0811C21.5351 14.2107 21.4498 14.3213 21.333 14.3884L10.7633 20.4609C10.6465 20.528 10.5077 20.5462 10.3774 20.5115C10.2471 20.4768 10.1361 20.3919 10.0686 20.2757L1.93204 6.25174C1.8646 6.13551 1.84633 5.99738 1.88124 5.86774C1.91614 5.7381 2.00137 5.62757 2.11818 5.56047L7.40305 2.52419L9.69146 6.46843C9.9612 6.93335 10.4055 7.2726 10.9266 7.41155C11.4477 7.5505 12.0029 7.47776 12.4702 7.20933L16.4338 4.93212L21.5192 13.6971ZM9.29433 2.74767L14.6827 4.18516L11.7074 5.89459C11.5905 5.96169 11.4517 5.97988 11.3215 5.94514C11.1912 5.9104 11.0801 5.82559 11.0127 5.70936L9.29433 2.74767Z" fill="#65CDF0" fill-opacity="0.2"/>
</svg>
