<svg width="24" height="22" viewBox="0 0 24 22" fill="none" xmlns="http://www.w3.org/2000/svg">
<path d="M14.483 4.36696C15.5927 5.06273 16.3708 6.24011 16.5125 7.60679C16.965 7.81825 17.4673 7.93985 17.9999 7.93985C19.944 7.93985 21.5197 6.36411 21.5197 4.42027C21.5197 2.47613 19.944 0.900391 17.9999 0.900391C16.0743 0.90099 14.5123 2.44858 14.483 4.36696ZM12.177 11.5738C14.1212 11.5738 15.6969 9.99781 15.6969 8.05397C15.6969 6.11013 14.1209 4.53439 12.177 4.53439C10.2332 4.53439 8.65653 6.11042 8.65653 8.05427C8.65653 9.99811 10.2332 11.5738 12.177 11.5738ZM13.6701 11.8138H10.6833C8.19828 11.8138 6.17656 13.8358 6.17656 16.3208V19.9734L6.18585 20.0306L6.43744 20.1094C8.80899 20.8504 10.8693 21.0975 12.5652 21.0975C15.8775 21.0975 17.7974 20.1531 17.9157 20.0929L18.1508 19.974H18.176V16.3208C18.1769 13.8358 16.1551 11.8138 13.6701 11.8138ZM19.4935 8.18006H16.5298C16.4978 9.36584 15.9916 10.4336 15.191 11.2016C17.3999 11.8584 19.0161 13.9068 19.0161 16.3262V17.4518C21.9423 17.3446 23.6286 16.5152 23.7397 16.4595L23.9748 16.3403H24V12.6865C24 10.2018 21.9783 8.18006 19.4935 8.18006ZM6.00075 7.94045C6.68933 7.94045 7.32999 7.73948 7.87271 7.39713C8.04523 6.27186 8.64845 5.28856 9.51015 4.61885C9.51374 4.55296 9.52003 4.48766 9.52003 4.42117C9.52003 2.47703 7.94399 0.901289 6.00075 0.901289C4.05631 0.901289 2.48087 2.47703 2.48087 4.42117C2.48087 6.36441 4.05631 7.94045 6.00075 7.94045ZM9.16181 11.2016C8.36511 10.4375 7.86073 9.37542 7.82389 8.19683C7.71397 8.18875 7.60524 8.18006 7.49322 8.18006H4.50678C2.02171 8.18006 0 10.2018 0 12.6865V16.3397L0.00928491 16.396L0.260876 16.4754C2.16338 17.0693 3.86133 17.3431 5.33613 17.4293V16.3262C5.33673 13.9068 6.9523 11.859 9.16181 11.2016Z" fill="black"/>
</svg>
