<svg width="18" height="20" viewBox="0 0 18 20" fill="none" xmlns="http://www.w3.org/2000/svg">
<path d="M9 11.832C8.74028 11.832 8.52257 11.7442 8.34688 11.5685C8.17118 11.3928 8.08333 11.1751 8.08333 10.9154C8.08333 10.6556 8.17118 10.4379 8.34688 10.2622C8.52257 10.0865 8.74028 9.9987 9 9.9987C9.25972 9.9987 9.47743 10.0865 9.65312 10.2622C9.82882 10.4379 9.91667 10.6556 9.91667 10.9154C9.91667 11.1751 9.82882 11.3928 9.65312 11.5685C9.47743 11.7442 9.25972 11.832 9 11.832ZM5.33333 11.832C5.07361 11.832 4.8559 11.7442 4.68021 11.5685C4.50451 11.3928 4.41667 11.1751 4.41667 10.9154C4.41667 10.6556 4.50451 10.4379 4.68021 10.2622C4.8559 10.0865 5.07361 9.9987 5.33333 9.9987C5.59306 9.9987 5.81076 10.0865 5.98646 10.2622C6.16215 10.4379 6.25 10.6556 6.25 10.9154C6.25 11.1751 6.16215 11.3928 5.98646 11.5685C5.81076 11.7442 5.59306 11.832 5.33333 11.832ZM12.6667 11.832C12.4069 11.832 12.1892 11.7442 12.0135 11.5685C11.8378 11.3928 11.75 11.1751 11.75 10.9154C11.75 10.6556 11.8378 10.4379 12.0135 10.2622C12.1892 10.0865 12.4069 9.9987 12.6667 9.9987C12.9264 9.9987 13.1441 10.0865 13.3198 10.2622C13.4955 10.4379 13.5833 10.6556 13.5833 10.9154C13.5833 11.1751 13.4955 11.3928 13.3198 11.5685C13.1441 11.7442 12.9264 11.832 12.6667 11.832ZM9 15.4987C8.74028 15.4987 8.52257 15.4109 8.34688 15.2352C8.17118 15.0595 8.08333 14.8418 8.08333 14.582C8.08333 14.3223 8.17118 14.1046 8.34688 13.9289C8.52257 13.7532 8.74028 13.6654 9 13.6654C9.25972 13.6654 9.47743 13.7532 9.65312 13.9289C9.82882 14.1046 9.91667 14.3223 9.91667 14.582C9.91667 14.8418 9.82882 15.0595 9.65312 15.2352C9.47743 15.4109 9.25972 15.4987 9 15.4987ZM5.33333 15.4987C5.07361 15.4987 4.8559 15.4109 4.68021 15.2352C4.50451 15.0595 4.41667 14.8418 4.41667 14.582C4.41667 14.3223 4.50451 14.1046 4.68021 13.9289C4.8559 13.7532 5.07361 13.6654 5.33333 13.6654C5.59306 13.6654 5.81076 13.7532 5.98646 13.9289C6.16215 14.1046 6.25 14.3223 6.25 14.582C6.25 14.8418 6.16215 15.0595 5.98646 15.2352C5.81076 15.4109 5.59306 15.4987 5.33333 15.4987ZM12.6667 15.4987C12.4069 15.4987 12.1892 15.4109 12.0135 15.2352C11.8378 15.0595 11.75 14.8418 11.75 14.582C11.75 14.3223 11.8378 14.1046 12.0135 13.9289C12.1892 13.7532 12.4069 13.6654 12.6667 13.6654C12.9264 13.6654 13.1441 13.7532 13.3198 13.9289C13.4955 14.1046 13.5833 14.3223 13.5833 14.582C13.5833 14.8418 13.4955 15.0595 13.3198 15.2352C13.1441 15.4109 12.9264 15.4987 12.6667 15.4987ZM2.125 19.1654C1.75833 19.1654 1.4375 19.0279 1.1625 18.7529C0.8875 18.4779 0.75 18.157 0.75 17.7904V3.58203C0.75 3.21536 0.8875 2.89453 1.1625 2.61953C1.4375 2.34453 1.75833 2.20703 2.125 2.20703H3.61458V1.56536C3.61458 1.35148 3.68333 1.17578 3.82083 1.03828C3.95833 0.900781 4.13403 0.832031 4.34792 0.832031C4.56181 0.832031 4.74132 0.900781 4.88646 1.03828C5.0316 1.17578 5.10417 1.35148 5.10417 1.56536V2.20703H12.8958V1.56536C12.8958 1.35148 12.9646 1.17578 13.1021 1.03828C13.2396 0.900781 13.4153 0.832031 13.6292 0.832031C13.8431 0.832031 14.0226 0.900781 14.1677 1.03828C14.3128 1.17578 14.3854 1.35148 14.3854 1.56536V2.20703H15.875C16.2417 2.20703 16.5625 2.34453 16.8375 2.61953C17.1125 2.89453 17.25 3.21536 17.25 3.58203V17.7904C17.25 18.157 17.1125 18.4779 16.8375 18.7529C16.5625 19.0279 16.2417 19.1654 15.875 19.1654H2.125ZM2.125 17.7904H15.875V7.9362H2.125V17.7904Z" fill="#A0A3BD"/>
</svg>
