<svg width="18" height="19" viewBox="0 0 18 19" fill="none" xmlns="http://www.w3.org/2000/svg">
<path d="M8.33975 2.62274C7.22097 0.694445 4.72895 0.0225726 2.78236 1.14094C0.835763 2.2593 0.174476 4.74282 1.29326 6.67111C2.41712 8.60818 4.90405 9.27128 6.85065 8.15292C8.79724 7.03456 9.46361 4.5598 8.33975 2.62274ZM1.29811 12.2662C1.0301 12.726 0.855825 13.2339 0.785254 13.7607C0.714683 14.2876 0.7492 14.8232 0.886831 15.3368C1.02446 15.8503 1.26251 16.3319 1.58734 16.7538C1.91218 17.1758 2.31744 17.5299 2.77992 17.7958C3.7152 18.3338 4.82689 18.4801 5.87057 18.2027C6.91425 17.9252 7.80447 17.2466 8.34551 16.3162C8.61245 15.8551 8.7855 15.3463 8.8548 14.8187C8.9241 14.2911 8.88828 13.7551 8.74939 13.2413C8.61049 12.7274 8.37125 12.2459 8.04532 11.8241C7.71938 11.4023 7.31315 11.0485 6.8498 10.7829C4.9096 9.66544 2.42107 10.3355 1.29811 12.2662ZM13.2076 13.5228C15.4581 13.5153 17.2768 11.7109 17.2832 9.47503C17.2757 7.23551 15.4623 5.42578 13.2067 5.42448C10.9649 5.42688 9.1375 7.23642 9.13991 9.46718C9.13935 9.99927 9.24413 10.5263 9.44826 11.018C9.65238 11.5098 9.95186 11.9568 10.3296 12.3334C10.7073 12.71 11.1559 13.0089 11.6497 13.213C12.1435 13.417 12.6729 13.5223 13.2076 13.5228Z" fill="#EE2E7E" fill-opacity="0.2"/>
</svg>
