<svg width="24" height="24" viewBox="0 0 24 24" fill="none" xmlns="http://www.w3.org/2000/svg">
<path d="M17.467 1.12099C18.1852 0.403045 19.1592 -0.00018748 20.1747 6.53918e-08C21.1902 0.000187611 22.1641 0.40378 22.882 1.12199C23.6 1.8402 24.0032 2.8142 24.003 3.82971C24.0028 4.84523 23.5992 5.81908 22.881 6.53702L21.415 8.00103L15.997 2.589L17.465 1.12099H17.467ZM14.587 4.00301L2.67488 15.9111C2.3133 16.2729 2.0408 16.7139 1.87887 17.1991L0.0508632 22.6851C-0.007534 22.8612 -0.015825 23.05 0.0269168 23.2304C0.0696586 23.4109 0.161749 23.576 0.292895 23.7071C0.424041 23.8382 0.589075 23.9303 0.769552 23.9731C0.950028 24.0158 1.13884 24.0075 1.31487 23.9491L6.80091 22.1211C7.28691 21.9611 7.72691 21.6871 8.08891 21.3251L20.001 9.41704L14.585 4.00301H14.587Z" fill="#F7B923"/>
</svg>
