<svg width="23" height="26" viewBox="0 0 23 26" fill="none" xmlns="http://www.w3.org/2000/svg">
<path d="M20.9279 14.4503L20.899 9.24657L18.2988 11.834L20.9279 14.4503ZM20.3433 15.8697L16.2767 11.8229L20.2987 7.82065L14.1987 1.75053L2.13277 13.7574L12.2994 23.8742L20.3433 15.8697ZM14.6958 0.244124L22.3208 7.83176L22.3655 15.8808L12.8133 25.3862C12.68 25.5189 12.4986 25.5928 12.3089 25.5918C12.1193 25.5907 11.9371 25.5148 11.8023 25.3806L0.61895 14.2521C0.484132 14.1179 0.407804 13.9365 0.406755 13.7479C0.405708 13.5592 0.480027 13.3786 0.613365 13.2459L13.6848 0.238565C13.8181 0.105882 13.9995 0.0319266 14.1891 0.032969C14.3788 0.0340115 14.561 0.109966 14.6958 0.244124ZM9.70189 11.2837L14.7852 16.3422L13.7797 17.3427L8.6964 12.2843L9.70189 11.2837Z" fill="#65CDF0" fill-opacity="0.2"/>
</svg>
