<svg width="29" height="38" viewBox="0 0 29 38" fill="none" xmlns="http://www.w3.org/2000/svg">
<path d="M22.8307 0H0V37.0202H29V6.16926L22.8307 0Z" fill="#E8E8E8"/>
<path d="M24.0746 18.3101C23.6298 17.5173 22.0927 17.2682 21.3876 17.1561C20.8318 17.0677 20.2643 17.0413 19.7022 17.0418C19.2608 17.0389 18.8258 17.0606 18.3965 17.085C18.2383 17.0956 18.0816 17.1093 17.9251 17.1229C17.7646 16.9568 17.6096 16.7852 17.4595 16.6098C16.5047 15.4795 15.7337 14.1976 15.1055 12.8656C15.2723 12.222 15.4057 11.5503 15.4863 10.8527C15.6335 9.57957 15.684 8.12862 15.207 6.91479C15.0422 6.49585 14.603 5.98583 14.0963 6.2398C13.5137 6.53187 13.3499 7.35937 13.3024 7.94595C13.2642 8.42008 13.2909 8.89542 13.3705 9.36161C13.4516 9.83098 13.5821 10.2767 13.7243 10.7217C13.8569 11.1298 14.003 11.5347 14.1624 11.9358C14.0613 12.2516 13.9539 12.5618 13.8412 12.8641C13.5785 13.5532 13.2943 14.2078 13.0211 14.8375C12.877 15.1497 12.736 15.4553 12.598 15.7541C12.1613 16.7132 11.6873 17.6547 11.1553 18.5649C9.91439 19.0026 8.80081 19.5101 7.876 20.1065C7.37989 20.427 6.94167 20.7751 6.5767 21.1569C6.23212 21.5174 5.88193 21.9851 5.85128 22.503C5.83407 22.7953 5.94982 23.0789 6.18927 23.2523C6.51858 23.4984 6.95497 23.482 7.33704 23.4019C8.58859 23.1394 9.54967 22.0635 10.3681 21.1568C10.9319 20.5322 11.5735 19.7392 12.2447 18.78C12.2462 18.7778 12.2477 18.7756 12.2492 18.7734C13.4004 18.4165 14.6533 18.1152 15.983 17.8937C16.5905 17.793 17.2141 17.7105 17.8501 17.6527C18.2974 18.0716 18.7807 18.4531 19.3079 18.7716C19.7185 19.0242 20.1553 19.2376 20.6125 19.3967C21.0747 19.5477 21.5398 19.671 22.0201 19.7491C22.2626 19.7837 22.5106 19.7995 22.7639 19.79C23.3294 19.7686 24.141 19.5517 24.1942 18.8656C24.2106 18.6556 24.1653 18.4715 24.0746 18.3101ZM10.5371 19.569C10.2723 19.9792 10.0168 20.3482 9.77617 20.6729C9.18678 21.4749 8.51362 22.4274 7.53899 22.7836C7.35389 22.8512 7.11017 22.9211 6.85326 22.9059C6.62444 22.8925 6.39879 22.7915 6.40917 22.5317C6.4143 22.3956 6.48085 22.2221 6.58293 22.0517C6.69465 21.8647 6.83299 21.6933 6.98281 21.5357C7.30382 21.1984 7.70969 20.8715 8.17662 20.5689C8.89275 20.1043 9.74772 19.686 10.7007 19.3129C10.6459 19.3996 10.5912 19.4858 10.5371 19.569ZM13.861 9.28054C13.7875 8.85147 13.7764 8.41641 13.8216 7.99809C13.844 7.78893 13.8867 7.58477 13.9483 7.39343C14.0006 7.23104 14.1134 6.83469 14.2934 6.78377C14.5901 6.69976 14.6813 7.33678 14.7149 7.517C14.9061 8.54218 14.7376 9.68226 14.5082 10.6879C14.4716 10.8479 14.431 11.0052 14.3893 11.162C14.3183 10.9665 14.2505 10.7704 14.1881 10.5734C14.0538 10.143 13.931 9.70753 13.861 9.28054ZM15.8981 17.3735C14.7833 17.5542 13.7228 17.791 12.7259 18.0705C12.846 18.0369 13.3945 16.9975 13.5168 16.7817C14.0932 15.7664 14.5648 14.7008 14.9036 13.583C15.502 14.7663 16.2281 15.8983 17.1202 16.9059C17.2024 16.9973 17.2859 17.0877 17.3709 17.177C16.871 17.2308 16.379 17.2964 15.8981 17.3735ZM23.4372 18.8014C23.3964 19.0218 22.9257 19.1478 22.706 19.1825C22.0569 19.2846 21.3702 19.2029 20.749 18.9942C20.3227 18.8511 19.9116 18.6562 19.521 18.4218C19.1327 18.1872 18.7694 17.9113 18.4299 17.607C18.8486 17.5818 19.2724 17.5654 19.6983 17.5734C20.1242 17.5777 20.5534 17.5992 20.9773 17.6545C21.7723 17.7431 22.6632 18.016 23.289 18.5319C23.4122 18.6336 23.4515 18.7235 23.4372 18.8014Z" fill="#FB3449"/>
<path d="M23.7855 3.08469H0V0H22.8307L23.7855 3.08469Z" fill="#FB3449"/>
<path d="M11.4781 29.4414C11.4781 30.096 11.2852 30.6015 10.8991 30.9581C10.513 31.3147 9.96473 31.493 9.25409 31.493H8.80926V33.4365H7.22656V27.5781H9.25421C9.99415 27.5781 10.5498 27.7398 10.9212 28.063C11.2925 28.3862 11.4781 28.8457 11.4781 29.4414ZM8.80939 30.2027H9.09792C9.33565 30.2027 9.52467 30.1361 9.66496 30.0024C9.80526 29.8688 9.87535 29.6844 9.87535 29.4494C9.87535 29.054 9.65629 28.8563 9.21819 28.8563H8.80939V30.2027Z" fill="#A4A9AD"/>
<path d="M17.385 30.3831C17.385 31.3608 17.1158 32.1141 16.5775 32.6431C16.0393 33.172 15.2825 33.4365 14.3075 33.4365H12.4121V27.5781H14.4398C15.3801 27.5781 16.106 27.8185 16.6176 28.2994C17.1291 28.7802 17.385 29.4749 17.385 30.3831ZM15.7421 30.4392C15.7421 29.9022 15.6359 29.5043 15.4235 29.2451C15.2112 28.986 14.8886 28.8564 14.4558 28.8564H13.9951V32.1382H14.3477C14.8287 32.1382 15.1812 31.9986 15.4056 31.7194C15.6299 31.4404 15.7421 31.0136 15.7421 30.4392Z" fill="#A4A9AD"/>
<path d="M19.9933 33.4365H18.4346V27.5781H21.8968V28.8484H19.9933V29.9663H21.7485V31.2366H19.9933V33.4365Z" fill="#A4A9AD"/>
<path d="M22.8301 6.16926H28.9993L22.8301 0V6.16926Z" fill="#D1D3D3"/>
</svg>
