<svg width="20" height="20" viewBox="0 0 20 20" fill="none" xmlns="http://www.w3.org/2000/svg">
<path d="M3.75 18.3337C3.41667 18.3337 3.125 18.2087 2.875 17.9587C2.625 17.7087 2.5 17.417 2.5 17.0837V4.16699C2.5 3.83366 2.625 3.54199 2.875 3.29199C3.125 3.04199 3.41667 2.91699 3.75 2.91699H5.10417V1.66699H6.45833V2.91699H13.5417V1.66699H14.8958V2.91699H16.25C16.5833 2.91699 16.875 3.04199 17.125 3.29199C17.375 3.54199 17.5 3.83366 17.5 4.16699V10.4378H16.25V8.12533H3.75V17.0837H10.3958V18.3337H3.75ZM18.5208 13.7712L17.0417 12.292L17.6458 11.6878C17.7569 11.5767 17.9028 11.5212 18.0833 11.5212C18.2639 11.5212 18.4097 11.5767 18.5208 11.6878L19.125 12.292C19.2361 12.4031 19.2917 12.5489 19.2917 12.7295C19.2917 12.91 19.2361 13.0559 19.125 13.167L18.5208 13.7712ZM11.6458 19.167V17.6878L16.1458 13.1878L17.625 14.667L13.125 19.167H11.6458ZM3.75 6.87533H16.25V4.16699H3.75V6.87533ZM3.75 6.87533V4.16699V6.87533Z" fill="white"/>
</svg>
