<svg width="22" height="22" viewBox="0 0 22 22" fill="none" xmlns="http://www.w3.org/2000/svg">
<path d="M16.5408 9.76951C16.7937 9.76951 17.0237 9.79244 17.2766 9.81553L17.2764 4.94142C17.2764 3.40102 16.0118 2.13651 14.4715 2.13651H12.6782V1.44673C12.6782 1.03298 12.3563 0.710938 11.9424 0.710938C11.5286 0.710938 11.2066 1.0328 11.2066 1.44673V2.13651H6.14857V1.44673C6.14857 1.03298 5.8267 0.710938 5.41278 0.710938C4.99902 0.710938 4.67698 1.0328 4.67698 1.44673V2.13651H2.90663C1.34365 2.13651 0.0791016 3.4009 0.0791016 4.94142V14.5517C0.0791016 16.0921 1.34365 17.3566 2.88401 17.3566H9.71235C9.68941 17.1037 9.66632 16.8737 9.66632 16.6208C9.68925 12.8503 12.7702 9.76947 16.5406 9.76947L16.5408 9.76951ZM1.55061 6.38982V4.96441C1.55061 4.22861 2.14833 3.60798 2.90704 3.60798H4.67739V4.29775C4.67739 4.71151 4.99925 5.03355 5.41318 5.03355C5.82694 5.03355 6.14898 4.71168 6.14898 4.29775V3.60798H11.207V4.29775C11.207 4.71151 11.5289 5.03355 11.9428 5.03355C12.3566 5.03355 12.6786 4.71168 12.6786 4.29775V3.60798H14.4719C15.2077 3.60798 15.8054 4.2057 15.8054 4.96441V6.38982H1.55061Z" fill="#65CDF0"/>
<path d="M16.5408 11.2402C13.575 11.2402 11.1609 13.6543 11.1609 16.6201C11.1609 19.5859 13.575 22.0001 16.5408 22.0001C19.5066 22.0001 21.9207 19.5859 21.9207 16.6201C21.9207 13.6543 19.5066 11.2402 16.5408 11.2402ZM18.5639 17.3559H16.5406C16.1269 17.3559 15.8048 17.034 15.8048 16.6201L15.805 14.1141C15.805 13.7003 16.1269 13.3783 16.5408 13.3783C16.9545 13.3783 17.2766 13.7001 17.2766 14.1141V15.8844H18.564C18.9778 15.8844 19.2998 16.2063 19.2998 16.6202C19.2997 17.034 18.9778 17.3559 18.5639 17.3559H18.5639Z" fill="#65CDF0"/>
</svg>
