<svg width="44" height="44" viewBox="0 0 44 44" fill="none" xmlns="http://www.w3.org/2000/svg">
<g filter="url(#filter0_d_14368_5305)">
<circle cx="22" cy="21" r="18" fill="#FF4D4F"/>
<path d="M22 9C19.6266 9 17.3066 9.70379 15.3332 11.0224C13.3598 12.3409 11.8217 14.2151 10.9135 16.4078C10.0052 18.6005 9.76756 21.0133 10.2306 23.3411C10.6936 25.6689 11.8365 27.807 13.5147 29.4853C15.193 31.1635 17.3311 32.3064 19.6589 32.7694C21.9867 33.2324 24.3995 32.9948 26.5922 32.0865C28.7849 31.1783 30.6591 29.6402 31.9776 27.6668C33.2962 25.6935 34 23.3734 34 21C33.9962 17.8186 32.7308 14.7685 30.4811 12.5189C28.2315 10.2692 25.1814 9.00375 22 9ZM26.6276 24.0862C26.7318 24.1868 26.8149 24.3072 26.8721 24.4403C26.9293 24.5734 26.9594 24.7165 26.9606 24.8614C26.9619 25.0062 26.9343 25.1499 26.8794 25.2839C26.8246 25.418 26.7436 25.5398 26.6412 25.6422C26.5387 25.7447 26.4169 25.8257 26.2829 25.8805C26.1488 25.9354 26.0051 25.963 25.8603 25.9617C25.7154 25.9605 25.5723 25.9304 25.4392 25.8732C25.3061 25.816 25.1857 25.7329 25.0851 25.6287L22 22.5425L18.9149 25.6287C18.7092 25.8274 18.4336 25.9374 18.1476 25.9349C17.8615 25.9324 17.5879 25.8177 17.3857 25.6154C17.1834 25.4132 17.0687 25.1396 17.0662 24.8535C17.0637 24.5675 17.1736 24.2919 17.3724 24.0862L20.4575 21L17.3724 17.9138C17.2682 17.8132 17.1851 17.6928 17.1279 17.5597C17.0707 17.4266 17.0406 17.2835 17.0394 17.1386C17.0381 16.9938 17.0657 16.8501 17.1206 16.716C17.1754 16.582 17.2564 16.4602 17.3588 16.3577C17.4613 16.2553 17.5831 16.1743 17.7171 16.1195C17.8512 16.0646 17.9949 16.037 18.1397 16.0383C18.2846 16.0395 18.4277 16.0696 18.5608 16.1268C18.6939 16.184 18.8143 16.2671 18.9149 16.3713L22 19.4575L25.0851 16.3713C25.1857 16.2671 25.3061 16.184 25.4392 16.1268C25.5723 16.0696 25.7154 16.0395 25.8603 16.0383C26.0051 16.037 26.1488 16.0646 26.2829 16.1195C26.4169 16.1743 26.5387 16.2553 26.6412 16.3577C26.7436 16.4602 26.8246 16.582 26.8794 16.716C26.9343 16.8501 26.9619 16.9938 26.9606 17.1386C26.9594 17.2835 26.9293 17.4266 26.8721 17.5597C26.8149 17.6928 26.7318 17.8132 26.6276 17.9138L23.5425 21L26.6276 24.0862Z" fill="#FCFCFC"/>
</g>
<defs>
<filter id="filter0_d_14368_5305" x="0" y="0" width="44" height="44" filterUnits="userSpaceOnUse" color-interpolation-filters="sRGB">
<feFlood flood-opacity="0" result="BackgroundImageFix"/>
<feColorMatrix in="SourceAlpha" type="matrix" values="0 0 0 0 0 0 0 0 0 0 0 0 0 0 0 0 0 0 127 0" result="hardAlpha"/>
<feOffset dy="1"/>
<feGaussianBlur stdDeviation="2"/>
<feComposite in2="hardAlpha" operator="out"/>
<feColorMatrix type="matrix" values="0 0 0 0 1 0 0 0 0 0.301961 0 0 0 0 0.309804 0 0 0 1 0"/>
<feBlend mode="normal" in2="BackgroundImageFix" result="effect1_dropShadow_14368_5305"/>
<feBlend mode="normal" in="SourceGraphic" in2="effect1_dropShadow_14368_5305" result="shape"/>
</filter>
</defs>
</svg>
