<svg width="17" height="14" viewBox="0 0 17 14" fill="none" xmlns="http://www.w3.org/2000/svg">
<path d="M1.37594 9.50416H2.34213V7.10663C2.34213 6.84194 2.55856 6.62713 2.82523 6.62713H8.13929V4.7091H7.1731C6.90643 4.7091 6.69 4.49428 6.69 4.22959V1.35255C6.69 1.08787 6.90643 0.873047 7.1731 0.873047H10.0717C10.3383 0.873047 10.5548 1.08787 10.5548 1.35255V4.22959C10.5548 4.49428 10.3383 4.7091 10.0717 4.7091H9.10548V6.62713H14.4195C14.6862 6.62713 14.9026 6.84194 14.9026 7.10663V9.50416H15.8688C16.1355 9.50416 16.3519 9.71898 16.3519 9.98367V12.8607C16.3519 13.1254 16.1355 13.3402 15.8688 13.3402H12.9703C12.7036 13.3402 12.4872 13.1254 12.4872 12.8607V9.98367C12.4872 9.71898 12.7036 9.50416 12.9703 9.50416H13.9364V7.58614H9.10548V9.50416H10.0717C10.3383 9.50416 10.5548 9.71898 10.5548 9.98367V12.8607C10.5548 13.1254 10.3383 13.3402 10.0717 13.3402H7.1731C6.90643 13.3402 6.69 13.1254 6.69 12.8607V9.98367C6.69 9.71898 6.90643 9.50416 7.1731 9.50416H8.13929V7.58614H3.30833V9.50416H4.27452C4.54119 9.50416 4.75761 9.71898 4.75761 9.98367V12.8607C4.75761 13.1254 4.54119 13.3402 4.27452 13.3402H1.37594C1.10927 13.3402 0.892843 13.1254 0.892843 12.8607V9.98367C0.892843 9.71898 1.10927 9.50416 1.37594 9.50416Z" fill="#65CDF0"/>
</svg>
