<svg width="17" height="21" viewBox="0 0 17 21" fill="none" xmlns="http://www.w3.org/2000/svg">
<path d="M14.3155 17.3086H6.41601C6.98953 16.0544 7.50707 14.4536 7.67018 12.5694H9.8623C10.5419 12.5694 11.0928 12.0185 11.0928 11.3389C11.0928 10.6594 10.5419 10.1085 9.8623 10.1085H7.56186C7.42019 9.55853 7.20691 9.06704 7.00868 8.61197C6.66132 7.81467 6.36133 7.12601 6.36133 6.08455C6.36133 5.54946 6.66953 4.97991 7.20691 4.52197C7.82629 3.99414 8.65538 3.69141 9.48143 3.69141C10.1947 3.69141 11.884 4.09935 12.5533 5.36033C13.0312 6.26067 14.1486 6.60331 15.049 6.12519C15.9494 5.64728 16.2918 4.52993 15.8138 3.62955C15.1592 2.3963 14.0792 1.40154 12.6906 0.752924C11.6662 0.274436 10.4964 0 9.48143 0C7.76649 0 6.10843 0.608098 4.81263 1.71232C3.45091 2.87273 2.66989 4.46636 2.66989 6.08455C2.66989 7.89518 3.22159 9.16158 3.6244 10.0863C3.62768 10.0938 3.6308 10.101 3.63408 10.1085H2.06934C1.38979 10.1085 0.838867 10.6594 0.838867 11.3389C0.838867 12.0185 1.38979 12.5694 2.06934 12.5694H3.96151C3.82013 13.7897 3.46715 14.9725 2.90696 16.0989C2.35915 17.2003 1.79925 17.8495 1.74831 17.9075C1.24513 18.4429 1.11531 19.2176 1.40603 19.8928C1.69765 20.57 2.3722 21 3.10937 21H14.3154C15.3348 21 16.1611 20.1737 16.1611 19.1543C16.1611 18.1349 15.3348 17.3086 14.3155 17.3086Z" fill="#65CDF0"/>
</svg>
