<svg width="100" height="100" viewBox="0 0 100 100" fill="none" xmlns="http://www.w3.org/2000/svg">
<path d="M46.8623 0H53.1117C53.372 0.0546818 53.6116 0.119778 53.8642 0.16144C56.9889 0.700446 60.2333 0.900953 63.2382 1.82794C82.9914 7.90022 94.9788 21.0837 99.2006 41.3785C99.5756 43.1856 99.7214 45.0396 99.9818 46.8701V53.1195C99.9116 53.3674 99.8576 53.6196 99.8203 53.8746C98.9428 64.8292 94.9276 74.4948 87.7174 82.7778C79.9656 91.6727 70.2323 97.1722 58.5981 99.2423C56.7753 99.5651 54.9526 99.763 53.1117 100H46.8623C46.6165 99.9286 46.3659 99.8746 46.1124 99.8386C40.7848 99.4428 35.6213 98.3022 30.7494 96.1332C14.2902 88.8136 4.24175 76.3254 0.765546 58.6189C0.408812 56.7962 0.244766 54.9604 0 53.1299V46.8701C0.0572857 46.5863 0.122387 46.3051 0.166653 46.0212C0.565049 43.4876 0.799396 40.9176 1.37486 38.4257C5.84835 19.0657 21.8311 4.07509 41.4748 0.747317C43.2585 0.445265 45.063 0.26039 46.8623 0ZM7.80387 49.9583C7.77263 73.2215 26.5988 92.1024 49.901 92.1779C73.2033 92.2534 92.1362 73.3569 92.1701 50.0286C92.2013 26.7576 73.3804 7.88459 50.0703 7.81169C26.7602 7.73878 7.83512 26.63 7.80387 49.9583Z" fill="#F7B923"/>
<path d="M53.8927 41.6624C53.8927 45.8573 53.911 50.0522 53.8927 54.247C53.8996 55.2377 53.528 56.1936 52.8539 56.9195C52.1798 57.6454 51.254 58.0866 50.2655 58.1529C48.4115 58.3273 46.6201 56.9915 46.1904 55.0829C46.1226 54.7655 46.0912 54.4414 46.0967 54.1168C46.0967 45.8226 46.0967 37.5292 46.0967 29.2366C46.0967 27.5936 46.8049 26.3411 48.2865 25.6094C48.9213 25.2669 49.6425 25.1177 50.3611 25.1801C51.0796 25.2426 51.7642 25.514 52.3304 25.9609C53.4319 26.7681 53.8927 27.9008 53.8927 29.2575C53.8927 33.3872 53.8927 37.5222 53.8927 41.6624Z" fill="#F7B923"/>
<path d="M49.9869 73.4428C48.9447 73.4439 47.9257 73.1357 47.0587 72.5574C46.1916 71.9791 45.5157 71.1566 45.1162 70.194C44.7168 69.2314 44.6119 68.172 44.8148 67.1497C45.0177 66.1275 45.5192 65.1884 46.256 64.4513C46.9927 63.7142 47.9316 63.2121 48.9537 63.0088C49.9759 62.8054 51.0354 62.9098 51.9982 63.3087C52.961 63.7076 53.7838 64.3832 54.3625 65.2499C54.9413 66.1167 55.2499 67.1356 55.2494 68.1777C55.2508 68.8693 55.1156 69.5544 54.8516 70.1936C54.5877 70.8329 54.2002 71.4137 53.7113 71.9029C53.2223 72.392 52.6417 72.7798 52.0026 73.0441C51.3635 73.3084 50.6785 73.4439 49.9869 73.4428V73.4428Z" fill="#F7B923"/>
</svg>
