<svg width="24" height="24" viewBox="0 0 24 24" fill="none" xmlns="http://www.w3.org/2000/svg">
<path d="M16.254 7.74653C15.1746 6.66716 13.6508 5.96875 12 5.96875C10.3492 5.96875 8.8254 6.63542 7.74604 7.74653C6.66667 8.82589 5.96826 10.3497 5.96826 12.0005C5.96826 13.6513 6.66667 15.1751 7.74604 16.2545C8.8254 17.3338 10.3492 18.0322 12 18.0322C13.6508 18.0322 15.1746 17.3656 16.254 16.2545C17.3333 15.1751 18.0318 13.6513 18.0318 12.0005C18.0318 10.3497 17.3651 8.82589 16.254 7.74653Z" fill="#F7B923"/>
<path d="M12 4.09524C12.4444 4.09524 12.8254 3.71429 12.8254 3.26984V0.825397C12.8254 0.380952 12.4444 0 12 0C11.5555 0 11.1746 0.380952 11.1746 0.825397V3.26984C11.1746 3.71429 11.5555 4.09524 12 4.09524Z" fill="#F7B923"/>
<path d="M18.7618 6.41214L20.5078 4.66611C20.8253 4.34865 20.8253 3.84071 20.5078 3.52325C20.1904 3.20579 19.6824 3.20579 19.365 3.52325L17.619 5.26928C17.3015 5.58674 17.3015 6.09468 17.619 6.41214C17.9047 6.7296 18.4126 6.7296 18.7618 6.41214Z" fill="#F7B923"/>
<path d="M23.1746 11.1738H20.7302C20.2857 11.1738 19.9048 11.5548 19.9048 11.9992C19.9048 12.4437 20.2857 12.8246 20.7302 12.8246H23.1746C23.6191 12.8246 24 12.4437 24 11.9992C24 11.5548 23.6191 11.1738 23.1746 11.1738Z" fill="#F7B923"/>
<path d="M18.7301 17.5877C18.4126 17.2702 17.9047 17.2702 17.5872 17.5877C17.2698 17.9052 17.2698 18.4131 17.5872 18.7306L19.3332 20.4766C19.6507 20.7941 20.1586 20.7941 20.4761 20.4766C20.7936 20.1591 20.7936 19.6512 20.4761 19.3337L18.7301 17.5877Z" fill="#F7B923"/>
<path d="M12 19.9043C11.5555 19.9043 11.1746 20.2852 11.1746 20.7297V23.1741C11.1746 23.6186 11.5555 23.9995 12 23.9995C12.4444 23.9995 12.8254 23.6186 12.8254 23.1741V20.7297C12.8254 20.2852 12.4444 19.9043 12 19.9043Z" fill="#F7B923"/>
<path d="M5.23803 17.5877L3.492 19.3337C3.17454 19.6512 3.17454 20.1591 3.492 20.4766C3.80946 20.7941 4.3174 20.7941 4.63486 20.4766L6.38089 18.7306C6.69835 18.4131 6.69835 17.9052 6.38089 17.5877C6.09518 17.2702 5.58724 17.2702 5.23803 17.5877Z" fill="#F7B923"/>
<path d="M4.09524 11.9992C4.09524 11.5548 3.71429 11.1738 3.26984 11.1738H0.825397C0.380952 11.1738 0 11.5548 0 11.9992C0 12.4437 0.380952 12.8246 0.825397 12.8246H3.26984C3.71429 12.8246 4.09524 12.4437 4.09524 11.9992Z" fill="#F7B923"/>
<path d="M5.23803 6.41214C5.55549 6.7296 6.06343 6.7296 6.38089 6.41214C6.69835 6.09468 6.69835 5.58674 6.38089 5.26928L4.63486 3.52325C4.3174 3.20579 3.80946 3.20579 3.492 3.52325C3.17454 3.84071 3.17454 4.34865 3.492 4.66611L5.23803 6.41214Z" fill="#F7B923"/>
</svg>
