<svg width="44" height="44" viewBox="0 0 44 44" fill="none" xmlns="http://www.w3.org/2000/svg">
<g filter="url(#filter0_d_14368_5267)">
<circle cx="22" cy="21" r="18" fill="#52C41A"/>
<path d="M22 9C15.3835 9 10 14.3835 10 21C10 27.6165 15.3835 33 22 33C28.6165 33 34 27.6165 34 21C34 14.3835 28.6165 9 22 9ZM28.7068 17.8421L21.0376 25.4511C20.5865 25.9023 19.8647 25.9323 19.3835 25.4812L15.3233 21.782C14.8421 21.3308 14.812 20.5789 15.2331 20.0977C15.6842 19.6165 16.4361 19.5865 16.9173 20.0376L20.1353 22.985L26.9925 16.1278C27.4737 15.6466 28.2256 15.6466 28.7068 16.1278C29.188 16.609 29.188 17.3609 28.7068 17.8421Z" fill="#FCFCFC"/>
</g>
<defs>
<filter id="filter0_d_14368_5267" x="0" y="0" width="44" height="44" filterUnits="userSpaceOnUse" color-interpolation-filters="sRGB">
<feFlood flood-opacity="0" result="BackgroundImageFix"/>
<feColorMatrix in="SourceAlpha" type="matrix" values="0 0 0 0 0 0 0 0 0 0 0 0 0 0 0 0 0 0 127 0" result="hardAlpha"/>
<feOffset dy="1"/>
<feGaussianBlur stdDeviation="2"/>
<feComposite in2="hardAlpha" operator="out"/>
<feColorMatrix type="matrix" values="0 0 0 0 0.321569 0 0 0 0 0.768627 0 0 0 0 0.101961 0 0 0 1 0"/>
<feBlend mode="normal" in2="BackgroundImageFix" result="effect1_dropShadow_14368_5267"/>
<feBlend mode="normal" in="SourceGraphic" in2="effect1_dropShadow_14368_5267" result="shape"/>
</filter>
</defs>
</svg>
