<svg width="18" height="18" viewBox="0 0 18 18" fill="none" xmlns="http://www.w3.org/2000/svg">
<path d="M16.3259 9.57997C15.9337 9.57997 15.6158 9.26206 15.6158 8.86991C15.6158 8.47775 15.9337 8.15984 16.3259 8.15984H17.1818C16.7798 4.21878 13.5836 1.09236 9.61184 0.798828V1.54391C9.61184 1.93606 9.29394 2.25397 8.90178 2.25397C8.50962 2.25397 8.19172 1.93606 8.19172 1.54391V0.815797C4.27878 1.19923 1.16192 4.3362 0.809279 8.25795H1.57578C1.96794 8.25795 2.28584 8.57586 2.28584 8.96802C2.28584 9.36017 1.96794 9.67808 1.57578 9.67808H0.803467C1.12995 13.663 4.3093 16.8521 8.28987 17.1941V16.294C8.28987 15.9018 8.60778 15.5839 8.99994 15.5839C9.39209 15.5839 9.71 15.9018 9.71 16.294V17.1941C13.7232 16.8493 16.9219 13.6105 17.2038 9.57997H16.3259ZM11.8743 7.13037L9.50206 9.50267C9.36889 9.63584 9.18833 9.71066 8.99998 9.71066C8.81169 9.71066 8.63103 9.63584 8.4979 9.50267L4.36855 5.37331C4.09123 5.09605 4.09123 4.64647 4.36855 4.36916C4.64581 4.09184 5.09539 4.09184 5.3727 4.36916L9.00003 7.99644L10.8702 6.12622C11.1475 5.84891 11.5971 5.84891 11.8744 6.12622C12.1516 6.40348 12.1516 6.85311 11.8743 7.13037Z" fill="#65CDF0"/>
</svg>
