<svg width="14" height="14" viewBox="0 0 14 14" fill="none" xmlns="http://www.w3.org/2000/svg">
<path d="M1.02515 7.25248C1.20463 6.71524 1.80386 6.42965 2.35677 6.60496L3.67102 7.03193L4.54815 4.48709L3.2339 4.06013C2.68099 3.88482 2.39151 3.30233 2.56809 2.76226C2.74757 2.22502 3.3468 1.93943 3.89971 2.11474L5.21397 2.54171L5.66845 1.21274C5.84793 0.675501 6.44716 0.389915 7.00007 0.565225C7.55298 0.740536 7.84247 1.32302 7.66588 1.86309L7.2114 3.19206L9.91516 4.07427L10.3696 2.7453C10.5491 2.20806 11.1484 1.92247 11.7013 2.09778C12.2542 2.27309 12.5437 2.85557 12.3671 3.39564L11.9126 4.72461L13.2239 5.14875C13.7769 5.32406 14.0663 5.90654 13.8898 6.44661C13.745 6.85661 13.3368 7.12524 12.9171 7.1422C12.7202 7.17048 12.5697 7.09696 11.2468 6.66717L10.3696 9.212L11.6839 9.63896C12.2339 9.81427 12.5263 10.3996 12.3497 10.9368C12.205 11.3468 11.7968 11.6154 11.377 11.6324C11.1802 11.6607 11.0297 11.5872 9.70673 11.1574L9.25225 12.4863C9.08145 12.9642 8.53723 13.3063 7.92063 13.1339C7.36772 12.9586 7.07823 12.3761 7.25482 11.836L7.7093 10.507L4.99975 9.622L4.54526 10.951C4.37446 11.4288 3.83024 11.771 3.21364 11.5985C2.66073 11.4232 2.37125 10.8407 2.54783 10.3006L3.00232 8.97165L1.68807 8.54469C1.13805 8.37503 0.845673 7.78972 1.02515 7.25248ZM8.3809 8.5871L9.25804 6.03661L6.55137 5.15158L5.67424 7.70206L8.3809 8.5871Z" fill="#626568"/>
</svg>
