<svg width="22" height="22" viewBox="0 0 22 22" fill="none" xmlns="http://www.w3.org/2000/svg">
<path d="M10.5929 0.792969C4.81023 0.792969 0.125 5.4782 0.125 11.2609C0.125 17.0435 4.81023 21.7288 10.5929 21.7288C16.3756 21.7288 21.0608 17.0435 21.0608 11.2609C21.0608 5.4782 16.3756 0.792969 10.5929 0.792969ZM13.9696 7.88413C14.7167 7.88413 15.3203 8.48772 15.3203 9.23482C15.3203 9.98193 14.7167 10.5855 13.9696 10.5855C13.2225 10.5855 12.6189 9.98193 12.6189 9.23482C12.6189 8.48772 13.2225 7.88413 13.9696 7.88413ZM7.21616 7.88413C7.96326 7.88413 8.56685 8.48772 8.56685 9.23482C8.56685 9.98193 7.96326 10.5855 7.21616 10.5855C6.46905 10.5855 5.86546 9.98193 5.86546 9.23482C5.86546 8.48772 6.46905 7.88413 7.21616 7.88413ZM15.4385 15.0681C14.2356 16.5117 12.4712 17.339 10.5929 17.339C8.71459 17.339 6.95024 16.5117 5.74727 15.0681C5.17323 14.3801 6.21158 13.5191 6.78562 14.2029C7.73111 15.3383 9.11557 15.9841 10.5929 15.9841C12.0702 15.9841 13.4547 15.3341 14.4002 14.2029C14.9658 13.5191 16.0083 14.3801 15.4385 15.0681Z" fill="#A0A3BD"/>
</svg>
