<svg width="24" height="24" viewBox="0 0 24 24" fill="none" xmlns="http://www.w3.org/2000/svg">
<path d="M10.8195 5.98533H13.1842V13.1906H10.8195V5.98533ZM10.8195 18.0342H13.1842V15.5924H10.8195V18.0342ZM16.8809 15.6323L19.3935 18.1461C19.2015 18.3743 18.9933 18.5946 18.7815 18.8146V18.8149C17.0113 20.6575 14.5584 21.6861 12.004 21.6568C9.44509 21.6817 6.99023 20.6455 5.22224 18.7948C3.37609 17.017 2.34771 14.5534 2.38172 11.9899C2.38506 11.6084 2.40907 11.2279 2.45372 10.8489H0.053012C0.0209173 11.2253 0.00110358 11.6014 0.00110358 11.9899C-0.0429918 15.1806 1.23604 18.247 3.53372 20.4604C5.74709 22.7601 8.81317 24.0412 12.0036 23.999C15.1887 24.0375 18.2486 22.757 20.4577 20.4604C20.6737 20.2443 20.8579 20.024 21.0739 19.8L21.1258 19.852L23.6822 22.3979L23.6582 15.5927L16.8809 15.6323ZM7.1265 8.46702L4.5779 5.92107C4.78051 5.68093 4.99681 5.44471 5.22593 5.21268C6.99863 3.37482 9.451 2.35092 12.0037 2.38273C14.5582 2.35342 17.0111 3.38204 18.7813 5.22468C20.629 7.00164 21.6578 9.46581 21.6218 12.0296C21.619 12.4311 21.5922 12.8321 21.542 13.2306H23.9427C23.9787 12.8302 23.9988 12.4301 23.9988 12.0296H23.9985C24.0504 8.82412 22.7677 5.74121 20.4577 3.51979C18.2423 1.22767 15.1783 -0.045912 11.9915 0.00126562C8.80771 -0.0428519 5.74727 1.23039 3.53304 3.51979C3.30503 3.74791 3.08902 3.98413 2.88082 4.22427L0.320508 1.66238L0.360416 8.46732L7.1265 8.46702Z" fill="#F7B923"/>
</svg>
