<svg width="107" height="106" viewBox="0 0 107 106" fill="none" xmlns="http://www.w3.org/2000/svg">
<path d="M47.8018 26.4306H58.2493V58.2484H47.8018V26.4306ZM47.8018 79.6371H58.2493V68.8544H47.8018V79.6371ZM74.5818 69.0305L85.6827 80.1314C84.8344 81.1388 83.9145 82.1116 82.9787 83.0833V83.0845C75.1577 91.2211 64.3207 95.7637 53.0349 95.6342C41.7294 95.744 30.8836 91.1684 23.0724 82.9958C14.9159 75.1452 10.3724 64.2662 10.5227 52.9459C10.5375 51.2616 10.6435 49.5811 10.8408 47.9078H0.234213C0.092415 49.5699 0.00487573 51.2307 0.00487573 52.9459C-0.189942 67.0357 5.46094 80.5766 15.6124 90.3508C25.3913 100.506 38.9375 106.163 53.033 105.977C67.1055 106.147 80.6243 100.492 90.3843 90.3508C91.3387 89.3965 92.1525 88.4236 93.1068 87.4347L93.3362 87.6641L104.631 98.9067L104.525 68.8556L74.5818 69.0305ZM31.4857 37.3894L20.2257 26.1468C21.1208 25.0864 22.0764 24.0433 23.0887 23.0186C30.9207 14.9028 41.7555 10.3814 53.0338 10.5219C64.3197 10.3924 75.1567 14.9347 82.9776 23.0716C91.1414 30.9185 95.6865 41.8 95.5274 53.1215C95.5151 54.8946 95.3967 56.6654 95.1747 58.4248H105.781C105.94 56.6566 106.029 54.8898 106.029 53.1215H106.028C106.257 38.9664 100.59 25.3526 90.3845 15.543C80.5967 5.42125 67.0593 -0.202742 52.9795 0.00558883C38.9134 -0.189229 25.3921 5.43325 15.6094 15.543C14.602 16.5504 13.6476 17.5935 12.7278 18.6539L1.41604 7.3409L1.59236 37.3908L31.4857 37.3894Z" fill="#F7B923"/>
</svg>
