<svg width="12" height="22" viewBox="0 0 12 22" fill="none" xmlns="http://www.w3.org/2000/svg">
<path d="M9.77911 5.50813V16.353C9.77911 18.4371 8.09109 20.1251 6.00699 20.1251C3.92289 20.1251 2.23486 18.4371 2.23486 16.353V4.5651C2.23486 3.26371 3.29106 2.20752 4.59244 2.20752C5.89382 2.20752 6.95002 3.26371 6.95002 4.5651V14.4669C6.95002 14.9856 6.52565 15.41 6.00699 15.41C5.48832 15.41 5.06395 14.9856 5.06395 14.4669V5.50813H3.64941V14.4669C3.64941 15.7683 4.7056 16.8245 6.00699 16.8245C7.30837 16.8245 8.36457 15.7683 8.36457 14.4669V4.5651C8.36457 2.481 6.67654 0.792969 4.59244 0.792969C2.50834 0.792969 0.820312 2.481 0.820312 4.5651V16.353C0.820312 19.2198 3.14017 21.5397 6.00699 21.5397C8.8738 21.5397 11.1937 19.2198 11.1937 16.353V5.50813H9.77911Z" fill="#F7B923"/>
</svg>
